<svg xmlns="http://www.w3.org/2000/svg" viewBox="0 0 64 64" fill="rgb(26, 170, 226)">
  <path
    d="M22.37 46H7c-1.65 0-3-1.35-3-3V8c0-1.65 1.35-3 3-3h36c1.65 0 3 1.35 3 3v13.21c0 .55.45 1 1 1s1-.45 1-1V8c0-2.76-2.24-5-5-5H7C4.24 3 2 5.24 2 8v35c0 2.76 2.24 5 5 5h15.37c.55 0 1-.45 1-1s-.45-1-1-1z" />
  <path
    d="M44 25c-9.93 0-18 8.07-18 18s8.07 18 18 18 18-8.07 18-18-8.07-18-18-18zm0 34c-8.82 0-16-7.18-16-16s7.18-16 16-16 16 7.18 16 16-7.18 16-16 16z" />
  <path
    d="M56 44c.55 0 1-.45 1-1s-.45-1-1-1h-2v-4h2c.55 0 1-.45 1-1s-.45-1-1-1h-2v-2c0-.55-.45-1-1-1h-2v-2c0-.55-.45-1-1-1s-1 .45-1 1v2h-4v-2c0-.55-.45-1-1-1s-1 .45-1 1v2h-4v-2c0-.55-.45-1-1-1s-1 .45-1 1v2h-2c-.55 0-1 .45-1 1v2h-2c-.55 0-1 .45-1 1s.45 1 1 1h2v4h-2c-.55 0-1 .45-1 1s.45 1 1 1h2v4h-2c-.55 0-1 .45-1 1s.45 1 1 1h2v2c0 .55.45 1 1 1h2v2c0 .55.45 1 1 1s1-.45 1-1v-2h4v2c0 .55.45 1 1 1s1-.45 1-1v-2h4v2c0 .55.45 1 1 1s1-.45 1-1v-2h2c.55 0 1-.45 1-1v-2h2c.55 0 1-.45 1-1s-.45-1-1-1h-2v-4zm-4 7H36V35h16z" />
  <path
    d="M38.65 47.94c.52.19 1.09-.07 1.29-.59l.51-1.35h3.11l.51 1.35c.15.4.53.65.94.65.12 0 .24-.02.35-.06.52-.19.78-.77.59-1.29l-3-8c-.15-.39-.52-.65-.94-.65s-.79.26-.94.65l-3 8c-.19.52.07 1.09.59 1.29zM42 41.85l.81 2.15H41.2l.81-2.15zM48 48c.55 0 1-.45 1-1v-8c0-.55-.45-1-1-1s-1 .45-1 1v8c0 .55.45 1 1 1zM28 26c0-.28-.05-.55-.13-.82.98-1.46 1.65-3.62 2.34-5.91.49-1.63 1-3.3 1.6-4.52a2.939 2.939 0 0 0 3.12-.48c.71 1.24 1.29 3.15 1.86 5.02.28.92.56 1.84.85 2.7.14.41.53.67.94.67.11 0 .22-.02.33-.06.52-.18.8-.75.62-1.27-.29-.83-.56-1.73-.83-2.62-.78-2.57-1.52-5.01-2.73-6.44 0-.09.03-.19.03-.28 0-1.65-1.35-3-3-3s-3 1.35-3 3c0 .47.12.91.31 1.31-.82 1.45-1.43 3.45-2.01 5.39-.53 1.74-1.07 3.52-1.72 4.76-.46-.29-1-.46-1.58-.46s-1.12.17-1.57.46c-.65-1.24-1.19-3.02-1.72-4.76-.78-2.57-1.53-4.99-2.73-6.42 0-.09.03-.19.03-.28 0-1.65-1.35-3-3-3s-3 1.35-3 3c0 .47.12.91.31 1.3-.82 1.45-1.43 3.45-2.02 5.4-.85 2.81-1.91 6.3-3.29 6.3-.55 0-1 .45-1 1s.45 1 1 1c2.87 0 4.06-3.92 5.21-7.72.5-1.63 1.01-3.3 1.61-4.53a2.939 2.939 0 0 0 3.12-.48c.71 1.23 1.29 3.14 1.86 5.01.69 2.28 1.36 4.44 2.34 5.9-.07.26-.13.53-.13.82 0 1.65 1.35 3 3 3s3-1.35 3-3zm5-15c.55 0 1 .45 1 1s-.45 1-1 1-1-.45-1-1 .45-1 1-1zm-17 2c-.55 0-1-.45-1-1s.45-1 1-1 1 .45 1 1-.45 1-1 1zm9 14c-.55 0-1-.45-1-1s.45-1 1-1 1 .45 1 1-.45 1-1 1zm-5 3H8c-.55 0-1 .45-1 1s.45 1 1 1h12c.55 0 1-.45 1-1s-.45-1-1-1zm0 5H8c-.55 0-1 .45-1 1s.45 1 1 1h12c.55 0 1-.45 1-1s-.45-1-1-1zm0 5H8c-.55 0-1 .45-1 1s.45 1 1 1h12c.55 0 1-.45 1-1s-.45-1-1-1z" />
</svg>