<svg xmlns="http://www.w3.org/2000/svg" clip-rule="evenodd" fill-rule="evenodd"
  stroke-linejoin="round" stroke-miterlimit="2"
  viewBox="0 0 510 510" fill="rgb(26, 170, 226)">
  <path
    d="M223.199 319.404c-20.424 6.319-52.325 5.485-70.036-2.335-10.377-4.582-16.201-11.73-16.201-20 0-27.574 20.533-50.358 47.141-53.893-12.463-3.208-21.668-14.519-21.668-27.985 0-15.954 12.933-28.889 28.896-28.889 15.954 0 28.889 12.935 28.889 28.889 0 13.467-9.206 24.777-21.664 27.985a54.063 54.063 0 0 1 24.61 9.818 54.071 54.071 0 0 1 24.61-9.818c-12.463-3.208-21.668-14.519-21.668-27.985 0-15.954 12.933-28.889 28.896-28.889 15.954 0 28.888 12.935 28.888 28.889 0 13.467-9.205 24.777-21.663 27.985a54.072 54.072 0 0 1 24.61 9.817 54.077 54.077 0 0 1 24.61-9.817c-12.463-3.208-21.669-14.519-21.669-27.985 0-15.954 12.933-28.889 28.896-28.889 15.954 0 28.889 12.935 28.889 28.889 0 13.467-9.206 24.777-21.663 27.985 26.608 3.534 47.136 26.318 47.136 53.893 0 8.27-5.824 15.418-16.201 20-17.711 7.82-49.612 8.654-70.036 2.335-9.13 2.81-20.457 4.284-31.801 4.284s-22.671-1.474-31.801-4.284zm80.581-104.213c0 8.229 6.668 14.896 14.896 14.896 8.223 0 14.889-6.668 14.889-14.896 0-8.223-6.666-14.889-14.889-14.889-8.228 0-14.896 6.666-14.896 14.889zm-63.672 0c0 8.229 6.667 14.896 14.896 14.896 8.223 0 14.888-6.668 14.888-14.896 0-8.223-6.666-14.889-14.888-14.889-8.228 0-14.896 6.666-14.896 14.889zm57.142 47.659a54.15 54.15 0 0 1 12.116 34.219c0 4.336-1.567 8.347-4.547 11.839 13.023 1.599 27.861.85 39.268-2.206 4.872-1.306 9.084-2.994 12.035-5.257 1.64-1.257 2.916-2.587 2.916-4.376 0-22.293-18.069-40.369-40.362-40.369a40.175 40.175 0 0 0-21.426 6.15zm-1.884 34.219c0-22.293-18.07-40.369-40.362-40.369-22.293 0-40.37 18.076-40.37 40.369 0 2.877 2.736 4.614 6.071 6.34 8.306 4.3 21.316 6.279 34.295 6.279s25.989-1.979 34.295-6.279c3.335-1.726 6.071-3.463 6.071-6.34zm-82.612-34.22a40.17 40.17 0 0 0-21.423-6.149c-22.293 0-40.369 18.076-40.369 40.369 0 1.789 1.276 3.119 2.916 4.376 2.951 2.263 7.163 3.951 12.035 5.257 11.407 3.056 26.245 3.805 39.268 2.206-2.98-3.492-4.547-7.503-4.547-11.839a54.14 54.14 0 0 1 12.12-34.22zm-36.319-47.658c0 8.229 6.667 14.896 14.896 14.896 8.223 0 14.889-6.668 14.889-14.896 0-8.223-6.667-14.889-14.889-14.889-8.228 0-14.896 6.666-14.896 14.889zm212.516-46.294c-.225.259-.461.513-.709.763l-.008.008c-2.709 2.709-6.017 4.092-9.845 4.096h-.018l-17.642.045c-7.672.018-13.967-6.225-13.985-13.908-.081-23.933-.171-47.867-.252-71.812v-.012c0-3.841 1.356-7.14 4.062-9.864 2.71-2.728 5.997-4.104 9.855-4.122l17.641-.036a13.829 13.829 0 0 1 5.505 1.109c1.576-2.554 3.323-5.102 5.055-7.534 3.134-4.398 6.392-8.153 6.974-10.547l7.769-31.988c2.899-11.965 15.06-19.377 27.025-16.467 11.952 2.898 19.351 15.039 16.471 26.992l-7.731 32.786c1.74.034 4.325.075 7.369.096l37.794-.054c.208 0 .416.009.623.027 6.332.557 10.433 2.931 13.096 6.081 2.674 3.164 4.021 7.362 4 12.389v.01c-.03 5.294-2.318 10.508-6.538 14.037 1.22 2.534 1.86 5.521 1.841 8.936-.027 5.992-2.875 11.71-8.666 15.139a17.491 17.491 0 0 1 1.797 7.846c-.027 5.964-2.851 11.641-8.529 15.074 1.195 2.271 1.962 4.903 1.949 7.909v.01c-.058 10.086-8.539 18.353-18.394 18.569l-.136.001-64.101.163h-.018c-4.929 0-9.35-2.273-12.254-5.742zm-28.459-80.806c.081 23.905.171 47.81.252 71.718l17.559-.045-.243-71.709-17.568.036zm31.572.965.215 63.544c3.192 1.114 5.772 3.541 7.141 6.866l.005.012c.28.682.979 1.159 1.777 1.161l64.026-.163c2.461-.094 4.608-2.12 4.626-4.644.005-1.511-.972-2.53-1.864-3.323-1.053-.935-2.195-1.6-3.039-2.068a7.002 7.002 0 0 1-3.381-7.888 7.002 7.002 0 0 1 6.8-5.235c4.736.018 8.051-1.392 8.064-4.469v-.01c.017-2.852-2.58-4.444-4.006-5.025a7 7 0 0 1 2.667-13.482c4.842.017 8.195-1.369 8.208-4.47v-.01c.015-2.583-1.517-4.148-3.916-4.663a7 7 0 0 1 2.057-13.819c3.833.323 6.539-1.728 6.556-4.493.005-1.295-.003-2.467-.692-3.283-.66-.78-1.805-.999-3.331-1.145l-37.501.053h-.058c-6.825-.047-9.958-.037-11.734-.301-2.874-.429-4.258-1.269-5.881-2.731l-.002-.001c-3.501-3.153-4.888-7.618-3.805-12.172l8.23-34.903a.541.541 0 0 1 .01-.043c1.085-4.478-1.68-9.032-6.159-10.118l-.007-.001c-4.476-1.09-9.026 1.684-10.111 6.16l-7.771 31.996c-.692 2.847-3.412 7.305-6.956 12.264-3.664 5.129-8.326 11.114-10.168 16.404zm-41.621 378.528c3.523-1.586 7.671-.013 9.257 3.51s.013 7.671-3.51 9.256c-30.889 13.905-65.143 21.645-101.19 21.645-22.828 0-44.937-3.105-65.927-8.913a7.003 7.003 0 0 1-4.88-8.613 7.004 7.004 0 0 1 8.613-4.88c19.802 5.479 40.659 8.406 62.194 8.406 34 0 66.309-7.296 95.443-20.411zM43.857 353.588a7.004 7.004 0 0 1-3.371 9.308 7.004 7.004 0 0 1-9.308-3.372C16.31 327.772 8 292.346 8 254.995c0-38.007 8.605-74.021 23.968-106.199a7.001 7.001 0 0 1 9.332-3.301 7.003 7.003 0 0 1 3.302 9.333C30.112 185.178 22 219.147 22 254.995c0 35.23 7.834 68.644 21.857 98.593zm433.583-168.1a7.004 7.004 0 0 1 4.593-8.769 7.003 7.003 0 0 1 8.77 4.593C498.078 204.586 502 229.336 502 254.995c0 23.434-3.272 46.11-9.381 67.596a7.002 7.002 0 0 1-8.647 4.818 7.003 7.003 0 0 1-4.819-8.647c5.763-20.269 8.847-41.661 8.847-63.767 0-24.204-3.697-47.551-10.56-69.507zM159.589 42.391a7.003 7.003 0 0 1-9.256-3.511 7.003 7.003 0 0 1 3.512-9.256C184.725 15.73 218.966 7.995 255 7.995c47.154 0 91.24 13.244 128.739 36.208a7.004 7.004 0 0 1 2.314 9.625 7.004 7.004 0 0 1-9.626 2.314C341.058 34.482 299.476 21.995 255 21.995c-33.987 0-66.285 7.291-95.411 20.396zm255.814 325.514c9.746-13.697 20.957-20.466 39.799-20.466 26.044 0 46.798 19.285 46.798 42.521 0 15.169-6.407 30.423-17.082 45.592-14.894 21.162-38.199 42.373-61.895 63.525a11.39 11.39 0 0 1-15.242.005c-23.702-21.157-47.007-42.368-61.901-63.53-10.675-15.169-17.082-30.423-17.082-45.592 0-23.236 20.754-42.521 46.798-42.521 18.842 0 30.052 6.768 39.807 20.466zm-.004 119.211c22.262-19.886 44.07-39.729 58.07-59.622C482.294 414.954 488 402.5 488 389.96c0-15.972-14.895-28.521-32.798-28.521-14.623 0-22.782 5.824-30.204 17.253l-.008.011c-2.178 3.34-5.617 5.198-9.586 5.198-4.005 0-7.446-1.879-9.592-5.207-7.431-11.43-15.591-17.255-30.216-17.255-17.902 0-32.798 12.549-32.798 28.521 0 12.54 5.706 24.994 14.531 37.534 14 19.893 35.808 39.736 58.07 59.622zM58.822 476.4l-17.763 22.887a7 7 0 0 1-12.53-4.292V476.4h-2.371C16.161 476.4 8 468.239 8 458.242v-65.661c0-9.997 8.161-18.158 18.158-18.158h119.193c9.997 0 18.157 8.161 18.157 18.158v65.661c0 9.997-8.16 18.158-18.157 18.158zm-3.428-14h89.957a4.167 4.167 0 0 0 4.157-4.158v-65.661a4.167 4.167 0 0 0-4.157-4.158H26.158A4.168 4.168 0 0 0 22 392.581v65.661a4.168 4.168 0 0 0 4.158 4.158h9.371a7 7 0 0 1 7 7v5.159l7.335-9.451a6.998 6.998 0 0 1 5.53-2.708zm-5.047-45.253c3.958 0 7.172 3.214 7.172 7.172s-3.214 7.172-7.172 7.172-7.171-3.214-7.171-7.172 3.213-7.172 7.171-7.172zm35.407 0c3.958 0 7.172 3.214 7.172 7.172s-3.214 7.172-7.172 7.172-7.171-3.214-7.171-7.172 3.213-7.172 7.171-7.172zm35.407 0c3.958 0 7.172 3.214 7.172 7.172s-3.214 7.172-7.172 7.172-7.172-3.214-7.172-7.172 3.214-7.172 7.172-7.172zM76.815 7.995c37.98 0 68.815 30.835 68.815 68.815s-30.835 68.816-68.815 68.816S8 114.79 8 76.81 38.835 7.995 76.815 7.995zm0 14C46.562 21.995 22 46.557 22 76.81c0 30.254 24.562 54.816 54.815 54.816 30.254 0 54.815-24.562 54.815-54.816 0-30.253-24.561-54.815-54.815-54.815zm-19.78 47.74-2.622.081a7.006 7.006 0 0 1-8.632 3.358 7.003 7.003 0 0 1-4.159-8.983c1.9-5.176 7.852-8.665 14.204-8.7 6.585-.036 12.524 3.592 14.175 9.103a7.003 7.003 0 0 1-4.696 8.714 7.006 7.006 0 0 1-8.27-3.573zm41.746 0-2.623.081a7.005 7.005 0 0 1-8.631 3.358 7.002 7.002 0 0 1-4.159-8.983c1.899-5.176 7.852-8.665 14.204-8.7 6.584-.036 12.524 3.592 14.175 9.103a7.003 7.003 0 0 1-4.696 8.714 7.006 7.006 0 0 1-8.27-3.573zm-49.537 29.57a7.004 7.004 0 0 1 5.693-8.099 7.003 7.003 0 0 1 8.099 5.692c1.165 6.673 7.408 9.752 13.471 9.796 6.181.044 12.636-3.086 14.14-10.067a7.004 7.004 0 0 1 8.318-5.368 7.003 7.003 0 0 1 5.368 8.317c-3.034 14.081-15.461 21.208-27.927 21.117-12.585-.091-24.744-7.539-27.162-21.388z" />
</svg>