<svg fill="none" height="342" width="333" xmlns="http://www.w3.org/2000/svg"><g fill="#16a9e1"><path d="m166.897 342h-.798v-86.067l-11.566-11.573a.4.4 0 0 1 -.116-.282v-30.692a.4.4 0 0 1 .116-.282l11.566-11.574v-58.295h.798v58.461a.399.399 0 0 1 -.116.281l-11.566 11.574v30.362l11.566 11.574a.397.397 0 0 1 .116.281z"/><path d="m165.438 342h-.798v-84.603l-11.57-11.577a.403.403 0 0 1 -.116-.281v-33.617c0-.106.043-.208.116-.282l11.57-11.573v-47.9l-2.806-2.805a.4.4 0 0 1 -.116-.282v-24.847c0-.105.042-.207.116-.281l4.381-4.385.563.563-4.266 4.269v24.516l2.803 2.805a.399.399 0 0 1 .116.281v48.231a.396.396 0 0 1 -.116.281l-11.566 11.574v33.286l11.566 11.577a.4.4 0 0 1 .116.282v84.768z"/><path d="m168.357 342h-.799v-190.002a.4.4 0 0 1 .117-.282l2.802-2.804v-47.9l-4.265-4.269.562-.563 4.382 4.385a.399.399 0 0 1 .116.281v48.231a.396.396 0 0 1 -.116.281l-2.803 2.805v189.834zm8.763 0h-.798v-140.308c0-.091.031-.179.088-.249l5.756-7.2v-11.388l-4.265-4.268.562-.563 4.382 4.384a.4.4 0 0 1 .116.282v11.693a.4.4 0 0 1 -.088.25l-5.753 7.2z"/><path d="m175.661 342h-.799v-149.077c0-.105.042-.208.116-.281l2.923-2.925.562.563-2.802 2.805z"/><path d="m178.583 342h-.798v-140.308c0-.091.031-.179.087-.25l5.753-7.199v-46.63c0-.127.06-.243.159-.32l5.682-4.265v-23.187c0-.105.043-.207.116-.281l11.57-11.574v-23.218c0-.106.042-.207.116-.281l11.566-11.574v-11.528h.798v11.693a.399.399 0 0 1 -.116.282l-11.569 11.573v23.219a.4.4 0 0 1 -.117.281l-11.565 11.574v23.218c0 .127-.06.243-.159.32l-5.682 4.265v46.57a.405.405 0 0 1 -.088.25l-5.757 7.2v140.167z"/><path d="m185.486 172.858a.403.403 0 0 1 -.398-.401v-13.154a.4.4 0 0 1 .116-.281l4.382-4.385.563.563-4.266 4.268v12.028l12.466-12.474a.4.4 0 0 1 .281-.117h10.058l4.265-4.268.563.563-4.382 4.385a.403.403 0 0 1 -.281.116h-10.057l-13.029 13.037a.394.394 0 0 1 -.281.117zm-21.11 169.142h-1.593v-82.977l-11.45-11.458a.8.8 0 0 1 -.232-.563v-28.901l-27.517-27.536a.783.783 0 0 1 -.232-.563v-100.519l-4.149-4.152 1.125-1.126 4.382 4.385a.786.786 0 0 1 .232.563v100.515l27.517 27.536a.803.803 0 0 1 .232.563v28.901l11.449 11.458a.783.783 0 0 1 .233.563v83.308z"/><path d="m162.516 342h-.798v-81.682l-18.87-18.883a.399.399 0 0 1 -.116-.281v-4.219l-34.937-34.961a.4.4 0 0 1 -.116-.282v-11.693a.4.4 0 0 1 .116-.282l11.566-11.573v-11.363l-11.566-11.578a.396.396 0 0 1 -.116-.281v-11.694c0-.105.042-.207.116-.281l11.566-11.574v-23.053l-11.566-11.573a.399.399 0 0 1 -.116-.282v-11.528l-11.57-11.574a.4.4 0 0 1 -.115-.281v-11.528l-11.566-11.574.563-.563 11.685 11.693a.4.4 0 0 1 .116.282v11.528l11.566 11.574a.4.4 0 0 1 .116.281v11.528l11.569 11.574a.4.4 0 0 1 .116.282v23.383a.4.4 0 0 1 -.116.282l-11.569 11.573v11.363l11.569 11.577a.4.4 0 0 1 .116.282v11.693a.4.4 0 0 1 -.116.282l-11.569 11.574v11.362l34.937 34.961a.404.404 0 0 1 .116.282v4.219l18.869 18.883a.399.399 0 0 1 .116.281v81.848z"/><path d="m143.129 235.707a.394.394 0 0 1 -.281-.117l-33.593-33.613a.399.399 0 0 1 -.116-.281v-11.694c0-.105.042-.207.116-.281l11.565-11.574v-11.363l-11.565-11.577a.4.4 0 0 1 -.116-.282v-11.693a.4.4 0 0 1 .116-.282l11.565-11.573v-23.053l-11.565-11.574a.399.399 0 0 1 -.116-.281v-11.529l-11.566-11.573a.4.4 0 0 1 -.116-.282v-11.528l-1.344-1.344a.4.4 0 0 1 -.116-.282v-21.923h.799v21.758l1.343 1.344a.4.4 0 0 1 .116.282v11.528l11.566 11.574a.4.4 0 0 1 .116.281v11.528l11.566 11.574a.4.4 0 0 1 .116.282v23.383a.4.4 0 0 1 -.116.282l-11.566 11.573v11.363l11.566 11.577a.4.4 0 0 1 .116.282v11.693a.4.4 0 0 1 -.116.282l-11.566 11.574v11.362l32.795 32.818v-20.797l-23.251-23.267.562-.563 23.368 23.383a.404.404 0 0 1 .116.282v21.923a.402.402 0 0 1 -.398.401v-.003z"/><path d="m120.043 143.514-.562-.564 2.802-2.808v-31.822l-11.565-11.573a.399.399 0 0 1 -.116-.282v-11.693a.4.4 0 0 1 .116-.282l11.565-11.574v-31.822l-2.802-2.804.562-.563 2.923 2.924a.403.403 0 0 1 .116.281v32.153a.403.403 0 0 1 -.116.282l-11.566 11.573v11.363l11.566 11.574a.404.404 0 0 1 .116.282v32.152a.404.404 0 0 1 -.116.282l-2.923 2.924zm34.772 58.576a.4.4 0 0 1 -.282-.116l-11.685-11.694.563-.563 11.404 11.412 3.984-3.987v-14.283l-4.266-4.269a.397.397 0 0 1 -.116-.281v-11.528l-11.566-11.578a.4.4 0 0 1 -.116-.281v-11.694h.799v11.529l11.565 11.577a.4.4 0 0 1 .117.281v11.529l4.265 4.268a.4.4 0 0 1 .116.282v14.614a.399.399 0 0 1 -.116.281l-4.382 4.385a.396.396 0 0 1 -.281.116z"/><path d="m143.129 178.706a.41.41 0 0 1 -.281-.116l-11.685-11.693.562-.563 11.003 11.011v-10.564l-11.565-11.578.562-.563 11.686 11.694a.403.403 0 0 1 .116.281v11.694a.402.402 0 0 1 -.398.401zm7.701 163.294h-.798v-69.985l-71.329-69.922h-52.413a.398.398 0 0 1 -.282-.116l-11.685-11.693.563-.563 11.569 11.574h52.413c.106 0 .204.042.278.112l71.565 70.154a.392.392 0 0 1 .119.285z"/><path d="m155.212 342h-.798v-74.373l-69.99-70.038a.4.4 0 0 1 -.116-.281v-18.834l-23.25-23.267a.4.4 0 0 1 -.117-.282v-23.218l-23.25-23.267.562-.563 23.367 23.384a.396.396 0 0 1 .116.281v23.218l23.251 23.267a.4.4 0 0 1 .116.282v18.833l69.989 70.038a.4.4 0 0 1 .117.282v74.538zm51.12 0h-.799v-77.459c0-.102.043-.204.113-.278l46.738-48.231a.398.398 0 0 1 .285-.12h15.901l37.859-37.881.563.563-37.975 38.001a.399.399 0 0 1 -.281.116h-15.895l-46.506 47.992v77.301z"/><path d="m199.028 342h-.798v-84.768a.4.4 0 0 1 .116-.282l8.647-8.653v-61.219c0-.105.042-.207.116-.281l17.41-17.423v-14.449c0-.105.042-.207.116-.281l58.304-58.344v-23.218h.798v23.383a.399.399 0 0 1 -.116.282l-58.304 58.344v14.449a.399.399 0 0 1 -.116.281l-17.41 17.423v61.219a.399.399 0 0 1 -.116.281l-8.647 8.653zm-39.034 0h-1.593v-78.603l-62.58-65.537a.802.802 0 0 1 -.221-.552v-18.668l-11.45-11.458a.805.805 0 0 1 -.232-.563v-34.746l-11.45-11.458a.8.8 0 0 1 -.232-.563v-23.053l-11.45-11.457a.8.8 0 0 1 -.232-.563v-11.694h1.593v11.363l11.45 11.458a.785.785 0 0 1 .232.563v23.056l11.45 11.457a.8.8 0 0 1 .232.564v34.746l11.45 11.457a.8.8 0 0 1 .232.563v18.679l62.583 65.537a.8.8 0 0 1 .222.552v78.924z"/><path d="m203.81 342h-1.593v-80.383c0-.208.081-.409.229-.556l33.442-34.236-.074-39.743c0-.211.084-.416.232-.567l23.135-23.151v-20.132c0-.211.085-.415.232-.563l46.503-46.535v-11.362h1.593v11.693a.802.802 0 0 1 -.232.563l-46.503 46.535v20.132a.799.799 0 0 1 -.232.563l-23.135 23.151.077 39.736c0 .208-.08.408-.228.559l-33.442 34.236v80.06z"/><path d="m193.187 342h-.798v-90.613a.4.4 0 0 1 .116-.282l8.647-8.653v-56.834a.4.4 0 0 1 .116-.282l11.566-11.574v-11.528c0-.105.042-.207.116-.281l11.566-11.574v-18.833a.4.4 0 0 1 .116-.282l11.565-11.574v-25.977l-11.565-11.573a.399.399 0 0 1 -.116-.281v-7.309c0-.106.042-.208.116-.281l23.251-23.269v-24.682h.798v24.848a.399.399 0 0 1 -.116.281l-23.251 23.267v6.978l11.566 11.574a.403.403 0 0 1 .116.282v26.308a.403.403 0 0 1 -.116.281l-11.566 11.574v18.833a.4.4 0 0 1 -.116.282l-11.566 11.574v11.528a.399.399 0 0 1 -.116.281l-11.569 11.574v56.835a.4.4 0 0 1 -.117.281l-8.647 8.653v90.452z"/><path d="m191.727 342h-.798v-92.077c0-.105.042-.208.116-.281l8.647-8.654v-56.834c0-.106.043-.208.116-.282l11.57-11.573v-10.065c0-.105.042-.207.116-.281l11.566-11.574v-20.297a.4.4 0 0 1 .116-.282l11.569-11.574v-23.052l-11.569-11.574a.399.399 0 0 1 -.116-.282v-10.23c0-.105.042-.207.116-.28l1.343-1.345v-45.155h.798v45.306a.4.4 0 0 1 -.116.282l-1.343 1.344v9.899l11.566 11.577a.399.399 0 0 1 .116.282v23.383a.4.4 0 0 1 -.116.282l-11.566 11.573v20.298a.399.399 0 0 1 -.116.281l-11.569 11.574v10.064a.4.4 0 0 1 -.117.282l-11.565 11.574v56.834a.404.404 0 0 1 -.116.282l-8.648 8.653z"/><path d="m184.691 342v-53.748l-2.715-2.96a.806.806 0 0 1 -.211-.538v-40.676a.79.79 0 0 1 .236-.563l7.068-7.073v-58.13c0-.211.084-.415.232-.563l11.685-11.693 1.126 1.126-11.45 11.458v58.129a.797.797 0 0 1 -.232.563l-7.068 7.073v40.036l2.714 2.959a.807.807 0 0 1 .211.538v54.059h-1.593zm51.914-157.448a.4.4 0 0 1 -.397-.402v-29.228h.798v28.268l21.11-21.125v-20.297c0-.105.042-.208.116-.281l36.396-36.422v-31.987h.798v32.153a.399.399 0 0 1 -.116.281l-36.396 36.421v20.298a.399.399 0 0 1 -.116.281l-21.908 21.923a.394.394 0 0 1 -.281.117zm-34.655 157.448h-.795v-81.847a.4.4 0 0 1 .116-.282l23.252-23.267v-58.295h.798v58.46a.4.4 0 0 1 -.116.282l-23.251 23.267v81.682z"/><path d="m271.939 120.127-.566-.564 11.685-11.693.563.567zm-23.652 23.503h-8.763a.402.402 0 0 1 -.369-.247.395.395 0 0 1 .088-.436l11.685-11.694a.403.403 0 0 1 .281-.116h8.764v.799h-8.598l-10.887 10.895h7.803v.799zm-93.472 0a.415.415 0 0 1 -.282-.117l-11.685-11.693.563-.563 11.003 11.011v-10.564l-11.566-11.574a.399.399 0 0 1 -.116-.281v-11.694c0-.106.042-.208.116-.281l23.251-23.268v-23.218a.4.4 0 0 1 .116-.281l23.251-23.268v-11.362l-11.565-11.578.562-.563 11.686 11.694a.403.403 0 0 1 .116.281v11.694a.403.403 0 0 1 -.116.281l-23.252 23.267v23.219a.399.399 0 0 1 -.116.281l-23.251 23.267v11.363l11.566 11.574a.399.399 0 0 1 .116.281v11.694a.402.402 0 0 1 -.397.401z"/><path d="m166.5 50.092a.41.41 0 0 1 -.281-.116l-23.368-23.383a.403.403 0 0 1 -.116-.282v-11.693h.799v11.528l22.572 22.588v-10.73h.798v11.694a.403.403 0 0 1 -.397.401zm-23.371 35.078a.395.395 0 0 1 -.281-.117l-11.685-11.693.562-.563 11.404 11.412 11.404-11.412.563.563-11.685 11.693a.399.399 0 0 1 -.282.116z"/><path d="m143.129 73.476a.41.41 0 0 1 -.281-.116l-11.685-11.694.562-.563 11.003 11.01v-10.563l-11.565-11.574.562-.563 11.686 11.694a.403.403 0 0 1 .116.281v11.694a.404.404 0 0 1 -.398.4zm-11.4 34.961-.563-.563 11.404-11.412-11.404-11.409.563-.563 11.685 11.694a.399.399 0 0 1 0 .563l-11.685 11.693zm22.804-58.464-35.052-35.077.562-.563 35.053 35.077zm.282-23.268a.404.404 0 0 1 -.398-.401v-23.38h.798v22.423l22.686-22.704.562.563-23.367 23.383a.395.395 0 0 1 -.281.116zm19.784 315.295h-1.593v-170.669l-4.15-4.153a.791.791 0 0 1 -.232-.566l.018-13.903a.79.79 0 0 1 .232-.56l8.58-8.635-.067-70.436c0-.211.085-.415.232-.563l34.276-34.345.063-12.049-10.968-10.94 1.125-1.126 11.299 11.229c.148.148.341.594.341.806l-.063 12.108c0 .211-.253.722-.405.87l-34.31 34.337.066 70.432a.804.804 0 0 1 -.232.563l-8.583 8.639-.018 13.246 4.149 4.148a.784.784 0 0 1 .233.564v171z"/><path d="m190.149 85.05-.563-.563 11.569-11.574v-11.528a.4.4 0 0 1 .116-.282l17.411-17.422v-23.053l-5.725-5.729.562-.563 5.841 5.845a.4.4 0 0 1 .116.282v23.383a.4.4 0 0 1 -.116.282l-17.41 17.422v11.528a.399.399 0 0 1 -.116.282l-11.685 11.693zm34.771 35.193a.414.414 0 0 1 -.281-.116l-11.686-11.694.563-.563 11.003 11.011v-22.258l-11.566-11.573.563-.563 11.685 11.693a.399.399 0 0 1 .116.282v23.383a.4.4 0 0 1 -.397.401zm-70.77 221.757h-1.593v-72.74l-80.089-78.688a.806.806 0 0 1 -.239-.57v-11.362l-11.217-11.226h-11.355a.797.797 0 0 1 -.563-.232l-35.053-35.077a.785.785 0 0 1 -.232-.563v-11.693h1.593v11.362l34.585 34.609h11.355c.211 0 .415.085.563.232l11.685 11.694a.785.785 0 0 1 .232.563v11.359l80.089 78.687a.81.81 0 0 1 .239.57v73.079z"/><path d="m61.342 178.707h-23.367a.4.4 0 0 1 -.281-.117l-35.054-35.077.563-.563 34.936 34.961h23.202v.799-.003zm90.951 163.293h-.798v-71.449l-84.474-83.075h-29.046a.391.391 0 0 1 -.24-.081l-11.685-8.769.479-.637 11.576 8.688h29.078a.39.39 0 0 1 .278.116l84.709 83.308c.078.074.12.176.12.285v71.614zm-143.53-157.449a.394.394 0 0 1 -.281-.116l-5.842-5.845.563-.563 5.56 5.564 11.118-11.131-5.56-5.563.563-.563 5.841 5.845a.4.4 0 0 1 0 .563l-11.684 11.693a.394.394 0 0 1 -.281.116zm243.906 21.924a.398.398 0 0 1 -.282-.117l-4.381-4.384.562-.563 4.101 4.103 11.119-11.127-4.1-4.103.562-.563 4.382 4.384a.399.399 0 0 1 0 .563l-11.685 11.694a.4.4 0 0 1 -.282.116z"/><path d="m204.872 342h-.794v-78.923c0-.106.042-.204.112-.278l43.703-45.19v-4.223a.4.4 0 0 1 .116-.282l69.824-69.872-11.4-11.412.562-.563 11.682 11.693a.399.399 0 0 1 0 .563l-69.989 70.038v4.219a.393.393 0 0 1 -.113.278l-43.703 45.191z"/><path d="m295.025 184.552a.4.4 0 0 1 -.401-.398v-5.845h.799v4.842l22.572-23.999v-4.227c0-.105.042-.207.116-.281l11.685-11.694.563.563-11.569 11.574v4.22c0 .102-.039.2-.109.274l-23.368 24.847a.402.402 0 0 1 -.291.127z"/><path d="m307.108 166.615h-.798v-7.308a.4.4 0 0 1 .116-.282l15.947-15.958v-18.672l-4.265-4.268.562-.564 4.382 4.385a.4.4 0 0 1 .116.282v18.998a.4.4 0 0 1 -.116.282l-15.948 15.958v7.144zm-46.854 11.972-.563-.563 34.937-34.961v-23.218h.798v23.383a.4.4 0 0 1 -.116.282l-35.053 35.077zm23.367-11.69-.563-.563 23.371-23.387.563.566z"/><path d="m271.939 155.203-.562-.563 11.569-11.573v-20.298c0-.105.042-.207.116-.281l11.685-11.694a.4.4 0 0 1 .282-.116h20.283l2.803-2.804.562.563-2.922 2.924a.399.399 0 0 1 -.281.116h-20.284l-11.449 11.458v20.297a.4.4 0 0 1 -.116.281l-11.686 11.694zm-181.385-40.805a.398.398 0 0 1 -.282-.116l-5.84-5.845.562-.563 5.162 5.165v-10.564l-5.724-5.728.562-.563 5.841 5.845a.398.398 0 0 1 .116.281v11.694a.403.403 0 0 1 -.397.401zm116.84 23.383a.394.394 0 0 1 -.282-.116l-5.841-5.845.563-.563 5.162 5.166v-10.564l-5.725-5.729.563-.563 5.841 5.845a.4.4 0 0 1 .116.282v11.693a.397.397 0 0 1 -.246.369.373.373 0 0 1 -.151.032zm-108.077 21.923a.411.411 0 0 1 -.281-.116l-11.686-11.693a.4.4 0 0 1 -.116-.282v-18.999a.4.4 0 0 1 .116-.281l20.45-20.463.562.563-20.329 20.343v18.668l10.888 10.895v-12.028l-2.806-2.805.562-.563 2.922 2.925a.4.4 0 0 1 .116.281v13.154a.402.402 0 0 1 -.397.401zm1.459 36.541a.38.38 0 0 1 -.151-.032.397.397 0 0 1 -.246-.369v-24.682l-4.266-4.269.563-.563 4.382 4.385a.4.4 0 0 1 .116.282v23.883l6.505-6.51v-10.065c0-.105.042-.207.116-.281l5.56-5.564-5.56-5.563.563-.563 5.841 5.845a.399.399 0 0 1 0 .563l-5.725 5.729v10.064a.396.396 0 0 1 -.116.281l-7.304 7.309a.393.393 0 0 1 -.281.116z"/><path d="m108.077 131.936h-11.686v-.799h11.285v-11.292h.798v11.694a.397.397 0 0 1 -.397.397zm58.423-73.074h-11.685a.4.4 0 0 1 -.282-.117l-42.237-42.265h-5.513l-10.107 10.113-.563-.563 10.223-10.23a.4.4 0 0 1 .281-.116h5.841a.4.4 0 0 1 .282.116l42.236 42.266h11.355l11.45-11.457v-8.439l-11.566-11.574.563-.563 11.685 11.694a.4.4 0 0 1 .116.281v8.77a.399.399 0 0 1 -.116.281l-11.685 11.694a.4.4 0 0 1 -.281.116zm-52.579 20.458a.395.395 0 0 1 -.281-.115l-5.841-5.845.562-.563 5.163 5.165v-20.821l-5.757-7.2.623-.496 5.841 7.309a.4.4 0 0 1 .087.25v21.923a.403.403 0 0 1 -.397.4v-.006zm-35.053-23.383a.397.397 0 0 1 -.28-.116l-5.842-5.845.563-.563 5.162 5.166v-10.564l-5.725-5.729.563-.563 5.84 5.845a.4.4 0 0 1 .117.282v11.693a.403.403 0 0 1 -.398.401zm5.842 29.233a.412.412 0 0 1 -.282-.117l-23.251-23.267h-11.52v-.799h11.685c.106 0 .208.042.281.116l22.689 22.704v-10.729h.798v11.694a.403.403 0 0 1 -.397.4l-.004-.003z"/><path d="m102.236 91.014h-23.368a.4.4 0 0 1 -.28-.116l-5.842-5.845.563-.563 5.725 5.729h22.242l-5.162-5.166.562-.563 5.841 5.845a.401.401 0 0 1 .088.433.403.403 0 0 1 -.369.246zm-35.053 23.384a.398.398 0 0 1 -.281-.116l-5.841-5.845.563-.563 5.162 5.165v-10.564l-17.41-17.422.562-.563 17.526 17.539a.398.398 0 0 1 .116.281v11.694a.403.403 0 0 1 -.397.401zm6.242 40.524h-.798v-23.218l-11.567-11.574.562-.563 11.686 11.694a.396.396 0 0 1 .116.281v23.383-.003zm-29.609-17.141a.398.398 0 0 1 -.282-.116l-17.526-17.538a.4.4 0 0 1 -.116-.282v-23.383h.798v23.218l16.729 16.739v-10.564l-5.725-5.728.562-.564 5.841 5.845a.4.4 0 0 1 .116.282v11.693a.404.404 0 0 1 -.397.402zm17.526 27.772-10.672-.036a.39.39 0 0 1 -.278-.116l-12.65-12.559a.4.4 0 0 1 -.115-.281l-.046-9.167-11.57-11.578.563-.563 11.686 11.694a.4.4 0 0 1 .116.281l.046 9.167 12.416 12.327 9.442.028-10.883-9.529a.389.389 0 0 1 -.138-.299v-11.694h.799v11.511l11.548 10.113a.4.4 0 0 1 -.264.697zm-23.367 11.69a.412.412 0 0 1 -.281-.117l-23.368-23.383a.4.4 0 0 1 -.116-.281v-10.23h.798v10.064l22.573 22.588v-9.269h.798v10.23a.402.402 0 0 1 -.397.401z"/><path d="m26.687 165.155h-.795v-10.233h.795zm122.684 176.845h-.798v-68.525l-61.107-59.692h-61.176v-.798h61.342c.105 0 .204.042.277.112l61.342 59.924c.078.074.12.18.12.286zm58.42 0h-.798v-75.999c0-.102.038-.204.112-.278l39.434-40.922a.405.405 0 0 1 .289-.123h48.032l23.251-23.267.563.563-23.368 23.383a.396.396 0 0 1 -.281.116h-48.028l-39.206 40.687zm110.601-151.604a.434.434 0 0 1 -.151-.028.402.402 0 0 1 -.246-.369v-23.384c0-.105.042-.207.116-.281l11.685-11.694.563.563-11.569 11.578v22.257l11.003-11.011.563.563-11.686 11.694a.397.397 0 0 1 -.281.116zm-70.105-87.692a.404.404 0 0 1 -.397-.401v-5.845h.798v4.884l34.254-34.278v-5.68h.799v5.846a.403.403 0 0 1 -.116.281l-35.053 35.077a.397.397 0 0 1 -.281.116zm0-17.534a.41.41 0 0 1 -.281-.117l-11.686-11.693.563-.563 11.003 11.01v-22.422h.798v23.383a.403.403 0 0 1 -.397.401zm-17.526-29.233a.404.404 0 0 1 -.398-.401v-11.693c0-.106.043-.208.116-.282l5.841-5.845.563.563-5.725 5.73v10.563l5.162-5.166.563.563-5.841 5.845a.395.395 0 0 1 -.281.116v.007zm29.212 23.383a.4.4 0 0 1 -.398-.401v-5.844h.798v4.884l10.888-10.895v-17.373h.798v17.539a.399.399 0 0 1 -.116.281l-11.686 11.694a.395.395 0 0 1 -.281.116h-.003zm-22.97 52.218h-.799v-8.769c0-.105.043-.207.116-.281l11.686-11.694a.398.398 0 0 1 .436-.084c.148.06.246.207.246.369v8.77h-.798v-7.809l-10.887 10.895z"/><path d="m248.568 111.357-.562-.563 11.685-11.693a.4.4 0 0 1 .436-.088.403.403 0 0 1 .246.37v8.769h-.798v-7.809l-11.003 11.011zm-58.701-52.495a.403.403 0 0 1 -.397-.401v-8.77h.798v7.809l10.887-10.895v-8.604h.795v8.77a.4.4 0 0 1 -.116.281l-11.685 11.694a.4.4 0 0 1 -.282.116zm-41.955 283.138h-.799v-67.061l-39.195-37.772h-46.576a.399.399 0 0 1 -.281-.116l-11.686-11.694.563-.563 11.566 11.574h46.573c.102 0 .2.039.277.113l39.435 38.001a.402.402 0 0 1 .123.288z"/></g><path d="m105.158 49.691a2.923 2.923 0 1 1 5.844 0 2.923 2.923 0 1 1 -5.844 0zm11.685-11.69a2.923 2.923 0 1 1 5.845 0 2.923 2.923 0 1 1 -5.845 0zm-35.056 35.077a2.923 2.923 0 1 1 5.845 0 2.923 2.923 0 1 1 -5.845 0zm-11.682-23.387a2.923 2.923 0 1 1 5.845 0 2.923 2.923 0 1 1 -5.845 0zm105.158 23.387a2.923 2.923 0 1 1 5.845 0 2.923 2.923 0 1 1 -5.845 0zm23.367-35.077a2.923 2.923 0 1 1 5.845 0 2.923 2.923 0 1 1 -5.845 0zm-11.685 11.69a2.923 2.923 0 1 1 5.844 0 2.923 2.923 0 1 1 -5.844 0zm-11.682-35.077a2.923 2.923 0 1 1 5.845 0 2.924 2.924 0 1 1 -5.845 0zm23.367 0a2.923 2.923 0 1 1 5.845 0 2.923 2.923 0 1 1 -5.845 0zm35.053 23.387a2.923 2.923 0 1 1 5.844 0 2.923 2.923 0 1 1 -5.844 0zm23.367 35.077a2.923 2.923 0 1 1 5.845 0 2.923 2.923 0 1 1 -5.845 0zm23.371 0a2.923 2.923 0 1 1 5.844 0 2.923 2.923 0 1 1 -5.844 0zm0-11.693a2.923 2.923 0 1 1 5.844 0 2.923 2.923 0 1 1 -5.844 0zm-11.685-11.694a2.923 2.923 0 1 1 5.844 0 2.923 2.923 0 1 1 -5.844 0zm-128.525-35.077a2.923 2.923 0 1 1 5.844 0 2.923 2.923 0 1 1 -5.844 0zm-23.368 0a2.923 2.923 0 1 1 5.845 0 2.923 2.923 0 1 1 -5.845 0zm-23.371 23.387a2.923 2.923 0 1 1 2.923 2.924 2.923 2.923 0 0 1 -2.922-2.924zm151.893 105.231a2.923 2.923 0 1 1 5.844 0 2.923 2.923 0 1 1 -5.844 0zm11.685-11.694a2.923 2.923 0 1 1 5.845 0 2.923 2.923 0 1 1 -5.845 0zm23.371-23.383a2.923 2.923 0 1 1 5.844 0 2.923 2.923 0 1 1 -5.844 0zm-23.371 0a2.923 2.923 0 1 1 2.923 2.924 2.923 2.923 0 0 1 -2.923-2.924zm-23.367 23.383a2.923 2.923 0 1 1 5.844 0 2.923 2.923 0 1 1 -5.844 0zm-105.158-58.46a2.923 2.923 0 1 1 5.845 0 2.923 2.923 0 1 1 -5.845 0zm23.367-23.387a2.923 2.923 0 1 1 5.845 0 2.923 2.923 0 1 1 -5.845 0zm-23.367 0a2.923 2.923 0 1 1 5.845 0 2.924 2.924 0 1 1 -5.845 0zm-23.367 23.387a2.923 2.923 0 1 1 5.844 0 2.923 2.923 0 1 1 -5.844 0zm-93.473 116.921a2.923 2.923 0 1 1 2.923 2.924 2.923 2.923 0 0 1 -2.923-2.924zm11.682-11.694a2.923 2.923 0 1 1 5.845 0 2.923 2.923 0 1 1 -5.845 0zm23.371-23.383a2.923 2.923 0 1 1 2.922 2.924 2.923 2.923 0 0 1 -2.922-2.924zm-23.371 0a2.923 2.923 0 1 1 2.922 2.924 2.923 2.923 0 0 1 -2.922-2.924zm-23.367 23.383a2.923 2.923 0 1 1 5.844 0 2.923 2.923 0 1 1 -5.844 0zm292.103 0a2.923 2.923 0 1 1 5.844 0 2.923 2.923 0 1 1 -5.844 0zm11.685-11.69a2.923 2.923 0 1 1 5.845 0 2.923 2.923 0 1 1 -5.845 0zm23.368-23.383a2.923 2.923 0 1 1 5.844 0 2.923 2.923 0 1 1 -5.844 0zm-23.368 0a2.923 2.923 0 1 1 2.923 2.924 2.923 2.923 0 0 1 -2.923-2.924zm-23.367 23.383a2.923 2.923 0 1 1 5.844 0 2.923 2.923 0 1 1 -5.844 0zm-233.683-81.847a2.923 2.923 0 1 1 2.922 2.924 2.923 2.923 0 0 1 -2.922-2.924zm0-23.383a2.923 2.923 0 1 1 5.845 0 2.923 2.923 0 1 1 -5.845 0zm11.682 11.693a2.923 2.923 0 1 1 5.844 0 2.923 2.923 0 1 1 -5.844 0zm-35.053 23.384a2.923 2.923 0 1 1 5.845 0 2.923 2.923 0 1 1 -5.845 0zm-23.367 46.77a2.923 2.923 0 1 1 2.922 2.924 2.923 2.923 0 0 1 -2.922-2.924zm210.316-81.847a2.923 2.923 0 1 1 5.844 0 2.923 2.923 0 1 1 -5.844 0zm-81.791 0a2.923 2.923 0 1 1 5.845 0 2.923 2.923 0 1 1 -5.845 0zm35.053-23.384a2.923 2.923 0 1 1 5.844 0 2.923 2.923 0 1 1 -5.844 0zm-81.791 58.461a2.923 2.923 0 1 1 5.845 0 2.923 2.923 0 1 1 -5.845 0zm163.578 0a2.923 2.923 0 1 1 5.844 0 2.923 2.923 0 1 1 -5.844 0zm-11.682-23.384a2.923 2.923 0 1 1 5.844 0 2.923 2.923 0 1 1 -5.844 0zm-23.367 35.077a2.923 2.923 0 1 1 5.844 0 2.923 2.923 0 1 1 -5.844 0zm0-23.387a2.923 2.923 0 1 1 5.844 0 2.923 2.923 0 1 1 -5.844 0zm16.672 13.762a2.926 2.926 0 0 0 0-4.136 2.921 2.921 0 0 0 -4.133 0 2.926 2.926 0 0 0 0 4.135 2.921 2.921 0 0 0 4.133 0zm-40.043 21.315a2.923 2.923 0 1 1 5.844 0 2.923 2.923 0 1 1 -5.844 0zm58.42 0a2.923 2.923 0 1 1 5.844 0 2.923 2.923 0 1 1 -5.844 0zm-81.787-23.383a2.923 2.923 0 1 1 5.844 0 2.923 2.923 0 1 1 -5.844 0zm-11.686-23.384a2.924 2.924 0 1 1 5.847 0 2.924 2.924 0 0 1 -5.847 0zm-116.839 93.537a2.923 2.923 0 1 1 5.844 0 2.923 2.923 0 1 1 -5.844 0zm11.685-23.383a2.923 2.923 0 1 1 2.922 2.924 2.923 2.923 0 0 1 -2.922-2.924zm23.367-11.694a2.923 2.923 0 1 1 5.845 0 2.923 2.923 0 1 1 -5.845 0zm-35.052-23.383a2.923 2.923 0 1 1 2.922 2.924 2.923 2.923 0 0 1 -2.922-2.924zm11.685 116.921a2.924 2.924 0 0 1 2.922-2.925 2.924 2.924 0 0 1 0 5.849 2.923 2.923 0 0 1 -2.922-2.924zm-37.068-105.238a5.048 5.048 0 0 1 5.047-5.05 5.048 5.048 0 0 1 5.046 5.05 5.048 5.048 0 0 1 -5.046 5.05 5.048 5.048 0 0 1 -5.047-5.05zm105.44-34.817a5.048 5.048 0 0 1 5.046-5.05 5.048 5.048 0 0 1 5.046 5.05 5.048 5.048 0 0 1 -5.046 5.05 5.048 5.048 0 0 1 -5.046-5.05zm186.706.268a5.046 5.046 0 1 1 10.092 0 5.046 5.046 0 1 1 -10.092 0zm-105.703 81.59a5.047 5.047 0 1 1 10.092 0 5.049 5.049 0 0 1 -5.046 5.05 5.048 5.048 0 0 1 -5.046-5.05zm-22.84-53.952a5.048 5.048 0 0 1 5.046-5.05 5.048 5.048 0 0 1 5.046 5.05 5.047 5.047 0 1 1 -10.092 0zm33.801-74.447a5.048 5.048 0 0 1 5.046-5.05 5.048 5.048 0 0 1 5.046 5.05 5.048 5.048 0 0 1 -5.046 5.05 5.048 5.048 0 0 1 -5.046-5.05zm-148.654 69.675a2.923 2.923 0 1 1 2.922 2.924 2.923 2.923 0 0 1 -2.922-2.924zm0 11.69a2.923 2.923 0 1 1 2.922 2.924 2.923 2.923 0 0 1 -2.922-2.924zm35.052 11.693a2.923 2.923 0 1 1 5.845 0 2.923 2.923 0 1 1 -5.844 0zm-23.367 23.384a2.923 2.923 0 1 1 2.922 2.924 2.923 2.923 0 0 1 -2.922-2.924zm-46.738-23.384a2.923 2.923 0 1 1 5.845 0 2.923 2.923 0 1 1 -5.845 0zm70.105 35.077a2.923 2.923 0 1 1 5.845 0 2.923 2.923 0 1 1 -5.844 0zm-81.787 0a2.923 2.923 0 1 1 5.845 0 2.923 2.923 0 1 1 -5.845 0zm233.68 35.077a2.923 2.923 0 1 1 5.844 0 2.923 2.923 0 1 1 -5.844 0zm11.685-11.693a2.923 2.923 0 1 1 2.923 2.924 2.923 2.923 0 0 1 -2.923-2.924zm-128.525-81.844a2.923 2.923 0 1 1 5.845 0 2.924 2.924 0 1 1 -5.845 0zm0-23.387a2.923 2.923 0 1 1 5.845 0 2.924 2.924 0 1 1 -5.845 0zm17.443 12.362a2.923 2.923 0 1 0 -5.688-1.343 2.921 2.921 0 1 0 5.688 1.343zm-40.81 22.715a2.923 2.923 0 1 1 5.844 0 2.923 2.923 0 1 1 -5.844 0zm-11.686 23.387a2.923 2.923 0 1 1 2.923 2.924 2.923 2.923 0 0 1 -2.922-2.924zm70.106-23.387a2.923 2.923 0 1 1 5.844 0 2.923 2.923 0 1 1 -5.844 0zm163.578 58.46a2.923 2.923 0 1 1 5.844 0 2.923 2.923 0 1 1 -5.844 0zm-11.682 23.387a2.923 2.923 0 1 1 5.844 0 2.923 2.923 0 1 1 -5.844 0zm-11.686-23.387a2.923 2.923 0 1 1 5.845 0 2.923 2.923 0 1 1 -5.845 0zm-210.316-93.537a2.923 2.923 0 1 1 2.923 2.924 2.923 2.923 0 0 1 -2.922-2.924zm-11.685 23.387a2.923 2.923 0 1 1 2.922 2.924 2.923 2.923 0 0 1 -2.922-2.924zm116.843 11.69a2.924 2.924 0 1 1 5.847 0 2.924 2.924 0 0 1 -5.847 0zm0 11.693a2.924 2.924 0 1 1 5.847 0 2.924 2.924 0 0 1 -5.847 0zm-128.525-46.77a2.923 2.923 0 1 1 5.845 0 2.923 2.923 0 1 1 -5.845 0zm175.26-58.46a2.923 2.923 0 1 1 5.844 0 2.923 2.923 0 1 1 -5.844 0zm-11.682 23.383a2.923 2.923 0 1 1 5.844 0 2.923 2.923 0 1 1 -5.844 0zm-6.698-21.315a2.926 2.926 0 0 0 0-4.136 2.921 2.921 0 0 0 -4.133 0 2.926 2.926 0 0 0 0 4.136 2.921 2.921 0 0 0 4.133 0zm-51.722-25.452a2.923 2.923 0 1 1 5.845 0 2.924 2.924 0 1 1 -5.845 0zm-11.685 23.384a2.923 2.923 0 1 1 5.844 0 2.923 2.923 0 1 1 -5.844 0zm-11.686-23.384a2.924 2.924 0 1 1 5.847 0 2.924 2.924 0 0 1 -5.847 0zm-58.42 23.384a2.923 2.923 0 1 1 2.923 2.924 2.923 2.923 0 0 1 -2.922-2.924zm-11.685 23.383a2.923 2.923 0 1 1 2.922 2.924 2.923 2.923 0 0 1 -2.922-2.924zm-11.682-11.69a2.923 2.923 0 1 1 5.845 0 2.923 2.923 0 1 1 -5.845 0zm64.233-11.222a2.922 2.922 0 1 0 -5.769-.937 2.923 2.923 0 1 0 5.769.937zm75.978-12.165a2.923 2.923 0 1 1 5.844 0 2.923 2.923 0 1 1 -5.844 0zm35.049 46.771a2.923 2.923 0 1 1 5.844 0 2.923 2.923 0 1 1 -5.844 0zm-210.312 58.46a2.923 2.923 0 1 1 2.922 2.924 2.923 2.923 0 0 1 -2.922-2.924zm-23.368 23.387a2.923 2.923 0 1 1 2.923 2.924 2.923 2.923 0 0 1 -2.923-2.924zm128.526-11.694a2.923 2.923 0 1 1 5.844 0 2.923 2.923 0 1 1 -5.844 0zm46.734-46.77a2.923 2.923 0 1 1 5.844 0 2.923 2.923 0 1 1 -5.844 0zm11.685-23.383a2.924 2.924 0 1 1 5.847-.001 2.924 2.924 0 0 1 -5.847 0zm70.106 58.46a2.923 2.923 0 1 1 5.844 0 2.923 2.923 0 1 1 -5.844 0zm11.685 23.387a2.923 2.923 0 1 1 5.844 0 2.923 2.923 0 1 1 -5.844 0zm35.053-23.387a2.923 2.923 0 1 1 5.844 0 2.923 2.923 0 1 1 -5.844 0zm-23.371-46.767a2.923 2.923 0 1 1 5.844 0 2.923 2.923 0 1 1 -5.844 0zm-186.945 35.077a2.923 2.923 0 1 1 5.844 0 2.923 2.923 0 1 1 -5.844 0zm-46.738 70.15a2.923 2.923 0 1 1 5.844 0 2.923 2.923 0 1 1 -5.844 0zm105.158-35.073a2.923 2.923 0 1 1 5.844 0 2.923 2.923 0 1 1 -5.844 0zm-35.053 11.69a2.923 2.923 0 1 1 5.845 0 2.924 2.924 0 1 1 -5.845 0zm-11.682 35.077a2.923 2.923 0 1 1 5.845 0 2.923 2.923 0 1 1 -5.845 0zm-11.685-23.384a2.923 2.923 0 1 1 5.844 0 2.923 2.923 0 1 1 -5.844 0zm0 11.69a2.923 2.923 0 1 1 5.844 0 2.923 2.923 0 1 1 -5.844 0zm35.053 11.694a2.923 2.923 0 1 1 5.844 0 2.923 2.923 0 1 1 -5.844 0zm11.681-11.694a2.924 2.924 0 1 1 5.847 0 2.924 2.924 0 0 1 -5.847 0zm-11.681-35.073a2.923 2.923 0 1 1 5.844 0 2.923 2.923 0 1 1 -5.844 0zm-11.686 23.383a2.923 2.923 0 1 1 5.845 0 2.923 2.923 0 1 1 -5.845 0zm-11.682-23.383a2.923 2.923 0 1 1 5.845 0 2.923 2.923 0 1 1 -5.845 0zm35.049 23.383a2.924 2.924 0 1 1 5.847 0 2.924 2.924 0 0 1 -5.847 0zm81.791-11.693a2.923 2.923 0 1 1 5.844 0 2.923 2.923 0 1 1 -5.844 0zm-58.42 23.383a2.923 2.923 0 1 1 5.845 0 2.923 2.923 0 1 1 -5.845 0zm0 11.694a2.923 2.923 0 1 1 5.845 0 2.924 2.924 0 1 1 -5.845 0zm46.735 0a2.923 2.923 0 1 1 5.844 0 2.923 2.923 0 1 1 -5.844 0zm-11.682-35.077a2.923 2.923 0 1 1 5.844 0 2.923 2.923 0 1 1 -5.844 0zm-23.371 0a2.923 2.923 0 1 1 5.844 0 2.923 2.923 0 1 1 -5.844 0zm35.053 23.383a2.923 2.923 0 1 1 5.844 0 2.923 2.923 0 1 1 -5.844 0zm-198.631 35.077a2.923 2.923 0 1 1 5.845 0 2.924 2.924 0 0 1 -2.922 2.925 2.924 2.924 0 0 1 -2.923-2.925zm292.107-105.227a2.923 2.923 0 1 1 5.844 0 2.923 2.923 0 1 1 -5.844 0zm-23.371 35.077a2.923 2.923 0 1 1 5.844 0 2.923 2.923 0 1 1 -5.844 0zm0-23.387a2.923 2.923 0 1 1 5.844 0 2.923 2.923 0 1 1 -5.844 0zm11.685 11.693a2.923 2.923 0 1 1 5.845 0 2.923 2.923 0 1 1 -5.845 0zm-35.052 23.384a2.923 2.923 0 1 1 5.844 0 2.923 2.923 0 1 1 -5.844 0zm-11.686 23.383a2.923 2.923 0 1 1 5.845 0 2.923 2.923 0 1 1 -5.845 0zm70.106-23.383a2.923 2.923 0 1 1 5.844 0 2.923 2.923 0 1 1 -5.844 0z" fill="#0062a1"/></svg>