<svg viewBox="0 0 500 500" xmlns="http://www.w3.org/2000/svg"><path d="m0 382.4h500v.25h-500zm412.83 6.43h32.75v.25h-32.75zm-123.48 5.43h40.92v.25h-40.92zm47.05 0h9.48v.25h-9.48zm-243.23-2.87h38.5v.25h-38.5zm81 0h34.33v.25h-34.33zm194.06-2.56h34.92v.25h-34.92zm-316.58 2.56h33.35v.25h-33.35zm185.35-53.59h-193.09a5.71 5.71 0 0 1 -5.7-5.71v-271.43a5.71 5.71 0 0 1 5.7-5.66h193.09a5.71 5.71 0 0 1 5.71 5.71v271.38a5.71 5.71 0 0 1 -5.71 5.71zm-193.09-282.6a5.46 5.46 0 0 0 -5.45 5.46v271.43a5.46 5.46 0 0 0 5.45 5.46h193.09a5.47 5.47 0 0 0 5.46-5.46v-271.43a5.47 5.47 0 0 0 -5.46-5.46zm409.4 282.6h-193.1a5.72 5.72 0 0 1 -5.71-5.71v-271.43a5.72 5.72 0 0 1 5.71-5.66h193.1a5.71 5.71 0 0 1 5.69 5.66v271.43a5.71 5.71 0 0 1 -5.69 5.71zm-193.1-282.6a5.47 5.47 0 0 0 -5.46 5.46v271.43a5.47 5.47 0 0 0 5.46 5.46h193.1a5.47 5.47 0 0 0 5.46-5.46v-271.43a5.47 5.47 0 0 0 -5.46-5.46z" fill="#e0e0e0"/><path d="m152.4 143.29 20.18-19.91-4.21-8.18c.37-.81.72-1.63 1-2.47l8.8-2.68.2-28.36-8.77-2.81c-.32-.83-.65-1.66-1-2.48l4.4-8.14-19.9-20.19-8.19 4.22a23.8 23.8 0 0 0 -2.48-1l-2.68-8.8-28.35-.2-2.85 8.71c-.84.31-1.67.64-2.49 1l-8.13-4.33-20.19 19.93 4.26 8.19c-.37.81-.72 1.64-1 2.47l-8.89 2.74-.2 28.35 8.77 2.81c.31.84.64 1.67 1 2.49l-4.33 8.12 19.91 20.19 8.19-4.21c.81.37 1.64.72 2.47 1l2.69 8.81 28.35.19 2.81-8.77c.84-.31 1.67-.64 2.49-1zm-12.4-32.78a21.1 21.1 0 1 1 .21-29.84 21.09 21.09 0 0 1 -.21 29.84z" fill="#f0f0f0"/><path d="m75.73 196 13.27-13-2.76-5.37c.24-.54.47-1.08.68-1.63l5.79-1.76.13-18.62-5.76-1.84c-.21-.55-.43-1.1-.67-1.64l2.84-5.33-13.09-13.31-5.37 2.77c-.54-.25-1.08-.47-1.63-.69l-1.76-5.78-18.62-.13-1.85 5.76c-.55.2-1.09.42-1.63.66l-5.3-2.84-13.29 13.07 2.76 5.38c-.24.53-.47 1.08-.68 1.62l-5.79 1.77-.12 18.62 5.75 1.84c.21.55.43 1.1.67 1.64l-2.84 5.33 13.07 13.26 5.37-2.78c.54.25 1.08.47 1.63.69l1.76 5.78 18.62.13 1.85-5.76c.55-.21 1.09-.43 1.63-.66zm-8.15-21.5a13.86 13.86 0 1 1 .13-19.59 13.85 13.85 0 0 1 -.13 19.59z" fill="#e0e0e0"/><path d="m460.72 361.71 9.63-9.5-2-3.9c.18-.39.34-.78.5-1.18l4.2-1.28.09-13.52-4.14-1.33c-.15-.4-.31-.79-.48-1.19l2.06-3.87-9.58-9.64-3.91 2c-.39-.18-.78-.34-1.18-.49l-1.28-4.2-13.52-.1-1.34 4.18c-.4.15-.79.31-1.18.48l-3.88-2.07-9.62 9.49 2 3.91c-.18.39-.35.78-.5 1.18l-4.2 1.28-.09 13.52 4.18 1.34c.15.4.3.79.48 1.18l-2.07 3.87 9.5 9.63 3.9-2c.39.18.78.34 1.18.49l1.28 4.2 13.52.1 1.34-4.19c.4-.14.8-.3 1.19-.48zm-5.92-15.63a10.06 10.06 0 1 1 .1-14.23 10.06 10.06 0 0 1 -.1 14.23z" fill="#f0f0f0"/><g fill="#e0e0e0"><path d="m342.59 346.88h-293.94a6.34 6.34 0 0 1 -6.34-6.34v-220.69a6.35 6.35 0 0 1 6.34-6.34h293.94a6.35 6.35 0 0 1 6.34 6.34v220.69a6.34 6.34 0 0 1 -6.34 6.34zm-293.94-232.88a5.85 5.85 0 0 0 -5.84 5.84v220.7a5.85 5.85 0 0 0 5.84 5.84h293.94a5.85 5.85 0 0 0 5.84-5.84v-220.69a5.85 5.85 0 0 0 -5.84-5.84z"/><path d="m55.92 125.17a3.49 3.49 0 1 1 3.49-3.49 3.49 3.49 0 0 1 -3.49 3.49zm0-6.48a3 3 0 1 0 3 3 3 3 0 0 0 -3-3zm11.48 6.48a3.49 3.49 0 1 1 3.49-3.49 3.49 3.49 0 0 1 -3.49 3.49zm0-6.48a3 3 0 1 0 3 3 3 3 0 0 0 -3-3zm11.48 6.48a3.49 3.49 0 1 1 3.49-3.49 3.49 3.49 0 0 1 -3.49 3.49zm0-6.48a3 3 0 1 0 3 3 3 3 0 0 0 -3-3z"/><rect height="232.87" rx="6.09" width="306.12" x="159.3" y="71.53"/><path d="m459.33 305.4h-293.94a7.1 7.1 0 0 1 -7.09-7.09v-220.69a7.1 7.1 0 0 1 7.09-7.09h293.94a7.1 7.1 0 0 1 7.09 7.09v220.69a7.1 7.1 0 0 1 -7.09 7.09zm-293.94-232.87a5.1 5.1 0 0 0 -5.09 5.09v220.69a5.1 5.1 0 0 0 5.09 5.09h293.94a5.1 5.1 0 0 0 5.09-5.09v-220.69a5.09 5.09 0 0 0 -5.09-5.09z"/></g><path d="m159.3 87.28v211a6.11 6.11 0 0 0 6.09 6.09h293.94a6.11 6.11 0 0 0 6.09-6.09v-211z" fill="#f0f0f0"/><path d="m160.43 95.38h303.87v200.92h-303.87z" fill="#fff"/><path d="m453.55 277.91h-282.37a.09.09 0 0 1 -.1-.1v-169.41a.1.1 0 0 1 .1-.1h282.37a.11.11 0 0 1 .1.1v169.41a.1.1 0 0 1 -.1.1zm-282.27-.2h282.17v-169.2h-282.17z" fill="#e6e6e6"/><path d="m172.66 83.09a3.64 3.64 0 1 1 3.65-3.64 3.64 3.64 0 0 1 -3.65 3.64zm0-6.47a2.83 2.83 0 1 0 2.84 2.83 2.83 2.83 0 0 0 -2.84-2.83zm11.48 6.47a3.64 3.64 0 1 1 3.65-3.64 3.64 3.64 0 0 1 -3.65 3.64zm0-6.47a2.83 2.83 0 1 0 2.86 2.83 2.83 2.83 0 0 0 -2.86-2.83zm11.48 6.47a3.64 3.64 0 1 1 3.65-3.64 3.64 3.64 0 0 1 -3.65 3.64zm0-6.47a2.83 2.83 0 1 0 2.84 2.83 2.83 2.83 0 0 0 -2.84-2.83z" fill="#fff"/><path d="m159.3 86.87h306.12v.81h-306.12z" fill="#e0e0e0"/><path d="m298.12 115.33h140.04v142.73h-140.04z" fill="#f0f0f0" transform="matrix(-1 0 -0 -1 736.28 373.4)"/><path d="m178.11 115.33h92.46v46.43h-92.46z" fill="#f0f0f0" transform="matrix(-1 0 -0 -1 448.67 277.1)"/><path d="m178.11 179.13h92.46v117.17h-92.46z" fill="#f0f0f0" transform="matrix(-1 0 -0 -1 448.67 475.43)"/><ellipse cx="250" cy="416.24" fill="#f5f5f5" rx="193.89" ry="11.32"/><path d="m429.39 96.79h-358.77a9.65 9.65 0 0 0 -9.62 9.61v239.46a9.64 9.64 0 0 0 9.62 9.61h358.77a9.64 9.64 0 0 0 9.61-9.61v-239.46a9.65 9.65 0 0 0 -9.61-9.61z" fill="#407bff"/><path d="m429.39 96.79h-358.77a9.65 9.65 0 0 0 -9.62 9.61v239.46a9.64 9.64 0 0 0 9.62 9.61h358.77a9.64 9.64 0 0 0 9.61-9.61v-239.46a9.65 9.65 0 0 0 -9.61-9.61z" fill="#fff" opacity=".3"/><path d="m132.44 112.83h-50.78a3.5 3.5 0 0 1 0-7h50.78a3.5 3.5 0 0 1 0 7zm-50.78-6a2.5 2.5 0 0 0 0 5h50.78a2.5 2.5 0 0 0 0-5zm67.26 6h-3.39a3.5 3.5 0 0 1 0-7h3.39a3.5 3.5 0 0 1 0 7zm-3.39-6a2.5 2.5 0 0 0 0 5h3.39a2.5 2.5 0 0 0 0-5zm17.56 6h-3.39a3.5 3.5 0 0 1 0-7h3.39a3.5 3.5 0 0 1 0 7zm-3.39-6a2.5 2.5 0 0 0 0 5h3.39a2.5 2.5 0 0 0 0-5z" fill="#fafafa"/><path d="m61 121.65v224.21a9.64 9.64 0 0 0 9.62 9.61h358.77a9.64 9.64 0 0 0 9.61-9.61v-224.21z" fill="#407bff"/><path d="m61 121.65v224.21a9.64 9.64 0 0 0 9.62 9.61h358.77a9.64 9.64 0 0 0 9.61-9.61v-224.21z" fill="#fff" opacity=".6"/><path d="m62.78 121.65v215.58a5.45 5.45 0 0 0 5.45 5.46h363.54a5.45 5.45 0 0 0 5.45-5.46v-215.58z" fill="#fafafa"/><path d="m80 134.34v40h257v-40z" fill="#407bff"/><path d="m80 134.34v40h257v-40z" fill="#fff" opacity=".9"/><path d="m336 185.94v106.2h-255v-106.2zm1-1h-257v108.2h257z" fill="#407bff"/><path d="m336 185.94v106.2h-255v-106.2zm1-1h-257v108.2h257z" fill="#fff" opacity=".9"/><path d="m365.82 406.94h-7.54l-2.01-17.47h7.55zm45.76 0h-7.54l-5.88-17.47h7.54z" fill="#ff8b7b"/><path d="m403 406.06h9.2a.66.66 0 0 1 .64.52l1.49 6.7a1.11 1.11 0 0 1 -1.1 1.35c-3-.05-5.12-.23-8.85-.23-2.29 0-7 .24-10.18.24s-3.58-3.13-2.29-3.41c5.82-1.28 8-3 9.87-4.7a1.82 1.82 0 0 1 1.22-.47zm-44.67 0h8.24a.67.67 0 0 1 .65.52l1.49 6.7a1.11 1.11 0 0 1 -1.09 1.35c-3-.05-7.27-.23-11-.23-4.37 0-8.14.24-13.26.24-3.1 0-4-3.13-2.66-3.41 5.9-1.3 10.72-1.43 15.82-4.58a3.48 3.48 0 0 1 1.81-.59z" fill="#263238"/><path d="m370.15 219.75a880.51 880.51 0 0 1 -2.44 17.55l-2.61 17.76a15.26 15.26 0 0 1 -2.54 6 19.31 19.31 0 0 1 -4.12 4.23 31.9 31.9 0 0 1 -9.18 4.64 55.55 55.55 0 0 1 -9.27 2.18c-1.55.24-3.09.4-4.64.53s-3.05.21-4.7.21l-.51-5.64c2.69-.62 5.54-1.34 8.21-2.23a60.94 60.94 0 0 0 7.74-3 25.52 25.52 0 0 0 6.29-4.05 9.73 9.73 0 0 0 1.87-2.31 5.62 5.62 0 0 0 .69-2.19l.29-4.21c.1-1.5.24-3 .37-4.48q.39-4.47.89-8.92c.65-5.93 1.42-11.82 2.34-17.73z" fill="#ff8b7b"/><path d="m372.64 216c2.54 6.75-3.55 29.38-3.55 29.38l-16.76-8.38s.79-11.28 4.62-20 12.9-8.44 15.69-1z" fill="#407bff"/><path d="m372.64 216c2.54 6.75-3.55 29.38-3.55 29.38l-16.76-8.38s.79-11.28 4.62-20 12.9-8.44 15.69-1z" opacity=".3"/><path d="m334.15 266.52-8.23.55 3.85 8.83a7.24 7.24 0 0 0 6.77-5.29z" fill="#ff8b7b"/><path d="m318.49 270.54 4.57 6.18 6.7-.82-3.84-8.83z" fill="#ff8b7b"/><path d="m356.28 389.47 1.16 10.14 7.5-.45-1.12-9.69zm49.43 0h-7.55l3.94 11.7 7.02-1.57z" fill="#ea7063"/><path d="m363.68 210.8s-8.9 22.78-.45 65.21h40.35c.28-6.2-3.61-36.41 2.36-65.6a104.05 104.05 0 0 0 -13.5-1.7 146.52 146.52 0 0 0 -17.16 0 75.3 75.3 0 0 0 -11.6 2.09z" fill="#407bff"/><path d="m363.68 210.8s-8.9 22.78-.45 65.21h40.35c.28-6.2-3.61-36.41 2.36-65.6a104.05 104.05 0 0 0 -13.5-1.7 146.52 146.52 0 0 0 -17.16 0 75.3 75.3 0 0 0 -11.6 2.09z" opacity=".3"/><path d="m378.42 232.12c-.54 5.06-3.32 8.92-6.22 8.61s-4.81-4.66-4.28-9.73 3.33-8.92 6.22-8.62 4.86 4.67 4.28 9.74z" fill="#407bff"/><path d="m378.42 232.12c-.54 5.06-3.32 8.92-6.22 8.61s-4.81-4.66-4.28-9.73 3.33-8.92 6.22-8.62 4.86 4.67 4.28 9.74z" fill="#fff" opacity=".1"/><path d="m397.72 224.36c1.32-6.66 3.88-5.51 6.32-2.23a210.05 210.05 0 0 0 -1.44 26.61c-1.66-2.82-7.08-13.22-4.88-24.38z" fill="#407bff"/><path d="m397.72 224.36c1.32-6.66 3.88-5.51 6.32-2.23a210.05 210.05 0 0 0 -1.44 26.61c-1.66-2.82-7.08-13.22-4.88-24.38z" opacity=".4"/><path d="m390.74 189.39c-1.08 5.52-2.16 15.63 1.7 19.32 0 0-1.51 5.59-11.77 5.59-11.27 0-5.39-5.59-5.39-5.59 6.16-1.47 6-6 4.93-10.33z" fill="#ff8b7b"/><path d="m386.44 193.06-6.23 5.32a17.15 17.15 0 0 1 .53 3c2.35-.34 5.58-2.92 5.83-5.38a7.91 7.91 0 0 0 -.13-2.94z" fill="#ea7063"/><path d="m375 168.73c-4.15 3.23-4.12 16.12 2.17 16.39s5.72-22.49-2.17-16.39z" fill="#263238"/><path d="m392.34 182.87c-2.19 7.16-3.11 11.46-7.68 14.31-6.86 4.29-15-1.19-15-8.86 0-6.91 3.59-17.45 11.4-18.64a10.21 10.21 0 0 1 11.28 13.19z" fill="#ff8b7b"/><path d="m390.12 189.87c-4.21.66-6.51-21 3.53-16.21 14.27 6.83 3.29 15.15-3.53 16.21z" fill="#263238"/><path d="m390.52 175.65c-5.19-.45-12.7-.23-14.33-6.64-2.27-8.94 8.42-10.26 11.06-3.42 6.36-2.09 23.88 8.83 12.21 14.37z" fill="#263238"/><path d="m393.7 191.67a7.14 7.14 0 0 1 -5.05 2c-2.49-.05-3-2.45-1.74-4.43 1.17-1.79 3.87-3.91 6.08-2.9s2.34 3.66.71 5.33z" fill="#ff8b7b"/><path d="m363.23 276s-29.42 40.77-28.59 63.77c.85 23.93 19.84 57 19.84 57l12.27-2.81s-12.21-28.81-11.64-52.31c.62-25.62 34.65-45.84 34.65-65.6z" fill="#263238"/><path d="m377.55 276s-15 42-10.29 63.61c5.14 23.65 31 58.6 31 58.6l12.35-3.4s-16.72-30.07-19.65-53.49c-3.19-25.41 12.66-46.42 12.66-65.32z" fill="#263238"/><path d="m396.38 399.93 17.76-3.3-.89-4.77-19.91 3.37z" fill="#407bff"/><path d="m396.38 399.93 17.76-3.3-.89-4.77-19.91 3.37z" fill="#fff" opacity=".4"/><path d="m351.92 397.8 17.97-1.77-.48-4.9-20.12 1.73z" fill="#407bff"/><path d="m351.92 397.8 17.97-1.77-.48-4.9-20.12 1.73z" fill="#fff" opacity=".4"/><path d="m380.83 182.26c-.14.59-.57 1-1 .9s-.59-.65-.44-1.24.57-1 .95-.9.66.65.49 1.24zm-6.69-1.61c-.14.59-.57 1-1 .91s-.58-.65-.44-1.24.57-1 1-.91.58.65.44 1.24z" fill="#263238"/><path d="m376.19 181.46a21.62 21.62 0 0 1 -4 4.38 3.51 3.51 0 0 0 2.7 1.21z" fill="#ff5652"/><path d="m377.52 189.26a6 6 0 0 1 -1.34-.16.19.19 0 0 1 -.13-.22.18.18 0 0 1 .22-.13 4.8 4.8 0 0 0 4.26-.92.18.18 0 0 1 .25 0 .17.17 0 0 1 0 .25 5 5 0 0 1 -3.26 1.18zm5.92-8.67a.35.35 0 0 1 -.32-.21 2.84 2.84 0 0 0 -1.95-1.69.36.36 0 0 1 .12-.71 3.53 3.53 0 0 1 2.48 2.11.35.35 0 0 1 -.18.47.27.27 0 0 1 -.15.03zm-11.59-2.93a.34.34 0 0 1 -.23-.08.35.35 0 0 1 -.05-.5 3.55 3.55 0 0 1 3-1.36.36.36 0 0 1 .31.4.36.36 0 0 1 -.39.31 2.88 2.88 0 0 0 -2.34 1.1.34.34 0 0 1 -.3.13z" fill="#263238"/><path d="m246.4 323.88h27.26v1h-27.26z" fill="#407bff" transform="matrix(.99298616 -.11823066 .11823066 .99298616 -36.549959 33.040032)"/><path d="m283.16 320.45h11.23v1h-11.23z" fill="#407bff" transform="matrix(.9928618 -.11927045 .11927045 .9928618 -36.220034 36.740002)"/><path d="m210.34 269.99h241.78v42.73h-241.78z" fill="#407bff" transform="matrix(.99296551 -.11840397 .11840397 .99296551 -32.169956 41.270049)"/><path d="m303.77 278.19h111.07v19.63h-111.07z" fill="#407bff" transform="matrix(.99296551 -.11840397 .11840397 .99296551 -31.570028 44.569975)"/><path d="m303.77 278.19h111.07v19.63h-111.07z" fill="#fff" opacity=".2" transform="matrix(.99296551 -.11840397 .11840397 .99296551 -31.570028 44.569975)"/><circle cx="237.12" cy="302.57" fill="#407bff" r="12.44" transform="matrix(.78064861 -.6249702 .6249702 .78064861 -137.079962 214.539385)"/><circle cx="237.12" cy="302.57" fill="#fff" opacity=".2" r="12.44" transform="matrix(.78064861 -.6249702 .6249702 .78064861 -137.079962 214.539385)"/><circle cx="272.3" cy="298.38" fill="#407bff" r="12.44" transform="matrix(.60945353 -.79282179 .79282179 .60945353 -130.209841 332.44987)"/><circle cx="272.3" cy="298.38" fill="#fff" opacity=".2" r="12.44" transform="matrix(.60945353 -.79282179 .79282179 .60945353 -130.209841 332.44987)"/><path d="m408.82 216.28c.66 1.4 1.2 2.64 1.72 4s1 2.63 1.52 4c1 2.65 1.83 5.34 2.58 8.09a85.18 85.18 0 0 1 1.91 8.39l.36 2.15.26 2.19c.1.73.14 1.48.19 2.22l.08 1.12v1.74a15.52 15.52 0 0 1 -1.68 5.63 34.12 34.12 0 0 1 -2.4 4.07 66.18 66.18 0 0 1 -5.41 6.78 108.38 108.38 0 0 1 -12.2 11.48l-4-4c3.26-4.17 6.52-8.48 9.47-12.76a70.76 70.76 0 0 0 4-6.46 23.61 23.61 0 0 0 1.45-3.1 6.6 6.6 0 0 0 .5-2.15s0-.05 0 0 0 .06 0 0v-.23l-.14-.9c-.09-.61-.17-1.2-.31-1.82l-.36-1.82-.43-1.84c-.61-2.45-1.3-4.91-2.09-7.36s-1.65-4.9-2.56-7.34c-.45-1.22-.91-2.43-1.39-3.64l-1.47-3.72z" fill="#ff8b7b"/><path d="m407.52 210.91c6.73 2.59 11.56 27.21 11.56 27.21l-16 6.31s-5.37-12.37-7.18-21.52c-1.9-9.63 3.98-14.91 11.62-12z" fill="#407bff"/><path d="m407.52 210.91c6.73 2.59 11.56 27.21 11.56 27.21l-16 6.31s-5.37-12.37-7.18-21.52c-1.9-9.63 3.98-14.91 11.62-12z" opacity=".3"/><path d="m400.54 407.38a2.34 2.34 0 0 1 -1.46-.38 1.1 1.1 0 0 1 -.37-.95.55.55 0 0 1 .31-.5c.84-.43 3.27 1.06 3.54 1.24a.16.16 0 0 1 .08.18.17.17 0 0 1 -.13.14 8.68 8.68 0 0 1 -1.97.27zm-1.12-1.56a.43.43 0 0 0 -.24.05c-.05 0-.1.07-.11.21a.71.71 0 0 0 .24.64 3.61 3.61 0 0 0 2.68.14 7.3 7.3 0 0 0 -2.57-1.04z" fill="#407bff"/><path d="m402.47 407.12a.16.16 0 0 1 -.09 0c-.78-.42-2.29-2.07-2.13-2.91a.58.58 0 0 1 .57-.47 1 1 0 0 1 .76.23c.88.71 1.06 2.89 1.07 3a.21.21 0 0 1 -.08.17.19.19 0 0 1 -.1-.02zm-1.47-3.06h-.09c-.23 0-.25.14-.26.18-.09.5.87 1.75 1.65 2.34a4.34 4.34 0 0 0 -.89-2.37.67.67 0 0 0 -.41-.15zm-45.8 3.32a2.88 2.88 0 0 1 -1.84-.46 1 1 0 0 1 -.33-.87.58.58 0 0 1 .29-.48c.92-.51 3.95 1 4.3 1.21a.18.18 0 0 1 .09.18.17.17 0 0 1 -.14.15 12.58 12.58 0 0 1 -2.37.27zm-1.37-1.56a.62.62 0 0 0 -.33.07.22.22 0 0 0 -.12.19.68.68 0 0 0 .22.57c.46.41 1.71.49 3.37.21a9.72 9.72 0 0 0 -3.14-1.04z" fill="#407bff"/><path d="m357.53 407.12h-.07c-.91-.41-2.71-2-2.58-2.89 0-.2.18-.45.67-.5a1.28 1.28 0 0 1 1 .3c1 .79 1.16 2.82 1.17 2.91a.16.16 0 0 1 -.07.16.21.21 0 0 1 -.12.02zm-1.84-3.06h-.1c-.33 0-.35.16-.35.2-.09.52 1.14 1.8 2.07 2.36a4.22 4.22 0 0 0 -1-2.33.92.92 0 0 0 -.62-.23z" fill="#407bff"/><path d="m393.5 273-7.4 2 6.13 7.43s5.93-3.07 4.65-6.4z" fill="#ff8b7b"/><path d="m380.74 281.17 5.36 5.82 6.13-4.57-6.13-7.43z" fill="#ff8b7b"/><path d="m141.63 193c-1.67 1.7-3.46 3.59-5.11 5.47s-3.3 3.81-4.85 5.79-3 4-4.43 6l-1 1.55-1 1.57c-.33.53-.62 1.06-.91 1.6l-.79 1.45a7.91 7.91 0 0 0 -.54 2.6 24.67 24.67 0 0 0 0 3.44 64.39 64.39 0 0 0 .95 7.37c.43 2.49 1 5 1.57 7.48s1.23 5 1.88 7.47l-3.66 1.37a106 106 0 0 1 -5.56-15 60.13 60.13 0 0 1 -1.74-8 30.68 30.68 0 0 1 -.31-4.37 14 14 0 0 1 .86-5.06c.22-.55.35-.77.5-1.1l.45-.94c.3-.63.61-1.25.94-1.85l1-1.82 1-1.77a76 76 0 0 1 4.56-6.75c1.62-2.16 3.3-4.28 5.07-6.3s3.56-4 5.61-5.92z" fill="#b55b52"/><path d="m142.05 181.09c-5.35.24-10.44 9.13-10.44 9.13l6.33 12.92s10.33-6.46 10.46-14.31c.08-5.1-1.08-7.98-6.35-7.74z" fill="#407bff"/><path d="m142.05 181.09c-5.35.24-10.44 9.13-10.44 9.13l6.33 12.92s10.33-6.46 10.46-14.31c.08-5.1-1.08-7.98-6.35-7.74z" opacity=".5"/><path d="m126.39 243.29 6.52 1.94-4.34 4.39s-4.69-1.45-5.35-4.64zm10.46 6.95-1.09 4.2-7.19-4.82 4.34-4.39z" fill="#b55b52"/><path d="m128.87 208.64h158.18v59.64h-158.18z" fill="#407bff" transform="matrix(.99971415 -.02390873 .02390873 .99971415 -5.650011 5.050007)"/><path d="m128.87 208.64h158.18v59.64h-158.18z" fill="#fff" opacity=".6" transform="matrix(.99971415 -.02390873 .02390873 .99971415 -5.650011 5.050007)"/><path d="m219.67 212.4h58.97v22.23h-58.97z" fill="#407bff" transform="matrix(.99971415 -.02390873 .02390873 .99971415 -5.279994 6.029999)"/><path d="m219.67 212.4h58.97v22.23h-58.97z" fill="#fff" opacity=".7" transform="matrix(.99971415 -.02390873 .02390873 .99971415 -5.279994 6.029999)"/><path d="m188.07 240.06h58.97v22.23h-58.97z" fill="#407bff" transform="matrix(.99971415 -.02390873 .02390873 .99971415 -5.959984 5.289989)"/><path d="m188.07 240.06h58.97v22.23h-58.97z" fill="#fff" opacity=".7" transform="matrix(.99971415 -.02390873 .02390873 .99971415 -5.959984 5.289989)"/><path d="m179 161.39c-.1.61.14 1.17.54 1.24s.81-.35.92-1-.15-1.17-.55-1.25-.86.39-.91 1.01z" fill="#263238"/><path d="m179.68 160.42 1.54-.14s-.94 1-1.54.14z" fill="#263238"/><path d="m179.37 162.08a17.19 17.19 0 0 0 1.55 4.33 2.71 2.71 0 0 1 -2.26 0z" fill="#a02724"/><path d="m180.45 157.47a.34.34 0 0 1 -.17-.05 3 3 0 0 0 -2.69-.16.36.36 0 0 1 -.49-.16.35.35 0 0 1 .15-.49 3.71 3.71 0 0 1 3.37.17.36.36 0 0 1 .15.49.35.35 0 0 1 -.32.2z" fill="#263238"/><path d="m159.41 166.43c.15 4.67-.33 13.09-4 15.47 0 0 .48 4.81 8.89 6.43 9.24 1.79 5.17-3.7 5.17-3.7-4.85-2.18-4.1-5.87-2.64-9.2zm25.18 27.25c.58 2.33 1.31 4.88 2.11 7.28s1.7 4.8 2.71 7.11a51.21 51.21 0 0 0 3.44 6.58 26.64 26.64 0 0 0 4.31 5.46 14 14 0 0 0 2.54 1.89 9.67 9.67 0 0 0 1.33.66l.42.16a1.59 1.59 0 0 0 .34.06 5.11 5.11 0 0 0 2.32-.5 17.21 17.21 0 0 0 2.89-1.65 64.48 64.48 0 0 0 11-10.5l3.26 2.17c-.69 1.26-1.4 2.41-2.15 3.58s-1.55 2.29-2.4 3.4a42.08 42.08 0 0 1 -5.77 6.32 21.63 21.63 0 0 1 -3.82 2.69 11.74 11.74 0 0 1 -5.36 1.52 9.35 9.35 0 0 1 -1.65-.14 9.81 9.81 0 0 1 -1.5-.41 16.35 16.35 0 0 1 -2.3-1 20.85 20.85 0 0 1 -4-2.72c-4.75-4.13-7.65-9.23-10-14.33a72.13 72.13 0 0 1 -3.09-7.82 75.1 75.1 0 0 1 -2.28-8.13z" fill="#b55b52"/><path d="m217.56 210.62 2.27-4.16 6.3 1.67s-3.78 5.75-7 5.76z" fill="#b55b52"/><path d="m224.96 204.96 4.79 3.17h-3.62l-6.31-1.67zm-85.66 201.44 7.72.56 2.29-17.72-7.72-.57zm-60.74-38.12 5.33 5.73 14.47-10.36-5.34-5.73z" fill="#b55b52"/><path d="m86.23 373.12-4.46-7.6a.61.61 0 0 0 -.76-.28l-6.34 2.56a1.23 1.23 0 0 0 -.53 1.77c1.59 2.62 2.49 3.81 4.45 7.15 1.2 2 2.76 5.18 4.42 8s4.48 1.39 4 .06c-2-5.95-1-7.68-.56-10.32a2.07 2.07 0 0 0 -.22-1.34zm61.27 32.75h-8.67a.62.62 0 0 0 -.63.52l-1.2 6.87a1.21 1.21 0 0 0 1.2 1.37c3-.05 4.49-.23 8.31-.23 2.35 0 7.2.25 10.44.25s3.49-3.21 2.15-3.5c-6-1.3-8.35-3.1-10.35-4.81a2 2 0 0 0 -1.25-.47z" fill="#263238"/><path d="m149.31 389.24-1.27 9.86-7.63-1.28 1.18-9.14zm-56.29-31.32 5.34 5.73-5.99 4.29-5.53-5.6z" fill="#9e4541"/><path d="m139.88 228.11 31 6c14.59-43.11 11.12-44.46 11.12-44.46a64.4 64.4 0 0 0 -7-3.27l-.42-.15c-2-.73-2.4-.83-5.05-1.61-4.56-1.07-8.81-2-14.06-2.71l-1-.14c-.95-.12-1.89-.22-2.8-.31-.62-.07-1.23-.11-1.82-.15l-2-.11c-3.38-.16-5.8-.11-5.8-.11 1.71 26.91.42 34.6-2.17 47.02z" fill="#407bff"/><path d="m139.88 228.11 31 6c14.59-43.11 11.12-44.46 11.12-44.46a64.4 64.4 0 0 0 -7-3.27l-.42-.15c-2-.73-2.4-.83-5.05-1.61-4.56-1.07-8.81-2-14.06-2.71l-1-.14c-.95-.12-1.89-.22-2.8-.31-.62-.07-1.23-.11-1.82-.15l-2-.11c-3.38-.16-5.8-.11-5.8-.11 1.71 26.91.42 34.6-2.17 47.02z" opacity=".5"/><path d="m175.71 202.75a26.14 26.14 0 0 0 .91 13.51c2.57-8.42 4-14.18 4.82-18.12-2.37-.31-4.9.46-5.73 4.61z" fill="#407bff"/><path d="m175.71 202.75a26.14 26.14 0 0 0 .91 13.51c2.57-8.42 4-14.18 4.82-18.12-2.37-.31-4.9.46-5.73 4.61z" opacity=".6"/><path d="m181.71 189.5c5.17 3.37 8.46 10.88 9.33 15.17l-12 9.77s-6.53-14.58-4.39-18.3c2.25-3.88 5.11-7.91 7.06-6.64z" fill="#407bff"/><path d="m181.71 189.5c5.17 3.37 8.46 10.88 9.33 15.17l-12 9.77s-6.53-14.58-4.39-18.3c2.25-3.88 5.11-7.91 7.06-6.64z" opacity=".5"/><path d="m158.65 155.72c-.77 7.6-1.27 10.8 1.91 15.39 4.78 6.91 14.32 6.48 17.36-.67 2.74-6.43 3.55-17.78-3.35-22.2a10.22 10.22 0 0 0 -15.92 7.48z" fill="#b55b52"/><path d="m158.76 140.21c-4.67 3.46-1.68 4.29-3.67 7.78-2.13 3.74-4.37-.52-8.61 3.59-2.75 2.67 2 5.5-1.47 10.2-2.66 3.65-5.54.49-4.42 8 .77 5.11-2.36 4.47-4.47 7.36-3 4.14-.31 7.11 7.41 8.67s2.22 9.32 9.48 9.55c7.92.26 6.08-10.06 9.94-7.55s10.89.22 10.46-5.95c-.38-5.66-6.67-5.46-1.58-9.33 4-3 5.21-3 2.39-9.44-2.39-5.48 6.39-4.64 6.23-9.39-.3-8.57-6.23-6-8.1-10.39-1.21-2.88-7.61-7.54-13.59-3.1z" fill="#263238"/><path d="m173.42 159.68a6.87 6.87 0 0 0 1.37 3.93c1.18 1.61 2.57 1.19 2.91-.29.31-1.33.07-3.77-1.44-4.89s-2.83-.34-2.84 1.25z" fill="#b55b52"/><path d="m162.67 232.53s-15.08 50.51-22.45 79.6c-7.78 30.7-44.88 55.71-44.88 55.71l-7.91-7.84s24.8-20.93 32.33-49.58c15.29-58.14 7.93-70.46 20.12-82.28z" fill="#407bff"/><path d="m162.67 232.53s-15.08 50.51-22.45 79.6c-7.78 30.7-44.88 55.71-44.88 55.71l-7.91-7.84s24.8-20.93 32.33-49.58c15.29-58.14 7.93-70.46 20.12-82.28z" fill="#fff" opacity=".8"/><path d="m96.03 368.99-9.89-9.83 2.69-2.98 12.03 10.24zm59.56-125.7c-9.9 7.63-10.56 36.71-10.33 49.85 5-18.37 11-38.8 14.46-50.62-.95-.8-2.31-.64-4.13.77z" fill="#407bff"/><path d="m155.59 243.29c-9.9 7.63-10.56 36.71-10.33 49.85 5-18.37 11-38.8 14.46-50.62-.95-.8-2.31-.64-4.13.77z" fill="#fff" opacity=".6"/><path d="m87.83 377.24a.86.86 0 0 1 -.28 0c-.94-.29-1.61-2-1.93-3a.18.18 0 0 1 .06-.19.17.17 0 0 1 .2 0c.29.14 2.79 1.45 2.89 2.43a.64.64 0 0 1 -.26.57 1.07 1.07 0 0 1 -.68.19zm-1.71-2.73c.46 1.32 1 2.18 1.53 2.34a.68.68 0 0 0 .64-.17.24.24 0 0 0 .11-.24c-.05-.52-1.3-1.38-2.28-1.93zm84.26-140.4s1.93 61.12-2.39 84.14c-4.49 23.94-18.17 78.41-18.17 78.41l-11.13-1.44s7-55 10-78.81c3.25-25.94-1-86.69-1-86.69z" fill="#407bff"/><path d="m170.38 234.11s1.93 61.12-2.39 84.14c-4.49 23.94-18.17 78.41-18.17 78.41l-11.13-1.44s7-55 10-78.81c3.25-25.94-1-86.69-1-86.69z" fill="#fff" opacity=".8"/><path d="m152.19 397.29-15.87-2.04.19-3.77 17.27.75zm-64.11-22.46a5.69 5.69 0 0 1 -2.38-.54.22.22 0 0 1 -.09-.16.2.2 0 0 1 .1-.16c.08-.05 2-1.14 3-.79a1 1 0 0 1 .62.56.64.64 0 0 1 -.13.8 1.77 1.77 0 0 1 -1.12.29zm-1.88-.71c.87.35 2.38.5 2.78.14.07-.05.13-.15 0-.37a.59.59 0 0 0 -.39-.36 4.11 4.11 0 0 0 -2.39.59zm64.17 33.1a13 13 0 0 1 -2.42-.28.19.19 0 0 1 -.15-.15.18.18 0 0 1 .1-.19c.35-.18 3.48-1.76 4.41-1.23a.59.59 0 0 1 .3.48 1 1 0 0 1 -.36.89 2.9 2.9 0 0 1 -1.88.48zm-1.81-.54c1.7.28 3 .21 3.45-.21a.67.67 0 0 0 .23-.59.23.23 0 0 0 -.11-.2c-.51-.28-2.28.39-3.57 1z" fill="#407bff"/><path d="m148 406.94a.19.19 0 0 1 -.1 0 .19.19 0 0 1 -.08-.17c0-.14.41-3.49 2.25-3.29.5.05.65.31.68.51.14.87-1.73 2.55-2.67 3zm1.93-3.13c-1.12 0-1.56 1.84-1.69 2.62 1-.57 2.23-1.89 2.15-2.41 0 0 0-.17-.36-.2zm-10.21-177.59-1.85 2.48c-.15.2.07.46.43.53l32.47 6.29c.28.06.54 0 .58-.21l.74-2.7c0-.19-.17-.39-.47-.45l-31.36-6.08a.55.55 0 0 0 -.54.14z" fill="#407bff"/><path d="m143.35 230.52-.84-.16c-.16 0-.28-.15-.25-.25l1-3.5c0-.1.19-.16.35-.13l.84.16c.17 0 .28.15.25.25l-1 3.5c-.02.1-.18.16-.35.13z" fill="#407bff"/><path d="m143.35 230.52-.84-.16c-.16 0-.28-.15-.25-.25l1-3.5c0-.1.19-.16.35-.13l.84.16c.17 0 .28.15.25.25l-1 3.5c-.02.1-.18.16-.35.13z" fill="#fff" opacity=".8"/><path d="m164.56 234.68-.84-.17c-.17 0-.28-.14-.25-.24l1-3.51c0-.1.19-.16.36-.12l.84.16c.17 0 .28.14.25.25l-1 3.5c-.03.1-.19.16-.36.13z" fill="#407bff"/><path d="m164.56 234.68-.84-.17c-.17 0-.28-.14-.25-.24l1-3.51c0-.1.19-.16.36-.12l.84.16c.17 0 .28.14.25.25l-1 3.5c-.03.1-.19.16-.36.13z" fill="#fff" opacity=".8"/></svg>