<svg viewBox="0 0 500 500" xmlns="http://www.w3.org/2000/svg"><ellipse cx="249.53" cy="325.18" fill="#455a64" rx="235.12" ry="135.74"/><g fill="#407bff"><path d="m56.22 348.88 34.29-19.8-.5-.86-34.01 19.66h-15.13l-19.1 11c.13.3.26.61.4.92l19-10.95zm10.19 19.54-.5-.87-23 13.26h-7.91l.78 1h7.42zm24.06-26.6-.47-.82-59.16 34.09c.19.28.37.56.56.83zm170.14-115.14 55.05-31.78-1.56-.26-54 31.17zm37.44-34.33-1.65-.19-12.23 7.06.5.86zm-110.58 15.09-16.84 9.72a5.17 5.17 0 0 0 -3.14.13l-23.36-13.48-1.32.39 23.74 13.7a1.16 1.16 0 0 0 -.06 1.66l-13.59 7.84 21.72 12.54.5-.86-20.22-11.68 12.49-7.21a5 5 0 0 0 3.36.14l18.92 10.92.5-.86-18.36-10.6a1.23 1.23 0 0 0 -.08-2.1l17.74-10.25-17.93-10.35-1.46.31z"/><path d="m212.58 206v-14.87l-1 .09v14.17l-24.15 14a4.92 4.92 0 0 0 -3.83.25 1.34 1.34 0 0 0 0 2.54 4.87 4.87 0 0 0 4.4 0c1-.61 1.18-1.53.43-2.22l23.9-13.8z"/><path d="m450.33 395.84.75-.72-12.33-7.12v-15.39l-107.19-61.89-.44-.76-.44.25-.44-.25-.11-.07h-24.44l25-14.43 137.65 79.48.56-.83-136.5-78.81c4.24-.15 15.21 0 22.43.2h.17l1.68-1 118.69 68.52c.15-.3.3-.6.44-.9l-118.16-68.12 8.64-5 1.62.94.08.05 82.01 47.1c-.73.69-.59 1.6.45 2.2a4.85 4.85 0 0 0 4.39 0 1.34 1.34 0 0 0 0-2.54 4.93 4.93 0 0 0 -3.85-.24l-80.99-46.51h23.33v.07l.12-.07h13.35l68 39.23v22.19l4.48 2.59c.12-.32.23-.64.34-1l-3.82-2.21v-22.17l-25-14.45 4.1-2.36v-11.17l21-12.13c-.14-.3-.29-.6-.44-.9l-21.32 12.31-.25.14v11.17l-4.1 2.37-18.38-10.61v-8.47l17.59-10.15.25-.15v-16.34l9.06-5.24-.68-.76-48.71 28.11-1.65-.95-.12-.07h-11.89l56.8-32.79-.75-.72-58.05 33.53h-25l-1-.58 30.74-17.73-.5-.87-31.16 18-15.46-8.92h1.3l42.09-24.31h19.71a1.89 1.89 0 0 0 .77.77 4.87 4.87 0 0 0 4.4 0c1-.6 1.18-1.52.43-2.21l17.33-10-.86-.66-17.47 10.08a4.93 4.93 0 0 0 -3.83.25 2 2 0 0 0 -.77.77h-19.98l-42.1 24.31h-2.8l-17.42-10.06 48.4-27.94h28.7l12.65-7.31-1-.59-12 6.9h-28.7l-49.14 28.36-14.59-8.47 61-35.2a5 5 0 0 0 3.36 0l16.06 9.27 12.68-7.32-1-.55-11.64 6.72-15.13-8.71a1.18 1.18 0 0 0 -.05-1.83l8.49-4.9-1.14-.5-8.35 4.82a5.23 5.23 0 0 0 -3.18 0l-17-9.84 5.94-3.43c-.42-.14-.84-.29-1.27-.42l-5.67 3.27-7.33-4.23c.68-.68.52-1.57-.49-2.15a4.81 4.81 0 0 0 -4.4 0c-1 .6-1.18 1.52-.43 2.21l-61 35.2-3.78-2.2-.12-.06h-20.07l33.14-19.14h15.09l33.22-19.18-1.41-.34-32.08 18.52h-15.09l-34.28 19.8.19.34h-7.41l-18-10.42 33.43-19.3.25-.14v-19.19h-1v18.61l-33.68 19.44-3.1-1.79-.5.87 2.6 1.5-15.85 9.11-3.11-1.8-.5.87 2.61 1.5-17.09 9.87-.25.14v.64l-3.66-2.11-.5.86 4.16 2.41v8.91l-8.56-5-.5.87 9.06 5.23v1.24l-14.11 8.15-12.74-7.36-.5.86 12.2 7.09-14 8.11-12.75-7.35-.5.86 12.25 7.07-60.19 34.75h-22.59l-40.73 23.56v-15l201.81-116.49.25-.14v-15.91h-1v15.33l-157.73 91.07h-31.33l-42.42 24.51c0 .4-.06.8-.08 1.2l42.81-24.71h29.29l-42.35 24.45-.25.14v16.12l-25 14.43.34 1 66.66-38.53h22.55l60.92-35.17 7 4-16.86 9.74a4.92 4.92 0 0 0 -4 .17 1.34 1.34 0 0 0 0 2.54 5 5 0 0 0 3.84.25l4.2 2.43-12.38 7.15-.25.14v13.1l-68.68 39.64-.25.14v19.31l-15.45 8.92a4.92 4.92 0 0 0 -3.83.25 1.89 1.89 0 0 0 -.77.77h-21.13c.3.33.6.67.91 1h20.18a1.45 1.45 0 0 0 .33.44l-12.73 7.38.77.71 13-7.51a4.92 4.92 0 0 0 3.83-.25c1-.6 1.19-1.52.44-2.21l15.2-8.78.25-.14v-19.31l68.62-39.62.25-.14v-13.1l12.63-7.32 24.23 14-85 49.1-.25.14v21.19l-41.31 23.84.86.66 41.15-23.75.25-.15v-21.19l85.3-49.25 10.87 6.28-14.91 8.61-.25.15v22.18l-102.35 59.09 17.75 10.25a1.22 1.22 0 0 0 -.08 2.09l-7.57 4.37 1.07.54 7.56-4.36a5 5 0 0 0 3.35-.14l12.49 7.21-7.87 4.55 1.15.49 8.72-5-13.58-7.9a1.15 1.15 0 0 0 -.06-1.66l27.36-15.79.25-.15v-11.15l97-56 12.79 7.39-87.08 50.27-.25.14v15l-17.54 10.13-.25.14v16.35l-9.12 5.26 1.25.43 92.8-53.58.25-.14v-15.45l34.72-20.05.93.54v22.19l13.79 8-16.92 9.77h-11.88l-94.45 54.54 1.36.36 93.36-53.9h11.92l17.65-10.19 12.78 7.38-29.83 17.17c-.95.15-10.27.23-15.15.23h-.13l-74.75 43.05 1.47.3 73.54-42.35c2 0 14.9 0 15.46-.33l30.43-17.57 12.8 7.39-44.79 25.86h-18.62l-30.26 17.64h-8.12l-19.88 11.48 1.53.27 18.64-10.75h8.12l30.22-17.61h18.59l45.52-26.28 24.6 14.2h-31.92l-42.67 24.63a5 5 0 0 0 -3.83.26 1.34 1.34 0 0 0 0 2.53 4.81 4.81 0 0 0 4.4 0c1-.6 1.18-1.52.43-2.21l41.94-24.21h60.6l-29.78 17.19h-31.29l-44.36 25.61.5.86 44.13-25.47h29.29l-42.36 24.45.5.87 75.37-43.51h9.63l5.39 3.11-16.08 9.28a4.92 4.92 0 0 0 -3.83.25 1.34 1.34 0 0 0 0 2.54 4.85 4.85 0 0 0 4.39 0c1.05-.6 1.19-1.52.44-2.21l16.08-9.28 21.81 12.6 1.11-.51-28.95-16.72h-.08l-71.08-40.95c.74-.69.6-1.61-.44-2.21a4.85 4.85 0 0 0 -4.39 0 1.34 1.34 0 0 0 0 2.54 4.92 4.92 0 0 0 3.83.25l70.09 40.31h-36.87l-68-39.24v-22.18l-.93-.54 8.84-5.11 137 79.08.11.07h.51l1.93-1h-2.17l-136.34-78.73 12.8-7.39 122 70.44c1 .58 17.34.25 24.47.07l2.58 1.49.91-.63-3.23-1.86h-.14c-8.76.22-23.06.42-24.09.07l-121.47-70.15 11.17-6.45a2.38 2.38 0 0 0 .51.4 4.92 4.92 0 0 0 3.83.25l106.37 61.42.12.06h25.79l12.69 7.4.8-.69-13.14-7.59-.12-.07h-25.78l-95.39-55.07h28.61l56.05 32.36c-.75.69-.6 1.61.44 2.21a4.85 4.85 0 0 0 4.39 0 1.34 1.34 0 0 0 0-2.53 4.88 4.88 0 0 0 -3.83-.26l-56.66-32.76-.12-.07h-30.61l-8.64-5c.75-.69.6-1.61-.44-2.21a3.86 3.86 0 0 0 -.69-.29l32.33-18.67 107.07 61.82v15.39zm-19.92-93.44-6.33-3.66 6.33-3.65zm17.8-33.93v15.19l-25.13 14.51-13.16-7.6zm-144.21 41.24-12.8-7.39 13.49-7.79 1.57.9.12.07h.14c7.24-.18 18.25-.35 22.44-.21zm-78.61-17.82-18 10.37v-2.19l-22.34-12.89 27-15.62v12.67zm-10.07-22.16 24.23 14-13.15 7.6-13.26-7.65v-12.68zm-2.18.1v-1.36l1.18.68zm19.33 38a4.16 4.16 0 0 0 -1.53-.48v-3.78l7.33-4.23 28.06 16.2-12 6.9-21.4-12.44c.74-.67.6-1.59-.44-2.19zm33.63-18.83h-11.88l-1.78 1-10.87-6.28 7.72-4.45zm-15.81-10.29 12-6.9h3.06l28.77 16.61-1 .58h-25zm1.15 11.89-13.15 7.6-10.87-6.28 13.15-7.6zm-14.15 8.17-6.29 3.63v-7.31zm2 0 13.15-7.59 28.07 16.2-13.16 7.59zm14.15-8.17 1-.6h13.36l21.38 12.35-7.71 4.45zm16.39-.6h23.51l1.74-1 8.63 5-13.49 7.79zm26.25-1.58 16.45-9.5h17l.12.07-25 14.41zm-1-.58-27.78-16h26.24l1.69-1 13.89 8 .11.07h1.3zm.15-18.16-14.65-8.46 18.8-10.85 14.62 8.42zm-1 .57-1 .56h-27.7l-.79-.46 14.8-8.55zm-44.94 7.89-24.23-14 16.45-9.51a1.93 1.93 0 0 0 .76.74 4.85 4.85 0 0 0 4.39 0 1.86 1.86 0 0 0 .78-.77h19.7l11.44 6.61zm-1 .57-7.72 4.46-24.23-14 7.72-4.46zm-40.84 24.73 19-11 3.55 2.05v8.51l-18.42 10.63-4.09-2.37zm22.51.72v3.17a4.51 4.51 0 0 0 -1.87.51 1.34 1.34 0 0 0 0 2.54 5 5 0 0 0 3.84.25l21.47 12.37-12.79 7.39-28.07-16.21zm24.44 19.45 12.8 7.39-12.8 7.39-12.79-7.39zm1-.58 12-6.9 5.7 3.29.5-.87-5.2-3 13.16-7.59 12.79 7.38-26.1 15.08zm27.11-15.65 7.71-4.45 12.8 7.38-7.72 4.46zm72.2-12.85c-6.63-.17-21.19-.47-24 0-2.83-.43-17.39-.13-24 0l-.94-.55 25-14.42 25 14.42zm10.58-6.11-8.64 5-25-14.41.13-.07h17zm-34.61-20 16.42 9.48h-15.56l-.86.49-.74-.43-.11-.06h-15.56zm-1-.58-17.41 10.06h-2.77l-13.27-7.67 18.77-10.86zm-23.1-21.65v-16.13l40.83-23.56a5 5 0 0 0 3.36 0l25.29 14.61a1.2 1.2 0 0 0 -.06 1.89l-61 35.2-14.65-8.45 5.95-3.44zm-1-15.54v15l-6.2 3.58-12.95-7.48zm-20.15 11.64 12.95 7.48-18.8 10.85-12.05-7-.12-.07h-1.56zm-51.62-13.23 18.77 10.84h28.7l3.15 1.81-19.85 11.46h-17.46a2.52 2.52 0 0 0 -.46-.35 4.92 4.92 0 0 0 -3.83-.25l-24.83-14.37zm-34.19 19.74 17.34-10 24.87 14.36a1.62 1.62 0 0 0 -.25.28l-17.52 10.12-24.44-14.11zm0 1.8 23.44 13.53-7.72 4.45-15.72-9.08zm-.25 11.4.25-.14v-1.24l12.54 7.24v2.52l-28 16.19-5.67-3.28 15-8.68-8-4.61zm-28.9 16.69 14-8.11 7 4-14 8.11zm-10.08 16.72a1.17 1.17 0 0 0 .11-1.76l16.94-9.78 5.67 3.28-18.52 10.69zm5.2 3 18.52-10.69 22.34 12.89v2.19l-16.63 9.6zm25.23 14.59 15.63-9v7.83l4.09 2.36-8.85 5.11zm-57.82 79.53-.25.15v11.17l-27.55 15.9a5.2 5.2 0 0 0 -3.15-.13l-16.87-9.72 101.1-58.37.25-.14v-22.19l15.16-8.75 28.07 16.2zm69.72-72.66 8.85-5.11 28.04 16.24-8.85 5.11zm29.07 16.78 8.85-5.11 12.79 7.39-8.88 5.07zm-8.9 35.81-.25.15v15.39l-83.18 48v-15.16l60.36-34.84-.5-.86-42.1 24.3v-13.8l87.33-50.42 12.78 7.38zm35.44-20.46-12.78-7.38 8.85-5.1 12.77 7.37zm9.84-5.69-12.77-7.37 12.8-7.39 12.8 7.37zm28.18-16.47a4.33 4.33 0 0 0 -1.7.5 1.56 1.56 0 0 0 -.9 1.21l-11.75 6.79-12.8-7.34 26.1-15.07 1.05.6zm1-.37v-13.55l-1.05-.61 7.72-4.45h25.49z"/><path d="m64 262.65-39.2 22.63c-.29.56-.59 1.11-.87 1.66l41.2-23.79h28.4l13.85 8-9.52 5.49a4.93 4.93 0 0 0 -3.83.25 2 2 0 0 0 -.77.77h-36l-38.79 22.39c-.15.47-.3.94-.44 1.41l39.48-22.8h35.75a1.89 1.89 0 0 0 .77.77 4.87 4.87 0 0 0 4.4 0c1-.6 1.18-1.52.43-2.21l9.52-5.5 7.3 4.22.5-.87-6.8-3.92 15.86-9.15 7.29 4.22.5-.87-6.8-3.92 17.9-10.34 7.3 4.22.5-.87-6.8-3.92 7.72-4.46 3.48 2 .5-.87-3-1.72 11-6.33-.5-.86-11.45 6.61-13.28-7.67c.81-.69.69-1.65-.38-2.27a5 5 0 0 0 -3.93-.22l-1-.59v-16.34l-11.89-6.8-1.22.46 12 6.95v15.19l-27.38-15.86-1.11.51 29.61 17.1c-.68.68-.52 1.57.49 2.15a4.9 4.9 0 0 0 3.73.29l13.33 7.69-7.72 4.45-47.92-27.66-1.06.54 48 27.7-17.89 10.33-23.07-13.32-.12-.07h-20.07a2 2 0 0 0 -.72-.68 4.94 4.94 0 0 0 -3.73-.28l-11.15-6.49-.88.64 11 6.36c-.81.7-.69 1.65.38 2.27a4.87 4.87 0 0 0 4.4 0 1.83 1.83 0 0 0 .81-.86h19.68l22.45 13-15.86 9.15-14.58-8.41h-28.7l-15.17-8.76-.76.72z"/><path d="m80.06 233a4.87 4.87 0 0 0 4.4 0 1.34 1.34 0 0 0 0-2.54 4.61 4.61 0 0 0 -2.4-.5l-2.89 1.71a1.49 1.49 0 0 0 .89 1.33z"/></g><g opacity=".5"><path d="m56.22 348.88 34.29-19.8-.5-.86-34.01 19.66h-15.13l-19.1 11c.13.3.26.61.4.92l19-10.95zm10.19 19.54-.5-.87-23 13.26h-7.91l.78 1h7.42zm24.06-26.6-.47-.82-59.16 34.09c.19.28.37.56.56.83zm170.14-115.14 55.05-31.78-1.56-.26-54 31.17zm37.44-34.33-1.65-.19-12.23 7.06.5.86zm-110.58 15.09-16.84 9.72a5.17 5.17 0 0 0 -3.14.13l-23.36-13.48-1.32.39 23.74 13.7a1.16 1.16 0 0 0 -.06 1.66l-13.59 7.84 21.72 12.54.5-.86-20.22-11.68 12.49-7.21a5 5 0 0 0 3.36.14l18.92 10.92.5-.86-18.36-10.6a1.23 1.23 0 0 0 -.08-2.1l17.74-10.25-17.93-10.35-1.46.31z"/><path d="m212.58 206v-14.87l-1 .09v14.17l-24.15 14a4.92 4.92 0 0 0 -3.83.25 1.34 1.34 0 0 0 0 2.54 4.87 4.87 0 0 0 4.4 0c1-.61 1.18-1.53.43-2.22l23.9-13.8z"/><path d="m450.33 395.84.75-.72-12.33-7.12v-15.39l-107.19-61.89-.44-.76-.44.25-.44-.25-.11-.07h-24.44l25-14.43 137.65 79.48.56-.83-136.5-78.81c4.24-.15 15.21 0 22.43.2h.17l1.68-1 118.69 68.52c.15-.3.3-.6.44-.9l-118.16-68.12 8.64-5 1.62.94.08.05 82.01 47.1c-.73.69-.59 1.6.45 2.2a4.85 4.85 0 0 0 4.39 0 1.34 1.34 0 0 0 0-2.54 4.93 4.93 0 0 0 -3.85-.24l-80.99-46.51h23.33v.07l.12-.07h13.35l68 39.23v22.19l4.48 2.59c.12-.32.23-.64.34-1l-3.82-2.21v-22.17l-25-14.45 4.1-2.36v-11.17l21-12.13c-.14-.3-.29-.6-.44-.9l-21.32 12.31-.25.14v11.17l-4.1 2.37-18.38-10.61v-8.47l17.59-10.15.25-.15v-16.34l9.06-5.24-.68-.76-48.71 28.11-1.65-.95-.12-.07h-11.89l56.8-32.79-.75-.72-58.05 33.53h-25l-1-.58 30.74-17.73-.5-.87-31.16 18-15.46-8.92h1.3l42.09-24.31h19.71a1.89 1.89 0 0 0 .77.77 4.87 4.87 0 0 0 4.4 0c1-.6 1.18-1.52.43-2.21l17.33-10-.86-.66-17.47 10.08a4.93 4.93 0 0 0 -3.83.25 2 2 0 0 0 -.77.77h-19.98l-42.1 24.31h-2.8l-17.42-10.06 48.4-27.94h28.7l12.65-7.31-1-.59-12 6.9h-28.7l-49.14 28.36-14.59-8.47 61-35.2a5 5 0 0 0 3.36 0l16.06 9.27 12.68-7.32-1-.55-11.64 6.72-15.13-8.71a1.18 1.18 0 0 0 -.05-1.83l8.49-4.9-1.14-.5-8.35 4.82a5.23 5.23 0 0 0 -3.18 0l-17-9.84 5.94-3.43c-.42-.14-.84-.29-1.27-.42l-5.67 3.27-7.33-4.23c.68-.68.52-1.57-.49-2.15a4.81 4.81 0 0 0 -4.4 0c-1 .6-1.18 1.52-.43 2.21l-61 35.2-3.78-2.2-.12-.06h-20.07l33.14-19.14h15.09l33.22-19.18-1.41-.34-32.08 18.52h-15.09l-34.28 19.8.19.34h-7.41l-18-10.42 33.43-19.3.25-.14v-19.19h-1v18.61l-33.68 19.44-3.1-1.79-.5.87 2.6 1.5-15.85 9.11-3.11-1.8-.5.87 2.61 1.5-17.09 9.87-.25.14v.64l-3.66-2.11-.5.86 4.16 2.41v8.91l-8.56-5-.5.87 9.06 5.23v1.24l-14.11 8.15-12.74-7.36-.5.86 12.2 7.09-14 8.11-12.75-7.35-.5.86 12.25 7.07-60.19 34.75h-22.59l-40.73 23.56v-15l201.81-116.49.25-.14v-15.91h-1v15.33l-157.73 91.07h-31.33l-42.42 24.51c0 .4-.06.8-.08 1.2l42.81-24.71h29.29l-42.35 24.45-.25.14v16.12l-25 14.43.34 1 66.66-38.53h22.55l60.92-35.17 7 4-16.86 9.74a4.92 4.92 0 0 0 -4 .17 1.34 1.34 0 0 0 0 2.54 5 5 0 0 0 3.84.25l4.2 2.43-12.38 7.15-.25.14v13.1l-68.68 39.64-.25.14v19.31l-15.45 8.92a4.92 4.92 0 0 0 -3.83.25 1.89 1.89 0 0 0 -.77.77h-21.13c.3.33.6.67.91 1h20.18a1.45 1.45 0 0 0 .33.44l-12.73 7.38.77.71 13-7.51a4.92 4.92 0 0 0 3.83-.25c1-.6 1.19-1.52.44-2.21l15.2-8.78.25-.14v-19.31l68.62-39.62.25-.14v-13.1l12.63-7.32 24.23 14-85 49.1-.25.14v21.19l-41.31 23.84.86.66 41.15-23.75.25-.15v-21.19l85.3-49.25 10.87 6.28-14.91 8.61-.25.15v22.18l-102.35 59.09 17.75 10.25a1.22 1.22 0 0 0 -.08 2.09l-7.57 4.37 1.07.54 7.56-4.36a5 5 0 0 0 3.35-.14l12.49 7.21-7.87 4.55 1.15.49 8.72-5-13.58-7.9a1.15 1.15 0 0 0 -.06-1.66l27.36-15.79.25-.15v-11.15l97-56 12.79 7.39-87.08 50.27-.25.14v15l-17.54 10.13-.25.14v16.35l-9.12 5.26 1.25.43 92.8-53.58.25-.14v-15.45l34.72-20.05.93.54v22.19l13.79 8-16.92 9.77h-11.88l-94.45 54.54 1.36.36 93.36-53.9h11.92l17.65-10.19 12.78 7.38-29.83 17.17c-.95.15-10.27.23-15.15.23h-.13l-74.75 43.05 1.47.3 73.54-42.35c2 0 14.9 0 15.46-.33l30.43-17.57 12.8 7.39-44.79 25.86h-18.62l-30.26 17.64h-8.12l-19.88 11.48 1.53.27 18.64-10.75h8.12l30.22-17.61h18.59l45.52-26.28 24.6 14.2h-31.92l-42.67 24.63a5 5 0 0 0 -3.83.26 1.34 1.34 0 0 0 0 2.53 4.81 4.81 0 0 0 4.4 0c1-.6 1.18-1.52.43-2.21l41.94-24.21h60.6l-29.78 17.19h-31.29l-44.36 25.61.5.86 44.13-25.47h29.29l-42.36 24.45.5.87 75.37-43.51h9.63l5.39 3.11-16.08 9.28a4.92 4.92 0 0 0 -3.83.25 1.34 1.34 0 0 0 0 2.54 4.85 4.85 0 0 0 4.39 0c1.05-.6 1.19-1.52.44-2.21l16.08-9.28 21.81 12.6 1.11-.51-28.95-16.72h-.08l-71.08-40.95c.74-.69.6-1.61-.44-2.21a4.85 4.85 0 0 0 -4.39 0 1.34 1.34 0 0 0 0 2.54 4.92 4.92 0 0 0 3.83.25l70.09 40.31h-36.87l-68-39.24v-22.18l-.93-.54 8.84-5.11 137 79.08.11.07h.51l1.93-1h-2.17l-136.34-78.73 12.8-7.39 122 70.44c1 .58 17.34.25 24.47.07l2.58 1.49.91-.63-3.23-1.86h-.14c-8.76.22-23.06.42-24.09.07l-121.47-70.15 11.17-6.45a2.38 2.38 0 0 0 .51.4 4.92 4.92 0 0 0 3.83.25l106.37 61.42.12.06h25.79l12.69 7.4.8-.69-13.14-7.59-.12-.07h-25.78l-95.39-55.07h28.61l56.05 32.36c-.75.69-.6 1.61.44 2.21a4.85 4.85 0 0 0 4.39 0 1.34 1.34 0 0 0 0-2.53 4.88 4.88 0 0 0 -3.83-.26l-56.66-32.76-.12-.07h-30.61l-8.64-5c.75-.69.6-1.61-.44-2.21a3.86 3.86 0 0 0 -.69-.29l32.33-18.67 107.07 61.82v15.39zm-19.92-93.44-6.33-3.66 6.33-3.65zm17.8-33.93v15.19l-25.13 14.51-13.16-7.6zm-144.21 41.24-12.8-7.39 13.49-7.79 1.57.9.12.07h.14c7.24-.18 18.25-.35 22.44-.21zm-78.61-17.82-18 10.37v-2.19l-22.34-12.89 27-15.62v12.67zm-10.07-22.16 24.23 14-13.15 7.6-13.26-7.65v-12.68zm-2.18.1v-1.36l1.18.68zm19.33 38a4.16 4.16 0 0 0 -1.53-.48v-3.78l7.33-4.23 28.06 16.2-12 6.9-21.4-12.44c.74-.67.6-1.59-.44-2.19zm33.63-18.83h-11.88l-1.78 1-10.87-6.28 7.72-4.45zm-15.81-10.29 12-6.9h3.06l28.77 16.61-1 .58h-25zm1.15 11.89-13.15 7.6-10.87-6.28 13.15-7.6zm-14.15 8.17-6.29 3.63v-7.31zm2 0 13.15-7.59 28.07 16.2-13.16 7.59zm14.15-8.17 1-.6h13.36l21.38 12.35-7.71 4.45zm16.39-.6h23.51l1.74-1 8.63 5-13.49 7.79zm26.25-1.58 16.45-9.5h17l.12.07-25 14.41zm-1-.58-27.78-16h26.24l1.69-1 13.89 8 .11.07h1.3zm.15-18.16-14.65-8.46 18.8-10.85 14.62 8.42zm-1 .57-1 .56h-27.7l-.79-.46 14.8-8.55zm-44.94 7.89-24.23-14 16.45-9.51a1.93 1.93 0 0 0 .76.74 4.85 4.85 0 0 0 4.39 0 1.86 1.86 0 0 0 .78-.77h19.7l11.44 6.61zm-1 .57-7.72 4.46-24.23-14 7.72-4.46zm-40.84 24.73 19-11 3.55 2.05v8.51l-18.42 10.63-4.09-2.37zm22.51.72v3.17a4.51 4.51 0 0 0 -1.87.51 1.34 1.34 0 0 0 0 2.54 5 5 0 0 0 3.84.25l21.47 12.37-12.79 7.39-28.07-16.21zm24.44 19.45 12.8 7.39-12.8 7.39-12.79-7.39zm1-.58 12-6.9 5.7 3.29.5-.87-5.2-3 13.16-7.59 12.79 7.38-26.1 15.08zm27.11-15.65 7.71-4.45 12.8 7.38-7.72 4.46zm72.2-12.85c-6.63-.17-21.19-.47-24 0-2.83-.43-17.39-.13-24 0l-.94-.55 25-14.42 25 14.42zm10.58-6.11-8.64 5-25-14.41.13-.07h17zm-34.61-20 16.42 9.48h-15.56l-.86.49-.74-.43-.11-.06h-15.56zm-1-.58-17.41 10.06h-2.77l-13.27-7.67 18.77-10.86zm-23.1-21.65v-16.13l40.83-23.56a5 5 0 0 0 3.36 0l25.29 14.61a1.2 1.2 0 0 0 -.06 1.89l-61 35.2-14.65-8.45 5.95-3.44zm-1-15.54v15l-6.2 3.58-12.95-7.48zm-20.15 11.64 12.95 7.48-18.8 10.85-12.05-7-.12-.07h-1.56zm-51.62-13.23 18.77 10.84h28.7l3.15 1.81-19.85 11.46h-17.46a2.52 2.52 0 0 0 -.46-.35 4.92 4.92 0 0 0 -3.83-.25l-24.83-14.37zm-34.19 19.74 17.34-10 24.87 14.36a1.62 1.62 0 0 0 -.25.28l-17.52 10.12-24.44-14.11zm0 1.8 23.44 13.53-7.72 4.45-15.72-9.08zm-.25 11.4.25-.14v-1.24l12.54 7.24v2.52l-28 16.19-5.67-3.28 15-8.68-8-4.61zm-28.9 16.69 14-8.11 7 4-14 8.11zm-10.08 16.72a1.17 1.17 0 0 0 .11-1.76l16.94-9.78 5.67 3.28-18.52 10.69zm5.2 3 18.52-10.69 22.34 12.89v2.19l-16.63 9.6zm25.23 14.59 15.63-9v7.83l4.09 2.36-8.85 5.11zm-57.82 79.53-.25.15v11.17l-27.55 15.9a5.2 5.2 0 0 0 -3.15-.13l-16.87-9.72 101.1-58.37.25-.14v-22.19l15.16-8.75 28.07 16.2zm69.72-72.66 8.85-5.11 28.04 16.24-8.85 5.11zm29.07 16.78 8.85-5.11 12.79 7.39-8.88 5.07zm-8.9 35.81-.25.15v15.39l-83.18 48v-15.16l60.36-34.84-.5-.86-42.1 24.3v-13.8l87.33-50.42 12.78 7.38zm35.44-20.46-12.78-7.38 8.85-5.1 12.77 7.37zm9.84-5.69-12.77-7.37 12.8-7.39 12.8 7.37zm28.18-16.47a4.33 4.33 0 0 0 -1.7.5 1.56 1.56 0 0 0 -.9 1.21l-11.75 6.79-12.8-7.34 26.1-15.07 1.05.6zm1-.37v-13.55l-1.05-.61 7.72-4.45h25.49z"/><path d="m64 262.65-39.2 22.63c-.29.56-.59 1.11-.87 1.66l41.2-23.79h28.4l13.85 8-9.52 5.49a4.93 4.93 0 0 0 -3.83.25 2 2 0 0 0 -.77.77h-36l-38.79 22.39c-.15.47-.3.94-.44 1.41l39.48-22.8h35.75a1.89 1.89 0 0 0 .77.77 4.87 4.87 0 0 0 4.4 0c1-.6 1.18-1.52.43-2.21l9.52-5.5 7.3 4.22.5-.87-6.8-3.92 15.86-9.15 7.29 4.22.5-.87-6.8-3.92 17.9-10.34 7.3 4.22.5-.87-6.8-3.92 7.72-4.46 3.48 2 .5-.87-3-1.72 11-6.33-.5-.86-11.45 6.61-13.28-7.67c.81-.69.69-1.65-.38-2.27a5 5 0 0 0 -3.93-.22l-1-.59v-16.34l-11.89-6.8-1.22.46 12 6.95v15.19l-27.38-15.86-1.11.51 29.61 17.1c-.68.68-.52 1.57.49 2.15a4.9 4.9 0 0 0 3.73.29l13.33 7.69-7.72 4.45-47.92-27.66-1.06.54 48 27.7-17.89 10.33-23.07-13.32-.12-.07h-20.07a2 2 0 0 0 -.72-.68 4.94 4.94 0 0 0 -3.73-.28l-11.15-6.49-.88.64 11 6.36c-.81.7-.69 1.65.38 2.27a4.87 4.87 0 0 0 4.4 0 1.83 1.83 0 0 0 .81-.86h19.68l22.45 13-15.86 9.15-14.58-8.41h-28.7l-15.17-8.76-.76.72z"/><path d="m80.06 233a4.87 4.87 0 0 0 4.4 0 1.34 1.34 0 0 0 0-2.54 4.61 4.61 0 0 0 -2.4-.5l-2.89 1.71a1.49 1.49 0 0 0 .89 1.33z"/></g><ellipse cx="356.84" cy="405.16" opacity=".2" rx="26.15" ry="15.1"/><ellipse cx="138.97" cy="398.13" opacity=".2" rx="26.15" ry="15.1"/><path d="m32.26 134.6 123.5-70.85c1.73-1 3.14-.19 3.14 1.82v91.34a7 7 0 0 1 -3.14 5.44l-123.5 70.85c-1.74 1-3.15.19-3.15-1.81v-91.34a7 7 0 0 1 3.15-5.45z" fill="#407bff"/><path d="m32.26 134.6 123.5-70.85c1.73-1 3.14-.19 3.14 1.82v91.34a7 7 0 0 1 -3.14 5.44l-123.5 70.85c-1.74 1-3.15.19-3.15-1.81v-91.34a7 7 0 0 1 3.15-5.45z" fill="#fff" opacity=".9"/><path d="m157.16 64.32c.64 0 .74.78.74 1.25v91.34a5.93 5.93 0 0 1 -2.64 4.57l-123.5 70.86a1.9 1.9 0 0 1 -.91.29c-.64 0-.74-.78-.74-1.24v-91.34a5.94 5.94 0 0 1 2.64-4.58l123.51-70.85a1.78 1.78 0 0 1 .9-.3m0-1a2.85 2.85 0 0 0 -1.4.43l-123.5 70.85a7 7 0 0 0 -3.15 5.45v91.34c0 1.42.71 2.24 1.74 2.24a2.91 2.91 0 0 0 1.41-.43l123.5-70.85a7 7 0 0 0 3.14-5.44v-91.34c0-1.43-.71-2.25-1.74-2.25z" fill="#407bff" opacity=".3"/><g fill="#407bff" opacity=".3"><path d="m43.93 214.21a202.89 202.89 0 0 1 1.51-21.56c.92-7.78 2.81-20.89 10.31-25.22s10.31 3.49 11.39 7.34c1.41 5 8.74 1.84 9.77-6.4s1.68-34.48 10.46-39.55 11.63 7.18 12.63 10.55c2 6.69 7.74 4.85 9.62.41s7-5.52 8.95.72 3.15 13.4 9.43 9.72c5.51-3.22 3-9.11 8.36-11.89 4.25-2.21 6.22 8.29 6.22 18.92zm.89-52.11c0 1.15 1 1.48 2.29.75l12.45-7.17a4.57 4.57 0 0 0 2.29-3.39c0-1.15-1-1.48-2.29-.75l-12.45 7.17a4.6 4.6 0 0 0 -2.29 3.39zm34.84-36.79c0 1.14 1 1.47 2.3.74l12.44-7.16a4.62 4.62 0 0 0 2.3-3.4c0-1.14-1-1.48-2.3-.75l-12.4 7.17a4.59 4.59 0 0 0 -2.34 3.4z"/><path d="m104.15 130.1c0 1.15 1 1.48 2.3.75l12.44-7.17a4.59 4.59 0 0 0 2.3-3.39c0-1.15-1-1.48-2.3-.75l-12.44 7.17a4.59 4.59 0 0 0 -2.3 3.39zm22.9 5.26c0 1.14 1 1.48 2.29.74l12.45-7.16a4.57 4.57 0 0 0 2.29-3.4c0-1.14-1-1.48-2.29-.74l-12.45 7.2a4.6 4.6 0 0 0 -2.29 3.36z"/></g><path d="m55.75 168.93a.5.5 0 0 1 -.5-.5v-1a.5.5 0 0 1 .5-.5.5.5 0 0 1 .5.5v1a.51.51 0 0 1 -.5.5zm0 34.33a.5.5 0 0 1 -.5-.5v-1.91a.5.5 0 0 1 .5-.5.51.51 0 0 1 .5.5v1.91a.5.5 0 0 1 -.5.5zm0-5.72a.5.5 0 0 1 -.5-.5v-1.91a.5.5 0 0 1 .5-.5.5.5 0 0 1 .5.5v1.87a.51.51 0 0 1 -.5.54zm0-5.72a.5.5 0 0 1 -.5-.5v-1.91a.5.5 0 0 1 .5-.5.5.5 0 0 1 .5.5v1.91a.51.51 0 0 1 -.5.5zm0-5.73a.5.5 0 0 1 -.5-.5v-1.9a.5.5 0 0 1 .5-.5.5.5 0 0 1 .5.5v1.9a.5.5 0 0 1 -.5.5zm0-5.72a.5.5 0 0 1 -.5-.5v-1.87a.5.5 0 0 1 .5-.5.51.51 0 0 1 .5.5v1.91a.5.5 0 0 1 -.5.46zm0-5.72a.5.5 0 0 1 -.5-.5v-1.91a.5.5 0 0 1 .5-.5.5.5 0 0 1 .5.5v1.91a.51.51 0 0 1 -.5.5zm0 33.43a.5.5 0 0 1 -.5-.5v-1a.5.5 0 0 1 .5-.5.5.5 0 0 1 .5.5v1a.51.51 0 0 1 -.5.5zm57.99-70.08a.5.5 0 0 1 -.5-.5v-1a.5.5 0 0 1 .5-.5.5.5 0 0 1 .5.5v1a.5.5 0 0 1 -.5.5zm0 31.33a.5.5 0 0 1 -.5-.5v-2.09a.5.5 0 0 1 .5-.5.51.51 0 0 1 .5.5v2.09a.5.5 0 0 1 -.5.5zm0-6.27a.5.5 0 0 1 -.5-.5v-2.08a.5.5 0 0 1 .5-.5.5.5 0 0 1 .5.5v2.08a.5.5 0 0 1 -.5.5zm0-6.26a.5.5 0 0 1 -.5-.5v-2.09a.5.5 0 0 1 .5-.5.5.5 0 0 1 .5.5v2.09a.51.51 0 0 1 -.5.5zm0-6.27a.5.5 0 0 1 -.5-.5v-2.09a.5.5 0 0 1 .5-.5.5.5 0 0 1 .5.5v2.06a.51.51 0 0 1 -.5.53zm0-6.27a.5.5 0 0 1 -.5-.5v-2.09a.5.5 0 0 1 .5-.5.5.5 0 0 1 .5.5v2.09a.5.5 0 0 1 -.5.5zm0 30.25a.5.5 0 0 1 -.5-.5v-1a.5.5 0 0 1 .5-.5.51.51 0 0 1 .5.5v1a.5.5 0 0 1 -.5.5zm22.64-34.68a.51.51 0 0 1 -.5-.5v-1a.5.5 0 0 1 .5-.5.5.5 0 0 1 .5.5v1a.5.5 0 0 1 -.5.5zm.03 16.84a.5.5 0 0 1 -.5-.5v-1.87a.5.5 0 0 1 .5-.5.5.5 0 0 1 .5.5v1.87a.5.5 0 0 1 -.5.5zm0-5.61a.51.51 0 0 1 -.5-.5v-1.87a.5.5 0 0 1 .5-.5.49.49 0 0 1 .5.49v1.88a.5.5 0 0 1 -.5.5zm0-5.62a.5.5 0 0 1 -.5-.5v-1.87a.51.51 0 0 1 .5-.5.5.5 0 0 1 .5.5v1.87a.5.5 0 0 1 -.5.5zm.01 15.98a.51.51 0 0 1 -.5-.5v-1a.5.5 0 0 1 .5-.5.54.54 0 0 1 .5.5v1a.5.5 0 0 1 -.5.5zm-47.06-31.99a.5.5 0 0 1 -.5-.5v-1a.51.51 0 0 1 .5-.5.5.5 0 0 1 .5.5v1a.5.5 0 0 1 -.5.5zm0 54.14a.5.5 0 0 1 -.5-.5v-2a.5.5 0 0 1 .5-.5.5.5 0 0 1 .5.5v2a.5.5 0 0 1 -.5.5zm0-6a.51.51 0 0 1 -.5-.5v-2a.51.51 0 0 1 .5-.5.5.5 0 0 1 .5.5v2a.5.5 0 0 1 -.5.49zm0-6a.5.5 0 0 1 -.5-.5v-2a.5.5 0 0 1 .5-.5.5.5 0 0 1 .5.5v2a.5.5 0 0 1 -.5.47zm0-6a.51.51 0 0 1 -.5-.5v-2a.51.51 0 0 1 .5-.5.5.5 0 0 1 .5.5v2a.5.5 0 0 1 -.5.46zm0-6a.5.5 0 0 1 -.5-.5v-2a.5.5 0 0 1 .5-.5.5.5 0 0 1 .5.5v2a.5.5 0 0 1 -.5.44zm0-6a.51.51 0 0 1 -.5-.5v-2a.5.5 0 0 1 .5-.5.5.5 0 0 1 .5.5v2a.5.5 0 0 1 -.5.43zm0-6a.5.5 0 0 1 -.5-.5v-2a.51.51 0 0 1 .5-.5.5.5 0 0 1 .5.5v2a.5.5 0 0 1 -.5.41zm0-6a.5.5 0 0 1 -.5-.5v-2a.5.5 0 0 1 .5-.5.5.5 0 0 1 .5.5v2a.5.5 0 0 1 -.5.39zm0-6a.51.51 0 0 1 -.5-.5v-2a.51.51 0 0 1 .5-.5.5.5 0 0 1 .5.5v2a.5.5 0 0 1 -.5.38zm0 53.01a.5.5 0 0 1 -.5-.5v-1a.51.51 0 0 1 .5-.5.5.5 0 0 1 .5.5v1a.5.5 0 0 1 -.5.5z" fill="#fff"/><path d="m467.48 134.6-123.48-70.85c-1.73-1-3.14-.19-3.14 1.82v91.34a7 7 0 0 0 3.14 5.44l123.48 70.85c1.73 1 3.14.19 3.14-1.81v-91.34a7 7 0 0 0 -3.14-5.45z" fill="#407bff"/><path d="m467.48 134.6-123.48-70.85c-1.73-1-3.14-.19-3.14 1.82v91.34a7 7 0 0 0 3.14 5.44l123.48 70.85c1.73 1 3.14.19 3.14-1.81v-91.34a7 7 0 0 0 -3.14-5.45z" fill="#fff" opacity=".9"/><path d="m342.57 64.32a1.84 1.84 0 0 1 .91.3l123.52 70.85a5.94 5.94 0 0 1 2.64 4.58v91.34c0 .46-.1 1.24-.74 1.24a1.9 1.9 0 0 1 -.91-.29l-123.5-70.86a5.93 5.93 0 0 1 -2.64-4.57v-91.34c0-.47.1-1.25.74-1.25m0-1c-1 0-1.74.82-1.74 2.25v91.34a7 7 0 0 0 3.14 5.44l123.49 70.85a2.85 2.85 0 0 0 1.4.43c1 0 1.74-.82 1.74-2.24v-91.34a7 7 0 0 0 -3.14-5.45l-123.48-70.85a2.85 2.85 0 0 0 -1.4-.43z" fill="#407bff" opacity=".3"/><path d="m349.34 155.26v-4.07l12.18-11.73 9.13 19.35 9.18-10.56 7.41 13.46 21.56-27.85 8.84 19.95 13.65-20.83 18.37 52.98 13.41 16.82v18.14z" fill="#407bff" opacity=".3"/><path d="m431.29 203a.5.5 0 0 1 -.5-.5v-2a.51.51 0 0 1 .5-.5.5.5 0 0 1 .5.5v2a.5.5 0 0 1 -.5.5zm0-6a.5.5 0 0 1 -.5-.5v-2a.51.51 0 0 1 .5-.5.5.5 0 0 1 .5.5v2a.5.5 0 0 1 -.5.5zm0-6a.5.5 0 0 1 -.5-.5v-2a.51.51 0 0 1 .5-.5.5.5 0 0 1 .5.5v2a.5.5 0 0 1 -.5.5zm0-6a.5.5 0 0 1 -.5-.5v-2a.51.51 0 0 1 .5-.5.5.5 0 0 1 .5.5v2a.5.5 0 0 1 -.5.5zm0-6a.5.5 0 0 1 -.5-.5v-2a.51.51 0 0 1 .5-.5.5.5 0 0 1 .5.5v2a.5.5 0 0 1 -.5.5zm0-6a.5.5 0 0 1 -.5-.5v-2a.51.51 0 0 1 .5-.5.5.5 0 0 1 .5.5v2a.5.5 0 0 1 -.5.5zm0-6a.5.5 0 0 1 -.5-.5v-2a.51.51 0 0 1 .5-.5.5.5 0 0 1 .5.5v2a.5.5 0 0 1 -.5.5zm0-6a.5.5 0 0 1 -.5-.5v-2a.51.51 0 0 1 .5-.5.5.5 0 0 1 .5.5v2a.5.5 0 0 1 -.5.5zm0-6a.5.5 0 0 1 -.5-.5v-2a.51.51 0 0 1 .5-.5.5.5 0 0 1 .5.5v2a.5.5 0 0 1 -.5.5zm0-6a.5.5 0 0 1 -.5-.5v-2a.51.51 0 0 1 .5-.5.5.5 0 0 1 .5.5v2a.5.5 0 0 1 -.5.5zm0-6a.5.5 0 0 1 -.5-.5v-2a.51.51 0 0 1 .5-.5.5.5 0 0 1 .5.5v2a.5.5 0 0 1 -.5.5zm0-6a.5.5 0 0 1 -.5-.5v-2a.51.51 0 0 1 .5-.5.5.5 0 0 1 .5.5v2a.5.5 0 0 1 -.5.5zm-22.41 49.06a.5.5 0 0 1 -.5-.5v-2a.5.5 0 0 1 1 0v2a.5.5 0 0 1 -.5.5zm0-6a.5.5 0 0 1 -.5-.5v-2a.5.5 0 0 1 1 0v2a.5.5 0 0 1 -.5.5zm0-6a.5.5 0 0 1 -.5-.5v-2a.5.5 0 0 1 1 0v2a.5.5 0 0 1 -.5.5zm0-6a.5.5 0 0 1 -.5-.5v-2a.5.5 0 0 1 1 0v2a.5.5 0 0 1 -.5.5zm0-6a.5.5 0 0 1 -.5-.5v-2a.5.5 0 0 1 1 0v2a.5.5 0 0 1 -.5.5zm0-6a.5.5 0 0 1 -.5-.5v-2a.5.5 0 0 1 1 0v2a.5.5 0 0 1 -.5.5zm0-6a.5.5 0 0 1 -.5-.5v-2a.5.5 0 0 1 1 0v2a.5.5 0 0 1 -.5.5zm0-6a.5.5 0 0 1 -.5-.5v-2a.5.5 0 0 1 1 0v2a.5.5 0 0 1 -.5.5zm0-6a.5.5 0 0 1 -.5-.5v-2a.5.5 0 0 1 1 0v2a.5.5 0 0 1 -.5.5zm-47.36 23.94a.5.5 0 0 1 -.5-.5v-2a.5.5 0 0 1 .5-.5.5.5 0 0 1 .5.5v2a.5.5 0 0 1 -.5.5zm0-6a.5.5 0 0 1 -.5-.5v-2a.5.5 0 0 1 .5-.5.5.5 0 0 1 .5.5v2a.5.5 0 0 1 -.5.5zm0-6a.5.5 0 0 1 -.5-.5v-2a.5.5 0 0 1 .5-.5.5.5 0 0 1 .5.5v2a.5.5 0 0 1 -.5.5zm0-6a.5.5 0 0 1 -.5-.5v-2a.5.5 0 0 1 .5-.5.5.5 0 0 1 .5.5v2a.5.5 0 0 1 -.5.5zm18.05 26.38a.51.51 0 0 1 -.5-.5v-2a.5.5 0 0 1 .5-.5.5.5 0 0 1 .5.5v2a.5.5 0 0 1 -.5.5zm0-6a.51.51 0 0 1 -.5-.5v-2a.5.5 0 0 1 .5-.5.5.5 0 0 1 .5.5v2a.5.5 0 0 1 -.5.5zm0-6a.51.51 0 0 1 -.5-.5v-2a.5.5 0 0 1 .5-.5.5.5 0 0 1 .5.5v2a.5.5 0 0 1 -.5.5zm0-6a.51.51 0 0 1 -.5-.5v-2a.5.5 0 0 1 .5-.5.5.5 0 0 1 .5.5v2a.5.5 0 0 1 -.5.5z" fill="#fff"/><path d="m368 133.51c0 1.14-1 1.48-2.29.75l-7.27-4.26a4.6 4.6 0 0 1 -2.29-3.39c0-1.15 1-1.48 2.29-.75l7.26 4.23a4.57 4.57 0 0 1 2.3 3.42zm17.89 13.28c0 1.15-1 1.48-2.29.75l-7.25-4.23a4.59 4.59 0 0 1 -2.3-3.39c0-1.14 1-1.48 2.3-.75l7.25 4.23a4.57 4.57 0 0 1 2.29 3.39zm28.91-16.29c0 1.14-1 1.48-2.29.75l-7.26-4.25a4.6 4.6 0 0 1 -2.29-3.4c0-1.14 1-1.47 2.29-.74l7.26 4.22a4.61 4.61 0 0 1 2.29 3.42zm23.56-.5c0 1.14-1 1.48-2.3.74l-7.25-4.22a4.59 4.59 0 0 1 -2.3-3.4c0-1.14 1-1.47 2.3-.74l7.25 4.22a4.62 4.62 0 0 1 2.3 3.4z" fill="#407bff" opacity=".3"/><path d="m394.31 293.36-137.9 79.55a14.17 14.17 0 0 1 -12.85 0l-137.87-79.54c-1.78-1-2.67-2.35-2.67-3.71a3.8 3.8 0 0 1 1.41-2.79 6.29 6.29 0 0 1 1.26-.91l137.9-79.53a14.19 14.19 0 0 1 12.85 0l137.87 79.51c3.54 2.06 3.54 5.39 0 7.42z" opacity=".2"/><path d="m250 336.28v26.8a13.1 13.1 0 0 1 -6.4-1.51l-137.91-79.57c-1.78-1-2.67-2.37-2.67-3.71v-23.18a3.8 3.8 0 0 1 1.41-2.8l19.95 11.52z" fill="#407bff"/><path d="m250 336.28v26.8a13.1 13.1 0 0 1 -6.4-1.51l-137.91-79.57c-1.78-1-2.67-2.37-2.67-3.71v-23.18a3.8 3.8 0 0 1 1.41-2.8l19.95 11.52z" fill="#fff" opacity=".5"/><path d="m250 336.28v26.8a13.11 13.11 0 0 0 6.41-1.51l137.9-79.57c1.78-1 2.67-2.37 2.67-3.71v-23.19a3.8 3.8 0 0 0 -1.41-2.8l-19.95 11.52z" fill="#407bff"/><path d="m250 336.28v26.8a13.11 13.11 0 0 0 6.41-1.51l137.9-79.57c1.78-1 2.67-2.37 2.67-3.71v-23.19a3.8 3.8 0 0 0 -1.41-2.8l-19.95 11.52z" fill="#fff" opacity=".65"/><path d="m394.31 258.8-137.9 79.56a14.26 14.26 0 0 1 -12.85 0l-137.87-79.55c-1.78-1-2.67-2.34-2.67-3.7a3.8 3.8 0 0 1 1.41-2.8 6.29 6.29 0 0 1 1.26-.91l137.9-79.53a14.19 14.19 0 0 1 12.85 0l137.87 79.52c3.54 2.05 3.54 5.39 0 7.41z" fill="#407bff"/><path d="m394.31 258.8-137.9 79.56a14.26 14.26 0 0 1 -12.85 0l-137.87-79.55c-1.78-1-2.67-2.34-2.67-3.7a3.8 3.8 0 0 1 1.41-2.8 6.29 6.29 0 0 1 1.26-.91l137.9-79.53a14.19 14.19 0 0 1 12.85 0l137.87 79.52c3.54 2.05 3.54 5.39 0 7.41z" fill="#fff" opacity=".8"/><path d="m250 171.92a11.69 11.69 0 0 1 5.64 1.33l137.86 79.51c1.19.69 1.86 1.54 1.86 2.35s-.68 1.64-1.85 2.32l-137.9 79.57a12.67 12.67 0 0 1 -11.26 0l-137.87-79.57c-1.19-.67-1.87-1.52-1.87-2.32a2.31 2.31 0 0 1 .9-1.63 4.9 4.9 0 0 1 1-.7l137.91-79.53a11.45 11.45 0 0 1 5.62-1.33m0-1.59a13 13 0 0 0 -6.42 1.54l-137.93 79.53a6 6 0 0 0 -1.26.91 3.8 3.8 0 0 0 -1.41 2.8c0 1.36.89 2.69 2.67 3.7l137.87 79.55a14.26 14.26 0 0 0 12.85 0l137.9-79.56c3.54-2 3.54-5.36 0-7.41l-137.87-79.52a13.12 13.12 0 0 0 -6.43-1.54z" fill="#fff"/><path d="m245.73 188-112 64.62c-2.37 1.37-2.37 3.58 0 4.95l112 64.61a9.43 9.43 0 0 0 8.56 0l112.05-64.62c2.37-1.37 2.37-3.58 0-4.95l-112.05-64.61a9.43 9.43 0 0 0 -8.56 0z" fill="#455a64"/><path d="m366.31 252.63-112.02-64.63a8.77 8.77 0 0 0 -4.28-1v4.35l115.56 66.65.74-.43c2.37-1.36 2.37-3.57 0-4.94z" fill="#37474f"/><path d="m250 187a8.77 8.77 0 0 0 -4.28 1l-112 64.62c-2.37 1.37-2.37 3.58 0 4.95l.74.43 115.54-66.65z" fill="#263238"/><g fill="#407bff"><g opacity=".5"><path d="m257.74 305.84a13.77 13.77 0 0 1 -7.87 1.85c-.05 0 0 0 0 0v15.55a9.79 9.79 0 0 0 5.28-1.57l109.85-63.4c2.05-1.13 3-2.13 3-3.5v-12.57z" opacity=".3"/><path d="m257.74 291.93a13.62 13.62 0 0 1 -7.87 1.85v15.55a9.79 9.79 0 0 0 5.28-1.57l109.85-63.4c2.05-1.13 3-2.12 3-3.49v-12.57z" opacity=".276923"/><path d="m257.74 278a13.77 13.77 0 0 1 -7.87 1.85c-.05 0 0 0 0 0v15.55a9.79 9.79 0 0 0 5.28-1.57l109.85-63.37c2.05-1.13 3-2.13 3-3.5v-12.57z" opacity=".253846"/><path d="m257.74 264.12a13.62 13.62 0 0 1 -7.87 1.85v15.55a9.86 9.86 0 0 0 5.28-1.56l109.85-63.41c2.05-1.13 3-2.12 3-3.49v-12.57z" opacity=".230769"/><path d="m257.74 250.22a13.77 13.77 0 0 1 -7.87 1.85c-.05 0 0 0 0 0v15.55a9.79 9.79 0 0 0 5.28-1.57l109.85-63.4c2.05-1.13 3-2.12 3-3.5v-12.57z" opacity=".207692"/><path d="m257.74 236.32a13.69 13.69 0 0 1 -7.87 1.84v15.55a9.86 9.86 0 0 0 5.28-1.56l109.85-63.41c2.05-1.12 3-2.12 3-3.49v-12.57z" opacity=".184615"/><path d="m257.74 222.41a13.69 13.69 0 0 1 -7.87 1.85c-.05 0 0 0 0 0v15.55a9.79 9.79 0 0 0 5.28-1.57l109.85-63.4c2.05-1.13 3-2.12 3-3.49v-12.58z" opacity=".161538"/><path d="m257.74 208.51a13.69 13.69 0 0 1 -7.87 1.84v15.55a9.86 9.86 0 0 0 5.28-1.56l109.85-63.41c2.05-1.12 3-2.12 3-3.49v-12.57z" opacity=".138462"/><path d="m257.74 194.6a13.62 13.62 0 0 1 -7.87 1.85c-.05 0 0 0 0 0v15.55a9.79 9.79 0 0 0 5.28-1.57l109.85-63.43c2.05-1.13 3-2.12 3-3.49v-12.51z" opacity=".115385"/><path d="m257.74 180.7a13.69 13.69 0 0 1 -7.87 1.84c-.05 0 0 0 0 0v15.55a9.86 9.86 0 0 0 5.28-1.56l109.85-63.41c2.05-1.12 3-2.12 3-3.49v-12.57z" opacity=".092308"/><path d="m257.74 166.79a13.62 13.62 0 0 1 -7.87 1.85c-.05 0 0 0 0 0v15.55a9.79 9.79 0 0 0 5.28-1.57l109.85-63.4c2.05-1.13 3-2.12 3-3.49v-12.57z" opacity=".069231"/><path d="m257.74 152.89a13.77 13.77 0 0 1 -7.87 1.85c-.05 0 0 0 0 0v15.56a9.87 9.87 0 0 0 5.28-1.57l109.85-63.41c2.05-1.13 3-2.13 3-3.5v-12.57z" opacity=".046154"/><path d="m257.74 139a13.62 13.62 0 0 1 -7.87 1.85v15.55a9.79 9.79 0 0 0 5.28-1.57l109.85-63.42c2.05-1.13 3-2.12 3-3.49v-12.57z" opacity=".023077"/></g><g opacity=".7"><path d="m242 305.84a13.79 13.79 0 0 0 7.88 1.85s-.05 0 0 0v15.55a9.76 9.76 0 0 1 -5.28-1.57l-109.82-63.4c-2.05-1.13-3-2.13-3-3.5v-12.57z" opacity=".5"/><path d="m242 291.93a13.63 13.63 0 0 0 7.88 1.85v15.55a9.76 9.76 0 0 1 -5.28-1.57l-109.82-63.4c-2.05-1.13-3-2.12-3-3.49v-12.57z" opacity=".461538"/><path d="m242 278a13.79 13.79 0 0 0 7.88 1.85s-.05 0 0 0v15.55a9.76 9.76 0 0 1 -5.28-1.57l-109.82-63.4c-2.05-1.13-3-2.13-3-3.5v-12.54z" opacity=".423077"/><path d="m242 264.12a13.63 13.63 0 0 0 7.88 1.85v15.55a9.83 9.83 0 0 1 -5.28-1.56l-109.83-63.41c-2.05-1.13-3-2.12-3-3.49v-12.57z" opacity=".384615"/><path d="m242 250.22a13.79 13.79 0 0 0 7.88 1.85s-.05 0 0 0v15.55a9.76 9.76 0 0 1 -5.28-1.57l-109.82-63.4c-2.05-1.13-3-2.12-3-3.5v-12.57z" opacity=".346154"/><path d="m242 236.32a13.7 13.7 0 0 0 7.88 1.84v15.55a9.83 9.83 0 0 1 -5.28-1.56l-109.83-63.41c-2.05-1.12-3-2.12-3-3.49v-12.57z" opacity=".307692"/><path d="m242 222.41a13.71 13.71 0 0 0 7.88 1.85s-.05 0 0 0v15.55a9.76 9.76 0 0 1 -5.28-1.57l-109.82-63.4c-2.05-1.13-3-2.12-3-3.49v-12.58z" opacity=".269231"/><path d="m242 208.51a13.7 13.7 0 0 0 7.88 1.84v15.55a9.83 9.83 0 0 1 -5.28-1.56l-109.83-63.41c-2.05-1.12-3-2.12-3-3.49v-12.57z" opacity=".230769"/><path d="m242 194.6a13.63 13.63 0 0 0 7.88 1.85s-.05 0 0 0v15.55a9.76 9.76 0 0 1 -5.28-1.57l-109.83-63.43c-2.05-1.13-3-2.12-3-3.49v-12.51z" opacity=".192308"/><path d="m242 180.7a13.7 13.7 0 0 0 7.88 1.84s-.05 0 0 0v15.55a9.83 9.83 0 0 1 -5.28-1.56l-109.83-63.41c-2.05-1.12-3-2.12-3-3.49v-12.57z" opacity=".153846"/><path d="m242 166.79a13.63 13.63 0 0 0 7.88 1.85s-.05 0 0 0v15.55a9.76 9.76 0 0 1 -5.28-1.57l-109.82-63.4c-2.05-1.13-3-2.12-3-3.49v-12.57z" opacity=".115385"/><path d="m242 152.89a13.79 13.79 0 0 0 7.88 1.85s-.05 0 0 0v15.56a9.85 9.85 0 0 1 -5.28-1.57l-109.82-63.4c-2.05-1.13-3-2.13-3-3.5v-12.58z" opacity=".076923"/><path d="m242 139a13.63 13.63 0 0 0 7.88 1.85v15.55a9.76 9.76 0 0 1 -5.28-1.57l-109.83-63.42c-2.05-1.13-3-2.12-3-3.49v-12.57z" opacity=".038462"/></g><path d="m329.81 196.23s3.34 3.33 1 9.49c-2.23 6-9.53 7-9.53 7s1 9.81-14.92 11a10 10 0 0 0 0-2.06s7.31-.29 7.42-11.64-8.4-13.1-8.4-13.1a10.41 10.41 0 0 0 1.32-9.12c-2.08-6.22-6.48-5.56-6.48-5.56s3.19-2.34 1.79-8.14c-1.3-5.39-5.35-6.09-5.35-6.09s3-5.36-2.47-12.6-11.09-6.12-11.09-6.12a16.31 16.31 0 0 0 -3.88-9.7c-3.89-4.53-10-3.89-10-3.89a15.79 15.79 0 0 0 -5.22-12.18c-5.82-5.5-11.66-5.25-11.66-5.25a9.32 9.32 0 0 0 -3.93-8.11 10.71 10.71 0 0 0 -10.54-1.51s-1-7.12-7.16-8.48c-8.05-1.76-12 3-12 3s-2.68-3.53-8.81-4.53a31.35 31.35 0 0 1 8.1-7.45c7.25-4.44 18.23-1.61 18.23-1.61a14.2 14.2 0 0 1 9.58-2.64 10.9 10.9 0 0 1 8.19 4.78s3.36-2.48 11.5-2 10.09 6.9 10.09 6.9a19.78 19.78 0 0 1 11.34 3.19c6 3.73 6 11.7 6 11.7s7.27-2 13.64 4.61 3.56 12.76 3.56 12.76a14.39 14.39 0 0 1 11.33 21.25 6.4 6.4 0 0 1 4.07 3.9c1.24 3.19 0 5.14 0 5.14s6.19 2.64 7.8 9.2-1.61 10.45-1.61 10.45a10.21 10.21 0 0 1 5.14 9.22c.03 6.78-7.05 8.19-7.05 8.19z"/></g><path d="m329.81 196.23s3.34 3.33 1 9.49c-2.23 6-9.53 7-9.53 7s1 9.81-14.92 11a10 10 0 0 0 0-2.06s7.31-.29 7.42-11.64-8.4-13.1-8.4-13.1a10.41 10.41 0 0 0 1.32-9.12c-2.08-6.22-6.48-5.56-6.48-5.56s3.19-2.34 1.79-8.14c-1.3-5.39-5.35-6.09-5.35-6.09s3-5.36-2.47-12.6-11.09-6.12-11.09-6.12a16.31 16.31 0 0 0 -3.88-9.7c-3.89-4.53-10-3.89-10-3.89a15.79 15.79 0 0 0 -5.22-12.18c-5.82-5.5-11.66-5.25-11.66-5.25a9.32 9.32 0 0 0 -3.93-8.11 10.71 10.71 0 0 0 -10.54-1.51s-1-7.12-7.16-8.48c-8.05-1.76-12 3-12 3a11.05 11.05 0 0 0 -2.67-2.27c-.17-.11-.32-.2-.51-.3a15.9 15.9 0 0 0 -5.63-2 31.35 31.35 0 0 1 8.1-7.41c7.25-4.44 18.23-1.61 18.23-1.61a14.2 14.2 0 0 1 9.58-2.64 10.9 10.9 0 0 1 8.19 4.78s3.36-2.48 11.5-2 10.09 6.9 10.09 6.9a19.78 19.78 0 0 1 11.34 3.19c6 3.73 6 11.7 6 11.7s7.27-2 13.64 4.61 3.56 12.76 3.56 12.76a14.39 14.39 0 0 1 11.33 21.25 6.4 6.4 0 0 1 4.07 3.9c1.24 3.19 0 5.14 0 5.14s6.19 2.64 7.8 9.2-1.61 10.45-1.61 10.45a10.21 10.21 0 0 1 5.14 9.22c.03 6.78-7.05 8.19-7.05 8.19z" opacity=".05"/><path d="m308.07 195.91a12.17 12.17 0 0 0 .4-8.71c-1.19-3.55-3.19-5.38-5.06-6.24a11.11 11.11 0 0 0 .42-7.3 9.88 9.88 0 0 0 -4.81-6.72c.61-2.52.81-7.17-3.35-12.67s-8.42-6.67-10.89-6.89a18.51 18.51 0 0 0 -4.15-9 13.75 13.75 0 0 0 -9.59-4.53 18.06 18.06 0 0 0 -5.72-11.69 20.55 20.55 0 0 0 -11.11-5.63 11.3 11.3 0 0 0 -4.65-7.87 12.65 12.65 0 0 0 -10.31-2.37c-.87-2.61-3-6.82-8.12-7.94-6.18-1.36-10.3.71-12.35 2.24a17.12 17.12 0 0 0 -7.5-3.62 36.09 36.09 0 0 0 -2.67 3.39c5.86.63 8.44 3.78 8.58 4a1.9 1.9 0 0 0 1.45.74 1.93 1.93 0 0 0 1.49-.65c.14-.16 3.45-3.86 10.19-2.37 4.78 1 5.68 6.66 5.71 6.89a1.91 1.91 0 0 0 2.67 1.45 8.79 8.79 0 0 1 8.61 1.32 7.45 7.45 0 0 1 3.19 6.37 1.9 1.9 0 0 0 .49 1.49 1.7 1.7 0 0 0 1.45.62c.19 0 5.18-.09 10.29 4.73a13.94 13.94 0 0 1 4.57 10.64 1.91 1.91 0 0 0 .54 1.52 1.93 1.93 0 0 0 1.53.55c.05 0 5.23-.46 8.39 3.22a14.61 14.61 0 0 1 3.42 8.47 1.9 1.9 0 0 0 .69 1.44 1.94 1.94 0 0 0 1.54.42c.19 0 4.63-.69 9.25 5.4s2.42 10.4 2.33 10.56a1.91 1.91 0 0 0 -.05 1.71 1.94 1.94 0 0 0 1.36 1.07c.12 0 2.89.63 3.85 4.66 1.06 4.39-1 6.12-1.07 6.17a1.86 1.86 0 0 0 -.62 2.2 1.92 1.92 0 0 0 2 1.2c.29 0 3-.16 4.44 4.27a8.49 8.49 0 0 1 -1 7.4 1.9 1.9 0 0 0 -.27 1.8 1.93 1.93 0 0 0 1.37 1.2c.29.06 7 1.66 6.92 11.22-.1 9.28-5.42 9.75-5.62 9.77a1.91 1.91 0 0 0 -1.79 2.17 8.69 8.69 0 0 1 0 1.47 4.75 4.75 0 0 0 1.87.31c.67 0 1.28-.14 1.9-.22v-.37c2.67-.92 7.26-3.85 7.36-13.09.11-8.26-4.11-12.48-7.57-14.2z" opacity=".2"/><path d="m306.34 221.67s7.31-.29 7.43-11.64-8.41-13.09-8.41-13.09a10.46 10.46 0 0 0 1.31-9.14c-2.06-6.21-6.47-5.55-6.47-5.55s3.19-2.34 1.79-8.14c-1.3-5.4-5.35-6.08-5.35-6.08s3-5.38-2.48-12.62-11.09-6.12-11.09-6.12a16.36 16.36 0 0 0 -3.87-9.7c-3.88-4.52-10-3.87-10-3.87a15.89 15.89 0 0 0 -5.15-12.2c-5.82-5.5-11.65-5.25-11.65-5.25a9.35 9.35 0 0 0 -3.94-8.11 10.69 10.69 0 0 0 -10.53-1.51s-1-7.12-7.18-8.48c-8-1.77-12 3-12 3s-5.44-7.2-18.54-4c-11 2.67-11.78 10.89-11.78 10.89s-11.28-2.11-16.45 5.64-3.56 17.77-3.56 17.77-6.46 4.53-6.14 11.31a20.55 20.55 0 0 0 3.24 10.67s-6.47 11-1.94 20a21 21 0 0 0 12.6 11s0 9.69 4.52 14.54 12.6 4.52 12.6 4.52a17.42 17.42 0 0 0 8.73 10c6.78 3.23 13.89.64 13.89.64a17.48 17.48 0 0 0 8.08 5.5c5.17 1.61 11.63 0 11.63 0a8.33 8.33 0 0 0 6.79 6.78c6.14 1.29 9.37-2.58 9.37-2.58s1.94 4.2 6.46 4.52a9.06 9.06 0 0 0 7.11-2.58s2.59 8.07 13.25 8.4 13.28-4.28 13.28-4.28 5.14 3.64 10.31-.24a11.07 11.07 0 0 0 4.14-10z" fill="#407bff"/><path d="m306.34 221.67s7.31-.29 7.43-11.64-8.41-13.09-8.41-13.09a10.46 10.46 0 0 0 1.31-9.14c-2.06-6.21-6.47-5.55-6.47-5.55s3.19-2.34 1.79-8.14c-1.3-5.4-5.35-6.08-5.35-6.08s3-5.38-2.48-12.62-11.09-6.12-11.09-6.12a16.36 16.36 0 0 0 -3.87-9.7c-3.88-4.52-10-3.87-10-3.87a15.89 15.89 0 0 0 -5.15-12.2c-5.82-5.5-11.65-5.25-11.65-5.25a9.35 9.35 0 0 0 -3.94-8.11 10.69 10.69 0 0 0 -10.53-1.51s-1-7.12-7.18-8.48c-8-1.77-12 3-12 3s-5.44-7.2-18.54-4c-11 2.67-11.78 10.89-11.78 10.89s-11.28-2.11-16.45 5.64-3.56 17.77-3.56 17.77-6.46 4.53-6.14 11.31a20.55 20.55 0 0 0 3.24 10.67s-6.47 11-1.94 20a21 21 0 0 0 12.6 11s0 9.69 4.52 14.54 12.6 4.52 12.6 4.52a17.42 17.42 0 0 0 8.73 10c6.78 3.23 13.89.64 13.89.64a17.48 17.48 0 0 0 8.08 5.5c5.17 1.61 11.63 0 11.63 0a8.33 8.33 0 0 0 6.79 6.78c6.14 1.29 9.37-2.58 9.37-2.58s1.94 4.2 6.46 4.52a9.06 9.06 0 0 0 7.11-2.58s2.59 8.07 13.25 8.4 13.28-4.28 13.28-4.28 5.14 3.64 10.31-.24a11.07 11.07 0 0 0 4.14-10z" fill="#fff" opacity=".2"/><g opacity=".05"><path d="m221.16 129.43a32.18 32.18 0 0 0 -4-6c-1.15-1.31-3-3.25-4.89-3-.56.06-.2 1 .2 1 1.75.31 3 1.8 3.94 3.17a39.52 39.52 0 0 1 2.76 4.65 32 32 0 0 1 3.83 13.66c.16 4-.82 8.09-4.65 10.07-4.49 2.32-10.29.85-14.52-1.31a11.84 11.84 0 0 1 -6.73-9c-.07-.5-.85-.92-.83-.19a12.08 12.08 0 0 0 1.56 6.17 12.69 12.69 0 0 0 4.59 4.17c4.34 2.54 9.6 4 14.59 2.71 11.69-2.98 8.34-18.33 4.15-26.1z"/><path d="m208.49 135.63a10.8 10.8 0 0 0 -1.61-4.58 14.68 14.68 0 0 0 -3.19-3.7 11.55 11.55 0 0 0 -4.32-2.51c-.69-.18-.64.79-.22 1.06a25.2 25.2 0 0 1 3.69 2.46 13.49 13.49 0 0 1 2.71 3.4 10.07 10.07 0 0 1 1.18 3.93 10.22 10.22 0 0 1 -.07 2.21c-.1.7-.28 1.36-.39 2.06-.05.32.36 1 .72.64a6.37 6.37 0 0 0 1.5-4.97z"/><path d="m214.19 112.11a32.09 32.09 0 0 0 -10.91-1 19.85 19.85 0 0 0 -9.67 3.39c-5.09 3.37-8.91 8.38-9.87 14.49-.53 3.37-.82 7.59 2.16 10 .36.28 1 .12.81-.43a14.07 14.07 0 0 1 -1.16-6 26.91 26.91 0 0 1 .8-5.2 18.88 18.88 0 0 1 5.66-8.94 20.23 20.23 0 0 1 10.15-5.42 26.47 26.47 0 0 1 6.1-.15 33.71 33.71 0 0 0 6.1.29c.55-.03.18-.93-.17-1.03zm-22.72 37.67c-3.06-4.91-8.86-8.83-14.75-8.71-4.62.09-11.74 2.67-11.08 8.44a10.35 10.35 0 0 0 4.5 7.11 3.76 3.76 0 0 0 3.71.21c1.38-.79 1.52-2.53 1.89-3.9.06-.22-.19-.71-.44-.44-1.14 1.22-2.25 4.22-4.36 2.73a9.13 9.13 0 0 1 -3.3-5.24c-.83-4.45 4.31-6.6 7.85-7.1 4.93-.71 9.46 1.89 12.67 5.46 2.08 2.32 4.82 7.13 1.44 9.53a5.14 5.14 0 0 1 -3.84.9c-1.56-.3-1.71-1.5-2-2.86-.15-.67-1.36-.95-1.59-.21a3.58 3.58 0 0 0 1.89 4.23 6.64 6.64 0 0 0 5.05.24 5.88 5.88 0 0 0 3.78-3.27c.88-2.31-.19-5.14-1.42-7.12z"/><path d="m236.91 205.69c-2.58-5-7.4-8.39-12.36-10.69-.83-.38-1.66-.74-2.5-1.07a14.4 14.4 0 0 0 2.53-3 25.62 25.62 0 0 0 3.29-7.12 8.72 8.72 0 0 0 -.94-7.31 7.82 7.82 0 0 0 -2.81-2.58c-1.13-.6-3.05-1.26-4.3-.69-.5.23.06 1 .39 1.05 1.29.31 2.42.32 3.55 1.13a5.75 5.75 0 0 1 2.05 2.82 8.85 8.85 0 0 1 -.24 5.79 25.28 25.28 0 0 1 -2.83 5.82 12.81 12.81 0 0 1 -2 2.4 6.15 6.15 0 0 1 -1.19.79c-4.26-1.49-8.66-2.6-13-4-6.25-2-12-5.07-16.38-10a21.47 21.47 0 0 1 -5.47-10.31 22.4 22.4 0 0 1 -.3-4.91c.06-1.34.17-3.11 1.16-4.13.47-.49-.43-1.48-1-1.12-2.07 1.34-2 4.67-2 6.86a20.28 20.28 0 0 0 2.48 9.91 33 33 0 0 0 14.62 13.41c10.38 5 23.59 5.07 32 13.79a16 16 0 0 1 4.47 8.12 12.88 12.88 0 0 1 0 5.1c-.35 1.59-1.36 2.73-1.87 4.21-.14.39.42 1.09.84.88 2.45-1.17 3.31-4.49 3.49-7a15.7 15.7 0 0 0 -1.68-8.15z"/><path d="m223.85 206.28c-2.84-2.05-6.31-2.56-9.64-3.32s-6.67-1.44-9.94-2.43a42.85 42.85 0 0 1 -4.79-1.75c-2.24-1-4.19-2.43-6.39-3.42a.48.48 0 0 0 -.67.63c.66 1.41 2.35 2.45 3.64 3.24a25.5 25.5 0 0 0 4.06 2 63.28 63.28 0 0 0 9.16 2.69c3.74.86 7.8 1.29 11.4 2.62a12.09 12.09 0 0 1 3.09 1.7c1.14.84 2.81 2.15 2.93 3.66 0 .49.88.94 1 .25.3-2.52-1.96-4.5-3.85-5.87zm-45.38-27.66a19.64 19.64 0 0 0 -3.85-5c-2-2.19-3.47-4.49-3.46-7.6a26.51 26.51 0 0 1 .63-4.86c.31-1.65.84-3.55.19-5.16-.11-.28-.51-.51-.7-.18a7.71 7.71 0 0 0 -.58 2.43c-.13.76-.27 1.5-.42 2.25a35.56 35.56 0 0 0 -.72 4.47 11 11 0 0 0 2.27 7.58c1.27 1.66 2.84 3.05 4.09 4.73a6.86 6.86 0 0 1 1.27 2.53c.36 1.56-.17 3-.52 4.52 0 .23.19.92.52.62a5.47 5.47 0 0 0 1.28-6.33zm116.2-9.3a20 20 0 0 0 -4.32 2 14.06 14.06 0 0 1 -5 1.37c-3.1.24-6.11-.77-9.2-.75a9.49 9.49 0 0 0 -7.17 3.17 11.94 11.94 0 0 0 -1.78 2.45 30.67 30.67 0 0 0 -1.95-2 25.73 25.73 0 0 0 -8.84-5.4 55.06 55.06 0 0 0 -11.31-2.35c-3.46-.46-6.81-.9-10-2.49-2.62-1.32-5.67-3.17-6.46-6.21-.14-.51-1-.67-.9 0 .22 2.62 2.18 4.6 4.15 6.14a19.43 19.43 0 0 0 7.36 3.55c7 1.65 14.46 1.46 20.67 5.53a23 23 0 0 1 10.35 15.22c.93 5.27 1.34 11.85-2.82 15.89a44.58 44.58 0 0 1 -9.84 6.93c-.83.45-1.74 1-2.62 1.55a23.74 23.74 0 0 0 .95-4.82 25.07 25.07 0 0 0 -.84-9.94 22.59 22.59 0 0 0 -4.73-8.21c-2.52-2.82-5.66-4.68-8.68-6.9a21 21 0 0 1 -4.73-4.59c-1.5-2-2.75-4.3-4.08-6.45-.26-.42-.56.13-.42.44 1.52 3.38 3 6.78 5.55 9.54s5.81 4.55 8.55 7a22.35 22.35 0 0 1 7.44 16.65 21.15 21.15 0 0 1 -.7 6c-.36 1.33-.91 2.6-1.31 3.91a6.1 6.1 0 0 0 -1.36 2.88c-.08.5.78 1.27 1.19.76a22.62 22.62 0 0 1 3.52-3.73 26.83 26.83 0 0 1 4-2.44 46.29 46.29 0 0 0 9-6.18 13.53 13.53 0 0 0 4.52-7.16 25.39 25.39 0 0 0 .35-8.65 27.64 27.64 0 0 0 -2-8.46 23.11 23.11 0 0 0 -2.22-3.78 8.92 8.92 0 0 1 .62-1.62 10.4 10.4 0 0 1 2.27-2.59c2.09-1.74 4.85-1.57 7.39-1.23 2.92.4 5.82.8 8.72 0a17.84 17.84 0 0 0 4.1-1.67 10.66 10.66 0 0 0 3.27-2.39c.25-.36-.24-1.07-.69-.97z"/><path d="m285.51 158.37c-1.71-4.05-6.16-5.76-10-7.13a56.14 56.14 0 0 1 -12.38-5.67 20.86 20.86 0 0 1 -4.81-4.27 18.05 18.05 0 0 1 -3.5-9.23c-.07-.54-1.31-1.1-1.45-.35-1.55 8.33 5.32 14.32 12 17.74 3.59 1.84 7.4 3 11.15 4.4 3.05 1.17 7.8 3.52 7.13 7.58-.32 2-2.14 2.59-3.85 3a28 28 0 0 1 -7 .58 66.61 66.61 0 0 1 -14.36-2.32 34.12 34.12 0 0 1 -20.83-15.48 32.55 32.55 0 0 1 -4.42-14.64 35.29 35.29 0 0 1 .4-7.68c.45-3 1-6.26 2.75-8.83.11-.17 0-.68-.28-.46a11.55 11.55 0 0 0 -2.88 5.81 52.9 52.9 0 0 0 -1.31 6.84 32.12 32.12 0 0 0 1.8 15.2 35.67 35.67 0 0 0 18.75 19.31 58.49 58.49 0 0 0 13.8 3.56c5 .8 10.28 1.15 15.2-.21a6.11 6.11 0 0 0 4.17-3 5.76 5.76 0 0 0 -.08-4.75z"/><path d="m269 157.75c-1.78-.61-3.72-.8-5.52-1.39a39.28 39.28 0 0 1 -5.37-2.09 24.43 24.43 0 0 1 -8.08-6.55 24 24 0 0 1 -5.03-10.25c-.73-4 .37-7.84.59-11.8 0-.33-.56-1.14-.8-.55a24.41 24.41 0 0 0 -1.68 13.63 24.66 24.66 0 0 0 5.4 10.52 23.37 23.37 0 0 0 9 6.84 36 36 0 0 0 6 1.81c1.68.36 4 1.07 5.69.58.27-.09.11-.66-.2-.75zm30.08 32.85c-3.81-3.56-10.69-4.62-11.9-10.51-.08-.36-.77-.75-.83-.18-.43 4.91 5.4 8 8.94 10.15a11 11 0 0 1 4.81 5.43c1.16 2.85.75 5.52-.23 8.33-.11.34.28.88.63.64 4.76-3.29 1.94-10.72-1.42-13.86zm8.72 21.4c-2.05 1.83-4.08 3.23-6.9 3.35a13.55 13.55 0 0 1 -6.88-1.66 7.44 7.44 0 0 1 -4.3-5.69 12 12 0 0 1 .26-4.47 25.11 25.11 0 0 0 .91-4.35l.2.15a12 12 0 0 1 2.79 3.94c.12.21.62.52.8.18.86-1.61-.39-3.34-1.53-4.46a20.56 20.56 0 0 0 -4.1-3 42.86 42.86 0 0 1 -4.81-3.16 20.1 20.1 0 0 1 -2.16-2c-1-1.05-1.73-2.25-2.65-3.33-.17-.2-.39 0-.38.22.11 1.91 1.76 3.79 3.05 5.07a27.19 27.19 0 0 0 4.93 3.73c.79.48 1.57 1 2.34 1.49a.74.74 0 0 0 -.32.48c-.29 1.48-.85 2.9-1.23 4.35a13.64 13.64 0 0 0 -.45 4.22 8.87 8.87 0 0 0 2.51 6.17 15.64 15.64 0 0 0 12.76 3.82 9.65 9.65 0 0 0 3.4-1.23 4.93 4.93 0 0 0 2.53-3.26c.09-.34-.41-.92-.77-.56zm-15.12 15.83a6.79 6.79 0 0 0 -.59-2 19.16 19.16 0 0 0 -2.27-3.82 10.58 10.58 0 0 0 -3.53-2.84 12.78 12.78 0 0 0 -2.13-.89l-.43-.14a6.68 6.68 0 0 0 .45-2 19.54 19.54 0 0 0 -.8-6.4c-.57-2.05-1.49-4.17-3.54-5.11-.82-.38-.86.8-.29 1.16.88.55 1.33 2.24 1.63 3.16a19.4 19.4 0 0 1 .8 3.67c.22 1.82.39 3.79-.44 5.43a.31.31 0 0 0 -.14.26 5.35 5.35 0 0 1 -.34.54c-1.64 2.1-4.37 3-6.68 4.16s-4.86 2.5-5.21 5.24c-.06.43.61 1.05 1 .6a16 16 0 0 1 5.78-4.46 23.49 23.49 0 0 0 5.86-3.35 7.77 7.77 0 0 0 1.2-1.39h.16l.85.26a12.5 12.5 0 0 1 1.65.69 8.54 8.54 0 0 1 2.68 2.13 20.75 20.75 0 0 1 1.55 2.27 15.61 15.61 0 0 1 .92 1.71 13.64 13.64 0 0 1 .68 1.61 4 4 0 0 0 .36.94c.08.11.24.3.4.22.57-.27.47-1.12.42-1.65zm-16.68-20.11c0-.32-.48-.69-.58-.18a9.07 9.07 0 0 1 -2.28 4.76 24 24 0 0 1 -4 3.19 22.23 22.23 0 0 0 -3.9 3.2 7.69 7.69 0 0 0 -1.46 2.16 4.09 4.09 0 0 0 -.18 2.63c0 .18.33.68.57.41a22.22 22.22 0 0 0 1.8-2.8 10.2 10.2 0 0 1 1.6-1.93 34.78 34.78 0 0 1 3.74-2.85 13.56 13.56 0 0 0 3.66-3.46 7.56 7.56 0 0 0 1.03-5.13zm-51.35-40.97a13.81 13.81 0 0 0 -4.37-1.26 36.85 36.85 0 0 0 -13.15.7 45.74 45.74 0 0 0 -10.13 3.24 24.82 24.82 0 0 0 -4.77 2.86c-1 .77-3 2.2-2.43 3.65.09.23.36.55.64.47 1.45-.42 2.57-2 3.78-2.86a22.93 22.93 0 0 1 4.08-2.34 44.41 44.41 0 0 1 8.86-2.91 42.21 42.21 0 0 1 11.41-1.22 26 26 0 0 1 3.94.46 8.84 8.84 0 0 1 3.5 1.66.27.27 0 0 0 .4-.07c.46-1.13-.95-1.95-1.76-2.38zm-20.98-9.1a5.15 5.15 0 0 0 -1.53 1.22c-.56.54-1.13 1-1.72 1.54a18.89 18.89 0 0 1 -3.94 2.5 16.76 16.76 0 0 1 -4.21 1.32 20.26 20.26 0 0 1 -2.06.22 6.66 6.66 0 0 0 -2 .16c-.5.18-.22.86.11 1.06 1.3.79 3.38.48 4.8.24a16.63 16.63 0 0 0 4.6-1.54 19.34 19.34 0 0 0 3.94-2.63 15.34 15.34 0 0 0 1.7-1.72 2.74 2.74 0 0 0 .9-1.79c.05-.3-.26-.72-.59-.58z"/></g><g opacity=".05"><path d="m277.29 99.49c-.17-.19-.37 0-.4.18-.19 1 0 2-.13 3a11.56 11.56 0 0 1 -1.18 3.85c-1.18 2.33-3.18 4.7-5.76 5.5-6.35 2-11.79-2.17-16.19-6.22a24.22 24.22 0 0 0 -.89-2.38 21.39 21.39 0 0 0 -3.61-5.49 34.94 34.94 0 0 0 -4.43-4.34 13.39 13.39 0 0 0 -2.7-1.78 4.26 4.26 0 0 0 -2.59-.61c-.51.11-.26.88.14 1a10.3 10.3 0 0 1 4.25 2.7 43.69 43.69 0 0 1 3.74 4 18.93 18.93 0 0 1 3.24 5.08 18 18 0 0 1 1 3.45c.1.53.19 1.06.3 1.58a9.34 9.34 0 0 0 .76 1.89c.11.25.49.53.67.19a5 5 0 0 0 .54-2.41 17.12 17.12 0 0 0 5.46 4.15 15.45 15.45 0 0 0 10.65 1.17 11.33 11.33 0 0 0 6.61-5.31c1.59-2.69 2.77-6.59.52-9.2zm13.86 21.32c-2.24-1.69-5.11-3.25-8-3.17-.57 0-.17 1.06.28 1.09 2 .17 4.23 1.49 5.85 2.67 1.35 1 3.45 2.68 3.4 4.56-.05 2.63-4.56 3.06-6.4 3a18.13 18.13 0 0 1 -9.8-3.68 19.87 19.87 0 0 1 -4-3.58c-1.34-1.62-1.91-3.57-2.86-5.42-.15-.28-.71-.54-.76 0a10.36 10.36 0 0 0 2 6.36 17.73 17.73 0 0 0 4.21 4.3 19.92 19.92 0 0 0 11.28 4.14c2.79.06 7.81-.92 8.46-4.28.44-2.49-1.91-4.66-3.66-5.99zm28.25 27.82c-1.19-.34-2.65.12-3.85.3-1.43.22-2.86.46-4.3.61a26.14 26.14 0 0 1 -8.51-.37 20.8 20.8 0 0 1 -6.51-2.66 27.64 27.64 0 0 1 -6-5.6c-.31-.35-.75-.2-.73.27a7.25 7.25 0 0 0 1.57 3.49 12.76 12.76 0 0 0 2.69 2.75 21.28 21.28 0 0 0 7.31 3.45 26.19 26.19 0 0 0 9.16.76 48.61 48.61 0 0 0 5.1-.76c.87-.16 1.72-.37 2.58-.56.58-.13 1.54-.17 1.89-.73a.66.66 0 0 0 -.4-.95z"/><path d="m310.53 134.1c-.61 0-.12 1 .23 1.06 1.59.44 2.07 3.83 1.37 5.17-1.05 2-4.3 2.08-6.23 2.1a17.84 17.84 0 0 1 -8.91-2.31c-2.57-1.47-4.63-3.6-7.1-5.2-.42-.26-.52.37-.31.63 2.32 2.75 4.73 5.53 8 7.1a19.22 19.22 0 0 0 11 1.57c2.47-.37 5.47-1.46 5.72-4.35.27-2.29-1.04-5.87-3.77-5.77zm12.05 24.05a2.59 2.59 0 0 0 -.38-.17 5.66 5.66 0 0 0 -.59-.15 7.42 7.42 0 0 0 -1.14-.15 11.64 11.64 0 0 0 -2.5.16 22 22 0 0 0 -5.38 1.62 10 10 0 0 0 -3.8 2.75 9.6 9.6 0 0 0 -1.68 5.39 6.76 6.76 0 0 0 .77 3.76 6 6 0 0 0 5 3 .92.92 0 0 0 .49-.13.62.62 0 0 0 .1-.73 1.92 1.92 0 0 0 -.54-.56 11.17 11.17 0 0 1 -2.45-2.35 6.27 6.27 0 0 1 2-8.72 19.71 19.71 0 0 1 5-1.94 9.32 9.32 0 0 1 5.74 0 .37.37 0 0 0 .4-.4c.09-.35-.77-1.25-1.04-1.38z"/><path d="m327.25 181.05c-2-4.3-6.84-6.94-11.37-7.7-2.47-.42-6.78-.6-8.39 1.74a.73.73 0 0 0 -.17.44.57.57 0 0 0 .45.49 1.56 1.56 0 0 0 .71 0c2-.37 3.77-1 5.86-.84a14 14 0 0 1 10 5.5c1.68 2.49 2.12 6.61.22 9.13-1.63 2.15-4.6 2.16-7 1.51a7.38 7.38 0 0 1 -3.65-1.92c-.85-1-.26-2.09.47-3 .38-.46-.31-1.48-.86-1.12-1.64 1.06-3 2.8-1.88 4.76a7.1 7.1 0 0 0 3.73 2.73c3.26 1.26 7.25 1.56 10.14-.78 3.09-2.48 3.31-7.56 1.74-10.94zm-4.53 20.95a11.56 11.56 0 0 0 -3.09-4 5.92 5.92 0 0 0 -4.56-1.51c-.55.1-.21 1 .23 1 2.83.21 4.72 2.94 5.68 5.34a12.11 12.11 0 0 1 .86 3.75 10.44 10.44 0 0 1 -.06 1.85c0 .22-.08.44-.11.66a4.06 4.06 0 0 0 -.11 1.29c.08.35.36.73.76.58.67-.27 1.15-1.31 1.36-1.94a6.89 6.89 0 0 0 .27-2.43 11.73 11.73 0 0 0 -1.23-4.59z"/></g><g fill="#fff" opacity=".2"><path d="m227.24 125.3c-.7-.12-1.39.32-1.78 1.59-.9 2.86 0 7.6.29 10.52a79.42 79.42 0 0 0 2.1 12.44c.84 3.31 1.94 6.66 4.14 9.27a19.76 19.76 0 0 0 7.94 5.26c8.11 3.25 17.24 3.74 25 7.81 1 .5 2.17 1 3 .35a1.77 1.77 0 0 0 .21-2.22 4.34 4.34 0 0 0 -1.88-1.49c-3.09-1.51-6.53-2.08-9.85-3a40.07 40.07 0 0 1 -15.41-7.63 28.15 28.15 0 0 1 -9.36-14.2c-.93-3.55-1-7.24-1.53-10.86-.27-1.91-.14-4.06-.91-5.86a3.09 3.09 0 0 0 -1.96-1.98zm-16.98 14.26a7.2 7.2 0 0 1 -6.31 6.25 2.48 2.48 0 0 0 -1.71.49c-.77.84.25 2.11 1.19 2.75 3.12 2.13 6.87 4.12 10.51 3.13 3.81-1 6.14-5.15 6.31-9.1.15-3.31-2-20.7-8.76-15.41-3.17 2.49-.84 8.56-1.23 11.89zm-7.14-.24c2.55-8.88-14-18.81-14.59-7.31a8.1 8.1 0 0 0 .72 4.42c2.52 4.47 6.79-2.48 10.31 1.86a10.16 10.16 0 0 0 1.32 1.65 1.44 1.44 0 0 0 1.92.06 1.71 1.71 0 0 0 .32-.68zm39.35 39.19a7.79 7.79 0 0 0 2 1.81c6.93 5 12.81 12.3 13.52 20.81.15 1.83.32 4.1 2 4.8a3.66 3.66 0 0 0 3.05-.44c3.24-1.78 5.07-5.53 5.29-9.22a22.14 22.14 0 0 0 -2.53-10.68c-2.13-4.59-5.8-8.59-10.8-9.94-2.1-.54-15.91-2.21-12.53 2.86zm-43.18-1.68c2.08.3 4.14 1.7 6.32 1.93 2.69.29 5.84 0 8.1-1.59a24.68 24.68 0 0 1 2.28-1.83 4.49 4.49 0 0 1 5.24 1.08 7.44 7.44 0 0 1 1.75 5.35 7.71 7.71 0 0 1 -3 6.19c-2.6 1.78-6.11 1.12-9.12.22-4.78-1.43-9.52-3.35-13.29-6.61a5.21 5.21 0 0 1 -1.54-1.89 2.12 2.12 0 0 1 .35-2.3 2.83 2.83 0 0 1 1.78-.6 5.79 5.79 0 0 1 1.13.05z"/><path d="m242.53 151c4.14 4.6 9.83 7.53 15.61 9.74 5.5 2.11 14.14 5.18 20 2.71 1.8-.76 3.31-2.59 3.05-4.52s-1.92-3.14-3.56-4c-5.81-3.13-12.51-4.38-18.4-7.34-1.13-.57-2.67-1.08-3.53-.15s-.31 2.32.57 3.11a21 21 0 0 0 4.69 3.17c2.21 1 6.6 1.36 8.33 3s.24 2.82-1.84 2.51c-5.83-.88-11.66-2.5-16.58-5.75a22.72 22.72 0 0 1 -9-11 31.78 31.78 0 0 1 -1.45-5.1c-.18-1 .2-3.81-.71-4.52-2.87-2.26-2.57 6.6-2.38 7.72a21.08 21.08 0 0 0 5.2 10.42zm-10.1-44.38a8.36 8.36 0 0 0 -7.34-3.29 14.06 14.06 0 0 0 -7.66 3.15 18.09 18.09 0 0 0 -14.25-3.93c-3.76.54-7.66 2.23-10 5.41-.43.6-.76 1.53-.18 2a1.53 1.53 0 0 0 .87.25c3.91.18 7.83-1.6 11.9-1.52a23.65 23.65 0 0 1 12.1 3.24c2.34 1.45 4.39 3.43 7 4.39a6.44 6.44 0 0 0 7.56-9.7zm-56.83 10.64a18.63 18.63 0 0 0 -4.13 11.33c-.07 4.48 1.83 8.18 6.82 8.21a3 3 0 0 0 1.4-.26c1.36-.72 1.26-2.65 1.12-4.18a21.91 21.91 0 0 1 3-13.11c.66-1.11 1.46-2.36 1.09-3.6a2.88 2.88 0 0 0 -2.4-1.82c-2.82-.42-5.2 1.33-6.9 3.43zm74.24 95.57a29.51 29.51 0 0 0 -.65-10.41 21.45 21.45 0 0 0 -8.26-12.53c-2.13-1.52-6.36-4-8.92-2.2s-1.84 5.28-.3 7.38 3.87 3.55 5.58 5.55a16.67 16.67 0 0 1 3.6 9.13c.31 2.94-.69 5.45-.59 8.23a3.07 3.07 0 0 0 1.22 2.49 3.11 3.11 0 0 0 1.76.45 6.26 6.26 0 0 0 5-3.33 13.19 13.19 0 0 0 1.56-4.76zm-48.23-15.75 14.09 4.68a36 36 0 0 1 7.73 3.25 12.07 12.07 0 0 1 5.32 6.28c.42 1.29.73 2.9 2 3.35a2.39 2.39 0 0 0 2.82-1.73 5.4 5.4 0 0 0 -.47-3.58c-2.45-5.88-8.11-9.84-14-12.3s-12.18-3.77-18.06-6.23a49.79 49.79 0 0 1 -15.77-10.53c-2.11-2.09-4.42-2.47-4.2 1.14.62 9.59 13.09 13.2 20.54 15.67zm82.57-15.02c-1.51-1.94-3.5-.47-3.58 2.24s1.95 5.22 4.22 6.83 4.91 2.71 7 4.53a17 17 0 0 1 2.86 3c1 1.48 1.57 6.22 4.3 3.56 1.95-1.89.93-6.28-.38-8.14-1.62-2.29-4.14-3.73-6.58-5.11-2.59-1.47-6-3.37-7.39-6.09a6.47 6.47 0 0 0 -.45-.82zm8.82 34.73a11.45 11.45 0 0 1 -6.63-6.21c-.18-.45-.52-1-1-.89s-.43.71-.36 1.14c.26 1.65.29 3.46 1.13 4.92a15.82 15.82 0 0 0 3.57 4 9.89 9.89 0 0 1 2.75 3.32c.6 1.36.51 2.91 1.39 4.18a4.19 4.19 0 0 0 1.86 1.46 5.5 5.5 0 0 0 7-3.06c2.42-6.42-5.08-7.12-9.71-8.86zm-115.94-72.24a7.84 7.84 0 0 0 -3 .47 3.24 3.24 0 0 0 -2 2.15 3.55 3.55 0 0 0 2 3.58 18.34 18.34 0 0 0 4.21 1.29 16 16 0 0 1 6.24 3.28c.79.67 1.78 1.48 2.74 1.07a2.27 2.27 0 0 0 1.06-2.09 7.91 7.91 0 0 0 -1-4.36c-2.13-3.8-6.13-5.41-10.25-5.39z"/></g><path d="m251.2 98.13c2.22 3 4.09 6.28 6.89 8.72s6.92 3.85 10.28 2.26a7.67 7.67 0 0 0 4.09-5.61c.53-3.18-1-7.65-3.7-9.47a10.48 10.48 0 0 0 -11.86.4 1.76 1.76 0 0 1 -.8.44 1.69 1.69 0 0 1 -1-.35c-1.78-1.1-5.78-4.79-8-4-3.1 1.02 3.27 6.48 4.1 7.61zm27.64 14.46a1.07 1.07 0 0 0 -.09.85 1 1 0 0 0 .73.42c1.92.46 3.88.71 5.79 1.23a21.28 21.28 0 0 1 9.56 5.64 10.31 10.31 0 0 1 3.29 6.34c.14 2.43-1.41 5.06-3.8 5.48-.38 1.22.78 2.34 1.85 3a32.11 32.11 0 0 0 5.43 2.81c2.1.84 4.93 1.26 6.24-.58 1-1.37.48-3.37-.66-4.6a11.09 11.09 0 0 0 -4.33-2.46c2.91-3.14 2.81-8.39.28-11.84s-7-5.12-11.31-4.86a4.12 4.12 0 0 1 -2.49-.31c-1.57-1-.82-3.41-.91-4.94-.17-2.74-2.23-6.89-5.5-4.74-2.58 1.73-2.99 5.97-4.08 8.56z" fill="#407bff"/><path d="m277 119.35a2.24 2.24 0 0 0 -2.11.78c-.48.85.23 1.88 1 2.53a15.13 15.13 0 0 0 3.33 2.28 15.4 15.4 0 0 0 7.83 1.62 2.48 2.48 0 0 0 1-.22c2.44-1.33-.44-5.37-2.09-6-2.54-1.03-6.25-.94-8.96-.99zm22.25 33.46a1.84 1.84 0 0 0 -1.5.25 1.29 1.29 0 0 0 -.11 1.56c.63 1.1 1.65 2 2.32 3.14a9 9 0 0 1 1.3 4.58c0 1.29-.26 2.67.38 3.79.35.6.93 1.05 1.24 1.66.19.37.28.79.47 1.16a1.18 1.18 0 0 0 .95.71c.66 0 1-.76 1.18-1.4.61-2.32.56-5 1.6-7.16 1.17-2.45 3.36-3.15 5.66-4 2.66-1.05 5.53-1.22 8.29-1.89a3.34 3.34 0 0 0 1.07-.43 1.14 1.14 0 0 0 .51-1c-.16-1.33-2.83-1-3.66-.9a67.74 67.74 0 0 1 -19.7-.07zm13.54 16.79c0-3.78 5.21-6.43 8.47-6.45a12.88 12.88 0 0 1 7 2.29c2.62 1.72 3.59 6 2.91 8.92a4.57 4.57 0 0 1 -1.27 2.39 2.34 2.34 0 0 1 -2.54.46 4.09 4.09 0 0 1 -1.27-1.25 13.55 13.55 0 0 0 -10-5c-1.29-.07-2.91-.16-3.3-1.36zm6.21 8.9a12.42 12.42 0 0 0 -6.09-.86 3.89 3.89 0 0 0 -2.2.81 1.66 1.66 0 0 0 -.38 2.14 2.48 2.48 0 0 0 .91.68 38.85 38.85 0 0 1 4.83 3.1 3.86 3.86 0 0 1 1.37 1.5 12.5 12.5 0 0 0 .56 1.95 3.1 3.1 0 0 0 2.34 1.07 3.35 3.35 0 0 0 1.78-.08 2.71 2.71 0 0 0 1.29-1.95 7.22 7.22 0 0 0 -7.09-8.84m-41.72-47.44a1.11 1.11 0 0 0 -1 .14.74.74 0 0 0 0 .93 2.24 2.24 0 0 0 .84.57 35 35 0 0 1 6.66 3.59 9.63 9.63 0 0 1 3.95 6.24c.07.63.11 1.37.64 1.71a1.27 1.27 0 0 0 1.65-.49 3.67 3.67 0 0 0 .49-1.82c.26-2.91 1-7.39-2.43-8.73a23.26 23.26 0 0 0 -3.92-.66c-2.28-.47-4.56-1.06-6.88-1.48zm-55.02-36.77c-.81.52-1.71 1.22-1.68 2.18a2 2 0 0 0 1.67 1.66 6.55 6.55 0 0 0 2.52-.22c5.61-1.18 12.12-.66 16.08 3.49a13.66 13.66 0 0 0 2.29 2.27c2.48 1.6 5.75 1.32 8.48 2a2.69 2.69 0 0 0 -.4-1.62c-5.09-9.76-19.14-16.03-28.96-9.76zm102.42 101.97c-.61.11-1.32.38-1.46 1s.32 1.08.72 1.49l1.86 1.87a7.88 7.88 0 0 1 1.19 1.39c.81 1.32.8 3 1.12 4.48.1.46.34 1 .81 1.05a1 1 0 0 0 .7-.33c1.48-1.32 1.63-3.54 1.62-5.53.04-4.32-2.32-6.2-6.56-5.42z" fill="#407bff"/><path d="m229.54 159.94a2.07 2.07 0 1 1 -2.07-2.06 2.07 2.07 0 0 1 2.07 2.06zm-14.31-39.52a2.07 2.07 0 1 1 -2.06-2.06 2.07 2.07 0 0 1 2.06 2.06zm-16.95 22.06a2.07 2.07 0 1 1 -2.06-2.07 2.06 2.06 0 0 1 2.06 2.07zm-20.04 11.17a2.07 2.07 0 1 1 -2.06-2.07 2.06 2.06 0 0 1 2.06 2.07zm43.17 19.44a2.06 2.06 0 1 1 -2.06-2.06 2.07 2.07 0 0 1 2.06 2.06zm-31.26 4.5a2.07 2.07 0 1 1 -2.06-2.06 2.07 2.07 0 0 1 2.06 2.06zm78.66 1.41a2.06 2.06 0 1 1 -2.06-2.07 2.06 2.06 0 0 1 2.06 2.07zm-14.9 40.4a2.07 2.07 0 1 1 -2.06-2.07 2.06 2.06 0 0 1 2.06 2.07zm17.9-61.4a2.06 2.06 0 1 1 -2.06-2.06 2.06 2.06 0 0 1 2.06 2.06z" fill="#fafafa"/><path d="m271.67 116.3a2.07 2.07 0 1 1 -2.06-2.06 2.07 2.07 0 0 1 2.06 2.06zm37.71 27.61a2.07 2.07 0 1 1 -2.06-2.07 2.06 2.06 0 0 1 2.06 2.07zm5.62 30.42a2.07 2.07 0 1 1 -2.06-2.07 2.06 2.06 0 0 1 2.06 2.07zm-68.17-80.05a2.07 2.07 0 1 1 -2.07-2.07 2.07 2.07 0 0 1 2.07 2.07z" fill="#f0f0f0"/><path d="m248.3 125.5a2.06 2.06 0 1 1 -2.06-2.06 2.07 2.07 0 0 1 2.06 2.06z" fill="#fafafa"/><circle cx="248.96" cy="190.43" fill="#fafafa" r="2.06"/><path d="m293.17 199.29a2.06 2.06 0 1 1 -2.06-2.06 2.06 2.06 0 0 1 2.06 2.06zm-97.9-2.2a2.07 2.07 0 1 1 -2.07-2.09 2.07 2.07 0 0 1 2.07 2.09zm34.27 14.91a2.07 2.07 0 1 1 -2.07-2.06 2.07 2.07 0 0 1 2.07 2.06zm55.79 6.85a2.07 2.07 0 1 1 -2.07-2.07 2.07 2.07 0 0 1 2.07 2.07z" fill="#fafafa"/><path d="m344.99 324.18-11.61.8-.4.53 9.95 19.59 11.05-1.84z" fill="#407bff"/><path d="m344.99 324.18-11.61.8-.4.53 9.95 19.59 11.05-1.84z" opacity=".3"/><path d="m345.38 323.65-12 1.33 9.95 19.59 11.05-1.83z" fill="#407bff"/><path d="m345.31 325.51-10.07 1.12 8.3 16.03 9.27-1.54z" fill="#f0f0f0"/><path d="m343.33 326.3-.41-.8c-.23-.45-1.17-.73-2.09-.63l-1.78.18c-.93.1-1.5.53-1.27 1l.41.8z" opacity=".15"/><path d="m342.37 323.44a1 1 0 0 0 -.94-.41l-.69.1a3.11 3.11 0 0 0 -2.53-1.69c-1.63.06-.74 2-.74 2l-.73.11c-.4.06-.63.33-.51.6l.22.49 6.19-.69z" fill="#37474f"/><path d="m341.84 324c-.58 0-.8.09-.45.77s.74 1.37.74 1.37l-2.73.31s-.5-1-.7-1.37-.49-.67-.92-.62l-.26-.33 4.34-.41z" fill="#263238"/><path d="m343.48 326.41-.41-.81a2.33 2.33 0 0 0 -2.07-.6l-1.77.19c-.93.09-1.5.53-1.27 1l.41.81z" fill="#37474f"/><path d="m349.36 333.06s.31-1.78-.22-2.39-2.73-.53-3.81-1-1 .82-.43 1.24c1.24.9 3.7 1.32 4.46 2.15z" fill="#f28f8f"/><path d="m367.67 309.69c1.78.09 3.42 1.41 5.23 5.9s5.53 14.33 4.93 16c-.41 1.16-13.72 4.64-13.72 4.64l-1.92-4.07 8.83-4-5-11.55z" fill="#e0e0e0"/><path d="m356.11 406.77a23.75 23.75 0 0 1 .63 2.3 6.24 6.24 0 0 1 .12 2.92c-.3.64-1.46 1.05-3.27 1a10.69 10.69 0 0 0 -4.24 1.48 11.2 11.2 0 0 1 -5.33.85c-1.61-.19-3.27-1.12-3.53-1.79s-.48-1.58 3.87-3c0 0 5.26-1.71 7.09-3.73z" fill="#407bff"/><path d="m356.11 406.77a23.75 23.75 0 0 1 .63 2.3 6.24 6.24 0 0 1 .12 2.92c-.3.64-1.46 1.05-3.27 1a10.69 10.69 0 0 0 -4.24 1.48 11.2 11.2 0 0 1 -5.33.85c-1.61-.19-3.27-1.12-3.53-1.79s-.48-1.58 3.87-3c0 0 5.26-1.71 7.09-3.73z" opacity=".4"/><path d="m356.11 406.89-.83-.1-3.83.08c-1.83 2-7.05 3.72-7.09 3.73l-.7.24c-.75.6-.11 1.64 1.69 1.8s7.38-1.72 8.62-2.32a3.69 3.69 0 0 0 2.14-3.43z" fill="#ffa8a7"/><path d="m356.11 405.25v1.64c0 .6-.7 1.49-2.53 1.43-1.28-.05-2.18-.4-2.13-1.45v-1.53z" fill="#ffa8a7"/><path d="m368.39 399.9c.33.13.4.77.41 2 0 .95.18 2.62-.95 2.92a3.48 3.48 0 0 1 -3.44-.83c-.87-1.14-1.44-2.15-2.68-3.55-1.07-1.21-2.24-2.35-2.64-4-.36-1.51 0-2.16 1-2.57s2-.07 3.41 1.13a6.36 6.36 0 0 0 1.27.67c.98.33 3.29 4.09 3.62 4.23z" fill="#407bff"/><path d="m368.39 399.9c.33.13.4.77.41 2 0 .95.18 2.62-.95 2.92a3.48 3.48 0 0 1 -3.44-.83c-.87-1.14-1.44-2.15-2.68-3.55-1.07-1.21-2.24-2.35-2.64-4-.36-1.51 0-2.16 1-2.57s2-.07 3.41 1.13a6.36 6.36 0 0 0 1.27.67c.98.33 3.29 4.09 3.62 4.23z" opacity=".4"/><path d="m368.42 398.73v1.55s-1 2-3.91 0c-.06-.16-.32-3.15-.32-3.15z" fill="#ffa8a7"/><path d="m364.8 395.67a6.36 6.36 0 0 1 -1.27-.67c-1.16-.37-3.6.06-2.5 1.74a13.21 13.21 0 0 0 3.44 3.54c1.3.64 1.76-.16 1.76-.16l-.46-3.62a2.92 2.92 0 0 0 -.97-.83z" fill="#ffa8a7"/><path d="m370.52 377.34a36.59 36.59 0 0 0 -1.67-8s1-6.82 1.74-13.37c1.8-15.37.6-15.62-1.57-21 0 0-19.71-2.54-20.53 5.66-1 10.2-.56 30-.39 33.61s.47 5.26 1.54 12.84c.82 5.77 1.59 18.39 1.59 18.39a5 5 0 0 0 5.07-.26s2.47-15.52 2.41-19.69a35.72 35.72 0 0 0 -1.33-9.14s1.67-16.63 2.1-19.28c0 0 .48 5.31.65 8.93s1.15 7.1 2 13.83c.75 5.85 2 18.05 2 18.05 2.59 1.49 4.39.81 4.39.81s2.57-16.31 2-21.38z" fill="#407bff"/><path d="m359.48 357.14 1.08-6.85a15.2 15.2 0 0 0 6.08-2.12 8.14 8.14 0 0 1 -4.88 2.86l-1.1 8-.44 8.32z" opacity=".1"/><path d="m356.48 305.84.73 7.66 6.73-.43-.54-8.49z" fill="#ffa8a7"/><path d="m370 312.41c-.68-2-2.08-3.21-5.16-3.25h-1.13c-.22 1.13-3.53 2-6.81.89-.46.11-1.72.35-2.44.44l-1.56.23c-2.39.78-3.44 4.92-3.67 11.49s-1.21 20.6-1.21 20.6 5.13 2.75 13.22 1.68a16.14 16.14 0 0 0 9.81-4.68 50.31 50.31 0 0 0 -3.74-10.52c3.79-9.29 3.69-13.87 2.69-16.88z" fill="#455a64"/><path d="m357.21 344.78a28.83 28.83 0 0 0 4-.25 15.69 15.69 0 0 0 9.8-4.72 50.64 50.64 0 0 0 -3.73-10.48 43.23 43.23 0 0 0 3.16-10.93c-.31 2-3.21 9.57-7 11.85a6.79 6.79 0 0 1 4 2.85c1.81 2.52.3 11.14-10.23 11.68z" fill="#37474f"/><path d="m353 296.33s-2.55-3-.55-6c2.35-3.48 6.48-4.66 11.59-3.14 2.54.75 6.25 4.25 6.44 9.16.15 3.78-10.46 6.28-10.29 8.87z" fill="#263238"/><path d="m351.49 297.44s-1.49 2.25-1.29 2.49a3.46 3.46 0 0 0 1.14.49z" fill="#f28f8f"/><path d="m356.05 290.3c-1.45.75-4 2.13-4.6 7.47s.56 7.38 1.31 8.09c.5.49 3.1.66 4.46.24 1.69-.52 5.37-2.34 7.1-5.17 2-3.32 2.44-7.76.1-9.49a8.74 8.74 0 0 0 -8.37-1.14z" fill="#ffa8a7"/><path d="m355.62 290.53s-1.26 5 .25 8.15c0 0 .88-1.95 2.56-1.39s1.53 2.81.2 4a2.51 2.51 0 0 1 -2.61.56 4.55 4.55 0 0 0 2.41 3.86s4.94 2.36 9.4-2.41c4.05-4.33 3.53-12.09-2.44-14.08a10.26 10.26 0 0 0 -9.77 1.31z" fill="#263238"/><path d="m373.77 290.77a5.26 5.26 0 1 1 -5.26-5.26 5.26 5.26 0 0 1 5.26 5.26zm-22-2.49c-2.22 2.26-2.35 8.8 4.1 10.4l4.21-11.56c-2.45-1.6-6.32-.86-8.31 1.16z" fill="#263238"/><path d="m355.22 300.47a1.27 1.27 0 1 1 .86-2.39z" fill="#263238"/><path d="m353.37 310.69s-1.05-.15-5 .91-13.26 3.19-13.26 3.19-10.93-5.27-11.41-5.84-.21-1.73-.08-2.37.35-2.06.49-2.46c.25-.69-.78-.5-1.38.15s-.88 1.92-1.18 2.14-2.6-2.43-3.72-3.71-1.64-2.17-2.39-1.64c-.54.38-.19 1.13.61 2.23a11.84 11.84 0 0 1 1 1.45c.1.19-.2.35-.31.46s-.61.51-.63.81a4.07 4.07 0 0 1 0 .5c-.11.36-.56.53-.69.89s0 .54 0 .81-.13.33-.16.51a1.23 1.23 0 0 0 .36.94 9.14 9.14 0 0 0 2.88 1.86c.86.47 1.74.67 2.73 1.11s12.38 8.56 14.43 8.38c2.32-.2 16.47-2.73 16.47-2.73 3.67-2.53 1.24-7.59 1.24-7.59z" fill="#ffa8a7"/><path d="m364.82 309.16a7.52 7.52 0 0 1 3.34.59c1.57.74 2.53 2.49 2.61 6.38s-3 13.42-3 13.42 3.28 7.74 3.89 11.14-.23 13.53-.23 13.53-6.44 5.27-19.26 3c-.26-.05-.47-12.05-.73-12.1s-.5 11.86-.73 11.81q-1.82-.39-3.78-1s.27-10 .31-14.32.35-20.76 1.79-25a16.82 16.82 0 0 1 3.43-6.2h2.74z" fill="#f5f5f5"/><path d="m354.38 310.44c-5.63-.42-12.75 2.69-19.27 4.35l-9-4.47s-2.82 3-1.19 5.18c0 0 8.35 6 10.34 6.4s16.7-2.59 16.7-2.59a5.44 5.44 0 0 0 3.29-4.54c.41-3.55-.87-4.33-.87-4.33zm2.32-2.35a.76.76 0 0 0 -.62.44c-.23.44-.85 1.88-.85 1.88s1.54 2 5.17 1.55 4.42-2.8 4.42-2.8-.37-2.08-1.26-2v.4s-.34.8-2.5 1.08c-3.06.36-4.36-.55-4.36-.55z" fill="#e0e0e0"/><path d="m356.48 330.15s6.33 1.59 10.19-.7c.59.53.55 1.13 0 2.14 0 0-3.78 2.24-10.16.61a1.57 1.57 0 0 1 -.03-2.05z" fill="#f0f0f0"/><path d="m357.65 331.3a.57.57 0 1 1 -.57-.56.56.56 0 0 1 .57.56zm9.07-.56a.56.56 0 0 1 -.56.56.57.57 0 0 1 -.57-.56.58.58 0 0 1 .57-.57.57.57 0 0 1 .56.57z" fill="#e0e0e0"/><path d="m125.62 391c-.32.13-.39.76-.41 2 0 .94-.18 2.59.92 2.89a3.45 3.45 0 0 0 3.41-.8 42.4 42.4 0 0 1 2.66-3.49 9.69 9.69 0 0 0 2.62-4c.36-1.49 0-2.13-1-2.54-1.4-.56-3.54 1.43-4.63 1.76-.94.33-3.19 4.07-3.57 4.18z" fill="#407bff"/><path d="m125.59 391c-.32.13-.39.76-.42 2 0 .94-.18 2.59.93 2.89a3.47 3.47 0 0 0 3.41-.8 42.62 42.62 0 0 1 2.65-3.49 9.61 9.61 0 0 0 2.63-4c.36-1.49 0-2.13-1-2.54-1.4-.56-3.55 1.43-4.63 1.76s-3.24 4.09-3.57 4.18z" opacity=".4"/><path d="m125.6 389.87v1.53a3.74 3.74 0 0 0 3.86 0c.06-.15.35-2.19.35-2.19z" fill="#ffa8a7"/><path d="m138.18 399.53a25.63 25.63 0 0 0 -.62 2.51 6.66 6.66 0 0 0 -.06 3.16c.34.68 1.61 1.1 3.56 1.05a11.49 11.49 0 0 1 4.62 1.49 12 12 0 0 0 5.79.79c1.73-.24 3.51-1.29 3.78-2s-.13-1.46-4.26-3.12c0 0-5.74-1.72-7.77-3.87z" fill="#407bff"/><path d="m138.18 399.53a25.63 25.63 0 0 0 -.62 2.51 6.66 6.66 0 0 0 -.06 3.16c.34.68 1.61 1.1 3.56 1.05a11.49 11.49 0 0 1 4.62 1.49 12 12 0 0 0 5.79.79c1.73-.24 3.51-1.29 3.78-2s-.13-1.46-4.26-3.12c0 0-5.74-1.72-7.77-3.87z" opacity=".4"/><path d="m138.14 397.89v1.77c0 .64.79 1.6 2.77 1.48 1.39-.08 2.35-.47 2.27-1.62v-1.65z" fill="#ffa8a7"/><path d="m124.15 369.64c.58-5 .89-8.09.89-8.09s-.72-6-1.12-12.52c-.45-7-.36-15.35.23-18.31 0 0 22.55-5.09 23.14 3s-.25 28.79-.44 32.36-.73 6.74-1.33 12.54-2.34 19.23-2.34 19.23a5.35 5.35 0 0 1 -5 0s-2-16.2-1.89-20.32a35.58 35.58 0 0 1 1.36-9s-.58-6.68-1.09-12.5-1-8.6-1.12-11.13l-.49-.23s-.27 10.06-.46 13.63-.68 7-1.56 13.65c-.77 5.76-3.16 18-3.16 18-2.55 1.46-4.13-.09-4.13-.09s-2.08-15.22-1.49-20.22z" fill="#407bff"/><path d="m135.4 344.93s-5.56-2.58-8.36-5a18.14 18.14 0 0 0 6 5.06s1.48 12.45 1.46 12.2l.42-12.3z" opacity=".1"/><path d="m139.25 298.66-1.17 7.41-6.68-.34.78-8.66z" fill="#ffa8a7"/><path d="m130 301.51s-4.64-1.19-6.62 2.13-.14 10.5-.14 10.5z" fill="#e0e0e0"/><path d="m123.53 306.07c.61-2 3.93-5 6.49-4.56l1.74.29c.3 1.25 3.5 2.21 6.77 1.44 1 .26 1.89.53 2.71.8 2.35.78 4.52 2.75 4.88 10.41 0 0 2.08 22.71 2.1 34.15a21.9 21.9 0 0 1 -4.16 1.26c-.15 0-.75-13.91-.9-13.88s0 14-.22 14.08a37.77 37.77 0 0 1 -11 0 21.77 21.77 0 0 1 -9.1-3.44s0-14.62 1-21.84c-.47-4.94-.57-8.23-.79-10-.57-4.87.06-7.32.48-8.71z" fill="#f5f5f5"/><path d="m135.16 326.89s-6.49.59-10-2.27c-.66.43-.71 1-.3 2.11 0 0 3.4 2.8 9.95 2.18a1.55 1.55 0 0 0 .35-2.02z" fill="#f0f0f0"/><path d="m133.83 327.85a.57.57 0 1 0 .65-.48.58.58 0 0 0 -.65.48zm-8.83-1.97a.58.58 0 0 0 .48.65.56.56 0 0 0 .64-.47.57.57 0 1 0 -1.12-.18zm13.9-24.97s.32-.09.55.35a16.54 16.54 0 0 1 .62 2.42s-1.41 1.61-5 1.17-4.43-3.09-4.43-3.09.46-2.14 1.34-2.05l-.06.75s.34.8 2.5 1.08c3 .39 4.48-.63 4.48-.63z" fill="#e0e0e0"/><path d="m160.39 293.15 13.9 7.25-6.91 18.9-12.98-7.27z" fill="#407bff"/><path d="m160.39 293.15 13.9 7.25-6.91 18.9-12.98-7.27z" opacity=".3"/><path d="m159.79 292.85 13.91 7.25-6.91 18.9-12.98-7.27z" fill="#407bff"/><path d="m160.59 294.75 11.67 6.09-6.12 16.24-10.89-6.09z" fill="#f5f5f5"/><path d="m163.49 296.75.22-.58c.13-.32 1.1-.13 2.17.43l2.05 1.06c1.08.55 1.85 1.26 1.72 1.58l-.22.58z" opacity=".15"/><path d="m163.71 294.44c.08-.2.5-.17.94.07l.81.43s.49-1.24 2.34-.38 1.43 2.31 1.43 2.31l.86.47c.47.26.8.64.75.84l-.11.37-7.16-3.74s.06-.17.14-.37z" fill="#37474f"/><path d="m164.48 295.28c.67.32.93.48.74 1s-.42 1-.42 1l3.17 1.66s.26-.72.38-1 .34-.41.85-.15l.19-.2-5-2.54z" fill="#263238"/><path d="m163.35 296.78.22-.58c.13-.32 1.1-.13 2.17.43l2.06 1.06c1.07.55 1.84 1.26 1.72 1.58l-.23.58z" fill="#37474f"/><path d="m141.63 304.2c2.66.8 4.28.94 7.22 5.46s9.59 13 10.23 14.08a5.76 5.76 0 0 1 .29 5.16c-.72 1.28-2.44.53-5.36-2s-8.77-9.28-8.77-9.28a48.2 48.2 0 0 1 -3.61-13.42z" fill="#ffa8a7"/><path d="m158.47 329.53c2.46-.3 7.77-7.74 9.41-10.29a18.11 18.11 0 0 1 5-5.25c2.6-1.93 2.22-4.88 1.09-7.59-.4-.94-1.73-.33-1.73-.33l-.47 1.29-.82 2.22c-.55.51-.86.68-.9.53s.41-1.49.4-2.73c0-1.51-1.07-.52-1.38 0a17.6 17.6 0 0 0 -1.11 2.48c-.53 1.34-.31 2.7-.95 3.62s-9.21 9.13-9.21 9.13z" fill="#ffa8a7"/><path d="m141.24 304a13.92 13.92 0 0 1 4 1.3c2.11 1.07 2.81 2.88 5.87 6.84s7 9.39 7 9.39l7.13-6.27a4.12 4.12 0 0 0 3.26 3 44.09 44.09 0 0 1 -6.17 9.15c-3.53 3.79-3.55 3.6-6.77 1.71s-10.62-11-10.62-11-7.35-5.76-3.7-14.12z" fill="#e0e0e0"/><path d="m144.19 289.57s1.75 2.66 1.55 2.92-1.48.49-1.48.49z" fill="#f28f8f"/><path d="m141.29 289.19a2.09 2.09 0 1 1 2.08 2.09 2.09 2.09 0 0 1 -2.08-2.09zm.46 0a1.63 1.63 0 1 0 1.62-1.62 1.62 1.62 0 0 0 -1.62 1.62z" fill="#263238"/><path d="m139.33 282.22c3.54.75 4.57 2.31 4.9 7.93.35 5.89-.25 7.73-1 8.53-.52.53-3.42.63-4.88.22-1.83-.5-6-2-7.91-4.92-2.28-3.49-2.87-8.2-.43-10.14 3.41-2.72 7.88-1.92 9.32-1.62z" fill="#ffa8a7"/><path d="m145.26 288.75-6.29.82.25.44 6.04-.78z" fill="#263238"/><path d="m144.62 284.06-.1.1c-.69.65-1.56 1.06-2.27 1.67a5.28 5.28 0 0 0 -1.61 2.57c-.24.81-.33 1.78-1.21 2.16 0 0-.56-2.18-2.4-1.91s-2.09 2.63-.93 4.06 2.25.88 2.25.88-.06 3.11-1.43 4.87a9.51 9.51 0 0 1 -4.45-.11c-1.77-.38-4.28-2.59-5.33-4.94-2.23-5-2.38-9.42.78-10.76.34-2.28 2.14-3.31 4.19-3.78 3.07-.7 5.94 1.12 9 .44.64-.14 1.26-.37 1.9-.45a.32.32 0 0 1 .22 0c.16.08.15.3.1.46a3.92 3.92 0 0 1 -.89 1.64 9.55 9.55 0 0 0 3.44-.43 4.43 4.43 0 0 1 -1.26 3.53z" fill="#263238"/><path d="m127.87 283.42-2.12-1.25a1.23 1.23 0 1 1 2.12 1.25zm11.6 8.38-.07-2.47a1.24 1.24 0 0 1 .07 2.47z" fill="#263238"/></svg>