<svg viewBox="0 0 500 500" xmlns="http://www.w3.org/2000/svg"><path d="m0 382.4h500v.25h-500zm416.78 16.09h33.12v.25h-33.12zm-94.25 2.72h8.69v.25h-8.69zm74.06-12h19.19v.25h-19.19zm-344.13 1.68h43.19v.25h-43.19zm52.1 0h6.33v.25h-6.33zm26.91 4.22h93.68v.25h-93.68zm105.53-57.31h-193.09a5.71 5.71 0 0 1 -5.7-5.71v-271.43a5.71 5.71 0 0 1 5.7-5.66h193.09a5.71 5.71 0 0 1 5.71 5.71v271.38a5.71 5.71 0 0 1 -5.71 5.71zm-193.09-282.6a5.46 5.46 0 0 0 -5.45 5.46v271.43a5.46 5.46 0 0 0 5.45 5.46h193.09a5.47 5.47 0 0 0 5.46-5.46v-271.43a5.47 5.47 0 0 0 -5.46-5.46zm409.4 282.6h-193.1a5.72 5.72 0 0 1 -5.71-5.71v-271.43a5.72 5.72 0 0 1 5.71-5.66h193.1a5.71 5.71 0 0 1 5.69 5.66v271.43a5.71 5.71 0 0 1 -5.69 5.71zm-193.1-282.6a5.47 5.47 0 0 0 -5.46 5.46v271.43a5.47 5.47 0 0 0 5.46 5.46h193.1a5.47 5.47 0 0 0 5.46-5.46v-271.43a5.47 5.47 0 0 0 -5.46-5.46z" fill="#ebebeb"/><path d="m142.41 264.17h145.07v92.28h-145.07z" fill="#ebebeb"/><path d="m142.41 264.17h145.07v6.25h-145.07z" fill="#e0e0e0"/><circle cx="283.44" cy="267.3" fill="#fafafa" r="1.88"/><circle cx="277.18" cy="267.3" fill="#fafafa" r="1.88"/><circle cx="270.92" cy="267.3" fill="#fafafa" r="1.88"/><path d="m223.44 289.96h145.07v92.28h-145.07z" fill="#f5f5f5"/><path d="m223.44 289.96h145.07v6.25h-145.07z" fill="#e0e0e0"/><path d="m366.35 293.08a1.88 1.88 0 1 1 -1.88-1.88 1.88 1.88 0 0 1 1.88 1.88zm-6.26 0a1.88 1.88 0 1 1 -1.88-1.88 1.88 1.88 0 0 1 1.88 1.88zm-6.26 0a1.88 1.88 0 1 1 -1.83-1.88 1.88 1.88 0 0 1 1.83 1.88z" fill="#fafafa"/><path d="m265.22 86.89h-.36a14.81 14.81 0 0 0 .25-2.61 14.4 14.4 0 0 0 -14.4-14.39h-.11a11 11 0 0 0 -19.25.41 12 12 0 0 0 -3.07-.41 12.1 12.1 0 0 0 -12.09 11.65 11 11 0 0 0 6.54 19.78 10.83 10.83 0 0 0 2.63-.33h37.7a7.33 7.33 0 0 0 2.16.33 7.22 7.22 0 1 0 0-14.44zm115.47 28.38h-.28a10.83 10.83 0 0 0 .19-2 11 11 0 0 0 -11-11h-.08a8.41 8.41 0 0 0 -14.74.31 9.21 9.21 0 0 0 -11.61 8.61 8.39 8.39 0 0 0 5 15.14 8.5 8.5 0 0 0 2.32-.33h28.34a5.53 5.53 0 1 0 1.87-10.73zm-228 8h-.28a10.83 10.83 0 0 0 .19-2 11 11 0 0 0 -11-11h-.08a8.41 8.41 0 0 0 -14.74.31 9.21 9.21 0 0 0 -11.61 8.61 8.39 8.39 0 0 0 5 15.14 8.5 8.5 0 0 0 2.32-.33h28.34a5.53 5.53 0 1 0 1.87-10.73z" fill="#ebebeb"/><path d="m78.78 346.78-1.26-1.78a2.42 2.42 0 0 0 -2-1h-8.82a2.13 2.13 0 0 0 -1.84 1l-1 1.75a2.14 2.14 0 0 1 -1.84 1h-5.34a2.14 2.14 0 0 0 -2.15 2.3l1.71 29.59a2.47 2.47 0 0 0 2.42 2.3h41.91a2.14 2.14 0 0 0 2.15-2.3l-1.72-29.53a2.45 2.45 0 0 0 -2.41-2.3h-17.85a2.45 2.45 0 0 1 -1.96-1.03z" fill="#e0e0e0"/><path d="m102.78 350.63h-38.4a3.21 3.21 0 0 0 -3.15 2.87l-2.31 25.63a2.6 2.6 0 0 0 2.64 2.87h38.44a3.23 3.23 0 0 0 3.16-2.87l2.31-25.63a2.59 2.59 0 0 0 -2.69-2.87z" fill="#f0f0f0"/><path d="m417.71 347.2-1.25-1.75a2.44 2.44 0 0 0 -2-1h-8.86a2.11 2.11 0 0 0 -1.84 1l-1.06 1.75a2.13 2.13 0 0 1 -1.84 1h-5.29a2.14 2.14 0 0 0 -2.15 2.3l1.72 29.59a2.45 2.45 0 0 0 2.41 2.3h41.95a2.14 2.14 0 0 0 2.15-2.3l-1.71-29.59a2.47 2.47 0 0 0 -2.42-2.3h-17.85a2.45 2.45 0 0 1 -1.96-1z" fill="#e0e0e0"/><path d="m441.71 351.05h-38.39a3.22 3.22 0 0 0 -3.16 2.87l-2.31 25.63a2.6 2.6 0 0 0 2.64 2.87h38.39a3.23 3.23 0 0 0 3.16-2.87l2.31-25.63a2.59 2.59 0 0 0 -2.64-2.87z" fill="#f0f0f0"/><path d="m297 323.29-1.26-1.75a2.42 2.42 0 0 0 -2-1h-8.86a2.13 2.13 0 0 0 -1.84 1l-1.04 1.75a2.14 2.14 0 0 1 -1.84 1h-5.29a2.14 2.14 0 0 0 -2.15 2.3l1.71 29.59a2.47 2.47 0 0 0 2.42 2.3h41.9a2.13 2.13 0 0 0 2.15-2.3l-1.71-29.59a2.45 2.45 0 0 0 -2.41-2.3h-17.85a2.45 2.45 0 0 1 -1.93-1z" fill="#e0e0e0"/><path d="m321 327.14h-38.4a3.22 3.22 0 0 0 -3.15 2.87l-2.31 25.63a2.59 2.59 0 0 0 2.64 2.87h38.39a3.23 3.23 0 0 0 3.16-2.87l2.27-25.64a2.58 2.58 0 0 0 -2.6-2.86z" fill="#f0f0f0"/><ellipse cx="250" cy="416.24" fill="#f5f5f5" rx="193.89" ry="11.32"/><rect fill="#407bff" height="178.9" rx="2.37" width="104.42" x="59.58" y="127.01"/><rect fill="#fff" height="178.9" opacity=".7" rx="2.37" width="104.42" x="59.58" y="127.01"/><path d="m66.67 149.68h19.67v2.67h-19.67zm0 6h19.67v2.67h-19.67zm70.04-6h19.67v2.67h-19.67zm-36.67-12.35h19.67v2.67h-19.67zm-33.37-4.66h89.71v2.67h-89.71zm10 31.33h79.7v2.67h-79.7zm-10 5.33h89.71v2.67h-89.71zm0 5.34h89.71v2.67h-89.71zm0 5.33h89.71v2.67h-89.71zm0 5.33h79.7v2.67h-79.7zm10 9.69h79.7v2.67h-79.7zm-10 5.33h89.71v2.67h-89.71zm0 5.34h89.71v2.67h-89.71zm0 5.33h89.71v2.67h-89.71zm0 5.33h79.7v2.67h-79.7zm10 9.69h79.7v2.67h-79.7zm-10 5.33h89.71v2.67h-89.71zm0 5.34h89.71v2.67h-89.71zm0 5.33h89.71v2.67h-89.71zm0 5.33h79.7v2.67h-79.7zm10 10.69h79.7v2.67h-79.7zm-10 5.33h89.71v2.67h-89.71zm0 5.34h89.71v2.67h-89.71zm0 5.33h89.71v2.67h-89.71zm0 5.33h79.7v2.67h-79.7zm70.04 15.38h19.67v2.67h-19.67z" fill="#407bff"/><path d="m66.67 149.68h19.67v2.67h-19.67zm0 6h19.67v2.67h-19.67zm70.04-6h19.67v2.67h-19.67zm-36.67-12.35h19.67v2.67h-19.67zm-33.37-4.66h89.71v2.67h-89.71zm10 31.33h79.7v2.67h-79.7zm-10 5.33h89.71v2.67h-89.71zm0 5.34h89.71v2.67h-89.71zm0 5.33h89.71v2.67h-89.71zm0 5.33h79.7v2.67h-79.7zm10 9.69h79.7v2.67h-79.7zm-10 5.33h89.71v2.67h-89.71zm0 5.34h89.71v2.67h-89.71zm0 5.33h89.71v2.67h-89.71zm0 5.33h79.7v2.67h-79.7zm10 9.69h79.7v2.67h-79.7zm-10 5.33h89.71v2.67h-89.71zm0 5.34h89.71v2.67h-89.71zm0 5.33h89.71v2.67h-89.71zm0 5.33h79.7v2.67h-79.7zm10 10.69h79.7v2.67h-79.7zm-10 5.33h89.71v2.67h-89.71zm0 5.34h89.71v2.67h-89.71zm0 5.33h89.71v2.67h-89.71zm0 5.33h79.7v2.67h-79.7zm70.04 15.38h19.67v2.67h-19.67z" fill="#fff" opacity=".2"/><rect height="50.13" opacity=".1" rx="2.37" width="60.34" x="108.66" y="265.3"/><rect fill="#407bff" height="50.13" rx="2.37" width="60.34" x="116.1" y="274.79"/><rect fill="#fff" height="50.13" opacity=".3" rx="2.37" width="60.34" x="116.1" y="274.79"/><path d="m122 304h12v6h-12zm13 0h34v6h-34zm-13-8h12v7h-12zm0-7h12v6h-12zm13 7h34v7h-34zm0 15h34v7h-34zm0-22h34v6h-34zm-13 22h12v7h-12zm0-30h12v7h-12zm13 0h34v7h-34z" fill="#407bff"/><rect height="50.13" opacity=".1" rx="2.37" width="60.34" x="125.93" y="178.62"/><rect fill="#407bff" height="50.13" rx="2.37" width="60.34" x="137.1" y="176.25"/><rect fill="#fff" height="50.13" opacity=".3" rx="2.37" width="60.34" x="137.1" y="176.25"/><path d="m176 183h15v7h-15zm-16 0h15v7h-15zm0 7h15v30h-15zm16 0h15v30h-15zm-32-7h15v7h-15zm0 7h15v30h-15z" fill="#407bff"/><rect height="50.13" opacity=".1" rx="2.37" width="60.34" x="144.83" y="231.23"/><rect fill="#407bff" height="50.13" rx="2.37" width="60.34" x="165.1" y="228.02"/><rect fill="#fff" height="50.13" opacity=".3" rx="2.37" width="60.34" x="165.1" y="228.02"/><path d="m196 235h23v17h-23zm-24 0h23v17h-23zm0 18h23v19h-23zm24 0h23v19h-23z" fill="#407bff"/><path d="m225 230.39v33.61h-20.73a4.15 4.15 0 0 1 -4.27-4.46v-31.54h23.07c1.31 0 1.93 1.08 1.93 2.39z" opacity=".2"/><rect height="50.13" opacity=".1" rx="2.37" width="60.34" x="146.09" y="131.49"/><rect fill="#407bff" height="50.13" rx="2.37" width="60.34" x="156.1" y="122.48"/><rect fill="#fff" height="50.13" opacity=".3" rx="2.37" width="60.34" x="156.1" y="122.48"/><path d="m180 129h19v5h-19zm0 6h9v31h-9zm20-6h10v5h-10zm0 6h10v31h-10zm-10 0h9v31h-9zm-27 0h16v31h-16zm0-6h16v5h-16z" fill="#407bff"/><rect fill="#407bff" height="77.5" rx="4.71" width="77.5" x="307.3" y="239.69"/><path d="m317.42 249.82h57.58v57.25h-57.58z" fill="#fff" opacity=".25"/><path d="m317.42 307 14.66-12.05 4.79 3.86 15.18-12.82 7.46 7.34 15.49-13v26.67z" fill="#fff" opacity=".25"/><path d="m317.42 307 12.41-23.28 14.5 2.26 10.84-14.16 11.16 2.01 8.67-8.66v41.83z" fill="#fff" opacity=".25"/><path d="m317.42 307 28.63-3.54 9.28-4.64 10 1 9.67-4.82v12z" fill="#fff" opacity=".25"/><path d="m377 240v8a5.22 5.22 0 0 1 -5 5h-56v23.48a4.77 4.77 0 0 1 -5 4.52h-4v-36.6c0-2.6 2.4-4.4 5-4.4z" opacity=".2"/><rect fill="#407bff" height="77.5" rx="4.71" width="77.5" x="212.91" y="173.88"/><g fill="#fff"><rect height="13.03" opacity=".8" rx=".87" width="21.75" x="240.63" y="181.97"/><rect height="9.95" opacity=".6" rx=".87" width="17.59" x="229.52" y="210"/><rect height="9.95" opacity=".6" rx=".87" width="17.59" x="256.21" y="210"/><rect height="8.5" opacity=".4" rx=".87" width="9.23" x="248.16" y="231.05"/><rect height="8.5" opacity=".4" rx=".87" width="9.23" x="259.88" y="231.05"/><rect height="8.5" opacity=".4" rx=".87" width="9.23" x="271.61" y="231.05"/><rect height="8.5" opacity=".4" rx=".87" width="9.23" x="221.03" y="231.05"/><rect height="8.5" opacity=".4" rx=".87" width="9.23" x="233.75" y="231.05"/><path d="m264 210h1v-7h-13v-8h-1v8h-13v7h1v-6h25zm-26 16h-13v5h1v-4h12v4h1v-11h-1zm27 1v-7h-1v7h-12v4h1v-3h11v3h1v-3h11v3h1v-4z" opacity=".3"/></g><path d="m290 178.59v22.41h-54.93a5.25 5.25 0 0 1 -5.07-5v-22h55.71a4.27 4.27 0 0 1 4.29 4.59z" opacity=".2"/><rect fill="#407bff" height="77.5" rx="4.71" width="77.5" x="319.18" y="140.19"/><path d="m329.14 150.31h57.58v57.25h-57.58z" fill="#fff" opacity=".25"/><path d="m335.02 185.5h5.8v14.87h-5.8z" fill="#fff" opacity=".35"/><path d="m335.02 185.5h5.8v22.06h-5.8zm10-10.42h5.8v21.89h-5.8z" fill="#fff" opacity=".35"/><path d="m345.02 175.08h5.8v32.48h-5.8zm10.01 6.41h5.8v17.57h-5.8z" fill="#fff" opacity=".35"/><path d="m355.03 181.49h5.8v26.07h-5.8zm10.01-9h5.8v23.64h-5.8z" fill="#fff" opacity=".35"/><path d="m365.04 172.49h5.8v35.07h-5.8zm10-13.75h5.8v32.9h-5.8z" fill="#fff" opacity=".35"/><path d="m375.04 158.74h5.8v48.82h-5.8z" fill="#fff" opacity=".35"/><path d="m340 140v42.4a4.72 4.72 0 0 1 -4.83 4.6h-16.17v-42.11a5 5 0 0 1 4.88-4.89z" opacity=".2"/><rect fill="#407bff" height="77.5" rx="4.71" width="77.5" x="255.27" y="87.04"/><circle cx="294.02" cy="125.79" fill="#fff" opacity=".25" r="25.41" transform="matrix(.16022575 -.9870804 .9870804 .16022575 122.760888 395.860573)"/><path d="m294 125.79 25 4.74a25.41 25.41 0 1 1 -25-30.16z" fill="#fff" opacity=".25"/><path d="m294 125.79v25.41a25.42 25.42 0 0 1 .07-50.83z" fill="#fff" opacity=".25"/><path d="m294 125.79-13.39-21.6a25 25 0 0 1 6.39-2.83 25.32 25.32 0 0 1 6.92-1z" fill="#fff" opacity=".25"/><path d="m428.25 176s13.5 23.66 14.5 29.33-11.5 41.92-11.5 41.92 2.75 9.54-.25 11.15-8.24 4.85-9 2.1 0-11.82 0-11.82l2.26-1.93s8-37.88 8-39.19-14.51-23.65-14.51-23.65zm-49.77 231.03-8.11.85-.41-4.7-1.11-12.79 8.11-.86 1.23 14.13zm40.48-1.03h-7.86l-.07-1.78-.01-.22-.4-11.4-.01-.23-.16-4.37h7.87z" fill="#e4897b"/><path d="m376.96 389.53 1.23 14.13-8.23-.48-1.11-12.79zm41.95 15.47h-.01l-7.87-1h-.01l-.41-11h.01l7.88.63.4 11.02z" opacity=".2"/><path d="m437.28 187.33-13.53 9.2-.26-.33-8.21-10.7-5-6.56 7.43-20.2c8.54 3.26 19.57 28.59 19.57 28.59z" fill="#263238"/><path d="m423.49 196.2-8.21-10.7 6.59-10.11s4.03 10.44 1.62 20.81z" opacity=".2"/><path d="m410 405.53h9.55a.68.68 0 0 1 .67.54l1.55 7a1.18 1.18 0 0 1 -1.15 1.4c-3.09-.05-5.34-.24-9.22-.24-2.39 0-9.6.25-12.9.25s-3.73-3.26-2.38-3.56c6.06-1.32 10.62-3.15 12.56-4.89a1.89 1.89 0 0 1 1.32-.5zm-40.49-.25h9.55a.68.68 0 0 1 .67.54l1.55 7a1.18 1.18 0 0 1 -1.15 1.4c-3.09-.05-5.34-.24-9.22-.24-2.39 0-9.6.25-12.9.25s-3.73-3.26-2.38-3.56c6.06-1.32 10.62-3.15 12.56-4.89a1.89 1.89 0 0 1 1.32-.5z" fill="#263238"/><path d="m368.11 402h11.53s-.94-99.25 11.53-132.77c.88 11.08 1.87 22.57 2.84 32.15.6 5.93 1.21 11 1.78 14.91 3.63 25 12.78 86.71 12.78 86.71h11.43s-1.36-59.14-2.7-83.7c-1.49-26.67-2.13-85.3-2.2-90.3h-41.74c-3.97 21-14.15 105-5.25 173z" fill="#407bff"/><path d="m368.11 402h11.53s-.94-99.25 11.53-132.77c.88 11.08 1.87 22.57 2.84 32.15.6 5.93 1.21 11 1.78 14.91 3.63 25 12.78 86.71 12.78 86.71h11.43s-1.36-59.14-2.7-83.7c-1.49-26.67-2.13-85.3-2.2-90.3h-41.74c-3.97 21-14.15 105-5.25 173z" fill="#fff" opacity=".6"/><path d="m388.5 140.87c.1.38.21.76.34 1.11a11 11 0 0 0 5.32 6.07 9.85 9.85 0 0 0 11.76-1.88c3.94-4 3.84-8.57 4.28-16.34a10.66 10.66 0 0 0 -14.71-10.64c-7.63 3.11-8.67 14.68-6.99 21.68z" fill="#e4897b"/><path d="m392.73 147.17a11 11 0 0 0 1.43.88 9.91 9.91 0 0 0 8.51.37 11.37 11.37 0 0 0 -1.39-2.64 15.37 15.37 0 0 0 -8.55 1.39z" opacity=".2"/><path d="m408.38 157.25c-3.83 3.48-13.21 2.19-13.21 2.19s-5.86-1.6-4.63-3.43c3.45-.57 5.12-2.18 5.81-4.24a10 10 0 0 0 .35-3.94 20.71 20.71 0 0 0 -.29-2.2l11.59-8.63c-1.51 5.71-3.37 16.14.38 20.25z" fill="#e4897b"/><path d="m392.23 124.39c.08.22-.12.67-.27 1.18a11.42 11.42 0 0 0 -.42 3.07 12.67 12.67 0 0 0 4 9 50 50 0 0 0 3.5 9.11 1.94 1.94 0 0 0 .58.77 1.86 1.86 0 0 0 1.12.19l6.78-.23a1.37 1.37 0 0 0 1.09-.38 3.26 3.26 0 0 0 .25-.61c.61-1.46 3.19-.77 4.08-2.08a7.24 7.24 0 0 0 .53-1.86c.56-1.62 2.85-2.46 2.77-4.18-.05-1-1-1.9-.68-2.86s1.5-1.26 2-2.12 0-2-.55-2.8a3.67 3.67 0 0 1 -.86-2.77 6.12 6.12 0 0 1 .52-1.06 3.69 3.69 0 0 0 -.67-4.13 6.3 6.3 0 0 1 -1.24-1.29c-.46-.87-.07-2-.63-2.87s-1.71-.84-2.69-.78-2.14 0-2.72-.74c-.42-.57-.4-1.38-.86-1.91-.66-.74-1.86-.54-2.79-.17s-1.95.84-2.85.43c-.63-.29-1-.93-1.57-1.31a2.27 2.27 0 0 0 -2.67.15c-.5.43-.8 1.08-1.37 1.42a3.68 3.68 0 0 1 -2.71 0 2.56 2.56 0 0 0 -2.61.43c-.84 1 .07 2.78-.79 3.79-.49.58-1.39.66-1.92 1.2a1.54 1.54 0 0 0 .74 2.46c.3.06.69.08.8.36a2.5 2.5 0 0 1 .06.38c.11.39.66.41 1 .28.7-.27.98-.25 1.05-.07z" fill="#263238"/><path d="m397.15 134.35a5 5 0 0 1 -2.59 3.45c-1.58.67-2.62-1.56-2.39-3.89.22-2.08 1.29-5 3-4.61s2.53 2.96 1.98 5.05z" fill="#e4897b"/><path d="m391.17 269.18c.88 11.08 1.87 22.6 2.84 32.18 1.42-13.83 3.16-23.69 3.16-23.69s1.63-1.34 6.11-8.49 0-20.5 0-20.5c.14 12.4-12.11 20.5-12.11 20.5z" opacity=".2"/><path d="m417 237.33-47.67-2.33a425.79 425.79 0 0 1 6.34-51.75 196.14 196.14 0 0 1 5-20.36 100.16 100.16 0 0 1 3.63-10s29.63 2.44 35.7 7.11-3.33 53-3 77.33z" fill="#263238"/><path d="m392.14 153.68s4.53-3.56 13-3.37 9.33 3.37 9.33 3.37 9.33 4.65 2 12.32-21.77-11.76-21.77-11.76z" fill="#263238"/><path d="m392.14 153.68s4.53-3.56 13-3.37 9.33 3.37 9.33 3.37 9.33 4.65 2 12.32-21.77-11.76-21.77-11.76z" fill="#fff" opacity=".25"/><path d="m385.05 163.5s-2.05 13.5-9.38 19.75a196.14 196.14 0 0 1 5-20.36z" opacity=".2"/><path d="m378.94 153.06s-29.61-6.05-33.77-7.64-26.17-22.63-26.17-22.63l-4.82 3.64s16.49 21.4 24.74 27.57 37.08 15.49 37.08 15.49z" fill="#e4897b"/><path d="m385.12 153.06-25.79-4.71-.66 17.82 19.27 7.83s12.15-12.19 7.18-20.94z" fill="#263238"/><path d="m319 122.79c-2.37-2.71-11-8.56-12.27-9.06s-3.11 7.15-2.74 8.15 4.61 3.12 6.75 3.37 4.42 2.44 4.42 2.44z" fill="#e4897b"/><path d="m357.93 147.7 2.83.65-1.29 18.14-2.71-.99z" fill="#263238"/><path d="m357.93 147.7 2.83.65-1.29 18.14-2.71-.99z" fill="#fff" opacity=".25"/><path d="m422 196.38 15.28-10.35 1.05 2.64-14.56 9.16z" fill="#263238"/><path d="m422 196.38 15.28-10.35 1.05 2.64-14.56 9.16z" fill="#fff" opacity=".25"/><path d="m366.81 398.75.57 3.25h13.62v-3zm40.46 1.25 1.3 3h11.43l.75-3z" fill="#407bff"/></svg>