<svg viewBox="0 0 500 500" xmlns="http://www.w3.org/2000/svg"><path d="m416.78 398.49h33.12v.25h-33.12zm-94.25 2.72h8.69v.25h-8.69zm74.06-12h19.19v.25h-19.19zm-344.13 1.68h43.19v.25h-43.19zm52.1 0h6.33v.25h-6.33zm26.91 4.22h93.68v.25h-93.68zm105.53-57.31h-193.09a5.71 5.71 0 0 1 -5.7-5.71v-271.43a5.71 5.71 0 0 1 5.7-5.66h193.09a5.71 5.71 0 0 1 5.71 5.71v271.38a5.71 5.71 0 0 1 -5.71 5.71zm-193.09-282.6a5.46 5.46 0 0 0 -5.45 5.46v271.43a5.46 5.46 0 0 0 5.45 5.46h193.09a5.47 5.47 0 0 0 5.46-5.46v-271.43a5.47 5.47 0 0 0 -5.46-5.46zm409.4 282.6h-193.1a5.72 5.72 0 0 1 -5.71-5.71v-271.43a5.72 5.72 0 0 1 5.71-5.66h193.1a5.71 5.71 0 0 1 5.69 5.66v271.43a5.71 5.71 0 0 1 -5.69 5.71zm-193.1-282.6a5.47 5.47 0 0 0 -5.46 5.46v271.43a5.47 5.47 0 0 0 5.46 5.46h193.1a5.47 5.47 0 0 0 5.46-5.46v-271.43a5.47 5.47 0 0 0 -5.46-5.46zm-260.21 327.2h500v.25h-500z" fill="#ebebeb"/><path d="m126.78 242.62h22.4v94.96h-22.4z" fill="#e6e6e6"/><path d="m164.12 210.24h22.4v127.34h-22.4z" fill="#e0e0e0"/><path d="m201.46 242.62h22.4v94.96h-22.4z" fill="#ebebeb"/><path d="m52.1 274.99h22.4v62.58h-22.4z" fill="#f0f0f0"/><path d="m89.44 259.36h22.4v78.21h-22.4z" fill="#ebebeb"/><path d="m238.8 274.99h22.4v62.58h-22.4z" fill="#f5f5f5"/><path d="m425.49 177.86h22.4v159.72h-22.4z" fill="#e0e0e0"/><path d="m276.14 242.62h22.4v94.96h-22.4z" fill="#f0f0f0"/><path d="m388.15 210.24h22.4v127.34h-22.4z" fill="#e6e6e6"/><path d="m350.82 226.98h22.4v110.59h-22.4z" fill="#ebebeb"/><path d="m313.48 259.36h22.4v78.21h-22.4z" fill="#f0f0f0"/><circle cx="67.91" cy="212.4" fill="#e0e0e0" r="15.63" transform="matrix(.22971002 -.97325912 .97325912 .22971002 -154.409438 229.700131)"/><circle cx="69.79" cy="212.4" fill="#e6e6e6" r="15.63" transform="matrix(.70710678 -.70710678 .70710678 .70710678 -129.749877 111.560088)"/><circle cx="69.79" cy="212.4" fill="#f0f0f0" r="11.7"/><path d="m74.93 214.89c.45 2.59-1.33 4.32-4.53 4.59l-.05 2.14h-1.95l.06-2.14a10.86 10.86 0 0 1 -4.74-1.5l.88-2.41a8.84 8.84 0 0 0 3.92 1.43l.09-3.28c-1.91-.55-4-1.27-4.43-3.62-.45-2.59 1.36-4.34 4.63-4.57v-2.14h1.99v2.16a9.91 9.91 0 0 1 3.78 1.11l-.82 2.34a7.48 7.48 0 0 0 -3.07-1l-.08 3.42c1.88.58 3.92 1.24 4.32 3.47zm-6.27-4 .08-2.8c-1.07.21-1.59.81-1.48 1.55s.65.95 1.4 1.25zm3.2 4.51c-.09-.57-.6-.92-1.33-1.17l-.06 2.66c1.02-.21 1.53-.75 1.39-1.49z" fill="#fff"/><rect fill="#f0f0f0" height="45.74" rx="7.49" width="96.37" x="351.17" y="80.48"/><rect fill="#fff" height="33.92" rx=".72" width="8.22" x="368.69" y="86.71"/><rect fill="#fff" height="33.92" rx=".72" width="8.22" x="424.19" y="86.71"/><rect fill="#fff" height="22.74" rx=".72" width="8.22" x="397.4" y="97.9"/><rect fill="#fff" height="17.28" rx=".72" width="8.22" x="383.17" y="103.35"/><rect fill="#fff" height="4" rx=".72" width="8.22" x="410.8" y="116.63"/><path d="m428.42 86.51a.73.73 0 0 0 -1 .38l-12 26a.73.73 0 0 1 -1.3.1l-11.12-16.92a.73.73 0 0 0 -1-.23l-14 5.6a.72.72 0 0 1 -.75 0l-15.25-15.36a.72.72 0 0 0 -1 .34v.08a.73.73 0 0 0 .31.93l16.07 15.83a.7.7 0 0 0 .75 0l13.38-5.26a.72.72 0 0 1 1 .23l11.83 18.07a.73.73 0 0 0 1.3-.09l13.1-28.75a.74.74 0 0 0 -.32-.95z" fill="#e0e0e0"/><circle cx="221.2" cy="108.78" fill="#e0e0e0" r="16.31"/><circle cx="221.01" cy="108.78" fill="#fff" opacity=".8" r="13.09"/><circle cx="220.97" cy="109.87" fill="#e0e0e0" r="1.33"/><path d="m220.82 110.36-5.63-5.3.55-.58 5.1 4.8 9.14-8.08.53.6z" fill="#e0e0e0"/><ellipse cx="250" cy="415.69" fill="#f5f5f5" rx="193.89" ry="11.32"/><path d="m217.2 242.7h66.02v173.73h-66.02z" fill="#407bff"/><path d="m234.2 242.7h49.23v173.73h-49.23z" opacity=".5"/><path d="m303.45 301.93h66.02v114.49h-66.02z" fill="#407bff"/><path d="m320.24 301.66h49.23v114.77h-49.23z" opacity=".3"/><path d="m130.53 273.68h66.02v142.74h-66.02z" fill="#407bff"/><path d="m147.32 273.33h49.23v143.09h-49.23z" opacity=".4"/><path d="m156.23 416.61c-.09 2.13 6.64 4.14 15 4.5s15.27-1.08 15.36-3.21-6.64-4.13-15-4.49-15.27 1.08-15.36 3.2z" fill="#407bff"/><path d="m169.58 400.13h3.85v30.42h-3.85z" fill="#407bff" transform="matrix(.04239879 -.99910077 .99910077 .04239879 -250.729746 569.060382)"/><path d="m156.39 412.76c-.09 2.13 6.64 4.14 15 4.5s15.27-1.08 15.36-3.21-6.64-4.13-15-4.49-15.27 1.08-15.36 3.2z" fill="#407bff"/><path d="m156.39 412.76c-.09 2.13 6.64 4.14 15 4.5s15.27-1.08 15.36-3.21-6.64-4.13-15-4.49-15.27 1.08-15.36 3.2z" fill="#fff" opacity=".4"/><g fill="#407bff"><path d="m158.33 412.7a.62.62 0 0 0 .13.38c1-1.25 6.57-2 13.21-1.71s12.13 1.49 13 2.82a.54.54 0 0 0 .16-.37c.06-1.44-5.82-2.88-13.15-3.19s-13.29.63-13.35 2.07z"/><path d="m158.33 412.7a.62.62 0 0 0 .13.38c1-1.25 6.57-2 13.21-1.71s12.13 1.49 13 2.82a.54.54 0 0 0 .16-.37c.06-1.44-5.82-2.88-13.15-3.19s-13.29.63-13.35 2.07z" opacity=".4"/><path d="m158.46 413.08c.91 1.33 6.38 2.53 13 2.81s12.21-.45 13.21-1.7c-.89-1.33-6.36-2.53-13-2.82s-12.19.46-13.21 1.71z" opacity=".4"/><path d="m153 410.78c-.09 2.13 6.64 4.14 15 4.5s15.27-1.08 15.36-3.2-6.64-4.14-15-4.5-15.23 1.08-15.36 3.2z"/><path d="m166.39 394.3h3.85v30.42h-3.85z" transform="matrix(.04239879 -.99910077 .99910077 .04239879 -247.960151 560.310002)"/><path d="m153.2 406.94c-.09 2.12 6.64 4.13 15 4.49s15.27-1.08 15.36-3.2-6.64-4.14-15-4.5-15.27 1.08-15.36 3.21z"/></g><path d="m153.2 406.94c-.09 2.12 6.64 4.13 15 4.49s15.27-1.08 15.36-3.2-6.64-4.14-15-4.5-15.27 1.08-15.36 3.21z" fill="#fff" opacity=".4"/><g fill="#407bff"><path d="m155.14 406.87a.57.57 0 0 0 .13.38c1-1.25 6.57-2 13.21-1.7s12.13 1.48 13 2.81a.62.62 0 0 0 .16-.36c.06-1.44-5.82-2.89-13.15-3.2s-13.29.63-13.35 2.07z"/><path d="m155.14 406.87a.57.57 0 0 0 .13.38c1-1.25 6.57-2 13.21-1.7s12.13 1.48 13 2.81a.62.62 0 0 0 .16-.36c.06-1.44-5.82-2.89-13.15-3.2s-13.29.63-13.35 2.07z" opacity=".4"/><path d="m155.27 407.25c.9 1.33 6.38 2.53 13 2.81s12.21-.45 13.21-1.7c-.89-1.33-6.36-2.53-13-2.81s-12.2.45-13.21 1.7z" opacity=".4"/><path d="m153.45 403.76c-.09 2.13 6.64 4.14 15 4.5s15.27-1.08 15.36-3.21-6.64-4.13-15-4.49-15.27 1.08-15.36 3.2z"/><path d="m166.8 387.28h3.85v30.42h-3.85z" transform="matrix(.04239879 -.99910077 .99910077 .04239879 -240.549768 553.989529)"/><path d="m153.61 399.91c-.09 2.13 6.64 4.14 15 4.5s15.26-1.08 15.35-3.2-6.64-4.14-15-4.5-15.26 1.08-15.35 3.2z"/></g><path d="m153.61 399.91c-.09 2.13 6.64 4.14 15 4.5s15.26-1.08 15.35-3.2-6.64-4.14-15-4.5-15.26 1.08-15.35 3.2z" fill="#fff" opacity=".4"/><path d="m155.55 399.85a.62.62 0 0 0 .13.38c1-1.25 6.57-2 13.21-1.7s12.13 1.48 13 2.81a.52.52 0 0 0 .16-.36c.06-1.44-5.82-2.89-13.15-3.2s-13.29.63-13.35 2.07z" fill="#407bff"/><path d="m155.55 399.85a.62.62 0 0 0 .13.38c1-1.25 6.57-2 13.21-1.7s12.13 1.48 13 2.81a.52.52 0 0 0 .16-.36c.06-1.44-5.82-2.89-13.15-3.2s-13.29.63-13.35 2.07z" fill="#407bff" opacity=".4"/><path d="m155.68 400.23c.91 1.33 6.38 2.53 13 2.81s12.21-.45 13.21-1.7c-.89-1.33-6.36-2.53-13-2.81s-12.19.47-13.21 1.7z" fill="#407bff" opacity=".4"/><path d="m150.26 397.94c-.09 2.12 6.64 4.13 15 4.49s15.27-1.08 15.36-3.2-6.64-4.14-15-4.5-15.27 1.08-15.36 3.21z" fill="#407bff"/><path d="m163.61 381.45h3.85v30.42h-3.85z" fill="#407bff" transform="matrix(.04239879 -.99910077 .99910077 .04239879 -237.790126 545.200766)"/><path d="m150.42 394.09c-.09 2.12 6.64 4.13 15 4.49s15.27-1.08 15.36-3.2-6.64-4.14-15-4.5-15.27 1.12-15.36 3.21z" fill="#407bff"/><path d="m150.42 394.09c-.09 2.12 6.64 4.13 15 4.49s15.27-1.08 15.36-3.2-6.64-4.14-15-4.5-15.27 1.12-15.36 3.21z" fill="#fff" opacity=".4"/><path d="m152.36 394a.55.55 0 0 0 .13.38c1-1.25 6.57-2 13.21-1.7s12.13 1.48 13 2.81a.62.62 0 0 0 .16-.36c.06-1.44-5.82-2.89-13.15-3.2s-13.29.65-13.35 2.07z" fill="#407bff"/><path d="m152.36 394a.55.55 0 0 0 .13.38c1-1.25 6.57-2 13.21-1.7s12.13 1.48 13 2.81a.62.62 0 0 0 .16-.36c.06-1.44-5.82-2.89-13.15-3.2s-13.29.65-13.35 2.07z" fill="#407bff" opacity=".4"/><path d="m152.49 394.4c.9 1.33 6.38 2.53 13 2.81s12.21-.45 13.21-1.7c-.89-1.33-6.36-2.53-13-2.81s-12.2.45-13.21 1.7z" fill="#407bff" opacity=".4"/><path d="m155.13 393c-.09 2.12 6.64 4.13 15 4.49s15.27-1.08 15.36-3.2-6.64-4.14-15-4.5-15.27 1.08-15.36 3.21z" fill="#407bff"/><path d="m168.48 376.51h3.85v30.42h-3.85z" fill="#407bff" transform="matrix(.04239879 -.99910077 .99910077 .04239879 -228.179808 545.359566)"/><path d="m155.3 389.15c-.09 2.12 6.64 4.13 15 4.49s15.27-1.08 15.36-3.2-6.64-4.14-15-4.5-15.27 1.06-15.36 3.21z" fill="#407bff"/><path d="m155.3 389.15c-.09 2.12 6.64 4.13 15 4.49s15.27-1.08 15.36-3.2-6.64-4.14-15-4.5-15.27 1.06-15.36 3.21z" fill="#fff" opacity=".4"/><path d="m157.23 389.08a.67.67 0 0 0 .13.38c1-1.25 6.58-2 13.21-1.7s12.14 1.48 13 2.81a.58.58 0 0 0 .17-.36c.06-1.44-5.82-2.89-13.15-3.2s-13.29.63-13.36 2.07z" fill="#407bff"/><path d="m157.23 389.08a.67.67 0 0 0 .13.38c1-1.25 6.58-2 13.21-1.7s12.14 1.48 13 2.81a.58.58 0 0 0 .17-.36c.06-1.44-5.82-2.89-13.15-3.2s-13.29.63-13.36 2.07z" fill="#407bff" opacity=".4"/><path d="m157.36 389.46c.91 1.33 6.38 2.53 13 2.81s12.22-.45 13.21-1.7c-.88-1.33-6.36-2.53-13-2.81s-12.19.45-13.21 1.7z" fill="#407bff" opacity=".4"/><path d="m151.94 387.17c-.09 2.12 6.64 4.14 15 4.49s15.27-1.08 15.36-3.2-6.64-4.14-15-4.5-15.3 1.04-15.36 3.21z" fill="#407bff"/><path d="m165.29 370.68h3.85v30.42h-3.85z" fill="#407bff" transform="matrix(.04239879 -.99910077 .99910077 .04239879 -225.420374 536.580586)"/><path d="m152.1 383.32c-.09 2.12 6.64 4.14 15 4.49s15.27-1.07 15.36-3.2-6.64-4.14-15-4.5-15.27 1.08-15.36 3.21z" fill="#407bff"/><path d="m152.1 383.32c-.09 2.12 6.64 4.14 15 4.49s15.27-1.07 15.36-3.2-6.64-4.14-15-4.5-15.27 1.08-15.36 3.21z" fill="#fff" opacity=".4"/><path d="m154 383.25a.58.58 0 0 0 .13.38c1-1.25 6.57-2 13.21-1.7s12.13 1.48 13 2.82a.56.56 0 0 0 .16-.37c.06-1.44-5.82-2.88-13.15-3.2s-13.25.63-13.35 2.07z" fill="#407bff"/><path d="m154 383.25a.58.58 0 0 0 .13.38c1-1.25 6.57-2 13.21-1.7s12.13 1.48 13 2.82a.56.56 0 0 0 .16-.37c.06-1.44-5.82-2.88-13.15-3.2s-13.25.63-13.35 2.07z" fill="#407bff" opacity=".4"/><path d="m154.17 383.63c.91 1.33 6.38 2.53 13 2.82s12.21-.45 13.21-1.7c-.89-1.34-6.36-2.54-13-2.82s-12.19.45-13.21 1.7z" fill="#407bff" opacity=".4"/><path d="m110.91 414.75c-.1 2.13 6.63 4.14 15 4.49s15.26-1.07 15.35-3.2-6.63-4.14-15-4.49-15.26 1.07-15.35 3.2z" fill="#407bff"/><path d="m124.26 398.26h3.85v30.42h-3.85z" fill="#407bff" transform="matrix(.04239879 -.99910077 .99910077 .04239879 -292.270655 521.989214)"/><path d="m111.07 410.9c-.09 2.13 6.64 4.14 15 4.5s15.27-1.08 15.36-3.21-6.64-4.14-15-4.49-15.27 1.07-15.36 3.2z" fill="#407bff"/><path d="m111.07 410.9c-.09 2.13 6.64 4.14 15 4.5s15.27-1.08 15.36-3.21-6.64-4.14-15-4.49-15.27 1.07-15.36 3.2z" fill="#fff" opacity=".4"/><path d="m113 410.83a.53.53 0 0 0 .13.38c1-1.25 6.57-2 13.21-1.7s12.13 1.49 13 2.82a.65.65 0 0 0 .16-.37c.06-1.44-5.82-2.88-13.15-3.19s-13.28.62-13.35 2.06z" fill="#407bff"/><path d="m113 410.83a.53.53 0 0 0 .13.38c1-1.25 6.57-2 13.21-1.7s12.13 1.49 13 2.82a.65.65 0 0 0 .16-.37c.06-1.44-5.82-2.88-13.15-3.19s-13.28.62-13.35 2.06z" fill="#407bff" opacity=".4"/><path d="m113.14 411.21c.9 1.33 6.38 2.54 13 2.82s12.21-.45 13.21-1.7c-.89-1.33-6.36-2.54-13-2.82s-12.2.49-13.21 1.7z" fill="#407bff" opacity=".4"/><path d="m124.13 411c-.5 2.07 5.73 5.32 13.9 7.26s15.2 1.84 15.69-.23-5.74-5.32-13.91-7.26-15.19-1.84-15.68.23z" fill="#407bff"/><path d="m137.44 397.43h3.85v30.42h-3.85z" fill="#407bff" transform="matrix(.23140833 -.97285671 .97285671 .23140833 -294.319941 452.760014)"/><path d="m125 407.25c-.5 2.07 5.73 5.32 13.9 7.27s15.2 1.84 15.69-.23-5.71-5.29-13.89-7.29-15.19-1.82-15.7.25z" fill="#407bff"/><path d="m125 407.25c-.5 2.07 5.73 5.32 13.9 7.27s15.2 1.84 15.69-.23-5.71-5.29-13.89-7.29-15.19-1.82-15.7.25z" fill="#fff" opacity=".4"/><path d="m126.93 407.55a.57.57 0 0 0 .06.4c1.23-1 6.83-.7 13.29.84s11.63 3.76 12.25 5.23a.59.59 0 0 0 .23-.33c.33-1.4-5.17-3.93-12.31-5.63s-13.18-1.91-13.52-.51z" fill="#407bff"/><path d="m126.93 407.55a.57.57 0 0 0 .06.4c1.23-1 6.83-.7 13.29.84s11.63 3.76 12.25 5.23a.59.59 0 0 0 .23-.33c.33-1.4-5.17-3.93-12.31-5.63s-13.18-1.91-13.52-.51z" fill="#407bff" opacity=".4"/><path d="m127 408c.64 1.48 5.78 3.7 12.25 5.23s12.07 1.88 13.29.84c-.62-1.47-5.77-3.69-12.25-5.23s-12.07-1.93-13.29-.84z" fill="#407bff" opacity=".4"/><circle cx="162.7" cy="372.2" fill="#407bff" r="13.7"/><circle cx="164.34" cy="372.2" fill="#407bff" r="13.7"/><circle cx="164.34" cy="372.2" fill="#fff" opacity=".5" r="13.7"/><circle cx="164.34" cy="372.2" fill="#407bff" r="10.26" transform="matrix(.70710678 -.70710678 .70710678 .70710678 -215.049658 225.220199)"/><path d="m168.49 375.59a4.27 4.27 0 0 1 -3.21 1.3 4.46 4.46 0 0 1 -4.28-2.79h5.52v-1.18h-5.82a4.89 4.89 0 0 1 0-.54 4.75 4.75 0 0 1 0-.54h5.81v-1.18h-5.51a4.46 4.46 0 0 1 4.29-2.79 4.27 4.27 0 0 1 3.21 1.29l.16.16 1.11-1.09-.15-.16a5.8 5.8 0 0 0 -4.39-1.74 6 6 0 0 0 -6 4.33h-1.95v1.18h1.72v1.08h-1.74v1.18h1.95a6 6 0 0 0 6 4.33 5.81 5.81 0 0 0 4.39-1.76l.15-.16-1.11-1.09z" fill="#fff" opacity=".3"/><path d="m356.27 418.49c-.08 2.12-6.94 3.6-15.34 3.3s-15.13-2.27-15.06-4.39 6.95-3.61 15.34-3.31 15.14 2.27 15.06 4.4z" fill="#407bff"/><path d="m339.22 400.81h3.85v30.42h-3.85z" fill="#407bff" transform="matrix(.03577162 -.99935999 .99935999 .03577162 -86.830091 742.03026)"/><path d="m356.41 414.64c-.08 2.12-6.94 3.6-15.34 3.3s-15.13-2.27-15.06-4.39 6.94-3.61 15.34-3.31 15.14 2.27 15.06 4.4z" fill="#407bff"/><path d="m356.41 414.64c-.08 2.12-6.94 3.6-15.34 3.3s-15.13-2.27-15.06-4.39 6.94-3.61 15.34-3.31 15.14 2.27 15.06 4.4z" fill="#fff" opacity=".4"/><path d="m354.48 414.42a.56.56 0 0 1 -.16.37c-.91-1.33-6.39-2.5-13-2.73s-12.21.53-13.2 1.78a.59.59 0 0 1 -.14-.37c.06-1.44 6-2.42 13.36-2.16s13.19 1.69 13.14 3.11z" fill="#407bff"/><path d="m354.48 414.42a.56.56 0 0 1 -.16.37c-.91-1.33-6.39-2.5-13-2.73s-12.21.53-13.2 1.78a.59.59 0 0 1 -.14-.37c.06-1.44 6-2.42 13.36-2.16s13.19 1.69 13.14 3.11z" fill="#407bff" opacity=".4"/><path d="m354.32 414.79c-1 1.25-6.56 2-13.2 1.78s-12.14-1.4-13-2.73c1-1.25 6.54-2 13.2-1.78s12.09 1.4 13 2.73z" fill="#407bff" opacity=".4"/><path d="m359.91 412.93c-.08 2.12-6.94 3.6-15.34 3.3s-15.13-2.27-15.06-4.4 6.95-3.6 15.34-3.3 15.15 2.27 15.06 4.4z" fill="#407bff"/><path d="m342.85 395.25h3.85v30.42h-3.85z" fill="#407bff" transform="matrix(.03594604 -.99935373 .99935373 .03594604 -77.790855 740.280758)"/><path d="m360.05 409.08c-.08 2.12-6.94 3.6-15.34 3.3s-15.14-2.27-15.06-4.4 6.94-3.6 15.34-3.3 15.13 2.32 15.06 4.4z" fill="#407bff"/><path d="m360.05 409.08c-.08 2.12-6.94 3.6-15.34 3.3s-15.14-2.27-15.06-4.4 6.94-3.6 15.34-3.3 15.13 2.32 15.06 4.4z" fill="#fff" opacity=".4"/><path d="m358.12 408.86a.52.52 0 0 1 -.16.36c-.91-1.32-6.39-2.49-13-2.72s-12.22.53-13.2 1.78a.59.59 0 0 1 -.14-.37c.06-1.44 6-2.42 13.36-2.16s13.19 1.67 13.14 3.11z" fill="#407bff"/><path d="m358.12 408.86a.52.52 0 0 1 -.16.36c-.91-1.32-6.39-2.49-13-2.72s-12.22.53-13.2 1.78a.59.59 0 0 1 -.14-.37c.06-1.44 6-2.42 13.36-2.16s13.19 1.67 13.14 3.11z" fill="#407bff" opacity=".4"/><path d="m358 409.22c-1 1.26-6.56 2-13.2 1.79s-12.14-1.4-13-2.73c1-1.25 6.54-2 13.2-1.78s12.05 1.4 13 2.72z" fill="#407bff" opacity=".4"/><path d="m360.05 405.89c-.08 2.13-6.95 3.61-15.34 3.31s-15.14-2.27-15.06-4.4 6.94-3.6 15.34-3.3 15.13 2.27 15.06 4.39z" fill="#407bff"/><path d="m342.99 388.21h3.85v30.42h-3.85z" fill="#407bff" transform="matrix(.03594604 -.99935373 .99935373 .03594604 -70.63036 733.639441)"/><path d="m360.19 402c-.08 2.13-6.95 3.61-15.34 3.31s-15.14-2.27-15.06-4.4 6.94-3.6 15.33-3.3 15.14 2.31 15.07 4.39z" fill="#407bff"/><path d="m360.19 402c-.08 2.13-6.95 3.61-15.34 3.31s-15.14-2.27-15.06-4.4 6.94-3.6 15.33-3.3 15.14 2.31 15.07 4.39z" fill="#fff" opacity=".4"/><path d="m358.26 401.83a.62.62 0 0 1 -.16.36c-.92-1.32-6.4-2.49-13-2.73s-12.21.53-13.2 1.79a.58.58 0 0 1 -.13-.38c0-1.44 6-2.41 13.36-2.15s13.18 1.67 13.13 3.11z" fill="#407bff"/><path d="m358.26 401.83a.62.62 0 0 1 -.16.36c-.92-1.32-6.4-2.49-13-2.73s-12.21.53-13.2 1.79a.58.58 0 0 1 -.13-.38c0-1.44 6-2.41 13.36-2.15s13.18 1.67 13.13 3.11z" fill="#407bff" opacity=".4"/><path d="m358.1 402.19c-1 1.26-6.56 2-13.2 1.79s-12.14-1.4-13-2.73c1-1.26 6.54-2 13.2-1.79s12.08 1.41 13 2.73z" fill="#407bff" opacity=".4"/><path d="m363.69 400.33c-.08 2.13-6.95 3.61-15.34 3.31s-15.14-2.27-15.06-4.4 6.94-3.6 15.34-3.3 15.13 2.27 15.06 4.39z" fill="#407bff"/><path d="m346.63 382.65h3.85v30.42h-3.85z" fill="#407bff" transform="matrix(.03577162 -.99935999 .99935999 .03577162 -61.53999 731.939804)"/><path d="m363.82 396.48c-.07 2.13-6.94 3.61-15.33 3.31s-15.14-2.27-15.06-4.4 6.94-3.6 15.33-3.3 15.14 2.27 15.06 4.39z" fill="#407bff"/><path d="m363.82 396.48c-.07 2.13-6.94 3.61-15.33 3.31s-15.14-2.27-15.06-4.4 6.94-3.6 15.33-3.3 15.14 2.27 15.06 4.39z" fill="#fff" opacity=".4"/><path d="m361.9 396.27a.62.62 0 0 1 -.16.36c-.92-1.32-6.4-2.49-13-2.73s-12.21.53-13.2 1.79a.58.58 0 0 1 -.13-.38c.05-1.44 6-2.41 13.36-2.15s13.23 1.67 13.13 3.11z" fill="#407bff"/><path d="m361.9 396.27a.62.62 0 0 1 -.16.36c-.92-1.32-6.4-2.49-13-2.73s-12.21.53-13.2 1.79a.58.58 0 0 1 -.13-.38c.05-1.44 6-2.41 13.36-2.15s13.23 1.67 13.13 3.11z" fill="#407bff" opacity=".4"/><path d="m361.74 396.63c-1 1.26-6.56 2-13.2 1.79s-12.14-1.4-13-2.73c1-1.26 6.54-2 13.2-1.79s12.08 1.41 13 2.73z" fill="#407bff" opacity=".4"/><path d="m243 414.21c-.09 2.13 6.63 4.14 15 4.5s15.26-1.08 15.35-3.21-6.63-4.14-15-4.49-15.29 1.08-15.35 3.2z" fill="#407bff"/><path d="m256.32 397.72h3.85v30.42h-3.85z" fill="#407bff" transform="matrix(.04239879 -.99910077 .99910077 .04239879 -165.279275 653.420018)"/><path d="m243.13 410.36c-.09 2.13 6.64 4.14 15 4.5s15.27-1.08 15.36-3.21-6.64-4.14-15-4.49-15.27 1.08-15.36 3.2z" fill="#407bff"/><path d="m243.13 410.36c-.09 2.13 6.64 4.14 15 4.5s15.27-1.08 15.36-3.21-6.64-4.14-15-4.49-15.27 1.08-15.36 3.2z" fill="#fff" opacity=".4"/><path d="m245.07 410.3a.53.53 0 0 0 .13.37c1-1.25 6.57-2 13.21-1.7s12.13 1.49 13 2.82a.65.65 0 0 0 .16-.37c.06-1.44-5.82-2.88-13.15-3.19s-13.29.63-13.35 2.07z" fill="#407bff"/><path d="m245.07 410.3a.53.53 0 0 0 .13.37c1-1.25 6.57-2 13.21-1.7s12.13 1.49 13 2.82a.65.65 0 0 0 .16-.37c.06-1.44-5.82-2.88-13.15-3.19s-13.29.63-13.35 2.07z" fill="#407bff" opacity=".4"/><path d="m245.2 410.67c.9 1.34 6.38 2.54 13 2.82s12.21-.45 13.21-1.7c-.89-1.33-6.36-2.53-13-2.82s-12.2.45-13.21 1.7z" fill="#407bff" opacity=".4"/><path d="m239.77 408.38c-.09 2.13 6.64 4.14 15 4.5s15.27-1.08 15.36-3.21-6.64-4.14-15-4.49-15.27 1.08-15.36 3.2z" fill="#407bff"/><path d="m253.12 391.89h3.85v30.42h-3.85z" fill="#407bff" transform="matrix(.04239879 -.99910077 .99910077 .04239879 -162.499897 644.669846)"/><path d="m239.94 404.53c-.09 2.13 6.64 4.14 15 4.5s15.27-1.08 15.36-3.21-6.64-4.13-15-4.49-15.3 1.08-15.36 3.2z" fill="#407bff"/><path d="m239.94 404.53c-.09 2.13 6.64 4.14 15 4.5s15.27-1.08 15.36-3.21-6.64-4.13-15-4.49-15.3 1.08-15.36 3.2z" fill="#fff" opacity=".4"/><path d="m241.87 404.47a.7.7 0 0 0 .13.38c1-1.25 6.58-2 13.21-1.71s12.14 1.49 13 2.82a.6.6 0 0 0 .17-.37c.06-1.44-5.82-2.88-13.15-3.19s-13.29.6-13.36 2.07z" fill="#407bff"/><path d="m241.87 404.47a.7.7 0 0 0 .13.38c1-1.25 6.58-2 13.21-1.71s12.14 1.49 13 2.82a.6.6 0 0 0 .17-.37c.06-1.44-5.82-2.88-13.15-3.19s-13.29.6-13.36 2.07z" fill="#407bff" opacity=".4"/><path d="m242 404.85c.91 1.33 6.38 2.53 13 2.81s12.22-.45 13.21-1.7c-.88-1.33-6.36-2.53-13-2.82s-12.21.46-13.21 1.71z" fill="#407bff" opacity=".4"/><path d="m240.19 401.36c-.09 2.13 6.64 4.14 15 4.5s15.27-1.08 15.36-3.21-6.64-4.14-15-4.49-15.27 1.08-15.36 3.2z" fill="#407bff"/><path d="m253.54 384.87h3.85v30.42h-3.85z" fill="#407bff" transform="matrix(.04239879 -.99910077 .99910077 .04239879 -155.089514 638.349373)"/><path d="m240.35 397.51c-.09 2.13 6.64 4.14 15 4.5s15.27-1.08 15.36-3.21-6.64-4.14-15-4.49-15.27 1.08-15.36 3.2z" fill="#407bff"/><path d="m240.35 397.51c-.09 2.13 6.64 4.14 15 4.5s15.27-1.08 15.36-3.21-6.64-4.14-15-4.49-15.27 1.08-15.36 3.2z" fill="#fff" opacity=".4"/><path d="m242.29 397.45a.53.53 0 0 0 .13.37c1-1.24 6.57-2 13.21-1.7s12.13 1.49 13 2.82a.65.65 0 0 0 .16-.37c.06-1.44-5.82-2.88-13.15-3.19s-13.29.62-13.35 2.07z" fill="#407bff"/><path d="m242.29 397.45a.53.53 0 0 0 .13.37c1-1.24 6.57-2 13.21-1.7s12.13 1.49 13 2.82a.65.65 0 0 0 .16-.37c.06-1.44-5.82-2.88-13.15-3.19s-13.29.62-13.35 2.07z" fill="#407bff" opacity=".4"/><path d="m242.42 397.82c.9 1.34 6.38 2.54 13 2.82s12.21-.45 13.21-1.7c-.89-1.33-6.36-2.53-13-2.82s-12.2.46-13.21 1.7z" fill="#407bff" opacity=".4"/><path d="m237 395.53c-.09 2.13 6.64 4.14 15 4.5s15.27-1.08 15.36-3.21-6.64-4.13-15-4.49-15.28 1.08-15.36 3.2z" fill="#407bff"/><path d="m250.34 379.05h3.85v30.42h-3.85z" fill="#407bff" transform="matrix(.04239879 -.99910077 .99910077 .04239879 -152.339655 629.560402)"/><path d="m237.16 391.68c-.09 2.13 6.64 4.14 15 4.5s15.27-1.08 15.36-3.21-6.64-4.13-15-4.49-15.27 1.08-15.36 3.2z" fill="#407bff"/><path d="m237.16 391.68c-.09 2.13 6.64 4.14 15 4.5s15.27-1.08 15.36-3.21-6.64-4.13-15-4.49-15.27 1.08-15.36 3.2z" fill="#fff" opacity=".4"/><path d="m239.1 391.62a.61.61 0 0 0 .12.38c1-1.25 6.58-2 13.22-1.7s12.13 1.48 13 2.81a.62.62 0 0 0 .16-.37c.06-1.43-5.82-2.88-13.15-3.19s-13.29.63-13.35 2.07z" fill="#407bff"/><path d="m239.1 391.62a.61.61 0 0 0 .12.38c1-1.25 6.58-2 13.22-1.7s12.13 1.48 13 2.81a.62.62 0 0 0 .16-.37c.06-1.43-5.82-2.88-13.15-3.19s-13.29.63-13.35 2.07z" fill="#407bff" opacity=".4"/><path d="m239.22 392c.91 1.33 6.38 2.53 13 2.81s12.22-.45 13.22-1.7c-.89-1.33-6.37-2.53-13-2.81s-12.2.45-13.22 1.7z" fill="#407bff" opacity=".4"/><path d="m241.87 390.59c-.09 2.13 6.64 4.14 15 4.5s15.27-1.08 15.36-3.21-6.64-4.13-15-4.49-15.23 1.08-15.36 3.2z" fill="#407bff"/><path d="m255.22 374.11h3.85v30.42h-3.85z" fill="#407bff" transform="matrix(.04239879 -.99910077 .99910077 .04239879 -142.720553 629.720368)"/><path d="m242 386.74c-.09 2.13 6.64 4.14 15 4.5s15.27-1.08 15.36-3.21-6.64-4.13-15-4.49-15.24 1.08-15.36 3.2z" fill="#407bff"/><path d="m242 386.74c-.09 2.13 6.64 4.14 15 4.5s15.27-1.08 15.36-3.21-6.64-4.13-15-4.49-15.24 1.08-15.36 3.2z" fill="#fff" opacity=".4"/><path d="m244 386.68a.62.62 0 0 0 .13.38c1-1.25 6.57-2 13.21-1.7s12.13 1.48 13 2.81a.52.52 0 0 0 .16-.37c.06-1.43-5.82-2.88-13.15-3.19s-13.35.63-13.35 2.07z" fill="#407bff"/><path d="m244 386.68a.62.62 0 0 0 .13.38c1-1.25 6.57-2 13.21-1.7s12.13 1.48 13 2.81a.52.52 0 0 0 .16-.37c.06-1.43-5.82-2.88-13.15-3.19s-13.35.63-13.35 2.07z" fill="#407bff" opacity=".4"/><path d="m244.1 387.06c.91 1.33 6.38 2.53 13 2.81s12.21-.45 13.21-1.7c-.89-1.33-6.36-2.53-13-2.81s-12.19.45-13.21 1.7z" fill="#407bff" opacity=".4"/><path d="m238.68 384.77c-.09 2.12 6.64 4.13 15 4.49s15.26-1.08 15.36-3.2-6.64-4.14-15-4.5-15.27 1.08-15.36 3.21z" fill="#407bff"/><path d="m252.03 368.28h3.85v30.42h-3.85z" fill="#407bff" transform="matrix(.04239879 -.99910077 .99910077 .04239879 -139.969903 620.940223)"/><path d="m238.84 380.92c-.09 2.12 6.64 4.13 15 4.49s15.27-1.08 15.36-3.2-6.64-4.14-15-4.5-15.27 1.08-15.36 3.21z" fill="#407bff"/><path d="m238.84 380.92c-.09 2.12 6.64 4.13 15 4.49s15.27-1.08 15.36-3.2-6.64-4.14-15-4.5-15.27 1.08-15.36 3.21z" fill="#fff" opacity=".4"/><path d="m240.78 380.85a.55.55 0 0 0 .13.38c1-1.25 6.57-2 13.21-1.7s12.13 1.48 13 2.81a.62.62 0 0 0 .16-.36c.06-1.44-5.82-2.89-13.15-3.2s-13.29.63-13.35 2.07z" fill="#407bff"/><path d="m240.78 380.85a.55.55 0 0 0 .13.38c1-1.25 6.57-2 13.21-1.7s12.13 1.48 13 2.81a.62.62 0 0 0 .16-.36c.06-1.44-5.82-2.89-13.15-3.2s-13.29.63-13.35 2.07z" fill="#407bff" opacity=".4"/><path d="m240.91 381.23c.9 1.33 6.38 2.53 13 2.81s12.21-.45 13.21-1.7c-.89-1.33-6.36-2.53-13-2.81s-12.2.47-13.21 1.7z" fill="#407bff" opacity=".4"/><path d="m272.25 380.63c.09 2.12-6.64 4.14-15 4.49s-15.25-1.12-15.39-3.2 6.63-4.14 15-4.5 15.29 1.08 15.39 3.21z" fill="#407bff"/><path d="m241.76 377.42h30.42v3.85h-30.42z" fill="#407bff" transform="translate(-15.87 11.25)"/><path d="m272.08 376.78c.09 2.12-6.64 4.14-15 4.49s-15.27-1.07-15.36-3.2 6.64-4.14 15-4.5 15.28 1.08 15.36 3.21z" fill="#407bff"/><path d="m272.08 376.78c.09 2.12-6.64 4.14-15 4.49s-15.27-1.07-15.36-3.2 6.64-4.14 15-4.5 15.28 1.08 15.36 3.21z" fill="#fff" opacity=".4"/><path d="m270.14 376.71a.53.53 0 0 1 -.13.38c-1-1.25-6.57-2-13.21-1.7s-12.13 1.48-13 2.82a.68.68 0 0 1 -.16-.37c-.06-1.44 5.82-2.88 13.15-3.19s13.29.62 13.35 2.06z" fill="#407bff"/><path d="m270.14 376.71a.53.53 0 0 1 -.13.38c-1-1.25-6.57-2-13.21-1.7s-12.13 1.48-13 2.82a.68.68 0 0 1 -.16-.37c-.06-1.44 5.82-2.88 13.15-3.19s13.29.62 13.35 2.06z" fill="#407bff" opacity=".4"/><path d="m270 377.09c-.9 1.33-6.38 2.53-13 2.82s-12.21-.45-13.21-1.7c.89-1.34 6.36-2.54 13-2.82s12.21.45 13.21 1.7z" fill="#407bff" opacity=".4"/><path d="m275.44 374.8c.09 2.13-6.64 4.14-15 4.49s-15.27-1.07-15.36-3.2 6.64-4.14 15-4.49 15.27 1.07 15.36 3.2z" fill="#407bff"/><path d="m244.95 371.59h30.42v3.85h-30.42z" fill="#407bff" transform="matrix(.99910077 -.04239879 .04239879 .99910077 -15.600016 11.360012)"/><path d="m275.27 371c.09 2.13-6.63 4.14-15 4.5s-15.26-1.08-15.35-3.21 6.63-4.14 15-4.49 15.26 1.02 15.35 3.2z" fill="#407bff"/><path d="m275.27 371c.09 2.13-6.63 4.14-15 4.5s-15.26-1.08-15.35-3.21 6.63-4.14 15-4.49 15.26 1.02 15.35 3.2z" fill="#fff" opacity=".4"/><path d="m273.34 370.88a.65.65 0 0 1 -.13.38c-1-1.25-6.58-2-13.21-1.7s-12.14 1.49-13 2.82a.54.54 0 0 1 -.16-.37c-.07-1.44 5.82-2.88 13.14-3.19s13.29.62 13.36 2.06z" fill="#407bff"/><path d="m273.34 370.88a.65.65 0 0 1 -.13.38c-1-1.25-6.58-2-13.21-1.7s-12.14 1.49-13 2.82a.54.54 0 0 1 -.16-.37c-.07-1.44 5.82-2.88 13.14-3.19s13.29.62 13.36 2.06z" fill="#407bff" opacity=".4"/><path d="m273.21 371.26c-.91 1.33-6.38 2.54-13 2.82s-12.22-.45-13.21-1.7c.88-1.33 6.36-2.54 13-2.82s12.19.44 13.21 1.7z" fill="#407bff" opacity=".4"/><path d="m275 367.78c.09 2.12-6.63 4.14-15 4.49s-15.26-1.07-15.35-3.2 6.63-4.14 15-4.5 15.28 1.08 15.35 3.21z" fill="#407bff"/><path d="m244.54 364.57h30.42v3.85h-30.42z" fill="#407bff" transform="matrix(.99910077 -.04239879 .04239879 .99910077 -15.310005 11.350001)"/><path d="m274.86 363.93c.09 2.13-6.64 4.14-15 4.49s-15.27-1.07-15.36-3.2 6.64-4.14 15-4.49 15.27 1.07 15.36 3.2z" fill="#407bff"/><path d="m274.86 363.93c.09 2.13-6.64 4.14-15 4.49s-15.27-1.07-15.36-3.2 6.64-4.14 15-4.49 15.27 1.07 15.36 3.2z" fill="#fff" opacity=".4"/><path d="m272.92 363.86a.53.53 0 0 1 -.13.38c-1-1.25-6.57-2-13.21-1.7s-12.13 1.49-13 2.82a.68.68 0 0 1 -.16-.37c-.06-1.44 5.82-2.88 13.15-3.19s13.29.62 13.35 2.06z" fill="#407bff"/><path d="m272.92 363.86a.53.53 0 0 1 -.13.38c-1-1.25-6.57-2-13.21-1.7s-12.13 1.49-13 2.82a.68.68 0 0 1 -.16-.37c-.06-1.44 5.82-2.88 13.15-3.19s13.29.62 13.35 2.06z" fill="#407bff" opacity=".4"/><path d="m272.79 364.24c-.9 1.33-6.38 2.54-13 2.82s-12.21-.45-13.21-1.7c.89-1.33 6.36-2.54 13-2.82s12.2.46 13.21 1.7z" fill="#407bff" opacity=".4"/><path d="m278.22 362c.09 2.13-6.64 4.14-15 4.5s-15.27-1.08-15.36-3.21 6.64-4.14 15-4.49 15.27 1.02 15.36 3.2z" fill="#407bff"/><path d="m247.73 358.74h30.42v3.85h-30.42z" fill="#407bff" transform="matrix(.99910077 -.04239879 .04239879 .99910077 -15.080016 11.48998)"/><path d="m278.05 358.1c.09 2.13-6.64 4.14-15 4.5s-15.27-1.08-15.36-3.21 6.64-4.14 15-4.49 15.31 1.1 15.36 3.2z" fill="#407bff"/><path d="m278.05 358.1c.09 2.13-6.64 4.14-15 4.5s-15.27-1.08-15.36-3.21 6.64-4.14 15-4.49 15.31 1.1 15.36 3.2z" fill="#fff" opacity=".4"/><path d="m276.12 358a.64.64 0 0 1 -.13.37c-1-1.25-6.58-2-13.21-1.7s-12.14 1.49-13 2.82a.6.6 0 0 1 -.17-.37c-.06-1.44 5.82-2.88 13.15-3.19s13.29.67 13.36 2.07z" fill="#407bff"/><path d="m276.12 358a.64.64 0 0 1 -.13.37c-1-1.25-6.58-2-13.21-1.7s-12.14 1.49-13 2.82a.6.6 0 0 1 -.17-.37c-.06-1.44 5.82-2.88 13.15-3.19s13.29.67 13.36 2.07z" fill="#407bff" opacity=".4"/><path d="m276 358.41c-.91 1.34-6.38 2.54-13 2.82s-12.22-.45-13.21-1.7c.88-1.33 6.36-2.54 13-2.82s12.21.45 13.21 1.7z" fill="#407bff" opacity=".4"/><path d="m273.34 357c.09 2.13-6.64 4.14-15 4.5s-15.34-1.07-15.34-3.2 6.64-4.14 15-4.49 15.25 1.08 15.34 3.19z" fill="#407bff"/><path d="m242.86 353.8h30.42v3.85h-30.42z" fill="#407bff" transform="matrix(.99910077 -.04239879 .04239879 .99910077 -14.849983 11.260032)"/><path d="m273.18 353.16c.09 2.13-6.64 4.14-15 4.5s-15.27-1.08-15.36-3.21 6.64-4.14 15-4.49 15.27 1.04 15.36 3.2z" fill="#407bff"/><path d="m273.18 353.16c.09 2.13-6.64 4.14-15 4.5s-15.27-1.08-15.36-3.21 6.64-4.14 15-4.49 15.27 1.04 15.36 3.2z" fill="#fff" opacity=".4"/><path d="m271.24 353.1a.53.53 0 0 1 -.13.37c-1-1.25-6.57-2-13.21-1.7s-12.13 1.49-13 2.82a.59.59 0 0 1 -.16-.37c-.06-1.44 5.82-2.88 13.15-3.19s13.29.63 13.35 2.07z" fill="#407bff"/><path d="m271.24 353.1a.53.53 0 0 1 -.13.37c-1-1.25-6.57-2-13.21-1.7s-12.13 1.49-13 2.82a.59.59 0 0 1 -.16-.37c-.06-1.44 5.82-2.88 13.15-3.19s13.29.63 13.35 2.07z" fill="#407bff" opacity=".4"/><path d="m271.11 353.47c-.91 1.34-6.38 2.54-13 2.82s-12.21-.45-13.21-1.7c.89-1.33 6.36-2.53 13-2.82s12.19.45 13.21 1.7z" fill="#407bff" opacity=".4"/><path d="m276.54 351.18c.09 2.13-6.64 4.14-15 4.5s-15.26-1.08-15.35-3.21 6.63-4.14 15-4.49 15.25 1.08 15.35 3.2z" fill="#407bff"/><path d="m246.05 347.98h30.42v3.85h-30.42z" fill="#407bff" transform="matrix(.99910077 -.04239879 .04239879 .99910077 -14.609983 11.400011)"/><path d="m276.37 347.33c.09 2.13-6.64 4.14-15 4.5s-15.27-1.08-15.36-3.21 6.64-4.13 15-4.49 15.27 1.08 15.36 3.2z" fill="#407bff"/><path d="m276.37 347.33c.09 2.13-6.64 4.14-15 4.5s-15.27-1.08-15.36-3.21 6.64-4.13 15-4.49 15.27 1.08 15.36 3.2z" fill="#fff" opacity=".4"/><path d="m274.43 347.27a.57.57 0 0 1 -.13.38c-1-1.25-6.57-2-13.21-1.71s-12.13 1.49-13 2.82a.65.65 0 0 1 -.16-.37c-.06-1.44 5.82-2.88 13.15-3.19s13.29.63 13.35 2.07z" fill="#407bff"/><path d="m274.43 347.27a.57.57 0 0 1 -.13.38c-1-1.25-6.57-2-13.21-1.71s-12.13 1.49-13 2.82a.65.65 0 0 1 -.16-.37c-.06-1.44 5.82-2.88 13.15-3.19s13.29.63 13.35 2.07z" fill="#407bff" opacity=".4"/><path d="m274.3 347.65c-.9 1.33-6.38 2.53-13 2.81s-12.21-.45-13.21-1.7c.89-1.33 6.36-2.53 13-2.82s12.2.46 13.21 1.71z" fill="#407bff" opacity=".4"/><circle cx="259.08" cy="333.97" fill="#407bff" r="13.7" transform="matrix(.93636622 -.35102465 .35102465 .93636622 -100.759834 112.219961)"/><circle cx="260.58" cy="334.65" fill="#407bff" r="13.7" transform="matrix(.6481199 -.76153831 .76153831 .6481199 -163.159912 316.219598)"/><circle cx="260.58" cy="334.65" fill="#fff" opacity=".4" r="13.7" transform="matrix(.6481199 -.76153831 .76153831 .6481199 -163.159912 316.219598)"/><path d="m269.91 338.89a10.25 10.25 0 1 1 -5.09-13.58 10.26 10.26 0 0 1 5.09 13.58z" fill="#407bff"/><path d="m265.33 337.69a3.09 3.09 0 0 0 -1-1.6 2.77 2.77 0 0 0 1.46-.49 2.89 2.89 0 0 0 1-1.2 2.6 2.6 0 0 0 -.12-2.48 4.68 4.68 0 0 0 -1.73-1.61l.35-.77-1.18-.53-.32.71-1.18-.54.32-.71-1.18-.54-.32.72-2.56-1.17-4.8 10.57 2.55 1.17-.34.75 1.18.53.34-.75 1.18.54-.34.75 1.18.53.36-.78a5.35 5.35 0 0 0 2.84.43 2.68 2.68 0 0 0 2-1.64 2.9 2.9 0 0 0 .31-1.89zm-4.84-7.26 2.43 1.11a2.72 2.72 0 0 1 1.23.93 1.13 1.13 0 0 1 0 1.14 1.11 1.11 0 0 1 -.89.72 2.64 2.64 0 0 1 -1.52-.3l-2.43-1.11zm1.32 8.53a2.94 2.94 0 0 1 -1.6-.35l-2.85-1.29 1.18-2.62 2.86 1.3c1.29.59 1.74 1.33 1.35 2.2a1.2 1.2 0 0 1 -.94.8z" fill="#fff" opacity=".3"/><path d="m389.7 412.22c-.31 1.25-4.55 1.26-9.47 0s-8.66-3.25-8.35-4.49 4.56-1.26 9.48 0 8.64 3.27 8.34 4.49z" fill="#407bff"/><path d="m379.91 399.68h2.33v18.37h-2.33z" fill="#407bff" transform="matrix(.24293785 -.97004185 .97004185 .24293785 -108.109739 679.200403)"/><path d="m390.27 410c-.32 1.25-4.56 1.26-9.48 0s-8.65-3.24-8.34-4.49 4.55-1.26 9.47 0 8.66 3.21 8.35 4.49z" fill="#407bff"/><path d="m390.27 410c-.32 1.25-4.56 1.26-9.48 0s-8.65-3.24-8.34-4.49 4.55-1.26 9.47 0 8.66 3.21 8.35 4.49z" fill="#fff" opacity=".4"/><path d="m389.15 409.59a.31.31 0 0 1 -.14.2c-.37-.9-3.46-2.28-7.35-3.25s-7.28-1.22-8-.6a.5.5 0 0 1 0-.24c.22-.85 3.87-.67 8.17.4s7.54 2.65 7.32 3.49z" fill="#407bff"/><path d="m389.15 409.59a.31.31 0 0 1 -.14.2c-.37-.9-3.46-2.28-7.35-3.25s-7.28-1.22-8-.6a.5.5 0 0 1 0-.24c.22-.85 3.87-.67 8.17.4s7.54 2.65 7.32 3.49z" fill="#407bff" opacity=".4"/><path d="m389 409.79c-.75.61-4.12.37-8-.6s-7-2.36-7.36-3.25c.75-.62 4.12-.38 8 .6s7 2.35 7.36 3.25z" fill="#407bff" opacity=".4"/><path d="m398.26 416.32c.06 1.28-4 2.5-9.08 2.71s-9.22-.65-9.27-1.93 4-2.5 9.08-2.72 9.22.62 9.27 1.94z" fill="#407bff"/><path d="m379.85 414.38h18.37v2.33h-18.37z" fill="#407bff" transform="matrix(.99910077 -.04239879 .04239879 .99910077 -17.289986 16.889985)"/><path d="m398.16 414c.06 1.29-4 2.5-9.07 2.72s-9.22-.65-9.28-1.94 4-2.5 9.08-2.71 9.22.64 9.27 1.93z" fill="#407bff"/><path d="m398.16 414c.06 1.29-4 2.5-9.07 2.72s-9.22-.65-9.28-1.94 4-2.5 9.08-2.71 9.22.64 9.27 1.93z" fill="#fff" opacity=".4"/><path d="m397 414a.29.29 0 0 1 -.08.23c-.61-.75-4-1.2-8-1s-7.33.9-7.87 1.7a.34.34 0 0 1 -.09-.22c0-.87 3.51-1.74 7.94-1.93s8.1.3 8.1 1.22z" fill="#407bff"/><path d="m397 414a.29.29 0 0 1 -.08.23c-.61-.75-4-1.2-8-1s-7.33.9-7.87 1.7a.34.34 0 0 1 -.09-.22c0-.87 3.51-1.74 7.94-1.93s8.1.3 8.1 1.22z" fill="#407bff" opacity=".4"/><path d="m396.91 414.18c-.54.8-3.85 1.53-7.86 1.7s-7.37-.27-8-1c.54-.8 3.85-1.53 7.87-1.7s7.38.25 7.99 1z" fill="#407bff" opacity=".4"/><circle cx="377.16" cy="404.27" fill="#407bff" r="13.7" transform="matrix(.54873103 -.83599896 .83599896 .54873103 -167.780456 497.690082)"/><path d="m388.62 414.48a13.7 13.7 0 1 1 -1.11-19.34 13.7 13.7 0 0 1 1.11 19.34z" fill="#407bff"/><path d="m388.62 414.48a13.7 13.7 0 1 1 -1.11-19.34 13.7 13.7 0 0 1 1.11 19.34z" fill="#fff" opacity=".4"/><path d="m386 412.19a10.26 10.26 0 1 1 -.83-14.48 10.25 10.25 0 0 1 .83 14.48z" fill="#407bff"/><path d="m380.3 410c-1.22 2-3.39 2.05-5.64.36l-1.28 1.37-1.28-1.13 1.29-1.37a9.4 9.4 0 0 1 -2.23-3.74l2-1.07a7.82 7.82 0 0 0 1.76 3.19l2-2.1c-.93-1.46-1.89-3.17-.79-4.95 1.21-1.95 3.42-2 5.69-.29l1.29-1.37 1.27 1.14-1.29 1.38a8.57 8.57 0 0 1 1.82 2.93l-1.91 1.12a6.67 6.67 0 0 0 -1.42-2.46l-2.05 2.2c.88 1.44 1.81 3.09.77 4.79zm-1.76-6.27 1.68-1.79c-.83-.49-1.52-.4-1.88.15a1.65 1.65 0 0 0 .2 1.63zm-.54 4.82a1.53 1.53 0 0 0 -.19-1.54l-1.6 1.7c.79.44 1.44.38 1.79-.17z" fill="#fff" opacity=".3"/><path d="m208.78 417.59c-.05 1.28 4 2.5 9.08 2.71s9.22-.65 9.27-1.93-4-2.5-9.07-2.72-9.22.65-9.28 1.94z" fill="#407bff"/><path d="m216.84 407.63h2.33v18.37h-2.33z" fill="#407bff" transform="matrix(.04239879 -.99910077 .99910077 .04239879 -207.669715 616.960504)"/><path d="m208.88 415.26c-.06 1.29 4 2.5 9.08 2.72s9.22-.65 9.27-1.94-4-2.5-9.08-2.71-9.22.67-9.27 1.93z" fill="#407bff"/><path d="m208.88 415.26c-.06 1.29 4 2.5 9.08 2.72s9.22-.65 9.27-1.94-4-2.5-9.08-2.71-9.22.67-9.27 1.93z" fill="#fff" opacity=".4"/><path d="m210.05 415.22a.38.38 0 0 0 .08.23c.61-.75 4-1.2 8-1s7.32.9 7.86 1.71a.4.4 0 0 0 .1-.23c0-.87-3.52-1.74-7.94-1.92s-8.06.34-8.1 1.21z" fill="#407bff"/><path d="m210.05 415.22a.38.38 0 0 0 .08.23c.61-.75 4-1.2 8-1s7.32.9 7.86 1.71a.4.4 0 0 0 .1-.23c0-.87-3.52-1.74-7.94-1.92s-8.06.34-8.1 1.21z" fill="#407bff" opacity=".4"/><path d="m210.13 415.45c.55.81 3.85 1.53 7.86 1.7s7.38-.27 8-1c-.54-.81-3.84-1.53-7.86-1.71s-7.39.26-8 1.01z" fill="#407bff" opacity=".4"/><path d="m206.85 414.07c0 1.28 4 2.5 9.08 2.71s9.22-.65 9.27-1.93-4-2.5-9.07-2.72-9.22.66-9.28 1.94z" fill="#407bff"/><path d="m214.91 404.11h2.33v18.37h-2.33z" fill="#407bff" transform="matrix(.04239879 -.99910077 .99910077 .04239879 -206.020953 611.630719)"/><path d="m207 411.74c0 1.29 4 2.5 9.08 2.72s9.22-.65 9.27-1.94-4-2.5-9.07-2.71-9.28.65-9.28 1.93z" fill="#407bff"/><path d="m207 411.74c0 1.29 4 2.5 9.08 2.72s9.22-.65 9.27-1.94-4-2.5-9.07-2.71-9.28.65-9.28 1.93z" fill="#fff" opacity=".4"/><path d="m208.12 411.7a.38.38 0 0 0 .08.23c.61-.75 4-1.19 8-1s7.32.89 7.86 1.7a.4.4 0 0 0 .1-.23c0-.86-3.52-1.74-7.94-1.92s-8.06.35-8.1 1.22z" fill="#407bff"/><path d="m208.12 411.7a.38.38 0 0 0 .08.23c.61-.75 4-1.19 8-1s7.32.89 7.86 1.7a.4.4 0 0 0 .1-.23c0-.86-3.52-1.74-7.94-1.92s-8.06.35-8.1 1.22z" fill="#407bff" opacity=".4"/><path d="m208.2 411.93c.55.81 3.85 1.53 7.86 1.7s7.38-.27 8-1c-.54-.81-3.84-1.53-7.86-1.7s-7.39.25-8 1z" fill="#407bff" opacity=".4"/><path d="m207.1 409.83c0 1.28 4 2.5 9.08 2.71s9.22-.65 9.27-1.93-4-2.5-9.07-2.72-9.22.66-9.28 1.94z" fill="#407bff"/><path d="m215.16 399.87h2.33v18.37h-2.33z" fill="#407bff" transform="matrix(.04239879 -.99910077 .99910077 .04239879 -201.549279 607.820182)"/><path d="m207.2 407.5c0 1.29 4 2.5 9.08 2.72s9.22-.65 9.27-1.94-4-2.5-9.07-2.71-9.22.65-9.28 1.93z" fill="#407bff"/><path d="m207.2 407.5c0 1.29 4 2.5 9.08 2.72s9.22-.65 9.27-1.94-4-2.5-9.07-2.71-9.22.65-9.28 1.93z" fill="#fff" opacity=".4"/><path d="m208.37 407.46a.38.38 0 0 0 .08.23c.61-.75 4-1.19 8-1s7.32.89 7.86 1.7a.4.4 0 0 0 .1-.23c0-.86-3.52-1.74-7.94-1.92s-8.06.36-8.1 1.22z" fill="#407bff"/><path d="m208.37 407.46a.38.38 0 0 0 .08.23c.61-.75 4-1.19 8-1s7.32.89 7.86 1.7a.4.4 0 0 0 .1-.23c0-.86-3.52-1.74-7.94-1.92s-8.06.36-8.1 1.22z" fill="#407bff" opacity=".4"/><path d="m208.45 407.69c.55.81 3.85 1.53 7.86 1.7s7.38-.27 8-1c-.54-.81-3.84-1.53-7.86-1.7s-7.39.25-8 1z" fill="#407bff" opacity=".4"/><path d="m205.17 406.31c0 1.28 4 2.5 9.08 2.71s9.22-.65 9.28-1.93-4-2.5-9.08-2.72-9.22.63-9.28 1.94z" fill="#407bff"/><path d="m213.24 396.35h2.33v18.37h-2.33z" fill="#407bff" transform="matrix(.04239879 -.99910077 .99910077 .04239879 -199.870247 602.539978)"/><path d="m205.27 404c-.05 1.29 4 2.5 9.08 2.72s9.22-.65 9.27-1.94-4-2.49-9.07-2.71-9.22.63-9.28 1.93z" fill="#407bff"/><path d="m205.27 404c-.05 1.29 4 2.5 9.08 2.72s9.22-.65 9.27-1.94-4-2.49-9.07-2.71-9.22.63-9.28 1.93z" fill="#fff" opacity=".4"/><path d="m206.44 403.94a.38.38 0 0 0 .08.23c.62-.75 4-1.19 8-1s7.33.89 7.86 1.7a.34.34 0 0 0 .1-.22c0-.87-3.52-1.75-7.94-1.93s-8.06.36-8.1 1.22z" fill="#407bff"/><path d="m206.44 403.94a.38.38 0 0 0 .08.23c.62-.75 4-1.19 8-1s7.33.89 7.86 1.7a.34.34 0 0 0 .1-.22c0-.87-3.52-1.75-7.94-1.93s-8.06.36-8.1 1.22z" fill="#407bff" opacity=".4"/><path d="m206.52 404.17c.55.81 3.85 1.53 7.86 1.7s7.38-.27 8-1c-.53-.81-3.84-1.53-7.86-1.7s-7.38.25-8 1z" fill="#407bff" opacity=".4"/><path d="m208.12 403.33c-.06 1.28 4 2.5 9.08 2.71s9.22-.65 9.27-1.93-4-2.5-9.08-2.72-9.22.61-9.27 1.94z" fill="#407bff"/><path d="m216.18 393.37h2.33v18.37h-2.33z" fill="#407bff" transform="matrix(.04239879 -.99910077 .99910077 .04239879 -194.079245 602.609944)"/><path d="m208.22 401c-.06 1.29 4 2.5 9.07 2.72s9.22-.65 9.28-1.94-4-2.5-9.08-2.71-9.22.65-9.27 1.93z" fill="#407bff"/><path d="m208.22 401c-.06 1.29 4 2.5 9.07 2.72s9.22-.65 9.28-1.94-4-2.5-9.08-2.71-9.22.65-9.27 1.93z" fill="#fff" opacity=".4"/><path d="m209.39 401a.29.29 0 0 0 .08.23c.61-.75 4-1.2 8-1s7.33.9 7.87 1.7a.34.34 0 0 0 .09-.22c0-.87-3.51-1.74-7.94-1.93s-8.07.31-8.1 1.22z" fill="#407bff"/><path d="m209.39 401a.29.29 0 0 0 .08.23c.61-.75 4-1.2 8-1s7.33.9 7.87 1.7a.34.34 0 0 0 .09-.22c0-.87-3.51-1.74-7.94-1.93s-8.07.31-8.1 1.22z" fill="#407bff" opacity=".4"/><path d="m209.47 401.19c.54.8 3.85 1.53 7.86 1.7s7.37-.27 8-1c-.54-.8-3.85-1.53-7.87-1.7s-7.38.25-7.99 1z" fill="#407bff" opacity=".4"/><path d="m195.18 417.38c.31 1.25 4.56 1.26 9.48 0s8.65-3.24 8.34-4.49-4.55-1.26-9.47 0-8.66 3.25-8.35 4.49z" fill="#407bff"/><path d="m194.62 412.86h18.37v2.33h-18.37z" fill="#407bff" transform="matrix(.97004185 -.24293785 .24293785 .97004185 -94.469976 61.910099)"/><path d="m194.62 415.13c.31 1.24 4.55 1.26 9.47 0s8.66-3.24 8.34-4.48-4.55-1.26-9.47 0-8.66 3.23-8.34 4.48z" fill="#407bff"/><path d="m194.62 415.13c.31 1.24 4.55 1.26 9.47 0s8.66-3.24 8.34-4.48-4.55-1.26-9.47 0-8.66 3.23-8.34 4.48z" fill="#fff" opacity=".4"/><path d="m195.73 414.76a.33.33 0 0 0 .14.19c.37-.89 3.46-2.27 7.36-3.25s7.27-1.22 8-.6a.33.33 0 0 0 0-.24c-.21-.84-3.87-.67-8.16.41s-7.55 2.64-7.34 3.49z" fill="#407bff"/><path d="m195.73 414.76a.33.33 0 0 0 .14.19c.37-.89 3.46-2.27 7.36-3.25s7.27-1.22 8-.6a.33.33 0 0 0 0-.24c-.21-.84-3.87-.67-8.16.41s-7.55 2.64-7.34 3.49z" fill="#407bff" opacity=".4"/><path d="m195.87 415c.75.62 4.13.38 8-.6s7-2.35 7.36-3.25c-.75-.62-4.12-.37-8 .6s-6.99 2.31-7.36 3.25z" fill="#407bff" opacity=".4"/><path d="m186.67 417.59c0 1.28 4 2.5 9.08 2.71s9.22-.65 9.27-1.93-4-2.5-9.07-2.72-9.22.65-9.28 1.94z" fill="#407bff"/><path d="m194.73 407.63h2.33v18.37h-2.33z" fill="#407bff" transform="matrix(.04239879 -.99910077 .99910077 .04239879 -228.860265 594.84162)"/><path d="m186.77 415.26c-.05 1.29 4 2.5 9.08 2.72s9.22-.65 9.27-1.94-4-2.5-9.07-2.71-9.22.67-9.28 1.93z" fill="#407bff"/><path d="m186.77 415.26c-.05 1.29 4 2.5 9.08 2.72s9.22-.65 9.27-1.94-4-2.5-9.07-2.71-9.22.67-9.28 1.93z" fill="#fff" opacity=".4"/><path d="m187.94 415.22a.38.38 0 0 0 .08.23c.61-.75 4-1.2 8-1s7.32.9 7.86 1.71a.4.4 0 0 0 .1-.23c0-.87-3.52-1.74-7.94-1.92s-8.04.34-8.1 1.21z" fill="#407bff"/><path d="m187.94 415.22a.38.38 0 0 0 .08.23c.61-.75 4-1.2 8-1s7.32.9 7.86 1.71a.4.4 0 0 0 .1-.23c0-.87-3.52-1.74-7.94-1.92s-8.04.34-8.1 1.21z" fill="#407bff" opacity=".4"/><path d="m188 415.45c.55.81 3.85 1.53 7.86 1.7s7.38-.27 8-1c-.54-.81-3.84-1.53-7.86-1.71s-7.37.26-8 1.01z" fill="#407bff" opacity=".4"/><path d="m281.46 417.48c-.06 1.32 4.12 2.57 9.33 2.79s9.48-.67 9.54-2-4.13-2.56-9.34-2.79-9.48.68-9.53 2z" fill="#407bff"/><path d="m289.75 407.25h2.39v18.89h-2.39z" fill="#407bff" transform="matrix(.04239879 -.99910077 .99910077 .04239879 -137.729705 689.669504)"/><path d="m281.56 415.09c-.06 1.32 4.12 2.57 9.33 2.79s9.48-.67 9.54-2-4.12-2.56-9.34-2.79-9.48.68-9.53 2z" fill="#407bff"/><path d="m281.56 415.09c-.06 1.32 4.12 2.57 9.33 2.79s9.48-.67 9.54-2-4.12-2.56-9.34-2.79-9.48.68-9.53 2z" fill="#fff" opacity=".4"/><path d="m282.76 415.05a.43.43 0 0 0 .08.24c.63-.78 4.08-1.23 8.21-1.06s7.53.92 8.08 1.75a.34.34 0 0 0 .1-.23c0-.89-3.61-1.79-8.16-2s-8.27.41-8.31 1.3z" fill="#407bff"/><path d="m282.76 415.05a.43.43 0 0 0 .08.24c.63-.78 4.08-1.23 8.21-1.06s7.53.92 8.08 1.75a.34.34 0 0 0 .1-.23c0-.89-3.61-1.79-8.16-2s-8.27.41-8.31 1.3z" fill="#407bff" opacity=".4"/><path d="m282.84 415.29c.57.82 4 1.57 8.09 1.75s7.58-.28 8.2-1.06c-.55-.83-3.95-1.57-8.08-1.75s-7.58.28-8.21 1.06z" fill="#407bff" opacity=".4"/><path d="m279.47 413.86c-.05 1.32 4.13 2.57 9.34 2.8s9.48-.67 9.53-2-4.12-2.57-9.33-2.8-9.48.68-9.54 2z" fill="#407bff"/><path d="m287.76 403.63h2.39v18.89h-2.39z" fill="#407bff" transform="matrix(.04239879 -.99910077 .99910077 .04239879 -136.000517 684.23963)"/><path d="m279.58 411.47c-.06 1.32 4.12 2.57 9.33 2.8s9.48-.67 9.54-2-4.13-2.57-9.34-2.8-9.48.68-9.53 2z" fill="#407bff"/><path d="m279.58 411.47c-.06 1.32 4.12 2.57 9.33 2.8s9.48-.67 9.54-2-4.13-2.57-9.34-2.8-9.48.68-9.53 2z" fill="#fff" opacity=".4"/><path d="m280.78 411.43a.43.43 0 0 0 .08.24c.63-.78 4.08-1.23 8.2-1.06s7.54.92 8.09 1.75a.4.4 0 0 0 .1-.23c0-.89-3.62-1.79-8.17-2s-8.26.41-8.3 1.3z" fill="#407bff"/><path d="m280.78 411.43a.43.43 0 0 0 .08.24c.63-.78 4.08-1.23 8.2-1.06s7.54.92 8.09 1.75a.4.4 0 0 0 .1-.23c0-.89-3.62-1.79-8.17-2s-8.26.41-8.3 1.3z" fill="#407bff" opacity=".4"/><path d="m280.86 411.67c.56.82 4 1.57 8.08 1.75s7.59-.28 8.21-1.06c-.55-.83-3.95-1.57-8.09-1.75s-7.57.28-8.2 1.06z" fill="#407bff" opacity=".4"/><path d="m283.73 411.19c-.06 1.31 4.12 2.56 9.33 2.79s9.48-.67 9.54-2-4.13-2.57-9.34-2.79-9.48.68-9.53 2z" fill="#407bff"/><path d="m292.01 400.95h2.39v18.89h-2.39z" fill="#407bff" transform="matrix(.04239879 -.99910077 .99910077 .04239879 -129.259783 685.910487)"/><path d="m283.83 408.79c-.06 1.32 4.12 2.57 9.33 2.8s9.48-.67 9.54-2-4.13-2.57-9.34-2.79-9.48.68-9.53 1.99z" fill="#407bff"/><path d="m283.83 408.79c-.06 1.32 4.12 2.57 9.33 2.8s9.48-.67 9.54-2-4.13-2.57-9.34-2.79-9.48.68-9.53 1.99z" fill="#fff" opacity=".4"/><path d="m285 408.75a.43.43 0 0 0 .08.24c.63-.78 4.08-1.23 8.2-1.06s7.54.92 8.09 1.75a.4.4 0 0 0 .1-.23c0-.89-3.62-1.79-8.17-2s-8.23.41-8.3 1.3z" fill="#407bff"/><path d="m285 408.75a.43.43 0 0 0 .08.24c.63-.78 4.08-1.23 8.2-1.06s7.54.92 8.09 1.75a.4.4 0 0 0 .1-.23c0-.89-3.62-1.79-8.17-2s-8.23.41-8.3 1.3z" fill="#407bff" opacity=".4"/><path d="m285.11 409c.56.83 4 1.57 8.08 1.75s7.59-.28 8.21-1.06c-.55-.83-3.95-1.57-8.09-1.75s-7.57.27-8.2 1.06z" fill="#407bff" opacity=".4"/><path d="m283.78 407.57c-.06 1.32 4.12 2.57 9.33 2.79s9.48-.67 9.54-2-4.13-2.57-9.34-2.79-9.48.68-9.53 2z" fill="#407bff"/><path d="m292.07 397.33h2.39v18.89h-2.39z" fill="#407bff" transform="matrix(.04013179 -.9991944 .9991944 .04013179 -125.301601 682.220742)"/><path d="m283.88 405.18c-.06 1.32 4.12 2.57 9.33 2.79s9.48-.67 9.54-2-4.13-2.57-9.34-2.79-9.48.68-9.53 2z" fill="#407bff"/><path d="m283.88 405.18c-.06 1.32 4.12 2.57 9.33 2.79s9.48-.67 9.54-2-4.13-2.57-9.34-2.79-9.48.68-9.53 2z" fill="#fff" opacity=".4"/><path d="m285.08 405.14a.4.4 0 0 0 .08.23c.63-.78 4.08-1.23 8.2-1.06s7.54.93 8.09 1.75a.34.34 0 0 0 .1-.23c0-.89-3.61-1.79-8.17-2s-8.26.41-8.3 1.31z" fill="#407bff"/><path d="m285.08 405.14a.4.4 0 0 0 .08.23c.63-.78 4.08-1.23 8.2-1.06s7.54.93 8.09 1.75a.34.34 0 0 0 .1-.23c0-.89-3.61-1.79-8.17-2s-8.26.41-8.3 1.31z" fill="#407bff" opacity=".4"/><path d="m285.16 405.37c.56.83 4 1.57 8.09 1.75s7.58-.28 8.2-1.06c-.55-.82-3.95-1.57-8.09-1.75s-7.57.28-8.2 1.06z" fill="#407bff" opacity=".4"/><path d="m279.9 404.61c-.06 1.32 4.12 2.57 9.33 2.79s9.48-.67 9.54-2-4.12-2.57-9.33-2.79-9.44.68-9.54 2z" fill="#407bff"/><path d="m288.19 394.37h2.39v18.89h-2.39z" fill="#407bff" transform="matrix(.04257316 -.99909335 .99909335 .04257316 -126.369764 675.770717)"/><path d="m280 402.22c-.06 1.32 4.12 2.57 9.33 2.79s9.48-.67 9.54-2-4.12-2.57-9.33-2.79-9.48.68-9.54 2z" fill="#407bff"/><path d="m280 402.22c-.06 1.32 4.12 2.57 9.33 2.79s9.48-.67 9.54-2-4.12-2.57-9.33-2.79-9.48.68-9.54 2z" fill="#fff" opacity=".4"/><path d="m281.2 402.18a.4.4 0 0 0 .08.23c.64-.77 4.09-1.23 8.21-1.05s7.53.92 8.08 1.74a.32.32 0 0 0 .1-.22c0-.9-3.61-1.79-8.16-2s-8.27.4-8.31 1.3z" fill="#407bff"/><path d="m281.2 402.18a.4.4 0 0 0 .08.23c.64-.77 4.09-1.23 8.21-1.05s7.53.92 8.08 1.74a.32.32 0 0 0 .1-.22c0-.9-3.61-1.79-8.16-2s-8.27.4-8.31 1.3z" fill="#407bff" opacity=".4"/><path d="m281.28 402.41c.57.83 4 1.58 8.09 1.75s7.58-.28 8.2-1.06c-.55-.82-3.95-1.57-8.08-1.74s-7.57.28-8.21 1.05z" fill="#407bff" opacity=".4"/><path d="m304.26 411.81c-.55 1.17 2.73 3.86 7.32 6s8.76 3 9.3 1.8-2.73-3.85-7.32-6-8.76-2.96-9.3-1.8z" fill="#407bff"/><path d="m311.9 405.48h2.33v18.37h-2.33z" fill="#407bff" transform="matrix(.42530547 -.90504987 .90504987 .42530547 -195.370283 521.679767)"/><path d="m305.25 409.71c-.55 1.16 2.73 3.85 7.32 6s8.76 3 9.3 1.8-2.73-3.86-7.32-6-8.76-2.97-9.3-1.8z" fill="#407bff"/><path d="m305.25 409.71c-.55 1.16 2.73 3.85 7.32 6s8.76 3 9.3 1.8-2.73-3.86-7.32-6-8.76-2.97-9.3-1.8z" fill="#fff" opacity=".4"/><path d="m306.34 410.12a.33.33 0 0 0 0 .24c.85-.45 4.12.43 7.75 2.14s6.41 3.66 6.6 4.61a.35.35 0 0 0 .17-.17c.37-.79-2.57-3-6.58-4.85s-7.57-2.75-7.94-1.97z" fill="#407bff"/><path d="m306.34 410.12a.33.33 0 0 0 0 .24c.85-.45 4.12.43 7.75 2.14s6.41 3.66 6.6 4.61a.35.35 0 0 0 .17-.17c.37-.79-2.57-3-6.58-4.85s-7.57-2.75-7.94-1.97z" fill="#407bff" opacity=".4"/><path d="m306.33 410.36c.19 1 3 2.9 6.59 4.61s6.91 2.6 7.76 2.14c-.19-.95-3-2.9-6.6-4.61s-6.9-2.59-7.75-2.14z" fill="#407bff" opacity=".4"/><path d="m294.61 415.94c-.05 1.28 4 2.49 9.08 2.71s9.22-.65 9.28-1.93-4-2.5-9.08-2.72-9.22.65-9.28 1.94z" fill="#407bff"/><path d="m302.68 405.98h2.33v18.37h-2.33z" fill="#407bff" transform="matrix(.04239879 -.99910077 .99910077 .04239879 -123.850148 701.10056)"/><path d="m294.71 413.61c0 1.28 4 2.5 9.08 2.72s9.22-.66 9.27-1.94-4-2.5-9.07-2.71-9.22.65-9.28 1.93z" fill="#407bff"/><path d="m294.71 413.61c0 1.28 4 2.5 9.08 2.72s9.22-.66 9.27-1.94-4-2.5-9.07-2.71-9.22.65-9.28 1.93z" fill="#fff" opacity=".4"/><path d="m295.88 413.57a.38.38 0 0 0 .08.23c.62-.76 4-1.2 8-1s7.33.9 7.86 1.7a.32.32 0 0 0 .1-.22c0-.87-3.52-1.74-7.94-1.93s-8.06.35-8.1 1.22z" fill="#407bff"/><path d="m295.88 413.57a.38.38 0 0 0 .08.23c.62-.76 4-1.2 8-1s7.33.9 7.86 1.7a.32.32 0 0 0 .1-.22c0-.87-3.52-1.74-7.94-1.93s-8.06.35-8.1 1.22z" fill="#407bff" opacity=".4"/><path d="m296 413.8c.55.8 3.85 1.53 7.86 1.7s7.38-.27 8-1c-.53-.8-3.84-1.53-7.86-1.7s-7.42.2-8 1z" fill="#407bff" opacity=".4"/><path d="m132.93 159v6a18 18 0 0 1 10.25 4.25l4.27-4.27a24 24 0 0 0 -14.52-5.98zm-2.93 42.09a18.05 18.05 0 0 1 -16.55-16.55h-6a24.08 24.08 0 0 0 22.55 22.59zm-16.53-19.47a18.07 18.07 0 0 1 16.53-16.55v-6a24.09 24.09 0 0 0 -22.59 22.59z" fill="#407bff"/><path d="m113.47 181.62a18.07 18.07 0 0 1 16.53-16.55v-6a24.09 24.09 0 0 0 -22.59 22.59z" opacity=".2"/><path d="m149.51 167.11-4.27 4.27a18.06 18.06 0 0 1 -12.31 29.71v6a24.09 24.09 0 0 0 16.58-40z" fill="#407bff"/><path d="m132.93 159v6a18 18 0 0 1 10.25 4.25l4.27-4.27a24 24 0 0 0 -14.52-5.98z" fill="#fff" opacity=".8"/><path d="m130 201.09a18.05 18.05 0 0 1 -16.55-16.55h-6a24.08 24.08 0 0 0 22.55 22.59z" fill="#fff" opacity=".6"/><path d="m113.47 181.62a18.07 18.07 0 0 1 16.53-16.55v-6a24.09 24.09 0 0 0 -22.59 22.59z" fill="#fff" opacity=".7"/><path d="m149.51 167.11-4.27 4.27a18.06 18.06 0 0 1 -12.31 29.71v6a24.09 24.09 0 0 0 16.58-40z" fill="#fff" opacity=".5"/><path d="m175.3 152.66 7.65 10.38 44.08-18.3 42.97 15.28 38.93-25.17 2.79 3.7 9.25-15.14-20.73-1.62 3.18 4.19-38.96 24.94-42.33-15.02z" fill="#407bff"/><path d="m175.3 152.66 7.65 10.38 44.08-18.3 42.97 15.28 38.93-25.17 2.79 3.7 9.25-15.14-20.73-1.62 3.18 4.19-38.96 24.94-42.33-15.02z" fill="#fff" opacity=".5"/><path d="m356 159.12a9.7 9.7 0 1 0 9.7 9.7 9.7 9.7 0 0 0 -9.7-9.7zm0 14.55a4.85 4.85 0 1 1 4.84-4.85 4.86 4.86 0 0 1 -4.84 4.85zm24.45 13.91a9.7 9.7 0 1 0 9.69 9.7 9.7 9.7 0 0 0 -9.69-9.7zm0 14.54a4.85 4.85 0 1 1 4.84-4.84 4.85 4.85 0 0 1 -4.84 4.84zm-20.82 4.86h-6.45l22.41-47.86h6.45z" fill="#407bff"/><path d="m356 159.12a9.7 9.7 0 1 0 9.7 9.7 9.7 9.7 0 0 0 -9.7-9.7zm0 14.55a4.85 4.85 0 1 1 4.84-4.85 4.86 4.86 0 0 1 -4.84 4.85zm24.45 13.91a9.7 9.7 0 1 0 9.69 9.7 9.7 9.7 0 0 0 -9.69-9.7zm0 14.54a4.85 4.85 0 1 1 4.84-4.84 4.85 4.85 0 0 1 -4.84 4.84zm-20.82 4.86h-6.45l22.41-47.86h6.45z" fill="#fff" opacity=".5"/><path d="m245 163.41c.26 1.24.51 2.32.8 3.45s.6 2.19.93 3.33c.65 2.19 1.4 4.37 2.23 6.58a54.29 54.29 0 0 0 6.75 12.92 24.65 24.65 0 0 0 2.76 3.11 15.64 15.64 0 0 0 3.81 2.69 17 17 0 0 0 8.63 1.67 24.11 24.11 0 0 0 7.57-1.78 32.48 32.48 0 0 0 3.32-1.58 16.85 16.85 0 0 0 1.56-1c.5-.37 1-.68 1.56-1.09l-2.67-4.71-1.4.37-1.47.35c-1 .22-2 .41-3 .54a20.72 20.72 0 0 1 -5.45.11 8.93 8.93 0 0 1 -4.06-1.46 9.28 9.28 0 0 1 -1.44-1.28 18.45 18.45 0 0 1 -1.46-2 35.59 35.59 0 0 1 -2.65-5c-.82-1.81-1.54-3.72-2.22-5.68s-1.29-4-1.9-6l-.86-3c-.27-1-.57-2.06-.78-2.93z" fill="#ff8b7b"/><path d="m244.09 157.35c4.54-5.77 11.42-3.66 15.29 5.52a89.89 89.89 0 0 1 5.08 15.13l-16.14 5.67c-4.24-8.67-8.89-20.41-4.23-26.32z" fill="#407bff"/><path d="m244.09 157.35c4.54-5.77 11.42-3.66 15.29 5.52a89.89 89.89 0 0 1 5.08 15.13l-16.14 5.67c-4.24-8.67-8.89-20.41-4.23-26.32z" opacity=".1"/><path d="m250.83 167c-1.32-.9-4.05 4.35-5.31 10.53.89 2.16 1.84 4.23 2.79 6.15l9.71-3.41c-1.59-5.81-4.2-11.27-7.19-13.27z" opacity=".3"/><path d="m283.07 184.63 3.53-1.93 1.24 7.88s-5.9 3.56-7.59.62l.18-2a6.48 6.48 0 0 1 2.64-4.57z" fill="#ff8b7b"/><path d="m291.03 182.31 3.09 6.34-6.31 1.94-1.24-7.89z" fill="#ff8b7b"/><path d="m244 152.19-8.24-1.19-10.29.9a7.16 7.16 0 0 0 -6.42 5.84 183.11 183.11 0 0 0 -2.05 22.69c-.36 8.55.59 21.17 2 32.57l34.38-4.16c.33-30 2.6-39.29 2.88-47.24a7.13 7.13 0 0 0 -5-7.06z" fill="#407bff"/><path d="m254.42 300.95 7.32 2.03 6.55-17.19-7.3-2.02z" fill="#ff8b7b"/><path d="m265 300.7a3.82 3.82 0 0 0 -2.35-1.43l-7.53-1.46a.69.69 0 0 0 -.81.46l-2.31 6.87a1.52 1.52 0 0 0 .92 1.92h.08c2.78 1.1 4.66.72 9 1.56 2.67.52 8.29 2.3 12 2.15s3.75-3.87 2.17-4.15c-5.6-.87-9.89-4.23-11.17-5.92z" fill="#263238"/><path d="m268.29 285.8-3.49 9.14-7.2-2.31 3.38-8.86z" opacity=".2"/><path d="m286.54 235.11a50.56 50.56 0 0 1 -1.48 8.06c-1.93 7.46-5.23 15.06-8 22.47-5.36 14.64-10.06 27.36-10.06 27.36l-10-3.46s9-42.36 15.07-46.69h-37.22a15.45 15.45 0 0 1 -2.08-.14c6.41-.83 16.4-4.78 25.67-8.73 8.19-3.5 15.85-7 20-8.32 5.08 2.17 8.49 5.18 8.1 9.45z" fill="#263238"/><path d="m286.54 235.11a50.56 50.56 0 0 1 -1.48 8.06c-1.93 7.46-5.23 15.06-8 22.47-5.36 14.64-10.06 27.36-10.06 27.36l-10-3.46s9-42.36 15.07-46.69h-37.22a15.45 15.45 0 0 1 -2.08-.14c6.41-.83 16.4-4.78 25.67-8.73 8.19-3.5 15.85-7 20-8.32 5.08 2.17 8.49 5.18 8.1 9.45z" opacity=".1"/><path d="m278.45 225.7c-4.16 1.35-11.82 4.82-20 8.32-9.27 3.95-19.26 7.9-25.67 8.73-10.8-1.44-14.86-14.31-3.57-29.15 7.33 0 14.7 7 14.7 7s22.16-.11 34.54 5.1z" opacity=".6"/><path d="m305.39 286.18h8.18l-8.57-20.54-5.56 9.43z" fill="#ff8b7b"/><path d="m312.9 284.24-9.61-2.19a.66.66 0 0 0 -.8.43l-2.68 7.39a1.48 1.48 0 0 0 1 1.83h.05c3.37.71 5 .88 9.25 1.83 2.6.6 9.18 2.32 12.77 3.14s4.53-2.7 3.1-3.37c-6.4-3-9.88-5.8-11.74-8.22a2.3 2.3 0 0 0 -1.34-.84z" fill="#263238"/><path d="m305 265.64 3.65 8.75-7.37 4.11-1.84-3.43z" opacity=".2"/><path d="m308.76 271.28-9 5.45s-7.51-15.77-14.69-33.56a50.56 50.56 0 0 0 1.48-8.06c.39-4.27-3-7.28-8.08-9.4-4.16 1.35-11.82 4.82-20 8.32-9.27 3.95-19.26 7.9-25.67 8.73a18.11 18.11 0 0 1 -2.22.16c-12.32 0-16.57-10.8-11.6-29.12 7.33 0 19.88-.79 19.88-.79s24.22-5.82 41.65-3.84a19.67 19.67 0 0 1 17 15.75c4.49 22.24 11.25 46.36 11.25 46.36z" fill="#263238"/><path d="m308.76 271.28-9 5.45s-7.51-15.77-14.69-33.56a50.56 50.56 0 0 0 1.48-8.06c.39-4.27-3-7.28-8.08-9.4-4.16 1.35-11.82 4.82-20 8.32-9.27 3.95-19.26 7.9-25.67 8.73a18.11 18.11 0 0 1 -2.22.16c-12.32 0-16.57-10.8-11.6-29.12 7.33 0 19.88-.79 19.88-.79s24.22-5.82 41.65-3.84a19.67 19.67 0 0 1 17 15.75c4.49 22.24 11.25 46.36 11.25 46.36z" fill="#263238"/><path d="m244 152.19-8.24-1.19-10.29.9a7.16 7.16 0 0 0 -6.42 5.84 183.11 183.11 0 0 0 -2.05 22.69c-.36 8.55.59 21.17 2 32.57l34.38-4.16c.33-30 2.6-39.29 2.88-47.24a7.13 7.13 0 0 0 -5-7.06z" fill="#407bff"/><path d="m218.92 211.1-.89 2.79c-.11.21.13.44.5.45l34.32-2.05c.28 0 .52-.13.54-.31l.37-2.8c0-.2-.22-.37-.52-.38l-33.77 2.07a.59.59 0 0 0 -.55.23z" fill="#263238"/><path d="m218.92 211.1-.89 2.79c-.11.21.13.44.5.45l34.32-2.05c.28 0 .52-.13.54-.31l.37-2.8c0-.2-.22-.37-.52-.38l-33.77 2.07a.59.59 0 0 0 -.55.23z" opacity=".1"/><path d="m222.4 154.94c6.85-1.2 6.51 14.37 3.39 25.76-.9 3.3-4.8 1.92-6.12 1.06-4.33-2.76-5.79-21.84 2.73-26.82z" opacity=".3"/><path d="m221.57 178c.26 6.73-1.88 10.26 1.71 12.51s24.8 9.28 25.32 8.4c-1 1.62-2 3-3 4.64q-9.17-1.38-18.35-2.55c-4.47-.56-11.68-1.71-15.18-4.55-3.18-2.56-2.61-13.8-2.07-21.9 2.81-1.67 11.57 3.45 11.57 3.45z" fill="#ff8b7b"/><path d="m219.74 152.2c7-2.07 9.71 3.57 7.57 13.26a88.38 88.38 0 0 1 -4.63 15.29l-14.74-4.65c1.6-9.51 4.58-21.78 11.8-23.9zm10.26-.05a6 6 0 0 0 1.07 4.23 18 18 0 0 0 3 3.27c1.39 1.27 3.05 2.64 4.93 2.39 1.73-.23 2.72-1.1 3.42-3.16 1.48 2.39 1.55 3.58 3.18 3.73a3.66 3.66 0 0 0 2.71-1.43 5.92 5.92 0 0 0 2.13-4c.39-3-2.06-5.82-4.92-6.89a36 36 0 0 0 -9-1.78c-2.67-.28-6.03.55-6.52 3.64z" fill="#407bff"/><path d="m230 152.15a6 6 0 0 0 1.07 4.23 18 18 0 0 0 3 3.27c1.39 1.27 3.05 2.64 4.93 2.39 1.73-.23 2.72-1.1 3.42-3.16 1.48 2.39 1.55 3.58 3.18 3.73a3.66 3.66 0 0 0 2.71-1.43 5.92 5.92 0 0 0 2.13-4c.39-3-2.06-5.82-4.92-6.89a36 36 0 0 0 -9-1.78c-2.67-.28-6.03.55-6.52 3.64z" opacity=".3"/><path d="m237.16 137.64 3.73 4.31 5.07 5.86a6.55 6.55 0 0 0 -1 2.08 3.59 3.59 0 0 0 1.41 4.49c.77.36 1.17 4.41-3.93 4a10.58 10.58 0 0 1 -7.69-3.51c-.93-1.25-1.18-1.92-.22-3.29 2.72-3.87 2.94-9.48 2.63-13.94z" fill="#ff8b7b"/><path d="m244.74 146.36-3.2-4.23c0 .12-.08.26-.12.4a11.18 11.18 0 0 0 -.32 1.82c-.19 2.1 1.78 4.79 3.7 5.94l.15-.42a7.91 7.91 0 0 1 1-2 .38.38 0 0 1 .09-.09z" opacity=".2"/><path d="m237.51 129.71c-.58 6.95-1.22 11 1.76 14.94 4.51 6 13.49 3.86 16.11-2.82 2.36-6 2.85-16.37-3.53-20a9.68 9.68 0 0 0 -13.15 3.79 9.56 9.56 0 0 0 -1.19 4.09z" fill="#ff8b7b"/><path d="m236.49 135.86 3 1.29c1-.42 1.23-1.63 1.16-2.73-.3-4.24 7.35-9.42 7.35-9.42s-8.09-2.66-10.52-3.06c-.85-.14-3.91 2.08-4.38 3a8 8 0 0 0 1 8.37 18 18 0 0 0 2.39 2.55z" fill="#263238"/><path d="m233.93 134.61a6.39 6.39 0 0 0 2 4.06c1.48 1.36 3.29-.12 3.51-2.1.18-1.76-.71-4.33-2.51-4.92s-3.17 1.02-3 2.96z" fill="#ff8b7b"/><path d="m247.94 133.88c-.11.57.1 1.1.47 1.18s.72-.31.87-.88-.11-1.1-.48-1.18-.8.3-.86.88zm6.41 1.41c-.11.58.1 1.11.48 1.19s.75-.32.86-.88-.11-1.1-.48-1.18-.75.3-.86.87z" fill="#263238"/><path d="m252.21 135.26a19.15 19.15 0 0 0 1.22 4.76 2.78 2.78 0 0 1 -2.37-.23z" fill="#ff5652"/><path d="m249.44 143a4.94 4.94 0 0 1 -2.89-2.65.17.17 0 0 1 .09-.22.19.19 0 0 1 .23.1 4.75 4.75 0 0 0 3.29 2.64.17.17 0 0 1 .15.19.18.18 0 0 1 -.2.15 3.75 3.75 0 0 1 -.67-.21zm-2.38-11.42a.23.23 0 0 1 -.14-.09.34.34 0 0 1 0-.48 3.26 3.26 0 0 1 3-.73.34.34 0 0 1 .23.42.34.34 0 0 1 -.43.21 2.65 2.65 0 0 0 -2.34.59.31.31 0 0 1 -.32.08zm8.02.01a.32.32 0 0 1 0-.17.34.34 0 0 1 .42-.24 3.29 3.29 0 0 1 2.3 2 .35.35 0 0 1 -.23.43.34.34 0 0 1 -.42-.23 2.62 2.62 0 0 0 -1.83-1.59.33.33 0 0 1 -.24-.2z" fill="#263238"/><path d="m257.2 210.38 43.88.13a3.14 3.14 0 0 0 3.07-2.8l2-22.22a2.55 2.55 0 0 0 -2.57-2.82l-43.88-.13a3.15 3.15 0 0 0 -3.07 2.81l-2 22.21a2.55 2.55 0 0 0 2.57 2.82z" fill="#407bff"/><path d="m257.2 210.38 43.88.13a3.14 3.14 0 0 0 3.07-2.8l2-22.22a2.55 2.55 0 0 0 -2.57-2.82l-43.88-.13a3.15 3.15 0 0 0 -3.07 2.81l-2 22.21a2.55 2.55 0 0 0 2.57 2.82z" opacity=".3"/><path d="m258.49 210.29 43.88.13a3.14 3.14 0 0 0 3.07-2.81l2-22.21a2.54 2.54 0 0 0 -2.56-2.82l-43.88-.13a3.16 3.16 0 0 0 -3.07 2.81l-2 22.21a2.54 2.54 0 0 0 2.56 2.82z" fill="#407bff"/><path d="m258.49 210.29 43.88.13a3.14 3.14 0 0 0 3.07-2.81l2-22.21a2.54 2.54 0 0 0 -2.56-2.82l-43.88-.13a3.16 3.16 0 0 0 -3.07 2.81l-2 22.21a2.54 2.54 0 0 0 2.56 2.82z" fill="#fff" opacity=".2"/><path d="m284.77 196.75a3.1 3.1 0 1 1 -2.77-3.4 3.1 3.1 0 0 1 2.77 3.4z" fill="#fff"/><path d="m303 210.39c0 1.33-.79 2.41-1.75 2.41l-45.29-.18c-.49 0-.89-.54-.89-1.2s.4-1.22.89-1.22z" fill="#407bff"/><path d="m303 210.39c0 1.33-.79 2.41-1.75 2.41l-45.29-.18c-.49 0-.89-.54-.89-1.2s.4-1.22.89-1.22z" opacity=".3"/><path d="m255.68 212.63h-21.8a2.1 2.1 0 0 1 -2.1-2.1.32.32 0 0 1 .32-.33h23.58a1.21 1.21 0 0 1 1.21 1.22 1.21 1.21 0 0 1 -1.21 1.21z" fill="#407bff"/><path d="m243.9 195.8 3.62-1.06-.33 8.91s-7.86 1.85-8.35-1.77l1-1.95c.87-1.68 2.07-3.64 4.06-4.13z" fill="#ff8b7b"/><path d="m252.94 197.21-1.07 5-4.68 1.43.33-8.9z" fill="#ff8b7b"/><path d="m254.37 288.81 15 5.09 3.07-6.2-16.59-5.27zm43.09-10.85 13.83-7.72-2.54-6.43-15.03 8.78z" fill="#407bff"/><path d="m257.69 129.64c2.06-.12 2.9-2.55 2.65-3.59a5.34 5.34 0 0 0 -2.32-3.33c.66-2-.23-4.44-2.71-6.13a6.9 6.9 0 0 0 -6-.44c0-1.81-3.33-3-5.47-.74a4.8 4.8 0 0 0 -5.73.51 2 2 0 0 0 -.64 1.93 4.73 4.73 0 0 0 -3.88 7.35c.67 1 2.26 1 3.46.74a4.81 4.81 0 0 0 3.09 2.27c3.95 1.31 9.38.08 10.34 0a4 4 0 0 1 2.77.55 2.1 2.1 0 0 1 -1.57.87 5.92 5.92 0 0 1 -1.78-.09 6.23 6.23 0 0 0 4.54.93 21.15 21.15 0 0 1 2.08-.91c.48-.07 1.22.15 1.17.08z" fill="#263238"/></svg>