<svg viewBox="0 0 500 500" xmlns="http://www.w3.org/2000/svg"><path d="m0 382.4h500v.25h-500zm416.78 16.09h33.12v.25h-33.12zm-94.25 2.72h8.69v.25h-8.69zm74.06-12h19.19v.25h-19.19zm-344.13 1.68h43.19v.25h-43.19zm52.1 0h6.33v.25h-6.33zm26.91 4.22h93.68v.25h-93.68zm105.53-57.31h-193.09a5.71 5.71 0 0 1 -5.7-5.71v-271.43a5.71 5.71 0 0 1 5.7-5.66h193.09a5.71 5.71 0 0 1 5.71 5.71v271.38a5.71 5.71 0 0 1 -5.71 5.71zm-193.09-282.6a5.46 5.46 0 0 0 -5.45 5.46v271.43a5.46 5.46 0 0 0 5.45 5.46h193.09a5.47 5.47 0 0 0 5.46-5.46v-271.43a5.47 5.47 0 0 0 -5.46-5.46zm409.4 282.6h-193.1a5.72 5.72 0 0 1 -5.71-5.71v-271.43a5.72 5.72 0 0 1 5.71-5.66h193.1a5.71 5.71 0 0 1 5.69 5.66v271.43a5.71 5.71 0 0 1 -5.69 5.71zm-193.1-282.6a5.47 5.47 0 0 0 -5.46 5.46v271.43a5.47 5.47 0 0 0 5.46 5.46h193.1a5.47 5.47 0 0 0 5.46-5.46v-271.43a5.47 5.47 0 0 0 -5.46-5.46z" fill="#ebebeb"/><path d="m277.77 100.22h150.75v133.77h-150.75z" fill="#e6e6e6"/><path d="m281.54 103.89h143.01v126.51h-143.01z" fill="#f0f0f0"/><path d="m315.11 103.89-33.57 126.23v-59.32l17.72-66.91zm11.88 0-33.85 126.51h-5.41l33.86-126.51zm97.56 79.82v20.22l-6.85 26.47h-5.4z" fill="#fff"/><path d="m329.01 101.61h2.41v131.61h-2.41zm46.69 0h2.41v131.61h-2.41z" fill="#e6e6e6"/><path d="m67.57 122.07h95.98v260.37h-95.98z" fill="#f5f5f5" transform="matrix(-1 0 -0 -1 231.11 504.51)"/><path d="m72.82 127.79h85.47v42.47h-85.47z" fill="#ebebeb" transform="matrix(-1 0 -0 -1 231.11 298.05)"/><path d="m121.17 143.83h26.43v26.43h-26.43z" fill="#f0f0f0" transform="matrix(-1 0 -0 -1 268.78 314.09)"/><path d="m92.87 151.45h18.81v18.81h-18.81z" fill="#f0f0f0" transform="matrix(-1 0 -0 -1 204.55 321.71)"/><path d="m72.82 174.72h85.47v42.47h-85.47z" fill="#ebebeb" transform="matrix(-1 0 -0 -1 231.11 391.9)"/><path d="m134.88 190.76h12.72v26.43h-12.72z" fill="#f0f0f0" transform="matrix(-1 0 -0 -1 282.48 407.94)"/><path d="m92.87 206.35h28.3v10.83h-28.3z" fill="#f0f0f0" transform="matrix(-1 0 -0 -1 214.04 423.54)"/><path d="m99.07 190.19h27.48v16.16h-27.48z" fill="#f0f0f0" transform="matrix(-1 0 -0 -1 225.62 396.55)"/><path d="m72.82 221.64h85.47v42.47h-85.47z" fill="#ebebeb" transform="matrix(-1 0 -0 -1 231.11 485.76)"/><path d="m121.17 237.68h5.38v26.43h-5.38z" fill="#f0f0f0" transform="matrix(-1 0 -0 -1 247.72 501.8)"/><path d="m78.68 228.34h33v35.77h-33z" fill="#f0f0f0" transform="matrix(-1 0 -0 -1 190.36 492.46)"/><path d="m72.82 268.57h85.47v42.47h-85.47z" fill="#ebebeb" transform="matrix(-1 0 -0 -1 231.11 579.61)"/><path d="m121.17 284.61h26.43v26.43h-26.43z" fill="#f0f0f0" transform="matrix(-1 0 -0 -1 268.78 595.65)"/><path d="m92.87 292.23h18.81v18.81h-18.81z" fill="#f0f0f0" transform="matrix(-1 0 -0 -1 204.55 603.27)"/><path d="m72.82 315.5h85.47v42.47h-85.47z" fill="#ebebeb" transform="matrix(-1 0 -0 -1 231.11 673.46)"/><g fill="#f0f0f0"><path d="m121.17 331.54h26.43v26.43h-26.43z" transform="matrix(-1 0 -0 -1 268.78 689.5)"/><path d="m92.87 339.15h18.81v18.81h-18.81z" transform="matrix(-1 0 -0 -1 204.55 697.12)"/><path d="m121.17 108.98h28.95v13.09h-28.95z" transform="matrix(-1 0 -0 -1 271.3 231.05)"/><path d="m95.18 115.52h14.9v6.55h-14.9z" transform="matrix(-1 0 -0 -1 205.26 237.6)"/></g><path d="m186.61 165.34h48.95l-.75-6.61h-48.95zm3.5 30.94h48.95l-.75-6.62h-48.95zm3.51 30.94h48.95l-.75-6.62h-48.95zm3.5 30.93h48.95l-.75-6.62h-48.95zm3.51 30.94h48.95l-.75-6.62h-48.95zm3.5 30.93h48.95l-.75-6.61h-48.95zm3.51 30.94h48.95l-.75-6.61h-48.95z" fill="#f5f5f5"/><path d="m256.79 382.44h7.66l-26.84-236.88h-7.66zm-49.88 0h7.66l-26.83-236.88h-7.67zm127.06-74.54h83.12v74.54h-83.12z" fill="#ebebeb"/><path d="m333.97 307.9h28.93v74.54h-28.93z" fill="#e0e0e0"/><path d="m350.51 248.76h83.12v60.68h-83.12z" fill="#f5f5f5"/><path d="m350.51 248.76h28.93v60.68h-28.93z" fill="#ebebeb"/><path d="m333.97 219.05h80.15v29.7h-80.15z" fill="#fafafa"/><path d="m333.97 219.05h27.9v29.7h-27.9z" fill="#f0f0f0"/><ellipse cx="250" cy="416.24" fill="#f5f5f5" rx="193.89" ry="11.32"/><path d="m307.45 119.67h28.73a8.85 8.85 0 0 1 8.85 8.85v25a8.85 8.85 0 0 1 -8.85 8.85h-6.36l1 7.89-7-7.89h-16.37a8.84 8.84 0 0 1 -8.84-8.85v-25a8.84 8.84 0 0 1 8.84-8.85z" fill="#407bff"/><path d="m307.45 119.67h28.73a8.85 8.85 0 0 1 8.85 8.85v25a8.85 8.85 0 0 1 -8.85 8.85h-6.36l1 7.89-7-7.89h-16.37a8.84 8.84 0 0 1 -8.84-8.85v-25a8.84 8.84 0 0 1 8.84-8.85z" fill="#fff" opacity=".7"/><path d="m321.82 136c-5.77-6-12.24-3.52-12.24 2.32s12.24 13.93 12.24 13.93 12.24-8.08 12.24-13.93-6.47-8.32-12.24-2.32z" fill="#407bff"/><path d="m296.83 230.92-7.16-3.28-.75 7.53s7.21 2 8.27-.08z" fill="#eec1bb"/><path d="m283.23 230.5.83 5.37 4.86-.7.75-7.53z" fill="#eec1bb"/><path d="m337.67 214.82s-12.39 11.36-15.7 13-26.48 2.18-26.48 2.18l.86 6.68s21.48 2.46 28.15.71c6.52-1.71 17.4-10.82 17.4-10.82z" fill="#263238"/><path d="m341.9 226.52-.7.58c-1 .83-3.14 2.49-5.64 4.25-3.51 2.48-7.83 5.14-11.05 6-6.69 1.75-28.16-.71-28.16-.71l-.86-6.68s23.13-.37 26.48-2.09 15.69-13 15.69-13l2.72 7.49.93 2.56z" fill="#fff" opacity=".2"/><path d="m341.31 224.88a11.8 11.8 0 0 1 -.11 2.22c-1 .83-3.14 2.49-5.64 4.25.62-4 3.79-7.88 4.82-9 .2-.23.32-.35.32-.35a8.59 8.59 0 0 1 .61 2.88z" opacity=".2"/><path d="m381.11 259.38s-.45 7.76-4.24 21.36a215.84 215.84 0 0 1 -8.64 24.71 255.96 255.96 0 0 1 -6.55 14.46c-1.12 2.31-2.32 4.66-3.58 7.07-1.45 41.16-24.55 83-24.55 83-1.28.66-5.75-.06-5.72-1.36 3.42-5.43 10.15-58.17 14.49-83.19.27-3.4.66-7 1.14-10.81 1.27-10.1 3.15-21.08 5-30.74 2.87-15.22 5.6-27.15 5.6-27.15l7.61.74z" fill="#eec1bb"/><path d="m390.19 316.36q-.92 6.64-2.37 14.21c8.25 27.53-8.72 81.26-8.72 81.26-2.87.57-5.41.2-6.7-.77 3.2-16.19.9-58.28-1.59-83.43-.22-2.28-.5-4.79-.8-7.47-.51-4.54-1.12-9.54-1.77-14.71-1.1-8.65-2.33-17.75-3.44-25.82-1.36-9.75-2.54-18-3.15-22.15-.25-1.82-.4-2.85-.4-2.85l23.82 2.58s6.06 6.79 7 28a173.45 173.45 0 0 1 -1.88 31.15z" fill="#eec1bb"/><path d="m390.19 316.36a73.86 73.86 0 0 1 -20.18 3.8c-.51-4.54-1.12-9.54-1.77-14.71a255.96 255.96 0 0 1 -6.55 14.46 49.83 49.83 0 0 1 -18.22-5.28c1.27-10.1 3.15-21.08 5-30.74a29.82 29.82 0 0 1 8.1-3.27 36 36 0 0 1 8.26-1 63.14 63.14 0 0 1 12.08 1.11 76.15 76.15 0 0 1 15.09 4.48 173.45 173.45 0 0 1 -1.81 31.15z" opacity=".2"/><path d="m379.69 418.86h-1.33l-.37-1.64-4.39 2h-11.14s-1.77-1.78 3.54-3.19a4.42 4.42 0 0 0 .75-.29c2.82-1.33 6.85-5.81 6.85-5.81h6.11a8.61 8.61 0 0 1 .5.89c.67 1.32 1.79 4.18-.52 8.04z" fill="#263238"/><path d="m380.21 410.8c-.81-.9-4.48 3.05-7.17 4.4-2.4 1.19-5.1 1.72-6.29.51 2.82-1.33 7.27-7.12 7.27-7.12h4.91s.99 1.63 1.28 2.21z" fill="#ffc2bc"/><path d="m333.3 418.86h-1.3l-.37-1.64-4.4 2h-11.15s-1.77-1.78 3.53-3.19a4.42 4.42 0 0 0 .75-.29c2.83-1.33 6.85-5.81 6.85-5.81h6.11a6.76 6.76 0 0 1 .5.89c.67 1.32 1.82 4.18-.52 8.04z" fill="#263238"/><path d="m333.82 410.8c-.8-.9-4.47 3.05-7.16 4.4-2.4 1.19-5.1 1.72-6.3.51 2.83-1.33 7.28-7.12 7.28-7.12h4.91s.99 1.63 1.27 2.21z" fill="#ffc2bc"/><path d="m353.6 254.63h31.63l.86 4.08s11.62 16.08 5.73 56.18c0 0-25.45 2.94-49.42-2.2 0 0 5.38-41.2 11-54.65z" fill="#263238"/><path d="m365.36 249.79a.61.61 0 0 1 -.61.62.62.62 0 0 1 0-1.24.61.61 0 0 1 .61.62z" fill="#fff" opacity=".6"/><path d="m337.11 193.42a31.21 31.21 0 0 1 2.54 8.1s17-2.86 20.05-7.13-.87-22.76-10.24-21.71-17.89 10.32-12.35 20.74z" fill="#263238"/><path d="m362.7 204.22s-14.25 13.65-15.2 5.56c0 0-6.24 1.9-9.54 5.68 0 0 .75 10.93 11.76 37.48l-1.59 11.75 10.94 1.88 3.28-9.61 7.15 7.83 16.65-10.87-6.7-9.07s-5.58-24-3.66-36.31c0 0-3.28-7.54-13.09-4.32z" fill="#407bff"/><path d="m362.7 204.22s-14.25 13.65-15.2 5.56c0 0-6.24 1.9-9.54 5.68 0 0 1.22 11.67 11.76 37.48l-1.59 11.75 10.94 1.88 3.28-9.61 7.15 7.83 16.65-10.87-6.7-9.07s-5.58-24-3.66-36.31c0 0-3.28-7.54-13.09-4.32z" fill="#fff" opacity=".7"/><path d="m357.08 190c.19 4.68 1.24 13 4.94 15 0 0 4.79 1.86-6.69 5.09-.25 2.67-2.4 8.91-2.4 8.91s-3.24-4.25-3-6.23c-7.52 1.67-1.31-3.56-1.31-3.56 4.53-2.69 3.55-6.3 1.91-9.46z" fill="#eec1bb"/><path d="m354.42 194-3.87 5.77a14 14 0 0 1 1 2.31c1.77-.85 3.81-3.7 3.54-5.73a6.81 6.81 0 0 0 -.67-2.35z" opacity=".2"/><path d="m358.05 180.21c.87 7.37 1.4 10.46-1.52 15-4.4 6.9-13.44 6.82-16.45 0-2.71-6.16-3.69-17.17 2.76-21.72a9.51 9.51 0 0 1 15.21 6.72z" fill="#eec1bb"/><path d="m350.49 177.06c5.39 3.75-.71 11.93 7.08 9.12s1.08-12.94-4.4-14-2.68 4.88-2.68 4.88zm-3.1 7.77c.1.62-.13 1.19-.52 1.28s-.78-.34-.88-1 .13-1.19.52-1.28.78.39.88 1zm-7.24 1.81c.1.62-.13 1.19-.51 1.28s-.78-.33-.89-.95.14-1.19.52-1.28.78.31.88.95z" fill="#263238"/><path d="m339.45 185.69-1.49-.1s.92.99 1.49.1z" fill="#263238"/><path d="m342.34 187.18a18.46 18.46 0 0 1 -1.46 4.42 2.5 2.5 0 0 0 2.17-.08z" fill="#d4827d"/><path d="m347.46 180a.32.32 0 0 1 -.27 0 2.67 2.67 0 0 0 -2.53-.15.33.33 0 0 1 -.46-.16.39.39 0 0 1 .16-.5 3.37 3.37 0 0 1 3.2.16.39.39 0 0 1 .11.51.43.43 0 0 1 -.21.14zm-9.97 3.76a.3.3 0 0 1 -.26 0 .35.35 0 0 1 -.16-.48 3.83 3.83 0 0 1 2.53-2.28.34.34 0 0 1 .39.3.39.39 0 0 1 -.3.43 3 3 0 0 0 -2 1.79.34.34 0 0 1 -.2.24zm9.2.11-1.49-.09s.91.98 1.49.09z" fill="#263238"/><path d="m346.58 174.05s3.94 7.77 9.82 7.43-1.62-8.75-1.62-8.75-2.54-4.08-9.9-1.77-13.5 12.45-7.77 22.46a12.46 12.46 0 0 1 -.79-6.8c.75-3.34 3.19-1.43 10.26-12.57z" fill="#263238"/><path d="m350.89 170.42c8.75.67 13.18 4.88 14.3 10.75s-4 14.05-5.05 14.62l-3.34 1.59s3-9.17 1.2-11.38-2.95-2.13-2.95-2.13z" fill="#263238"/><path d="m360.83 186.71a5.12 5.12 0 0 1 -2.14 3.52c-1.49.94-2.77-.7-2.82-2.72 0-1.82.69-4.51 2.4-4.6s2.86 1.91 2.56 3.8z" fill="#eec1bb"/><path d="m344.48 193.13a23.7 23.7 0 0 1 2.75 2.26c.17-.12.33-.24.5-.38 2.25-1.73 2.72-3.28 2.56-4.47a3.66 3.66 0 0 0 -.67-1.6 3.59 3.59 0 0 0 -.67-.73c-.64 1.63-2.61 3.41-3.71 4.31-.45.39-.76.61-.76.61z" fill="#263238"/><path d="m345.24 192.52.83.65c2.11-1.64 3.38-3.08 3.55-4.23a3.59 3.59 0 0 0 -.67-.73c-.64 1.63-2.61 3.41-3.71 4.31z" fill="#fff"/><path d="m347.73 195c2.25-1.73 2.72-3.28 2.56-4.47a9.12 9.12 0 0 0 -2.12 2.42 3.39 3.39 0 0 0 -.44 2.05z" fill="#de5753"/><path d="m397.6 269.19-10.13 4.11s-15.72-22.22-20.47-31.68c-.33-.64-.6-1.22-.81-1.73a25.13 25.13 0 0 1 -.86-2.51 54 54 0 0 1 -1.38-7c-1.29-9.64-1-22 1.65-26.7 0 0 3.61-.46 4.95-.48s5.23.26 5.23.26c-.4 2.54-.22 7 .23 12.06.42 4.65 1.07 9.82 1.72 14.48 1.1 7.84 2.21 14.22 2.21 14.22 10.29 10.29 17.66 24.97 17.66 24.97z" fill="#263238"/><path d="m397.6 269.19-10.13 4.11s-15.72-22.22-20.47-31.68c-.33-.64-.6-1.22-.81-1.73a25.13 25.13 0 0 1 -.86-2.51 54 54 0 0 1 -1.38-7c-1.29-9.64-1-22 1.65-26.7 0 0 3.61-.46 4.95-.48s5.23.26 5.23.26c-.4 2.54-.22 7 .23 12.06.42 4.65 1.07 9.82 1.72 14.48 1.1 7.84 2.21 14.22 2.21 14.22 10.29 10.29 17.66 24.97 17.66 24.97z" fill="#fff" opacity=".2"/><path d="m363.62 216.64 3.26 4.05-.29 3.64-1.08 13.38-.18-.33a35.77 35.77 0 0 1 -2.46-6.29c-1.92-6.51-3.24-17 2.73-27.42 0 0 1 4.1 2.76 13z" fill="#263238"/><path d="m377.73 230c-1.58 3.73-3.49 7.86-4.62 9-1.42 1.38-4.28 2.25-6.11 2.68-.33-.64-.6-1.22-.81-1.73a25.13 25.13 0 0 1 -.86-2.51 35.77 35.77 0 0 1 -2.46-6.29l1-.69c.65-.5 1.63-3 2.64-6 1.86-5.46 3.69-12.46 3.69-12.46a9.91 9.91 0 0 1 5.8 3.5c.43 4.65 1.08 9.82 1.73 14.5z" opacity=".2"/><path d="m352.46 250.89-2.79 27.44-4.15 1.3 3.63-27.7s-.76-1.3-1.89-3.52-2.54-5.16-4-8.7c-2.88-7.1-5.72-16.31-5.67-24.88a26.31 26.31 0 0 1 6.5-3.87c.44-.18.9-.34 1.36-.49 0 0-2 8.87 3 27.67.06.23.12.48.19.72v.1c.68 2.48 1.47 5.13 2.41 8q.68 1.87 1.41 3.93z" fill="#263238"/><path d="m352.46 250.89-2.79 27.44-4.15 1.3 3.63-27.7s-.76-1.3-1.89-3.52-2.54-5.16-4-8.7c-2.88-7.1-5.72-16.31-5.67-24.88a26.31 26.31 0 0 1 6.5-3.87c.44-.18.9-.34 1.36-.49 0 0-2 8.87 3 27.67.06.23.12.48.19.72v.1c.68 2.48 1.47 5.13 2.41 8q.68 1.87 1.41 3.93z" fill="#fff" opacity=".2"/><path d="m348.67 238.94-.41-.75-6.71-12.35 1.54-3-3.3 3.59s1.63-13.29 3.55-14.87a7.74 7.74 0 0 1 .77-.56 3.4 3.4 0 0 1 2.27-.77c-2.3 2.4 1.31 23.44 2.12 27.93.06.35.11.6.13.74z" fill="#263238"/><path d="m351.08 246.9c-1 .43-2.49 1-3.82 1.51-1.1-2.15-2.54-5.16-4-8.7 1.26-.33 3-.83 5-1.52l.2-.07h.06c.06.35.11.6.13.74v.1c.7 2.46 1.49 5.11 2.43 7.94z" opacity=".2"/><path d="m351.56 206.4s-2.94 3.8-1.62 6.4l-5.94 3.59s1.78-7.67 7.56-9.99zm13.95 4.5-9.87-.1s3.54-5.31 4.37-7.85l3.66 1.3c.13.15 1.69 2.05 1.84 6.65z" fill="#407bff"/><path d="m351.56 206.4s-2.94 3.8-1.62 6.4l-5.94 3.59s1.78-7.67 7.56-9.99zm13.95 4.5-9.87-.1s3.54-5.31 4.37-7.85l3.66 1.3c.13.15 1.69 2.05 1.84 6.65z" fill="#fff" opacity=".6"/><path d="m347.27 241.52-7.87-.12 2.34 7.2s7.4-1.07 7.53-3.41z" fill="#eec1bb"/><path d="m334.65 246.62 2.93 4.58 4.16-2.6-2.35-7.2z" fill="#eec1bb"/><path d="m375.78 203.44c8 5-2.71 33.19-4.85 34.79s-21.93 8.44-21.93 8.44l-4.36-5.95s19.4-9.33 20.86-10.22 5-20.05 5-20.05z" fill="#263238"/><path d="m375.78 203.44c8 5-2.71 33.19-4.85 34.79s-21.93 8.44-21.93 8.44l-4.36-5.95s19.4-9.33 20.86-10.22 5-20.05 5-20.05z" fill="#fff" opacity=".2"/><path d="m171.61 412.61 7.88 1.66 8.42-13.84-7.88-1.67z" fill="#eec1bb"/><path d="m181.08 410.94h-8.82a.63.63 0 0 0 -.62.5l-1.43 6.46a1.07 1.07 0 0 0 .82 1.27h.24c2.85-.05 4.93-.23 8.52-.23 2.21 0 8.87.23 11.91.23s3.45-3 2.2-3.28c-5.6-1.22-9.81-2.91-11.6-4.52a1.72 1.72 0 0 0 -1.22-.43z" fill="#263238"/><path d="m181.58 411.94a.16.16 0 0 1 -.13-.14.16.16 0 0 1 .08-.17c.26-.17 2.61-1.61 3.41-1.19a.52.52 0 0 1 .3.48 1 1 0 0 1 -.36.92 2.17 2.17 0 0 1 -1.4.37 8.71 8.71 0 0 1 -1.9-.27zm.5-.24a3.52 3.52 0 0 0 2.59-.13.71.71 0 0 0 .23-.62c0-.13-.07-.2-.11-.2a.45.45 0 0 0 -.23 0 7.21 7.21 0 0 0 -2.48.95z" fill="#407bff"/><path d="m181.53 412a.18.18 0 0 1 -.08-.16c0-.1.19-2.19 1-2.87a.88.88 0 0 1 .73-.22.57.57 0 0 1 .55.45c.15.77-1.3 2.37-2 2.77h-.08a.17.17 0 0 1 -.12.03zm1.17-2.83a4.13 4.13 0 0 0 -.86 2.28c.75-.57 1.67-1.78 1.58-2.25 0 0 0-.17-.25-.17h-.08a.58.58 0 0 0 -.39.12z" fill="#407bff"/><path d="m180.03 398.76 7.88 1.67-4.35 7.14-7.88-1.67z" opacity=".2"/><path d="m145.56 365.71c.43 0 5.22 0 5.67-.08a128.93 128.93 0 0 0 25.45-5.23c7.43-2.24 12.57-4.32 12.57-4.32 1.75 9.85-14.25 47.63-14.25 47.63l13.05.81s36.49-53.83 20.94-70.61c-11.61-12.52-46.11 1.08-46.11 1.08l-3.23-7.38-34.88 4s-9.57 35.72 20.79 34.1z" fill="#263238"/><path d="m145.56 365.71c.43 0 5.22 0 5.67-.08a128.93 128.93 0 0 0 25.45-5.23c7.43-2.24 12.57-4.32 12.57-4.32 1.75 9.85-14.25 47.63-14.25 47.63l13.05.81s36.49-53.83 20.94-70.61c-11.61-12.52-46.11 1.08-46.11 1.08l-3.23-7.38-34.88 4s-9.57 35.72 20.79 34.1z" fill="#fff" opacity=".2"/><path d="m187.4 406.06-13.01-2.08 1.25-3.54 14.15 2.95z" fill="#407bff"/><path d="m149.92 365.71 1.31-.08a128.93 128.93 0 0 0 25.45-5.23c-12.63-2.32-24.68-11.4-24.68-11.4z" opacity=".2"/><path d="m83.24 397.85-.68 7.22 16.69 2.18.68-7.24z" fill="#eec1bb"/><path d="m83.3 406.16.83-8.79a.65.65 0 0 0 -.44-.66l-6.3-2a1.08 1.08 0 0 0 -1.35.7 2.23 2.23 0 0 0 0 .23c-.22 2.85-.24 4.94-.58 8.5-.21 2.2-1.06 8.81-1.34 11.85s2.67 3.71 3.06 2.49c1.7-5.48 3.82-9.48 5.55-11.15a1.79 1.79 0 0 0 .57-1.17z" fill="#263238"/><path d="m82.25 406.56a.18.18 0 0 1 .16-.12.18.18 0 0 1 .16.1c.14.27 1.36 2.75.87 3.51a.55.55 0 0 1 -.51.25 1.05 1.05 0 0 1 -.89-.45 2.19 2.19 0 0 1 -.23-1.42 9.09 9.09 0 0 1 .44-1.87zm.2.52a3.49 3.49 0 0 0 -.12 2.58.7.7 0 0 0 .6.29c.13 0 .2 0 .21-.09a.52.52 0 0 0 .07-.22 7.21 7.21 0 0 0 -.76-2.56z" fill="#407bff"/><path d="m82.22 406.51a.17.17 0 0 1 .16-.07c.1 0 2.17.39 2.77 1.29a1 1 0 0 1 .15.75.56.56 0 0 1 -.5.51c-.78.07-2.23-1.52-2.57-2.3v-.09a.15.15 0 0 1 -.01-.09zm2.71 1.42a4.15 4.15 0 0 0 -2.19-1.07c.49.8 1.61 1.83 2.09 1.79 0 0 .18 0 .2-.24v-.08a.64.64 0 0 0 -.1-.4z" fill="#407bff"/><path d="m99.92 400.01-.68 7.24-8.6-1.13.68-7.24z" opacity=".2"/><path d="m154.19 340c2.65 3.93 13.94 63.3-2 74.61-11.72 8.31-58.81-5.46-58.81-5.46l.82-12s39.64 4.75 43.34 1.54-13.09-43.81-14-51.67 30.65-7.02 30.65-7.02z" fill="#263238"/><path d="m187.4 406.06-13.01-2.08 1.25-3.54 14.15 2.95z" fill="#fff" opacity=".5"/><path d="m154.19 340c2.65 3.93 13.94 63.3-2 74.61-11.72 8.31-58.81-5.46-58.81-5.46l.82-12s39.64 4.75 43.34 1.54-13.09-43.81-14-51.67 30.65-7.02 30.65-7.02z" fill="#fff" opacity=".2"/><path d="m95.84 396.2-.97 14.51-3.64-.92 1.64-14.37z" fill="#407bff"/><path d="m95.84 396.2-.97 14.51-3.64-.92 1.64-14.37z" fill="#fff" opacity=".5"/><path d="m142.44 268.8c4.86-.56 9.76-1 14.63-1.52s9.78-.94 14.48-1.54c1 0 2.74-1 4.41-2.36 5.33-4.45 9.83-10.2 14.19-15.72l4 2.39a84.71 84.71 0 0 1 -7.75 13.16c-3.28 4.31-7.22 9.37-12.84 10.83-5.16 1.1-10.25 1.84-15.43 2.52-4.92.66-9.83 1.23-14.78 1.65l-.93-9.41z" fill="#ebc0bb"/><path d="m139.59 283.41c5.76 3.63 26.69-4 26.69-4l-3.63-12.89a70.64 70.64 0 0 0 -18.11 1.67c-9 2.31-11.36 11.18-4.95 15.22z" fill="#407bff"/><path d="m139.59 283.41c5.76 3.63 26.69-4 26.69-4l-3.63-12.89a70.64 70.64 0 0 0 -18.11 1.67c-9 2.31-11.36 11.18-4.95 15.22z" fill="#fff" opacity=".2"/><path d="m140.32 283.79c-.67-3 1.11-5.83 6.94-7.73a56.34 56.34 0 0 1 17.48-2.1l1.54 5.49s-19.4 7.12-25.96 4.34z" opacity=".1"/><path d="m187.19 252 3.45-9.57 7.77 4.32s-1.47 7-7.31 8zm8.81-14.44 5.03 4.61-2.62 4.57-7.77-4.32z" fill="#eec1bb"/><path d="m147.27 268.26s12.75 19.28 13.37 60.15l-37.27 8c-1.49-5.67-3.9-34.35-15.21-60.12a98.55 98.55 0 0 1 12.14-4.29 140.92 140.92 0 0 1 15.84-3.41 71.9 71.9 0 0 1 11.13-.33z" fill="#407bff"/><path d="m160.64 328.41-37.27 8c-.93-3.55-2.23-16.12-5.84-31.36-1-4.06-2.09-8.33-3.43-12.65a154.13 154.13 0 0 0 -5.94-16.11 98.78 98.78 0 0 1 12.13-4.29 139.35 139.35 0 0 1 15.85-3.41 72 72 0 0 1 11.14-.37s12.72 19.32 13.36 60.19z" fill="#fff" opacity=".2"/><path d="m120 253.44c1.81 5 4.27 14.29 1.2 18.28 5.26 1.34 9 2.2 13.81 5.32 1-3.39 2.21-7.79 2.21-7.79-6-.48-6.47-4.77-6.09-8.93z" fill="#eec1bb"/><path d="m124.58 256.25 6.58 4.07a16.81 16.81 0 0 0 0 2.92c-2.24 0-5.63-1.93-6.22-4.19a8 8 0 0 1 -.36-2.8z" opacity=".2"/><path d="m115.67 273.44 2.84-4.13 10.28 1.2 5.58 5.52.14-6.85 1.74-2.42 4.29 1.49.31 4.26-3.03-.75-2.13 6.13-8.33-2.73-1.64 2.43z" fill="#263238"/><path d="m115.67 273.44 2.84-4.13 10.28 1.2 5.58 5.52.14-6.85 1.74-2.42 4.29 1.49.31 4.26-3.03-.75-2.13 6.13-8.33-2.73-1.64 2.43z" fill="#fff" opacity=".3"/><path d="m135.69 277.89.46-7.18 4.7 1.8-3.03-.75zm0 0-7.9-4.96-2.07 4.66 1.64-2.43zm-18.16 27.17c-1-4.06-2.09-8.33-3.43-12.65a7.92 7.92 0 0 1 4.64-3.18s1.76 9.88-1.21 15.83z" opacity=".1"/><path d="m114.1 284.16c-.83 9-2.22 18.45-1.53 27.49.06.41.14.88.19 1.1a1.13 1.13 0 0 0 -.29-.3c-.12-.08-.16 0 0 0 1 .55 3.23.44 4.67.31a81.78 81.78 0 0 0 12.62-2.67l1.92 4.27a51.58 51.58 0 0 1 -13.28 5.64c-13.64 3.13-15-4.81-15.12-16.2a149.06 149.06 0 0 1 1.45-20.8l9.37 1.21z" fill="#ebc0bb"/><path d="m108.16 276.3c-9.8 5-7.38 29.06-7.38 29.06l13.84-.05a124.39 124.39 0 0 0 5-19c1.38-9.16-4.95-13.31-11.46-10.01z" fill="#407bff"/><path d="m108.16 276.3c-9.8 5-7.38 29.06-7.38 29.06l13.84-.05a124.39 124.39 0 0 0 5-19c1.38-9.16-4.95-13.31-11.46-10.01z" fill="#fff" opacity=".2"/><path d="m126.86 310.83 7.26-7.12 5.13 7.26s-4.37 5.69-10.06 4z" fill="#eec1bb"/><path d="m141.06 301.66 2.53 6.33-4.34 2.98-5.13-7.26z" fill="#eec1bb"/><path d="m132.52 233.72c3.71 1.21 6.79 10.94 2.53 13.58s-9.56-15.86-2.53-13.58z" fill="#263238"/><path d="m117.6 246.28c2.29 6.8 3.28 10.89 7.75 13.61a9.33 9.33 0 0 0 14.26-8.34c-.18-6.55-3.9-16.57-11.45-17.73a9.44 9.44 0 0 0 -10.56 12.46z" fill="#eec1bb"/><path d="m124.24 237-1.13-6c-14-2.85-18.31 11-11.52 18.31 3.56 3.83 7.25 5.28 9.35 3.13 2-1.27 1.42-8.5.41-11.08-1.52-3.93 2.89-4.36 2.89-4.36z" fill="#263238"/><path d="m116.8 253.73a7.66 7.66 0 0 0 4.72 2.14c2.24.13 2.5-2 1.17-3.8-1.2-1.66-3.82-3.73-5.72-3s-1.79 3.11-.17 4.66z" fill="#eec1bb"/><path d="m128.67 245.75c.15.56.58.95 1 .86s.54-.61.39-1.17-.57-.95-.94-.86-.6.61-.45 1.17zm6.4-1.49c.16.56.58.94 1 .86s.55-.62.39-1.18-.57-.94-.94-.86-.6.61-.45 1.18z" fill="#263238"/><path d="m133.11 245a21.81 21.81 0 0 0 4 4.17 3.29 3.29 0 0 1 -2.57 1.14z" fill="#d4827d"/><path d="m126.14 244.16a.32.32 0 0 1 -.17 0 .35.35 0 0 1 -.19-.45 3.29 3.29 0 0 1 2.35-2 .33.33 0 0 1 .39.28.33.33 0 0 1 -.28.39 2.62 2.62 0 0 0 -1.83 1.59.32.32 0 0 1 -.27.19zm11.1-2.73a.34.34 0 0 1 -.3-.12 2.87 2.87 0 0 0 -2.29-1.06.34.34 0 0 1 -.38-.3.35.35 0 0 1 .31-.38 3.58 3.58 0 0 1 2.88 1.3.35.35 0 0 1 0 .48.33.33 0 0 1 -.22.08zm-24.54-7.36c-1 4.35 10.44 7.37 18.28 4.15a6.34 6.34 0 0 1 -2.4-.54s7.24-.69 8.54-6.1l-1.22 1s1-4.48-1.58-6.83l-.14 1.45s-3.59-3.08-7.75-1.25l1.64.49s-13.55-.03-15.37 7.63zm23.39 18.1a46 46 0 0 0 -8.82-.4c.79 1.94 2.24 3.51 5.56 3.43a3 3 0 0 0 3.26-3.03z" fill="#263238"/><path d="m131.27 253.69a6.05 6.05 0 0 1 3.63.89 3.49 3.49 0 0 1 -2.07.62 6 6 0 0 1 -3.62-.89 3.45 3.45 0 0 1 2.06-.62z" fill="#a02724"/><path d="m135.79 252.12c-.18.42-.35.84-1 1a33.69 33.69 0 0 1 -5.75-.4 1.85 1.85 0 0 1 -1.49-.93 52.66 52.66 0 0 1 8.24.33z" fill="#fff"/><path d="m208.6 241.78c0 3.33-4.63 6-10.26 5.91s-10.15-2.81-10.11-6.14 4.63-6 10.25-5.9 10.16 2.81 10.12 6.13z" fill="#263238"/><path d="m213 230.8a3 3 0 0 0 .93-2c0-3.26-6.87-6-15.43-6.08s-15.53 2.47-15.57 5.73a3 3 0 0 0 .89 2 2.4 2.4 0 0 0 -.27 1 2.83 2.83 0 0 0 .91 2 2.28 2.28 0 0 0 -.29 1.06 2.77 2.77 0 0 0 .94 2 2.12 2.12 0 0 0 -.32 1.08 2.72 2.72 0 0 0 1 1.94 2.11 2.11 0 0 0 -.34 1.09c0 2.71 5.71 5 12.83 5.06s12.91-2 12.94-4.77a2.08 2.08 0 0 0 -.32-1.1 2.7 2.7 0 0 0 1-1.92 2.24 2.24 0 0 0 -.29-1.08 2.83 2.83 0 0 0 1-1.94 2.33 2.33 0 0 0 -.27-1.07 2.86 2.86 0 0 0 1-1.95 2.44 2.44 0 0 0 -.34-1.05z" fill="#263238"/><path d="m213 230.8a3 3 0 0 0 .93-2c0-3.26-6.87-6-15.43-6.08s-15.53 2.47-15.57 5.73a3 3 0 0 0 .89 2 2.4 2.4 0 0 0 -.27 1 2.83 2.83 0 0 0 .91 2 2.28 2.28 0 0 0 -.29 1.06 2.77 2.77 0 0 0 .94 2 2.12 2.12 0 0 0 -.32 1.08 2.72 2.72 0 0 0 1 1.94 2.11 2.11 0 0 0 -.34 1.09c0 2.71 5.71 5 12.83 5.06s12.91-2 12.94-4.77a2.08 2.08 0 0 0 -.32-1.1 2.7 2.7 0 0 0 1-1.92 2.24 2.24 0 0 0 -.29-1.08 2.83 2.83 0 0 0 1-1.94 2.33 2.33 0 0 0 -.27-1.07 2.86 2.86 0 0 0 1-1.95 2.44 2.44 0 0 0 -.34-1.05z" fill="#fff" opacity=".3"/><path d="m225.84 202a27.43 27.43 0 1 0 -45.06 20.69 4.51 4.51 0 0 1 1.62 3.92 1.5 1.5 0 0 0 0 .22c0 3.31 7 6.08 15.68 6.18s15.77-2.51 15.81-5.83v-.21a4.55 4.55 0 0 1 1.71-3.97 27.35 27.35 0 0 0 10.24-21z" fill="#407bff"/><path d="m225.84 202a27.43 27.43 0 1 0 -45.06 20.69 4.51 4.51 0 0 1 1.62 3.92 1.5 1.5 0 0 0 0 .22c0 3.31 7 6.08 15.68 6.18s15.77-2.51 15.81-5.83v-.21a4.55 4.55 0 0 1 1.71-3.97 27.35 27.35 0 0 0 10.24-21z" fill="#fff" opacity=".7"/><path d="m203 228.47a.25.25 0 0 1 -.2-.28c.08-.53 2-12.73 8.47-17.15h-4.34a.23.23 0 0 1 -.22-.15l-1.41-3.41-3.3 6.52a.25.25 0 0 1 -.22.14.23.23 0 0 1 -.21-.14l-3.13-6.73-3.25 5.82c-.05.08-.14.14-.21.12a.24.24 0 0 1 -.21-.12l-3.11-5.88-1.49 3.41a.22.22 0 0 1 -.23.14h-4.59c1.63 1.74 7.56 8.69 7.46 17.37 0 .14-.11.27-.24.24a.24.24 0 0 1 -.24-.24c.11-9.8-7.63-17.37-7.71-17.44a.23.23 0 0 1 -.06-.26.26.26 0 0 1 .23-.15l5 .05 1.63-3.71a.25.25 0 0 1 .21-.15.25.25 0 0 1 .22.13l3.15 5.9 3.27-5.85a.26.26 0 0 1 .22-.12.22.22 0 0 1 .2.14l3.12 6.7 3.27-6.63a.23.23 0 0 1 .22-.13.23.23 0 0 1 .21.15l1.55 3.75 5 .06a.24.24 0 0 1 .12.44c-6.81 3.88-8.91 17.12-8.94 17.25a.24.24 0 0 1 -.24.21z" fill="#263238"/><path d="m212.37 186.07c0 5.34-6.25 9.68-14 9.68s-14-4.34-14-9.68 6.25-9.69 14-9.69 14 4.34 14 9.69zm-3.77 30.76c0 3.9-4.56 7.07-10.19 7.07s-10.18-3.17-10.18-7.07 4.56-7.07 10.18-7.07 10.19 3.17 10.19 7.07z" fill="#fff" opacity=".2"/><path d="m178.67 173.07c5.54-6.59 26.57-11 38.18-.59 0 0-4-6.18 0-11.46 0 0-5.28 3.43-10 0s-5.85-20.57-5.85-20.57-1.11 17.41-8.87 19-12.73-9.45-12.73-9.45 4.22 12.11 2.11 14-6.33 0-6.33 0zm-12.39 12.02s-7.64 14.83 0 28.09a12.2 12.2 0 0 0 -10.75-1.18s3-3.17 2.57-6.53-14.24-8.11-14.24-8.11 10.88 1 13.25-2.77-6-11.07-6-11.07 9.15 4.94 11.13 3.36 0-6.53 0-6.53zm61.84 30.54s7.72-10.7 1.58-26.95l5.3-3.18s-2 3.39-.79 5.54 12.46.66 12.46.66-8.9 1.79-9.29 6.49 11.07 11.57 11.07 11.57-10.48-2.62-12.65 0 2.47 7.7 2.47 7.7-5.2-3.73-10.15-1.83zm-60.59 116.42h100.74v87.16h-100.74z" fill="#407bff"/><path d="m167.53 332.05h100.74v87.16h-100.74z" fill="#fff" opacity=".7"/><path d="m192 411.93a4.16 4.16 0 0 0 3.36-4.25h-3.31l-.47 1h.31l-1.18 2 .66-1.69h-.5l.47-1.33h-3.54a4.16 4.16 0 0 0 3.35 4.25v3.14l-1.91 1v.58h4.76v-.58l-1.92-1zm-22.49-4.36h8.8v8.8h-8.8zm83.2-1.51h12.26v10.18h-12.26zm-48.39-67.81h14.51v9.23h-14.51z" opacity=".5"/><path d="m167.53 332.05h33.5v87.16h-33.5z" opacity=".1"/><path d="m184.21 354.01h-33.5l16.82-21.96h33.5z" fill="#407bff"/><path d="m201.03 332.05-15.78 25.31-17.72 6.74v-32.05z" opacity=".1"/><path d="m216.78 352.03h67.24l-15.75-19.98h-67.24z" fill="#407bff"/><path d="m184.21 354.01h-33.5l16.82-21.96h33.5zm32.57-1.98h67.24l-15.75-19.98h-67.24z" fill="#fff" opacity=".6"/></svg>