<svg xmlns="http://www.w3.org/2000/svg" viewBox="0 0 64 64" fill="rgb(26, 170, 226)">
  <path
    d="M48 32a16 16 0 1 0-16 16 16.019 16.019 0 0 0 16-16Zm-19.5 6.411a15.134 15.134 0 0 1 7.006 0C34.722 43.17 33.172 46 32 46s-2.722-2.83-3.5-7.589Zm.192 7.177a13.957 13.957 0 0 1-5.664-2.857c.15-1.479 1.517-2.809 3.545-3.68a19.707 19.707 0 0 0 2.116 6.537ZM32 18c1.172 0 2.722 2.83 3.5 7.589a15.134 15.134 0 0 1-7.006 0C29.278 20.83 30.828 18 32 18Zm-5.43 6.949c-2.028-.871-3.395-2.2-3.545-3.68a13.957 13.957 0 0 1 5.664-2.857 19.707 19.707 0 0 0-2.119 6.537Zm8.741-6.537a13.957 13.957 0 0 1 5.664 2.857c-.15 1.479-1.517 2.809-3.545 3.68a19.707 19.707 0 0 0-2.119-6.537ZM32 28a17.088 17.088 0 0 0 3.775-.417c.112 1.064.181 2.211.208 3.417h-7.966c.027-1.206.1-2.353.208-3.417A17.088 17.088 0 0 0 32 28Zm3.983 5a43.635 43.635 0 0 1-.208 3.417 17.3 17.3 0 0 0-7.55 0A41.773 41.773 0 0 1 28.017 33Zm1.447 6.051c2.028.871 3.4 2.2 3.545 3.68a13.957 13.957 0 0 1-5.664 2.857 19.707 19.707 0 0 0 2.119-6.537Zm5.17 2.067A8.262 8.262 0 0 0 37.717 37c.148-1.3.237-2.643.267-4h7.965a13.923 13.923 0 0 1-3.349 8.118ZM45.949 31h-7.965c-.03-1.355-.119-2.7-.267-4a8.262 8.262 0 0 0 4.884-4.12A13.923 13.923 0 0 1 45.949 31ZM21.4 22.882A8.262 8.262 0 0 0 26.283 27a44.098 44.098 0 0 0-.267 4h-7.965a13.923 13.923 0 0 1 3.349-8.118ZM18.051 33h7.965c.03 1.355.119 2.7.267 4a8.262 8.262 0 0 0-4.884 4.12A13.923 13.923 0 0 1 18.051 33ZM61 51.733a1 1 0 0 0 .639-1.769l-4.5-3.734A1 1 0 0 0 56.5 46h-9a1 1 0 0 0-.639.23l-4.5 3.734A1 1 0 0 0 43 51.733v.734c0 .045.011.088.013.133H43V61a1 1 0 0 0 1 1h8a1 1 0 0 0 1-1v-.866h2V61a1 1 0 0 0 1 1h4a1 1 0 0 0 1-1v-8.4h-.013c0-.045.013-.088.013-.133Zm-6 .734a1 1 0 0 1-2 0v-.734h2Zm-4 0a1 1 0 0 1-2 0v-.734h2Zm6-.734h2v.734a1 1 0 0 1-2 0ZM47.861 48h8.278l2.09 1.733H45.771ZM47 51.733v.734a1 1 0 0 1-2 0v-.734ZM57 60v-.866a1 1 0 0 0-1-1h-4a1 1 0 0 0-1 1V60h-6v-4.718a2.943 2.943 0 0 0 1 .185 2.981 2.981 0 0 0 2-.78 2.954 2.954 0 0 0 4 0 2.954 2.954 0 0 0 4 0 2.908 2.908 0 0 0 3 .6V60Zm4.639-54.036-4.5-3.734A1 1 0 0 0 56.5 2h-9a1 1 0 0 0-.639.23l-4.5 3.734A1 1 0 0 0 43 7.733v.734c0 .045.011.088.013.133H43V17a1 1 0 0 0 1 1h8a1 1 0 0 0 1-1v-.866h2V17a1 1 0 0 0 1 1h4a1 1 0 0 0 1-1V8.6h-.013c0-.045.013-.088.013-.133v-.734a1 1 0 0 0 .639-1.769ZM47.861 4h8.278l2.09 1.733H45.771ZM55 8.467a1 1 0 0 1-2 0v-.734h2Zm-4 0a1 1 0 0 1-2 0v-.734h2Zm-4-.734v.734a1 1 0 0 1-2 0v-.734ZM57 16v-.866a1 1 0 0 0-1-1h-4a1 1 0 0 0-1 1V16h-6v-4.718a2.943 2.943 0 0 0 1 .185 2.981 2.981 0 0 0 2-.78 2.954 2.954 0 0 0 4 0 2.954 2.954 0 0 0 4 0 2.908 2.908 0 0 0 3 .6V16Zm2-7.533a1 1 0 0 1-2 0v-.734h2ZM2.06 51.073a1 1 0 0 0 .94.66v.734c0 .045.011.088.013.133H3V61a1 1 0 0 0 1 1h8a1 1 0 0 0 1-1v-.866h2V61a1 1 0 0 0 1 1h4a1 1 0 0 0 1-1v-8.4h-.013c0-.045.013-.088.013-.133v-.734a1 1 0 0 0 .639-1.769l-4.5-3.734A1 1 0 0 0 16.5 46h-9a1 1 0 0 0-.639.23l-4.5 3.734a1 1 0 0 0-.301 1.109Zm8.94.66v.734a1 1 0 0 1-2 0v-.734Zm4 0v.734a1 1 0 0 1-2 0v-.734Zm-8 .734a1 1 0 0 1-2 0v-.734h2ZM17 60v-.866a1 1 0 0 0-1-1h-4a1 1 0 0 0-1 1V60H5v-4.718a2.943 2.943 0 0 0 1 .185 2.981 2.981 0 0 0 2-.78 2.954 2.954 0 0 0 4 0 2.954 2.954 0 0 0 4 0 2.908 2.908 0 0 0 3 .6V60Zm2-7.533a1 1 0 0 1-2 0v-.734h2ZM7.861 48h8.278l2.09 1.733H5.771ZM2.06 7.073a1 1 0 0 0 .94.66v.734c0 .045.011.088.013.133H3V17a1 1 0 0 0 1 1h8a1 1 0 0 0 1-1v-.866h2V17a1 1 0 0 0 1 1h4a1 1 0 0 0 1-1V8.6h-.013c0-.045.013-.088.013-.133v-.734a1 1 0 0 0 .639-1.769l-4.5-3.734A1 1 0 0 0 16.5 2h-9a1 1 0 0 0-.639.23l-4.5 3.734a1 1 0 0 0-.301 1.109Zm8.94.66v.734a1 1 0 0 1-2 0v-.734Zm4 0v.734a1 1 0 0 1-2 0v-.734Zm-8 .734a1 1 0 0 1-2 0v-.734h2ZM17 16v-.866a1 1 0 0 0-1-1h-4a1 1 0 0 0-1 1V16H5v-4.718a2.943 2.943 0 0 0 1 .185 2.981 2.981 0 0 0 2-.78 2.954 2.954 0 0 0 4 0 2.954 2.954 0 0 0 4 0 2.908 2.908 0 0 0 3 .6V16Zm2-7.533a1 1 0 0 1-2 0v-.734h2ZM7.861 4h8.278l2.09 1.733H5.771ZM58 20h-2a5.006 5.006 0 0 1-5 5v2a7.008 7.008 0 0 0 7-7Zm-45 5a5.006 5.006 0 0 1-5-5H6a7.008 7.008 0 0 0 7 7ZM6 43h2a5.006 5.006 0 0 1 5-5v-2a7.008 7.008 0 0 0-7 7Zm45-5a5.006 5.006 0 0 1 5 5h2a7.008 7.008 0 0 0-7-7Z" />
</svg>