<svg xmlns="http://www.w3.org/2000/svg" viewBox="0 0 512 512" fill="rgb(26, 170, 226)">
  <path
    d="M272.1 44c-4.1 0-7.5-3.4-7.5-7.5V23.6c0-4.8-3.9-8.6-8.6-8.6s-8.6 3.9-8.6 8.6v12.9c0 4.1-3.4 7.5-7.5 7.5s-7.5-3.4-7.5-7.5V23.6C232.4 10.6 243 0 256 0s23.6 10.6 23.6 23.6v12.9c0 4.1-3.4 7.5-7.5 7.5Zm-32.2 303.1c-4.1 0-7.5-3.4-7.5-7.5V228.5c0-4.1 3.4-7.5 7.5-7.5s7.5 3.4 7.5 7.5v111.1c0 4.1-3.4 7.5-7.5 7.5Zm32.2 0c-4.1 0-7.5-3.4-7.5-7.5V228.4c0-4.1 3.4-7.5 7.5-7.5s7.5 3.4 7.5 7.5v111.2c0 4.1-3.4 7.5-7.5 7.5Z" />
  <path
    d="M339.4 269.7c-6.4 0-12.4-2.8-16.5-7.8-13.7-16.7-39.3-27.1-66.9-27.1s-53.3 10.4-66.9 27.1c-4.1 5-10.1 7.8-16.5 7.8s-12.4-2.8-16.5-7.8c-13.7-16.7-39.3-27.1-66.9-27.1s-52.9 10.1-67 26.3c-3.7 4.2-9.6 5.5-14.7 3.1-5.1-2.3-8-7.6-7.3-13.1C8.9 187.6 41 129.8 90.7 88.6c3.2-2.6 7.9-2.2 10.6 1s2.2 7.9-1 10.6c-44.8 37.2-74.4 88.7-84 145.5 17.5-16.3 44.2-25.9 73-25.9s61.8 12.2 78.5 32.5c1.7 2 3.8 2.3 4.9 2.3s3.2-.3 4.9-2.3c16.7-20.4 46.1-32.5 78.5-32.5s61.8 12.2 78.5 32.5c1.7 2 3.8 2.3 4.9 2.3s3.2-.3 4.9-2.3c16.7-20.4 46.1-32.5 78.5-32.5s55.4 9.6 73 25.9c-9.2-54.6-37.2-104.6-79.2-141.4C372.3 65.4 315.3 44 256.2 44s-93 13.5-132.4 39.1c-3.5 2.3-8.1 1.3-10.4-2.2-2.3-3.5-1.3-8.1 2.2-10.4C157.5 43.4 206.1 29 256.2 29s123.3 22.7 170.4 64c46.7 40.9 77 97.1 85.3 158.1.8 5.5-2.2 10.8-7.3 13.1-5.1 2.3-11 1.1-14.7-3.2-14.2-16.2-39.8-26.3-67-26.3s-53.3 10.4-66.9 27.1c-4.1 5-10.1 7.8-16.5 7.8Z" />
  <path
    d="M178.9 267.1c-1.5 0-3.1-.3-4.6-.9-5.1-2-8.3-7-8-12.5 1.9-29.3 6.9-85.5 19.5-133.5 15.9-60.6 39.5-91.3 70.2-91.3s54.3 30.7 70.2 91.3c12.6 48 17.6 104.2 19.5 133.5.3 5.5-2.9 10.5-8 12.5s-10.9.4-14.4-3.9c-2.6-3.2-2.1-7.9 1.2-10.5 1.7-1.4 3.9-1.9 6-1.5-2-29.7-7-81.7-18.7-126.2-9.6-36.5-27.1-80.1-55.7-80.1s-46.1 43.6-55.7 80.1c-11.7 44.5-16.7 96.5-18.7 126.2 2-.4 4.2.1 6 1.5 3.2 2.6 3.7 7.3 1.2 10.5a12.5 12.5 0 0 1-9.8 4.7ZM66.4 457.2c-7.1 0-12.9-5.8-12.9-12.9v-43.8c0-7.1 5.8-12.9 12.9-12.9s7.5 3.4 7.5 7.5-2.3 6.3-5.4 7.2v40.2c3.1.9 5.4 3.8 5.4 7.2s-3.4 7.5-7.5 7.5Zm173.3 0c-4.1 0-7.5-3.4-7.5-7.5v-54.5c0-4.1 3.4-7.5 7.5-7.5s7.5 3.4 7.5 7.5v54.5c0 4.1-3.4 7.5-7.5 7.5Zm-54 0c-4.1 0-7.5-3.4-7.5-7.5v-54.5c0-4.1 3.4-7.5 7.5-7.5s7.5 3.4 7.5 7.5v54.5c0 4.1-3.4 7.5-7.5 7.5Z" />
  <path
    d="M326.8 511.7H34.2c-7.1 0-12.9-5.8-12.9-12.9V455c0-7.1 5.8-12.9 12.9-12.9h273.1c4.1 0 7.5 3.4 7.5 7.5s-3.4 7.5-7.5 7.5h-271v39.5h288.3v-19.8c0-4.1 3.4-7.5 7.5-7.5s7.5 3.4 7.5 7.5v21.9c0 7.1-5.8 12.9-12.9 12.9Z" />
  <path
    d="M207.5 511.7h-54c-4.1 0-7.5-3.4-7.5-7.5v-54.5c0-4.1 3.4-7.5 7.5-7.5h54c4.1 0 7.5 3.4 7.5 7.5v54.5c0 4.1-3.4 7.5-7.5 7.5Zm-46.5-15h39v-39.5h-39v39.5Zm119.5-94.1H34.2c-7.1 0-12.9-5.8-12.9-12.9v-43.8c0-7.1 5.8-12.9 12.9-12.9h243.3c4.1 0 7.5 3.4 7.5 7.5s-3.4 7.5-7.5 7.5H36.3v39.6h244.2c4.1 0 7.5 3.4 7.5 7.5s-3.4 7.5-7.5 7.5Z" />
  <path
    d="M207.5 402.6h-54c-4.1 0-7.5-3.4-7.5-7.5v-54.5c0-4.1 3.4-7.5 7.5-7.5h54c4.1 0 7.5 3.4 7.5 7.5v54.5c0 4.1-3.4 7.5-7.5 7.5Zm-46.5-15h39V348h-39v39.6ZM383.4 512c-10.3 0-20.5-2.8-29.3-8.4-24.8-15.8-45.8-37.3-60.8-62-15.5-25.7-24.3-54.5-25.2-83.3-.6-18.2 9.7-34.7 26.3-42.1l66.7-29.9c14-6.3 30.7-6.3 44.7 0l66.7 29.9c16.6 7.4 26.9 24 26.3 42.1-1.2 36.6-14.9 73.1-38.4 102.8-2.6 3.2-7.3 3.8-10.5 1.2-3.2-2.6-3.8-7.3-1.2-10.5 21.6-27.2 34.1-60.6 35.2-94 .4-12-6.5-23-17.5-28l-66.7-29.9c-10.1-4.6-22.3-4.6-32.4 0l-66.7 29.9c-11 4.9-17.9 15.9-17.5 28 .9 26.3 8.9 52.6 23.1 76 13.8 22.8 33.2 42.6 56 57.2 12.7 8.1 29.7 8.1 42.4 0 8.8-5.6 17.1-11.9 24.6-18.7 3.1-2.8 7.8-2.5 10.6.6s2.5 7.8-.6 10.6c-8.1 7.3-17.1 14.1-26.6 20.2-8.8 5.6-19 8.4-29.3 8.4Z" />
  <path
    d="M383.4 482.1c-4.7 0-9.2-1.3-13.1-3.8-20.7-13.2-38.3-31.1-50.9-51.6-13.1-21.5-20.5-45.5-21.3-69.5-.2-5.9 3.2-11.4 8.6-13.8l66.7-29.9h.1c6.5-2.8 13.4-2.8 19.9 0h.1l66.7 29.9c5.4 2.4 8.8 7.8 8.6 13.8-.8 24-8.2 48.1-21.3 69.5-12.6 20.5-30.2 38.3-50.9 51.6-3.9 2.5-8.5 3.8-13.1 3.8ZM313 357c.8 21.3 7.4 42.7 19.1 61.9 11.4 18.6 27.4 34.8 46.2 46.8 3 1.9 7.1 1.9 10.1 0 18.8-12 34.8-28.2 46.2-46.8 11.7-19.2 18.4-40.6 19.1-61.9l-66.3-29.8c-2.8-1.2-5.2-1.2-8 0L313.1 357Z" />
</svg>